<svg width="146" height="92" viewBox="0 0 146 92" fill="none" xmlns="http://www.w3.org/2000/svg">
<path d="M126.618 1.45286L104.837 16.0951C103.733 16.8373 103.648 18.4303 104.666 19.2861L109.892 23.6769C110.574 24.2505 111.554 24.303 112.294 23.8055L134.074 9.16326C135.178 8.4211 135.264 6.8281 134.245 5.9723L129.02 1.5815C128.338 1.00786 127.358 0.955391 126.618 1.45286Z" fill="#D1D1D2"/>
<path d="M138.372 37.3454L114.483 37.6171C113.291 37.6307 112.375 38.6773 112.52 39.8604L113.281 46.0651C113.405 47.0766 114.27 47.8331 115.289 47.8215L139.178 47.5498C140.37 47.5362 141.285 46.4896 141.14 45.3065L140.379 39.1018C140.255 38.0903 139.391 37.3338 138.372 37.3454Z" fill="#D1D1D2"/>
<path d="M132.493 77.8915L113.713 63.1238C112.776 62.3869 111.407 62.6282 110.778 63.6408L107.48 68.9513C106.943 69.817 107.142 70.9486 107.943 71.5785L126.723 86.3462C127.66 87.0831 129.029 86.8418 129.658 85.8292L132.956 80.5187C133.494 79.653 133.294 78.5214 132.493 77.8915Z" fill="#D1D1D2"/>
<path d="M1.6875 27.7272V60.0033C1.6875 61.1079 2.58293 62.0033 3.6875 62.0033H19.0793C23.7621 62.0033 28.3799 63.0996 32.5631 65.2043L60.2145 79.117C64.3977 81.2217 69.0155 82.318 73.6983 82.318H86.2061C87.3107 82.318 88.2061 81.4225 88.2061 80.318V7.41254C88.2061 6.30797 87.3107 5.41254 86.2061 5.41254H73.6983C69.0155 5.41254 64.3977 6.50878 60.2145 8.61352L32.563 22.5262C28.3799 24.6309 23.7621 25.7272 19.0793 25.7272H3.6875C2.58293 25.7272 1.6875 26.6226 1.6875 27.7272Z" fill="#D1D1D2" stroke="#D1D1D2" stroke-width="2"/>
</svg>
