<svg width="21" height="20" viewBox="0 0 21 20" fill="none" xmlns="http://www.w3.org/2000/svg">
<path fill-rule="evenodd" clip-rule="evenodd" d="M8.90435 10.9304C6.17366 10.9304 3.96193 8.73942 3.96193 6.03439C3.96193 3.32937 6.17366 1.13843 8.90435 1.13843C11.635 1.13843 13.8468 3.32937 13.8468 6.03439C13.8468 8.73942 11.635 10.9304 8.90435 10.9304ZM2.31445 18.2743C2.31445 14.669 5.26485 11.7464 8.90435 11.7464C12.5439 11.7464 15.4943 14.669 15.4943 18.2743H13.8468C13.8468 15.5703 11.634 13.3783 8.90435 13.3783C6.17473 13.3783 3.96193 15.5703 3.96193 18.2743H2.31445ZM12.1993 6.03439C12.1993 7.83774 10.7248 9.29837 8.90435 9.29837C7.08389 9.29837 5.6094 7.83774 5.6094 6.03439C5.6094 4.23105 7.08389 2.77042 8.90435 2.77042C10.7248 2.77042 12.1993 4.23105 12.1993 6.03439Z" fill="#B227C1"/>
<path d="M15.7271 12.32C18.0917 13.3749 19.6121 15.7053 19.6118 18.2743H17.9643C17.9647 16.3475 16.8244 14.5995 15.0508 13.8084L15.7262 12.32L15.7271 12.32Z" fill="#F7DD01"/>
<path d="M15.1604 3.10742C16.8577 3.80049 17.9651 5.43975 17.9644 7.25839C17.9651 9.57932 16.179 11.5178 13.8457 11.7284V10.0858C15.0986 9.90805 16.088 8.94158 16.2849 7.70305C16.4819 6.46451 15.8403 5.24358 14.7032 4.6929L15.1604 3.10742V3.10742Z" fill="#F7DD01"/>
</svg>
