<svg width="26" height="16" viewBox="0 0 26 16" fill="none" xmlns="http://www.w3.org/2000/svg">
<path d="M21.6969 0.778745L18.9363 2.63462C18.4371 2.9702 18.3985 3.69051 18.859 4.07747C19.1677 4.33685 19.6108 4.36058 19.9454 4.13564L22.706 2.27977C23.2051 1.94419 23.2437 1.22388 22.7832 0.836912C22.4746 0.57753 22.0315 0.553806 21.6969 0.778745Z" fill="white"/>
<path d="M23.5869 6.69611L20.5656 6.73047C20.0443 6.7364 19.6439 7.19414 19.7073 7.71159C19.7616 8.15397 20.1398 8.48482 20.5855 8.47975L23.6068 8.44539C24.1281 8.43946 24.5285 7.98173 24.465 7.46427C24.4108 7.02189 24.0326 6.69104 23.5869 6.69611Z" fill="white"/>
<path d="M22.68 13.3418L20.3049 11.4741C19.8951 11.1518 19.2961 11.2573 19.0211 11.7002C18.786 12.0788 18.8732 12.5737 19.2235 12.8492L21.5986 14.7169C22.0084 15.0392 22.6074 14.9337 22.8824 14.4908C23.1175 14.1122 23.0303 13.6173 22.68 13.3418Z" fill="white"/>
<path d="M0.650391 6.70197V8.91579C0.650391 10.0204 1.54582 10.9158 2.65039 10.9158H4.61198C4.76808 10.9158 4.92201 10.9523 5.06144 11.0225L11.5533 14.2888C11.6927 14.359 11.8467 14.3955 12.0028 14.3955H13.4704C14.5749 14.3955 15.4704 13.5001 15.4704 12.3955V3.22223C15.4704 2.11766 14.5749 1.22223 13.4704 1.22223H12.0028C11.8467 1.22223 11.6927 1.25877 11.5533 1.32893L5.06144 4.59527C4.92201 4.66543 4.76808 4.70197 4.61198 4.70197H2.65039C1.54582 4.70197 0.650391 5.5974 0.650391 6.70197Z" fill="#F7DD01" stroke="white"/>
</svg>
