<svg width="34" height="34" viewBox="0 0 34 34" fill="none" xmlns="http://www.w3.org/2000/svg">
<path d="M26.9703 9.42036L23.0184 12.0771C22.8664 12.1793 22.8546 12.3986 22.9948 12.5165L24.032 13.388C24.126 13.467 24.2609 13.4742 24.3628 13.4057L28.3147 10.7489C28.4667 10.6468 28.4785 10.4274 28.3382 10.3096L27.3011 9.43807C27.2071 9.35909 27.0722 9.35187 26.9703 9.42036Z" fill="#B227C1"/>
<path d="M29.0522 15.7489L24.7087 15.7983C24.5446 15.8001 24.4186 15.9442 24.4385 16.1071L24.5906 17.3467C24.6076 17.4859 24.7267 17.5901 24.867 17.5885L29.2105 17.5391C29.3746 17.5372 29.5006 17.3931 29.4807 17.2302L29.3286 15.9907C29.3116 15.8514 29.1925 15.7473 29.0522 15.7489Z" fill="#B227C1"/>
<path d="M28.0051 22.9054L24.5906 20.2204C24.4616 20.1189 24.2731 20.1521 24.1865 20.2916L23.5277 21.3525C23.4537 21.4717 23.4811 21.6275 23.5914 21.7142L27.0059 24.3992C27.1349 24.5007 27.3234 24.4675 27.41 24.3281L28.0688 23.2672C28.1429 23.148 28.1154 22.9922 28.0051 22.9054Z" fill="#B227C1"/>
<path d="M5.00195 13.9865V19.8006C5.00195 19.9527 5.12524 20.076 5.27732 20.076H8.32245C8.96719 20.076 9.60297 20.2269 10.1789 20.5167L15.5111 23.1996C16.0871 23.4894 16.7229 23.6403 17.3676 23.6403H19.9067C20.0588 23.6403 20.1821 23.517 20.1821 23.365V10.4222C20.1821 10.2701 20.0588 10.1469 19.9067 10.1469H17.3676C16.7229 10.1469 16.0871 10.2978 15.5111 10.5876L10.1789 13.2704C9.60297 13.5602 8.96719 13.7112 8.32245 13.7112H5.27732C5.12524 13.7112 5.00195 13.8344 5.00195 13.9865Z" fill="#F7DD01" stroke="#B227C1" stroke-width="1.37681"/>
<circle cx="17.1016" cy="17.0999" r="15.8116" stroke="#B227C1" stroke-width="1.37681"/>
</svg>
