<svg width="41" height="41" viewBox="0 0 41 41" fill="none" xmlns="http://www.w3.org/2000/svg">
<circle cx="20.5001" cy="20.5001" r="18.0276" fill="#FFE200" stroke="#B227C1" stroke-width="0.389197"/>
<path d="M29.8303 26.9869H11.7088L7.07636 20.1409C5.06378 16.819 7.3927 12.9689 9.69456 11.9862C11.6272 11.1612 13.8378 11.3431 14.5277 11.9862C17.4271 10.2947 19.9641 11.5501 20.8702 12.3892C22.9643 10.4563 25.7698 11.3152 26.9107 11.9862C27.394 11.4225 29.2254 11.1816 30.9373 11.5839C34.9643 12.792 35.7697 18.1278 34.4614 20.1409L29.8303 26.9869Z" fill="#B227C1"/>
<path d="M12.8276 19.22C11.8611 17.4481 12.2235 15.0588 12.5255 14.0856C9.80741 13.5822 8.49841 16.7032 9.40449 18.8173C10.1293 20.5087 12.5254 23.1464 13.6328 24.2538C14.9419 25.3614 15.3446 24.1533 14.841 23.3477L12.8276 19.22Z" fill="#FFE200"/>
<path d="M28.5257 19.22C29.4921 17.4481 29.1297 15.0588 28.8277 14.0856C31.5458 13.5822 32.8548 16.7032 31.9487 18.8173C31.2239 20.5087 28.8278 23.1464 27.7204 24.2538C26.4114 25.3614 26.0087 24.1533 26.5123 23.3477L28.5257 19.22Z" fill="#FFE200"/>
<path d="M19.1537 23.7657V15.4189C19.1537 15.3465 19.1376 15.2733 19.1037 15.2094C18.0566 13.2303 15.3232 14.3151 15.0261 15.1076C14.8072 15.6913 14.9022 16.5945 14.9969 17.0836C15.0148 17.1758 15.0453 17.2649 15.0836 17.3507L17.9456 23.7657C18.59 24.6516 19.0195 24.1348 19.1537 23.7657Z" fill="#FFE200"/>
<path d="M22.2022 23.7657V15.4189C22.2022 15.3465 22.2184 15.2733 22.2522 15.2094C23.2993 13.2303 26.0327 14.3151 26.3299 15.1076C26.5488 15.6913 26.4537 16.5945 26.359 17.0836C26.3412 17.1758 26.3106 17.2649 26.2724 17.3507L23.4103 23.7657C22.766 24.6516 22.3365 24.1348 22.2022 23.7657Z" fill="#FFE200"/>
<path d="M11.5211 30.1227V27.8071H29.6426V30.1227H11.5211Z" fill="#B227C1"/>
</svg>
