<svg width="34" height="36" viewBox="0 0 34 36" fill="none" xmlns="http://www.w3.org/2000/svg">
<rect x="0.6875" y="0.6875" width="32.625" height="34.625" rx="6.05823" fill="url(#paint0_linear_258_925)" stroke="url(#paint1_linear_258_925)" stroke-width="0.625"/>
<ellipse cx="17.1291" cy="18.0005" rx="11.4839" ry="11.9134" fill="url(#paint2_linear_258_925)"/>
<path d="M11.438 13.543H23.3949V15.2992C23.3949 15.8627 22.9381 16.3195 22.3746 16.3195H11.438V13.543Z" fill="url(#paint3_linear_258_925)"/>
<path d="M11.438 18.6274H18.9284V20.5717C18.9284 21.0413 18.5478 21.422 18.0782 21.422H11.438V18.6274Z" fill="url(#paint4_linear_258_925)"/>
<path d="M11.438 23.2966H15.6438V25.0528C15.6438 25.6163 15.187 26.0731 14.6235 26.0731H11.438V23.2966Z" fill="url(#paint5_linear_258_925)"/>
<g filter="url(#filter0_d_258_925)">
<path d="M12.0962 9.25156C12.2565 9.25156 12.4183 9.25313 12.5817 9.25628C12.7483 9.25628 12.9117 9.25942 13.072 9.2657C13.2354 9.26885 13.3863 9.27827 13.5245 9.29399L13.4963 9.72768H12.2989C12.2046 9.72768 12.1339 9.74968 12.0868 9.79368C12.0396 9.83767 12.016 9.90681 12.016 10.0011V12.5137H11.4268V9.88324C11.4268 9.68525 11.4881 9.53126 11.6106 9.42127C11.7332 9.30813 11.8951 9.25156 12.0962 9.25156ZM11.5069 10.6469H13.3171V11.0806H11.5069V10.6469ZM15.4518 9.21385L15.4471 11.816C15.4471 11.904 15.4722 11.9716 15.5225 12.0187C15.5728 12.0627 15.645 12.0847 15.7393 12.0847H15.942L16.008 12.4854C15.9735 12.5011 15.9247 12.5152 15.8619 12.5278C15.8022 12.5404 15.7393 12.5482 15.6733 12.5514C15.6105 12.5577 15.5555 12.5608 15.5083 12.5608C15.3166 12.5608 15.1642 12.509 15.0511 12.4052C14.9379 12.3015 14.8814 12.1523 14.8814 11.9574V9.21385H15.4518ZM18.4236 10.1425C18.6091 10.1425 18.7646 10.1677 18.8903 10.2179C19.0192 10.2651 19.1166 10.3468 19.1826 10.4631C19.2486 10.5793 19.2816 10.7396 19.2816 10.9439V12.5137H18.829L18.7489 12.014L18.7065 11.948V10.9392C18.7065 10.8166 18.6782 10.7286 18.6216 10.6752C18.5651 10.6186 18.4566 10.5903 18.2964 10.5903C18.1769 10.5903 18.0261 10.5951 17.8438 10.6045C17.6647 10.6139 17.484 10.6265 17.3017 10.6422L17.2498 10.2509C17.3598 10.2289 17.484 10.2101 17.6222 10.1944C17.7605 10.1787 17.9004 10.1661 18.0418 10.1567C18.1832 10.1472 18.3105 10.1425 18.4236 10.1425ZM19.0365 11.09L19.0317 11.4436H17.9711C17.8768 11.4467 17.8092 11.4719 17.7684 11.519C17.7275 11.5662 17.7071 11.6306 17.7071 11.7123V11.8396C17.7071 11.9338 17.7322 12.0061 17.7825 12.0564C17.8328 12.1036 17.9114 12.1271 18.0182 12.1271C18.1031 12.1271 18.1974 12.1098 18.3011 12.0753C18.4048 12.0407 18.5069 11.9904 18.6075 11.9244C18.7112 11.8584 18.8039 11.7799 18.8856 11.6887V11.9857C18.8542 12.0328 18.8086 12.0894 18.7489 12.1554C18.6892 12.2183 18.6153 12.2811 18.5273 12.344C18.4425 12.4068 18.3435 12.4587 18.2304 12.4995C18.1204 12.5404 17.9978 12.5608 17.8627 12.5608C17.7244 12.5608 17.6002 12.5372 17.4903 12.4901C17.3803 12.4398 17.2938 12.3675 17.231 12.2733C17.1681 12.1758 17.1367 12.0564 17.1367 11.915V11.6699C17.1367 11.4876 17.1964 11.3462 17.3158 11.2456C17.4384 11.1419 17.605 11.09 17.8155 11.09H19.0365ZM22.9423 10.1991L22.254 11.3257L22.9988 12.5137H22.4096L21.693 11.3257L22.353 10.1991H22.9423ZM21.1933 10.1991L21.8533 11.3257L21.1462 12.5137H20.5475L21.2923 11.3257L20.6041 10.1991H21.1933ZM22.0937 11.123V11.5049H21.462V11.123H22.0937Z" fill="#DBB767"/>
</g>
<g filter="url(#filter1_i_258_925)">
<path d="M4.66652 21.5373L2.93364 22.1639L2.8418 21.8774L4.57468 21.2507L4.66652 21.5373ZM4.81981 21.9363C4.87185 22.0987 4.89755 22.2335 4.8963 22.3407C4.89505 22.4478 4.86182 22.536 4.7963 22.6056C4.73079 22.6751 4.62609 22.736 4.4822 22.788C4.33989 22.8395 4.22265 22.8595 4.13017 22.8482C4.0377 22.8369 3.96152 22.7913 3.90134 22.7117C3.84115 22.6322 3.78692 22.5167 3.73864 22.366C3.71231 22.2838 3.68849 22.2042 3.6678 22.1277C3.6468 22.0508 3.62956 21.9799 3.61608 21.9143C3.6026 21.8488 3.59225 21.7922 3.58536 21.7446C3.57846 21.697 3.57564 21.6634 3.57689 21.6438L3.72516 21.5998C3.75839 21.703 3.79256 21.8102 3.8283 21.921C3.86372 22.0318 3.89946 22.1426 3.93488 22.2535C3.96591 22.3447 3.99945 22.4136 4.03488 22.4605C4.0703 22.5074 4.11607 22.5334 4.17218 22.5387C4.22798 22.544 4.30039 22.5307 4.3891 22.4988C4.47938 22.4661 4.54521 22.4295 4.58659 22.3889C4.62765 22.3483 4.64928 22.2981 4.65148 22.2375C4.65367 22.1769 4.63988 22.101 4.61041 22.0092C4.559 21.8488 4.51355 21.7103 4.47468 21.5945C4.43549 21.4784 4.40791 21.4012 4.39161 21.3622L4.57468 21.2514C4.60477 21.3216 4.63173 21.3885 4.65587 21.4524C4.68 21.5163 4.70477 21.5862 4.73016 21.6624C4.75555 21.7386 4.78533 21.8301 4.81981 21.9373V21.9363Z" fill="#7D2283"/>
<path d="M5.41482 23.5065C5.45808 23.5964 5.50228 23.6879 5.54742 23.7814C5.59256 23.8749 5.63582 23.9675 5.6772 24.0596C5.71858 24.1515 5.75682 24.2404 5.79224 24.3256L5.6051 24.4137L5.24743 23.6726C5.22141 23.6187 5.19038 23.5854 5.15464 23.5734C5.1189 23.5611 5.07502 23.5691 5.02298 23.5974L4.07849 24.1112C4.02645 24.1395 3.99448 24.1728 3.98225 24.2114C3.97002 24.2497 3.97692 24.2959 4.00294 24.3498L4.36061 25.091L4.18632 25.1995C4.14181 25.1193 4.09667 25.0344 4.05121 24.9446C4.00576 24.8547 3.96031 24.7632 3.91423 24.6703C3.86846 24.5775 3.82363 24.486 3.78037 24.3961C3.72646 24.2846 3.71016 24.1818 3.73147 24.0876C3.75247 23.9934 3.80671 23.9212 3.89385 23.8716L4.94681 23.2988C5.0374 23.2519 5.12455 23.2469 5.20793 23.2842C5.29163 23.3215 5.36028 23.396 5.41388 23.5072L5.41482 23.5065ZM4.5791 23.5598L5.06812 24.5732L4.88631 24.672L4.39729 23.6586L4.5791 23.5598Z" fill="#7D2283"/>
<path d="M6.28014 25.1023L4.79146 26.2332L4.6272 25.9893L6.11588 24.8584L6.28014 25.1023ZM6.53844 25.4421C6.62904 25.5766 6.68985 25.6951 6.72057 25.7972C6.75129 25.8994 6.74816 25.9929 6.71085 26.0781C6.67386 26.1633 6.59894 26.2485 6.48672 26.3341C6.40772 26.3943 6.33406 26.4336 6.26666 26.4529C6.19895 26.4718 6.135 26.4705 6.07419 26.4482C6.01338 26.4259 5.95288 26.3797 5.89237 26.3091L5.88172 26.3174C5.89488 26.3497 5.90209 26.3863 5.90366 26.4272C5.90523 26.4682 5.89958 26.5124 5.88673 26.5594C5.87388 26.6063 5.8488 26.6526 5.81213 26.6978L5.45195 27.2137L5.27609 26.9524L5.64034 26.4522C5.68172 26.391 5.70241 26.3344 5.7021 26.2825C5.7021 26.2306 5.68297 26.1766 5.64536 26.1207C5.57577 26.0172 5.51621 25.9284 5.46731 25.8538C5.41809 25.7793 5.37765 25.7167 5.34536 25.6655C5.31308 25.6142 5.28643 25.5729 5.26543 25.542L5.44317 25.4182L5.82153 25.98C5.87701 26.0592 5.92811 26.1164 5.97419 26.1507C6.02027 26.1853 6.06949 26.1979 6.12246 26.189C6.17513 26.18 6.23657 26.1487 6.3071 26.0951C6.37763 26.0415 6.42497 25.9899 6.44942 25.9407C6.47355 25.8911 6.47794 25.8378 6.46196 25.7803C6.44597 25.7227 6.41117 25.6538 6.35694 25.5733C6.26384 25.4355 6.18296 25.3167 6.114 25.2178C6.04504 25.1187 5.99896 25.0521 5.97576 25.0175L6.11651 24.8584C6.16416 24.9163 6.20836 24.9722 6.24911 25.0258C6.28955 25.0794 6.33249 25.1393 6.37826 25.2052C6.42371 25.2711 6.47763 25.35 6.53938 25.4421H6.53844Z" fill="#7D2283"/>
<path d="M7.59081 26.8355C7.65538 26.9067 7.72027 26.9793 7.78547 27.0528C7.85068 27.1264 7.91494 27.1993 7.97826 27.2718C8.04158 27.3444 8.09957 27.4153 8.15255 27.4848L7.99738 27.6223L7.48956 27.0611C7.44473 27.0116 7.40272 26.9853 7.36291 26.9823C7.32341 26.9793 7.28266 26.9992 7.24034 27.0422L6.19773 28.1058L6.00024 27.8875L7.07922 26.7869C7.15571 26.7087 7.23972 26.6751 7.33125 26.6854C7.42279 26.6957 7.5093 26.746 7.59112 26.8362L7.59081 26.8355ZM6.78361 27.159L7.50899 27.9604L7.35978 28.1125L6.6344 27.3111L6.78361 27.159Z" fill="#7D2283"/>
<path d="M9.15189 28.2934C9.26631 28.3873 9.35408 28.4805 9.41521 28.573C9.47633 28.6659 9.50893 28.7624 9.5127 28.8629C9.51646 28.9634 9.49232 29.0739 9.43966 29.1944C9.38699 29.3148 9.30549 29.4509 9.19546 29.6024C9.08637 29.7525 8.98324 29.8703 8.88638 29.9558C8.78951 30.0413 8.69484 30.0946 8.60237 30.1162C8.5099 30.1379 8.41366 30.1289 8.31366 30.0896C8.21366 30.0503 8.10646 29.9838 7.99204 29.8902C7.87762 29.7964 7.78985 29.7032 7.72872 29.6107C7.66759 29.5178 7.63468 29.421 7.62998 29.3201C7.62527 29.219 7.6491 29.1078 7.70176 28.986C7.75411 28.8642 7.83499 28.7281 7.94408 28.578C8.05411 28.4262 8.15786 28.3084 8.25504 28.2242C8.35222 28.14 8.4472 28.0878 8.54062 28.0668C8.63372 28.0458 8.73058 28.0552 8.83058 28.0944C8.93058 28.1337 9.03778 28.1999 9.1522 28.2938L9.15189 28.2934ZM9.01083 28.4875C8.91302 28.4073 8.8218 28.3623 8.73779 28.3527C8.65347 28.343 8.5682 28.372 8.48168 28.4399C8.39516 28.5078 8.29579 28.6189 8.18326 28.7737C8.07197 28.9268 7.99611 29.0569 7.95567 29.1637C7.91524 29.2706 7.91022 29.3661 7.94031 29.4499C7.97041 29.5338 8.03467 29.616 8.13247 29.6962C8.23028 29.7764 8.32087 29.821 8.40457 29.83C8.48795 29.839 8.57353 29.8097 8.66162 29.7415C8.74939 29.6736 8.84907 29.5631 8.96036 29.4097C9.07258 29.2549 9.14844 29.1245 9.18762 29.0176C9.22681 28.9108 9.23151 28.816 9.20204 28.7324C9.17258 28.6492 9.10894 28.5673 9.01114 28.4871L9.01083 28.4875Z" fill="#7D2283"/>
<path d="M10.6997 29.1425L9.82542 30.8498L9.57715 30.7066L10.4514 28.9994L10.6997 29.1425ZM11.0721 29.3285C11.2091 29.4077 11.3125 29.4859 11.3821 29.5635C11.4517 29.641 11.4875 29.7269 11.489 29.8207C11.4906 29.9146 11.4586 30.0261 11.3928 30.1545C11.3464 30.2454 11.2965 30.3149 11.2436 30.3635C11.1906 30.4121 11.1323 30.4404 11.0687 30.4484C11.005 30.4564 10.9314 30.4427 10.8477 30.4075L10.8414 30.4198C10.8665 30.4427 10.8881 30.4724 10.9063 30.5086C10.9245 30.5449 10.9376 30.5872 10.9451 30.6354C10.953 30.6837 10.9495 30.7369 10.9351 30.7948L10.8232 31.4258L10.5577 31.2724L10.6796 30.6537C10.6915 30.5795 10.6868 30.5189 10.6652 30.4724C10.6436 30.4258 10.6044 30.3862 10.5477 30.3532C10.4423 30.2923 10.3524 30.2401 10.2778 30.1958C10.2028 30.1515 10.1405 30.1139 10.0903 30.083C10.0401 30.052 9.99908 30.0271 9.96742 30.0088L10.0762 29.8151L10.6477 30.1449C10.7304 30.1905 10.7997 30.2181 10.8552 30.2277C10.9107 30.2374 10.9605 30.2261 11.0041 30.1935C11.0477 30.1608 11.0903 30.1043 11.1317 30.0234C11.173 29.9425 11.1944 29.8743 11.1959 29.8184C11.1975 29.7628 11.1793 29.7126 11.1414 29.6683C11.1034 29.624 11.0436 29.5781 10.9618 29.5308C10.8213 29.45 10.6997 29.3808 10.5972 29.3235C10.4944 29.2663 10.4254 29.2277 10.3903 29.2074L10.4514 28.999C10.5182 29.029 10.5809 29.0589 10.6395 29.0882C10.6981 29.1178 10.7611 29.1514 10.8295 29.1897C10.8975 29.228 10.9784 29.2739 11.0721 29.3282V29.3285Z" fill="#7D2283"/>
<path d="M13.8475 30.7904C13.9181 30.8147 13.9428 30.8639 13.9224 30.9378L13.4654 32.7024L13.1996 32.6105L13.6319 30.9561L13.5776 30.9375L12.7751 32.1263C12.7425 32.1802 12.6955 32.1965 12.6341 32.1752L12.4115 32.0983C12.3482 32.0763 12.3175 32.0331 12.3193 31.9685L12.3297 30.5058L12.2755 30.4872L11.7131 32.0966L11.4473 32.0048L12.0535 30.2918C12.0795 30.22 12.1269 30.1957 12.1958 30.2196L12.4889 30.3208C12.5469 30.3408 12.5758 30.3834 12.5758 30.4486L12.5689 31.6547C12.5708 31.7009 12.5698 31.7459 12.5664 31.7901C12.5629 31.8344 12.5604 31.881 12.5595 31.9299L12.6055 31.9459C12.6319 31.9056 12.6563 31.8667 12.6789 31.8291C12.7015 31.7915 12.7259 31.7525 12.7523 31.7123L13.414 30.7385C13.4466 30.6846 13.4936 30.6682 13.5551 30.6895L13.8482 30.7907L13.8475 30.7904Z" fill="#7D2283"/>
<path d="M15.4741 31.0802C15.4985 31.0836 15.5195 31.0935 15.5365 31.1102C15.5537 31.1268 15.5647 31.1468 15.5694 31.1701L15.9565 33.1077L15.6625 33.0664L15.3681 31.4486C15.3641 31.4197 15.36 31.3907 15.3559 31.3618C15.3518 31.3328 15.3474 31.3059 15.343 31.2806L15.2637 31.2696C15.2531 31.2929 15.2424 31.3178 15.2315 31.3445C15.2205 31.3714 15.2086 31.3981 15.1957 31.4247L14.517 32.9067L14.2258 32.8661L15.0719 31.1009C15.0822 31.0796 15.0976 31.0632 15.1183 31.0519C15.139 31.0406 15.1615 31.0366 15.186 31.04L15.4744 31.0802H15.4741ZM15.6872 32.2377L15.6584 32.4693L14.6628 32.3302L14.6917 32.0986L15.6872 32.2377Z" fill="#7D2283"/>
<path d="M18.2155 31.1466L18.2691 32.9793C18.2713 33.0525 18.2371 33.0902 18.1669 33.0925L17.9218 33.1005C17.8895 33.1015 17.8641 33.0948 17.8456 33.0805C17.8271 33.0662 17.8108 33.0449 17.7967 33.0173L17.1139 31.7267C17.0958 31.6897 17.0744 31.6478 17.0503 31.6005C17.0262 31.5533 17.0077 31.5093 16.9951 31.4684L16.9525 31.4697C16.9575 31.5127 16.9616 31.5563 16.965 31.6002C16.9682 31.6441 16.9704 31.6887 16.9719 31.734L17.0127 33.1304L16.7334 33.1397L16.6798 31.307C16.6776 31.2338 16.7127 31.1962 16.7848 31.1935L17.0215 31.1855C17.0538 31.1845 17.0798 31.1912 17.0992 31.2055C17.1186 31.2198 17.1356 31.2408 17.1497 31.2687L17.8086 32.5264C17.8305 32.565 17.8544 32.6096 17.8794 32.6592C17.9045 32.7091 17.9293 32.758 17.9537 32.8059L17.9995 32.8046C17.9942 32.754 17.9898 32.7041 17.9867 32.6542C17.9832 32.6046 17.981 32.5553 17.9794 32.5064L17.9399 31.1552L18.2164 31.1462L18.2155 31.1466Z" fill="#7D2283"/>
<path d="M19.5992 30.8761C19.6832 30.8592 19.7556 30.8465 19.8158 30.8379C19.8763 30.8295 19.9324 30.8242 19.9844 30.8225C20.0365 30.8205 20.0907 30.8215 20.1474 30.8252L20.1565 31.0385C20.0995 31.0442 20.0465 31.0508 19.9973 31.0578C19.9481 31.0648 19.896 31.0731 19.8405 31.0825C19.7851 31.0918 19.7189 31.1041 19.6424 31.1197C19.523 31.144 19.4327 31.186 19.3719 31.2462C19.3111 31.3064 19.276 31.3933 19.2663 31.5071C19.2565 31.6209 19.2688 31.7717 19.3026 31.9601C19.3365 32.1484 19.3775 32.2932 19.4258 32.3954C19.4741 32.4976 19.5371 32.5644 19.6145 32.5967C19.692 32.629 19.7904 32.6327 19.9098 32.6087C20.0311 32.5841 20.133 32.5611 20.2155 32.5398C20.2976 32.5185 20.3772 32.4942 20.4537 32.4673L20.5189 32.6689C20.4408 32.7095 20.3597 32.7438 20.2744 32.7715C20.1894 32.7991 20.0822 32.826 19.9534 32.852C19.7666 32.8899 19.6111 32.8883 19.4866 32.8477C19.3622 32.8071 19.2619 32.7195 19.1857 32.5861C19.1095 32.4526 19.0493 32.2639 19.0058 32.0203C18.9622 31.7767 18.9525 31.578 18.9772 31.4239C19.002 31.2698 19.065 31.1497 19.1666 31.0632C19.2681 30.9766 19.4123 30.9144 19.5992 30.8768V30.8761Z" fill="#7D2283"/>
<path d="M21.0673 30.4974C21.1572 30.4644 21.2488 30.4311 21.3425 30.3968C21.4359 30.3626 21.5287 30.3303 21.6202 30.3C21.7118 30.2694 21.7999 30.2418 21.8845 30.2168L21.9403 30.4258L21.1983 30.6967C21.1444 30.7163 21.109 30.7443 21.0927 30.7799C21.076 30.8158 21.0773 30.8631 21.0964 30.9217L21.4416 31.987C21.4607 32.0456 21.487 32.0842 21.5212 32.1025C21.5553 32.1208 21.5992 32.1201 21.6532 32.1005L22.3951 31.8296L22.4716 32.0279C22.3908 32.0635 22.3049 32.0988 22.2149 32.1338C22.1246 32.1687 22.0328 32.2036 21.9397 32.2386C21.8466 32.2735 21.7547 32.3075 21.6651 32.3404C21.5535 32.381 21.4554 32.3837 21.3704 32.3481C21.2854 32.3125 21.2259 32.2456 21.192 32.1467L20.8074 30.959C20.7764 30.8571 20.7842 30.7649 20.8309 30.6824C20.8776 30.5999 20.9566 30.5383 21.0682 30.4974H21.0673ZM20.9983 31.3833L22.0127 31.0129L22.0792 31.2179L21.0648 31.5883L20.9983 31.3833Z" fill="#7D2283"/>
<path d="M23.7825 29.1388C23.9208 29.0499 24.0396 28.995 24.1383 28.973C24.2371 28.9514 24.3255 28.967 24.4035 29.0203C24.4816 29.0735 24.5599 29.1691 24.6386 29.3072C24.7164 29.4439 24.7599 29.5611 24.769 29.6596C24.7781 29.7578 24.7527 29.8466 24.6922 29.9259C24.6317 30.0051 24.5374 30.0859 24.4088 30.1685C24.3389 30.2134 24.2709 30.255 24.2048 30.2929C24.1386 30.3309 24.0769 30.3642 24.0195 30.3921C23.9621 30.4201 23.9123 30.4427 23.87 30.46C23.8277 30.4773 23.7973 30.4876 23.7791 30.4903L23.707 30.3458C23.7948 30.2896 23.886 30.231 23.9803 30.1705C24.0747 30.1099 24.169 30.0493 24.2637 29.9888C24.3408 29.9372 24.3972 29.8876 24.4327 29.8407C24.4681 29.7937 24.4825 29.7408 24.4756 29.6816C24.4687 29.6223 24.4408 29.5504 24.3925 29.4652C24.343 29.3784 24.2954 29.3182 24.2493 29.2839C24.2032 29.2499 24.1521 29.2383 24.096 29.2489C24.0399 29.2596 23.9728 29.2902 23.8948 29.3401C23.7581 29.4276 23.6405 29.5042 23.5421 29.5697C23.4437 29.635 23.3785 29.6802 23.3462 29.7055L23.2051 29.5395C23.2634 29.4935 23.3192 29.4509 23.3728 29.4123C23.4264 29.3737 23.4854 29.3331 23.5499 29.2905C23.6145 29.2479 23.6926 29.1973 23.7838 29.1391L23.7825 29.1388ZM23.4481 29.3827L24.3947 31.0461L24.1505 31.2028L23.2039 29.5395L23.4481 29.3827Z" fill="#7D2283"/>
<path d="M25.346 27.9286C25.4566 27.8297 25.561 27.7585 25.6594 27.7149C25.7579 27.6713 25.8535 27.658 25.9469 27.6753C26.04 27.6926 26.1365 27.7415 26.2362 27.8217C26.3359 27.902 26.4437 28.0154 26.5597 28.1622C26.6748 28.3073 26.7613 28.4394 26.8193 28.5579C26.8773 28.6767 26.9064 28.7862 26.9064 28.8867C26.9064 28.9872 26.8779 29.0851 26.8205 29.1806C26.7632 29.2761 26.6792 29.3729 26.5685 29.4718C26.4578 29.5706 26.3535 29.6419 26.255 29.6855C26.1566 29.7291 26.0604 29.7427 25.9666 29.7257C25.8726 29.7091 25.7751 29.6605 25.6742 29.58C25.5732 29.4994 25.4654 29.3869 25.3503 29.2415C25.2344 29.0951 25.1478 28.9623 25.0911 28.8435C25.0344 28.725 25.0065 28.6148 25.0071 28.5136C25.0077 28.4125 25.0369 28.3143 25.0942 28.2188C25.1516 28.1233 25.2356 28.0264 25.3463 27.9276L25.346 27.9286ZM25.4945 28.1163C25.3999 28.2008 25.3391 28.2857 25.3124 28.3709C25.2855 28.4561 25.2942 28.5509 25.3381 28.6551C25.382 28.7593 25.4635 28.8861 25.5817 29.0355C25.6989 29.1836 25.8024 29.2897 25.892 29.3543C25.9817 29.4189 26.0685 29.4445 26.1522 29.4312C26.2359 29.4179 26.3252 29.3686 26.4199 29.2844C26.5146 29.1999 26.5748 29.1154 26.6011 29.0308C26.6271 28.9463 26.6183 28.8511 26.5745 28.7456C26.5306 28.6401 26.45 28.5133 26.3328 28.3652C26.2143 28.2158 26.1102 28.1093 26.0205 28.0461C25.9306 27.9828 25.8444 27.9575 25.7613 27.9702C25.6782 27.9832 25.5895 28.0317 25.4949 28.1159L25.4945 28.1163Z" fill="#7D2283"/>
<path d="M26.5997 26.7036L27.937 28.0305L27.7423 28.2518L26.405 26.9249L26.5997 26.7036Z" fill="#7D2283"/>
<path d="M27.9809 24.8304L29.3789 25.907C29.4347 25.95 29.442 26.0019 29.4006 26.0621L29.2567 26.2728C29.2376 26.3007 29.2172 26.3177 29.1953 26.3244C29.1733 26.331 29.1476 26.332 29.1181 26.3267L27.7389 26.11C27.7003 26.1027 27.6558 26.0947 27.6059 26.0864C27.5561 26.0781 27.5119 26.0664 27.4737 26.0521L27.4486 26.0891C27.4837 26.111 27.5188 26.1343 27.5536 26.1586C27.5884 26.1829 27.6229 26.2082 27.6574 26.2348L28.7225 27.0552L28.5583 27.2955L27.1602 26.2189C27.1044 26.1759 27.0975 26.1234 27.1401 26.0611L27.279 25.8578C27.2981 25.8302 27.3188 25.8122 27.3414 25.8049C27.3639 25.7975 27.39 25.7962 27.4191 25.8012L28.7592 26.0175C28.8015 26.0228 28.8492 26.0298 28.9015 26.0392C28.9542 26.0485 29.0059 26.0578 29.0564 26.0668L29.0833 26.0275C29.0423 26.0012 29.0025 25.9739 28.9633 25.9463C28.9241 25.9187 28.8862 25.8907 28.8489 25.8618L27.8182 25.068L27.9805 24.8301L27.9809 24.8304Z" fill="#7D2283"/>
<path d="M28.9485 22.8987L29.1519 23.0082L28.4576 24.4645L28.2542 24.355L28.9485 22.8987ZM28.6651 23.4931L30.2983 24.3707L30.1695 24.6409L28.5363 23.7633L28.6651 23.4931Z" fill="#7D2283"/>
<path d="M29.2875 21.7982C29.3195 21.703 29.3549 21.6055 29.3941 21.5056C29.4333 21.4058 29.4787 21.3086 29.5311 21.2141L29.7032 21.298C29.6737 21.3792 29.642 21.4707 29.6079 21.5722C29.5737 21.674 29.5417 21.7729 29.5113 21.8684C29.49 21.9353 29.4737 21.9935 29.4618 22.0425C29.4499 22.0914 29.4468 22.134 29.4524 22.1699C29.4577 22.2059 29.475 22.2372 29.5041 22.2634C29.5333 22.2897 29.5768 22.3134 29.6358 22.3343C29.7245 22.3659 29.7931 22.3693 29.8414 22.3437C29.8897 22.3184 29.9364 22.2658 29.9822 22.1862L30.2016 21.8205C30.2837 21.6794 30.3734 21.5942 30.4712 21.5652C30.569 21.5363 30.685 21.5456 30.8191 21.5935C30.9198 21.6295 30.9969 21.6714 31.0508 21.7193C31.1047 21.7672 31.1398 21.8245 31.1561 21.891C31.1724 21.9576 31.1737 22.0361 31.1599 22.127C31.1461 22.2178 31.1204 22.3227 31.0828 22.4415C31.0621 22.5067 31.0323 22.5919 30.9934 22.6971C30.9546 22.8026 30.9013 22.9207 30.8336 23.0522L30.6564 22.9667C30.6956 22.8548 30.7276 22.7636 30.753 22.6928C30.7784 22.6219 30.7991 22.5606 30.8154 22.5091L30.8643 22.354C30.8947 22.2581 30.9122 22.1806 30.9173 22.1203C30.9223 22.0604 30.9094 22.0122 30.879 21.9759C30.8486 21.9396 30.7972 21.9083 30.7251 21.8827C30.663 21.8608 30.6119 21.8514 30.5715 21.8551C30.5311 21.8588 30.4966 21.8754 30.4677 21.9043C30.4389 21.9336 30.4097 21.9736 30.3806 22.0252L30.1527 22.4009C30.0721 22.532 29.9831 22.6132 29.8853 22.6442C29.7878 22.6755 29.6737 22.6678 29.5427 22.6212C29.4421 22.5853 29.3649 22.5433 29.311 22.4954C29.2571 22.4475 29.2232 22.3912 29.2091 22.3263C29.195 22.2618 29.1957 22.1862 29.2107 22.1C29.2258 22.0138 29.2515 21.9133 29.2878 21.7985L29.2875 21.7982Z" fill="#7D2283"/>
</g>
<g filter="url(#filter2_i_258_925)">
<path d="M2.86332 14.4446C2.88981 14.3442 2.91725 14.2431 2.94531 14.141C2.97338 14.039 3.00177 13.9382 3.03015 13.8385C3.05853 13.7388 3.08849 13.6451 3.12003 13.5571L3.33511 13.6381L3.12633 14.4271C3.10804 14.4966 3.10899 14.5517 3.12949 14.592C3.14999 14.6323 3.19193 14.6622 3.25532 14.681L4.8271 15.152L4.74573 15.4589L3.1194 14.9714C3.00397 14.9368 2.92419 14.872 2.87972 14.777C2.83525 14.682 2.82989 14.5712 2.86364 14.4439L2.86332 14.4446ZM3.62903 15.0684L3.92705 13.9416L4.1519 14.0091L3.85388 15.1359L3.62903 15.0684Z" fill="#7D2283"/>
<path d="M3.40469 12.7249L4.90804 13.3947C4.96701 13.4209 5.01684 13.4249 5.05783 13.4061C5.09883 13.3877 5.13194 13.3457 5.15749 13.2809L5.44321 12.554L5.66176 12.6342C5.61918 12.7699 5.57251 12.9055 5.5211 13.0418C5.4697 13.1782 5.41735 13.3138 5.36437 13.4491C5.30571 13.5982 5.22908 13.6899 5.13478 13.7238C5.04017 13.7577 4.94052 13.7513 4.8355 13.7046L3.29053 13.0163L3.405 12.7249H3.40469Z" fill="#7D2283"/>
<path d="M4.42793 10.5242C4.44086 10.5004 4.45915 10.4832 4.48217 10.4728C4.50519 10.4624 4.52916 10.4601 4.55376 10.4654L6.5989 10.9295L6.44185 11.2162L4.74582 10.7989C4.71586 10.7901 4.6859 10.7814 4.65594 10.7727C4.62598 10.7639 4.59791 10.7562 4.57142 10.7498L4.52916 10.8271C4.54745 10.8482 4.56764 10.8707 4.58971 10.8942C4.61147 10.9177 4.63292 10.9419 4.65373 10.9671L5.83067 12.3327L5.6752 12.6164L4.28791 10.9506C4.27119 10.9305 4.26142 10.907 4.25858 10.8808C4.25574 10.8543 4.26079 10.8294 4.27372 10.8052L4.42761 10.5242H4.42793ZM5.64272 10.82L5.85748 10.9533L5.32641 11.9234L5.11164 11.7901L5.64272 10.82Z" fill="#7D2283"/>
<path d="M5.44285 8.88244C5.50592 8.79984 5.57373 8.71657 5.64563 8.63229C5.71785 8.54801 5.79574 8.4691 5.87995 8.39624L6.03448 8.55338C5.97834 8.62289 5.91653 8.70179 5.84936 8.7901C5.78187 8.87841 5.71753 8.96437 5.65604 9.04831C5.61283 9.10707 5.57751 9.15844 5.55008 9.2031C5.52232 9.24776 5.50592 9.28906 5.50025 9.32767C5.49457 9.36629 5.50309 9.4049 5.52516 9.44385C5.54755 9.48246 5.58603 9.52477 5.64122 9.57077C5.72479 9.64028 5.79543 9.67217 5.85409 9.6668C5.91243 9.66143 5.97803 9.62819 6.05087 9.56741L6.39462 9.29074C6.52455 9.18295 6.64534 9.13494 6.75698 9.14703C6.86862 9.15911 6.98751 9.21754 7.11334 9.3223C7.20763 9.40087 7.27575 9.47575 7.31738 9.54693C7.35901 9.61811 7.37793 9.69064 7.37446 9.76451C7.37099 9.83838 7.34766 9.91829 7.30477 10.0043C7.26188 10.0902 7.20227 10.1849 7.12627 10.289C7.08433 10.3461 7.02661 10.4193 6.95313 10.5093C6.87965 10.5992 6.78662 10.6959 6.67498 10.8L6.51572 10.6389C6.59141 10.5428 6.65354 10.4643 6.7021 10.4031C6.75067 10.3424 6.79135 10.2893 6.82478 10.244C6.85789 10.1987 6.89132 10.1537 6.92444 10.1083C6.98593 10.0247 7.02851 9.95355 7.05247 9.89513C7.07644 9.8367 7.07802 9.78264 7.0572 9.73328C7.03639 9.68393 6.99255 9.63087 6.92475 9.57446C6.86641 9.52611 6.81564 9.49522 6.77211 9.48179C6.72859 9.46836 6.68728 9.47037 6.64786 9.48783C6.60844 9.50496 6.56555 9.5335 6.51888 9.57278L6.16283 9.8555C6.03763 9.95355 5.91874 9.99787 5.80678 9.98814C5.69483 9.9784 5.5772 9.92266 5.45452 9.82025C5.36023 9.74168 5.29211 9.6668 5.25048 9.59562C5.20885 9.52443 5.19087 9.45359 5.19624 9.3824C5.2016 9.31122 5.22556 9.23533 5.26814 9.15475C5.31071 9.07416 5.36906 8.98384 5.44285 8.88311V8.88244Z" fill="#7D2283"/>
<path d="M6.53334 7.60028L7.9673 9.18579L7.75159 9.40707L6.31763 7.82155L6.53334 7.60028ZM7.79511 7.54655L7.96762 7.73727L7.27066 8.4518L7.09816 8.26108L7.79511 7.54655ZM7.40753 6.7041L8.84149 8.28962L8.62358 8.51324L7.18961 6.92773L7.40753 6.7041Z" fill="#7D2283"/>
<path d="M8.66045 5.6902C8.68158 5.67408 8.7046 5.66636 8.72952 5.66703C8.75443 5.6677 8.77714 5.6761 8.79763 5.69188L10.482 7.01113L10.2281 7.20353L8.84399 6.0797C8.82003 6.05854 8.79606 6.03773 8.77241 6.01657C8.74844 5.99542 8.72573 5.97628 8.70429 5.95848L8.63585 6.01019C8.64437 6.03772 8.65414 6.06694 8.66487 6.09783C8.67559 6.12872 8.68568 6.16028 8.69514 6.19252L9.23978 7.95297L8.98843 8.14369L8.36811 6.01758C8.36054 5.99172 8.36085 5.96621 8.36811 5.94102C8.37568 5.91584 8.39018 5.89502 8.41131 5.8789L8.66014 5.6902H8.66045ZM9.65291 6.49236L9.79703 6.70793L8.93797 7.35932L8.79385 7.14376L9.65291 6.49236Z" fill="#7D2283"/>
<path d="M10.8048 4.34595L10.9268 4.58737L9.50486 5.40229L9.38281 5.16087L10.8048 4.34595ZM10.2245 4.6787L11.2044 6.61677L10.9407 6.76787L9.96088 4.82979L10.2245 4.6787Z" fill="#7D2283"/>
<path d="M12.61 3.5784C12.6955 3.54885 12.7693 3.52535 12.8311 3.50822C12.8932 3.4911 12.9513 3.47834 13.0052 3.46961C13.0591 3.46088 13.1162 3.45517 13.1764 3.45215L13.2178 3.68954C13.1588 3.70331 13.1042 3.71707 13.0541 3.73117C13.0036 3.74528 12.9503 3.76106 12.8936 3.77852C12.8368 3.79598 12.7696 3.81814 12.6917 3.84534C12.5703 3.88764 12.482 3.94607 12.4271 4.02095C12.3723 4.09582 12.3483 4.19756 12.3552 4.32616C12.3619 4.45476 12.3969 4.62198 12.4602 4.82814C12.5233 5.03431 12.5877 5.19145 12.6536 5.29957C12.7192 5.40768 12.7949 5.47484 12.8806 5.50069C12.9664 5.52688 13.0698 5.51882 13.1916 5.47652C13.3149 5.43354 13.4183 5.39493 13.5013 5.36068C13.5842 5.32643 13.6637 5.28916 13.7397 5.2492L13.8378 5.46678C13.7621 5.52218 13.682 5.57053 13.5971 5.61251C13.5123 5.65414 13.4041 5.69779 13.2733 5.74346C13.0834 5.80927 12.9204 5.8274 12.7841 5.79752C12.6479 5.76763 12.5299 5.68268 12.4303 5.543C12.3306 5.40298 12.2401 5.19984 12.1584 4.9329C12.0768 4.66596 12.0373 4.44469 12.0402 4.26942C12.043 4.09381 12.0913 3.95144 12.1849 3.84164C12.2783 3.73185 12.4202 3.64421 12.61 3.5784Z" fill="#7D2283"/>
<path d="M14.0306 3.22168L14.3384 4.92572C14.3504 4.99254 14.375 5.03888 14.4122 5.06473C14.4494 5.09059 14.5005 5.09697 14.5651 5.08387L15.2917 4.93512L15.3501 5.17319C15.2205 5.21046 15.0883 5.24403 14.9533 5.27392C14.8184 5.3038 14.6834 5.33234 14.5478 5.36021C14.3986 5.39077 14.2848 5.37331 14.2059 5.3085C14.1271 5.24336 14.0769 5.15136 14.0555 5.0325L13.7395 3.28145L14.0309 3.22202L14.0306 3.22168Z" fill="#7D2283"/>
<path d="M16.1859 2.8777C16.3373 2.8683 16.4675 2.87972 16.5763 2.91128C16.6851 2.94284 16.7737 3.00026 16.8422 3.08353C16.9106 3.1668 16.9633 3.28063 17.0002 3.42535C17.0371 3.57007 17.0613 3.75071 17.073 3.96728C17.0847 4.18184 17.0799 4.3635 17.0591 4.51291C17.0383 4.66233 16.9983 4.78254 16.939 4.8732C16.88 4.96419 16.798 5.03202 16.6933 5.07668C16.5886 5.12133 16.4606 5.14853 16.3092 5.15793C16.1575 5.16733 16.0276 5.15592 15.9188 5.12436C15.81 5.09279 15.7207 5.03538 15.6513 4.95244C15.5816 4.8695 15.528 4.75501 15.4902 4.60928C15.4523 4.46356 15.4274 4.28358 15.4158 4.06902C15.4041 3.85245 15.4091 3.67013 15.4312 3.52171C15.4533 3.3733 15.4943 3.25377 15.5542 3.16277C15.6141 3.07178 15.6968 3.00395 15.8011 2.95896C15.9058 2.9143 16.0339 2.88711 16.1853 2.8777H16.1859ZM16.201 3.15472C16.0714 3.16277 15.9702 3.19568 15.8973 3.25343C15.8245 3.31119 15.7759 3.40319 15.7516 3.5291C15.7273 3.65535 15.7214 3.82861 15.7333 4.04955C15.7453 4.26814 15.7699 4.43938 15.8078 4.56261C15.8453 4.68584 15.9036 4.77179 15.9822 4.82015C16.0607 4.8685 16.1648 4.88864 16.2947 4.88092C16.4243 4.87286 16.5249 4.84029 16.5968 4.78254C16.6687 4.72479 16.7173 4.63245 16.7422 4.50519C16.7674 4.37793 16.774 4.20501 16.7621 3.98642C16.7501 3.76549 16.7248 3.59424 16.6861 3.47202C16.6473 3.3498 16.5892 3.26451 16.5117 3.21583C16.4341 3.16748 16.3303 3.14699 16.2007 3.15505L16.201 3.15472Z" fill="#7D2283"/>
<path d="M19.1962 3.03852L19.0776 4.38496C19.0587 4.59885 19.0192 4.76842 18.959 4.89366C18.8988 5.0189 18.8114 5.10519 18.6969 5.15254C18.5825 5.19988 18.4336 5.21432 18.2507 5.19619C18.0599 5.17705 17.9104 5.13273 17.8019 5.06322C17.6938 4.99372 17.62 4.89131 17.5809 4.75599C17.5414 4.62068 17.5313 4.44607 17.5503 4.23219L17.6688 2.88574L17.9672 2.91563L17.8486 4.26207C17.835 4.41451 17.8388 4.53707 17.8599 4.63008C17.8808 4.72309 17.924 4.79125 17.9892 4.83523C18.0545 4.87922 18.145 4.90675 18.2601 4.91851C18.3756 4.92992 18.468 4.92052 18.538 4.8903C18.6077 4.86008 18.6622 4.80132 18.701 4.71436C18.7398 4.62739 18.766 4.50786 18.7792 4.35542L18.8978 3.00897L19.1962 3.03885V3.03852Z" fill="#7D2283"/>
<path d="M20.6478 3.33729C20.7951 3.37657 20.9149 3.42862 21.008 3.49309C21.101 3.55756 21.1685 3.63982 21.2107 3.73988C21.253 3.83994 21.2713 3.96451 21.2663 4.11326C21.2609 4.262 21.2338 4.43963 21.1852 4.64579C21.1366 4.85196 21.0814 5.02219 21.02 5.15583C20.9585 5.28947 20.8869 5.38986 20.8052 5.45668C20.7235 5.5235 20.6273 5.56211 20.5169 5.57185C20.4066 5.58159 20.2776 5.56681 20.1303 5.52753C19.9909 5.49026 19.8622 5.45299 19.7443 5.41605C19.6264 5.37912 19.515 5.34218 19.4106 5.30525L19.591 5.09035C19.6715 5.11621 19.761 5.14408 19.86 5.17396C19.9591 5.20385 20.0694 5.23507 20.1915 5.26764C20.3154 5.30088 20.4192 5.30122 20.5031 5.26898C20.587 5.23675 20.6582 5.16422 20.7166 5.0514C20.7752 4.93892 20.8295 4.77641 20.8796 4.56386C20.9298 4.35132 20.954 4.18075 20.9525 4.05215C20.9509 3.92355 20.9206 3.82315 20.8613 3.7513C20.802 3.67944 20.7106 3.62706 20.5866 3.59382C20.4665 3.56158 20.3586 3.53405 20.2634 3.51055C20.1678 3.48704 20.0745 3.46421 19.983 3.44205L19.9143 3.17041C20.0228 3.19056 20.1372 3.2144 20.2574 3.24092C20.3779 3.26778 20.5078 3.29968 20.6472 3.33695L20.6478 3.33729ZM20.2054 3.24831L19.7011 5.38281L19.4106 5.30491L19.9149 3.17041L20.2054 3.24831Z" fill="#7D2283"/>
<path d="M23.4374 4.4043C23.5188 4.44493 23.5875 4.48186 23.6437 4.51477C23.6998 4.54767 23.7503 4.58058 23.7954 4.61382C23.8404 4.64706 23.8855 4.68433 23.9313 4.72597L23.8083 4.92877C23.7566 4.89587 23.708 4.86598 23.6623 4.83979C23.6165 4.81327 23.5673 4.78574 23.515 4.75719C23.4626 4.72865 23.3993 4.69575 23.3251 4.65848C23.2094 4.60039 23.1075 4.5789 23.0196 4.59334C22.9313 4.60778 22.8483 4.66452 22.7707 4.7629C22.6928 4.86128 22.6105 5.00869 22.5238 5.20511C22.4371 5.40121 22.3828 5.56271 22.3611 5.6893C22.3393 5.81588 22.3513 5.91997 22.3967 6.00157C22.4421 6.08316 22.5229 6.153 22.6386 6.21109C22.7559 6.26985 22.8559 6.31719 22.9385 6.35278C23.0211 6.38837 23.1028 6.41927 23.1839 6.44579L23.1151 6.6758C23.0246 6.66102 22.935 6.63785 22.8461 6.60629C22.7575 6.57473 22.6506 6.52772 22.526 6.46527C22.3453 6.37461 22.2151 6.26884 22.135 6.14763C22.0549 6.02641 22.0239 5.87867 22.0413 5.70407C22.059 5.52947 22.1239 5.31525 22.2362 5.0614C22.3485 4.80756 22.4623 4.61751 22.5774 4.49193C22.6925 4.36636 22.8193 4.29786 22.9581 4.28611C23.0968 4.27469 23.2564 4.31398 23.4371 4.40463L23.4374 4.4043Z" fill="#7D2283"/>
<path d="M25.1053 5.40585C25.2324 5.49449 25.3305 5.58582 25.4002 5.68017C25.4699 5.77453 25.509 5.87694 25.5175 5.98707C25.526 6.0972 25.5049 6.22211 25.4535 6.36179C25.4021 6.50147 25.3207 6.66197 25.2091 6.84329C25.0987 7.02293 24.9931 7.1663 24.8928 7.27274C24.7925 7.37952 24.6931 7.4507 24.5948 7.48629C24.4964 7.52188 24.3926 7.52457 24.2835 7.49435C24.1744 7.46413 24.0564 7.4047 23.9293 7.31606C23.8022 7.22741 23.7038 7.13608 23.6345 7.04173C23.5648 6.94738 23.525 6.84463 23.5159 6.73383C23.5064 6.62302 23.5272 6.49711 23.5783 6.35608C23.6294 6.21506 23.7102 6.05456 23.8205 5.87492C23.9322 5.69361 24.0381 5.55023 24.1387 5.4448C24.2393 5.3397 24.3393 5.26953 24.4383 5.23427C24.5374 5.19935 24.6417 5.19666 24.7509 5.22722C24.86 5.25744 24.9779 5.31687 25.105 5.40551L25.1053 5.40585ZM24.9625 5.63787C24.854 5.56198 24.754 5.52438 24.6632 5.52471C24.5724 5.52471 24.4819 5.56803 24.392 5.65398C24.3021 5.73994 24.2002 5.87559 24.0864 6.0606C23.9738 6.24394 23.8978 6.39705 23.8593 6.51994C23.8205 6.64283 23.8193 6.74894 23.8555 6.83758C23.8915 6.92622 23.964 7.00849 24.0725 7.08437C24.181 7.16026 24.2803 7.19753 24.3705 7.19686C24.4604 7.19619 24.5512 7.15253 24.6424 7.06624C24.7335 6.97995 24.8357 6.8453 24.9483 6.66197C25.0621 6.47696 25.1375 6.32318 25.175 6.20029C25.2122 6.07739 25.2132 5.9723 25.1779 5.88399C25.1425 5.79602 25.0706 5.71375 24.9622 5.6382L24.9625 5.63787Z" fill="#7D2283"/>
<path d="M27.4345 7.44676L26.5849 8.4524C26.4499 8.61222 26.3231 8.72303 26.2049 8.78548C26.0863 8.84794 25.9677 8.8617 25.8494 8.82712C25.7312 8.7922 25.6035 8.7096 25.4669 8.57865C25.3244 8.44199 25.2291 8.31171 25.1812 8.18714C25.1332 8.06256 25.1314 7.93363 25.1758 7.79999C25.22 7.66635 25.3095 7.51996 25.4445 7.36013L26.2941 6.35449L26.5168 6.56771L25.6672 7.57334C25.571 7.68717 25.5054 7.7879 25.4701 7.87588C25.4347 7.96385 25.4313 8.04611 25.459 8.12267C25.4868 8.19956 25.5439 8.27914 25.6299 8.3614C25.716 8.444 25.7955 8.49504 25.869 8.51519C25.9422 8.53533 26.0185 8.52257 26.0983 8.47758C26.1781 8.43259 26.266 8.35301 26.3622 8.23918L27.2118 7.23354L27.4345 7.44676Z" fill="#7D2283"/>
<path d="M28.9625 9.348L27.4485 10.6568C27.3879 10.7092 27.3343 10.7045 27.2879 10.6437L27.1255 10.4309C27.1041 10.4027 27.0937 10.3755 27.094 10.3493C27.0943 10.3227 27.1019 10.2939 27.1164 10.2623L27.7736 8.76577C27.7932 8.72414 27.8152 8.67612 27.8398 8.6224C27.8644 8.56834 27.8897 8.52166 27.9165 8.48238L27.8881 8.44511C27.855 8.47936 27.8206 8.51293 27.7856 8.54618C27.7503 8.57942 27.7143 8.61199 27.6771 8.64422L26.5235 9.64146L26.3384 9.3987L27.8524 8.08986C27.913 8.03748 27.9669 8.04285 28.0149 8.10564L28.1716 8.31114C28.193 8.33934 28.2038 8.36687 28.2041 8.39407C28.2041 8.42127 28.1971 8.45082 28.1826 8.48238L27.5383 9.93493C27.5197 9.98127 27.497 10.0326 27.4712 10.0897C27.445 10.1465 27.4194 10.2022 27.3942 10.2569L27.4245 10.2966C27.4639 10.2569 27.5033 10.2187 27.5434 10.1817C27.5831 10.1445 27.6232 10.1085 27.6635 10.0736L28.7799 9.10859L28.9632 9.34867L28.9625 9.348Z" fill="#7D2283"/>
<path d="M29.766 10.7067L27.9874 11.8282L27.8347 11.5539L29.6134 10.4324L29.766 10.7067ZM30.1019 11.3105L29.8802 11.4501L29.0574 9.97074L29.2791 9.83105L30.1019 11.3105Z" fill="#7D2283"/>
<path d="M30.4502 12.1188L28.5432 12.9683L28.4287 12.6769L30.3357 11.8274L30.4502 12.1188ZM30.6416 12.5315C30.7047 12.6923 30.7397 12.8297 30.7466 12.9428C30.7533 13.0563 30.7255 13.1534 30.6631 13.2343C30.6006 13.3152 30.4975 13.3874 30.354 13.4515C30.2528 13.4968 30.1629 13.5217 30.0847 13.5264C30.0065 13.5311 29.9374 13.5153 29.8775 13.4787C29.8176 13.4421 29.764 13.38 29.7167 13.2927L29.7028 13.2987C29.7085 13.3353 29.7069 13.3753 29.6977 13.4186C29.6886 13.4619 29.6712 13.5066 29.6451 13.5529C29.6189 13.5993 29.5798 13.6419 29.5281 13.6812L29.0036 14.1395L28.8809 13.8276L29.4057 13.3864C29.4666 13.3317 29.5035 13.2773 29.5167 13.2229C29.53 13.1685 29.5237 13.108 29.4972 13.0412C29.4486 12.9176 29.4073 12.8115 29.3735 12.7229C29.3398 12.6343 29.312 12.5594 29.2903 12.4989C29.2685 12.4382 29.2506 12.3891 29.2357 12.3522L29.4603 12.2626L29.7239 12.9334C29.7633 13.0288 29.8037 13.0996 29.8447 13.146C29.8857 13.1923 29.9358 13.2165 29.9951 13.2188C30.0544 13.2212 30.1295 13.2024 30.2197 13.1621C30.3099 13.1218 30.3748 13.0785 30.4139 13.0325C30.453 12.9861 30.4716 12.9314 30.4694 12.8676C30.4672 12.8042 30.447 12.7242 30.4095 12.6282C30.3449 12.4633 30.2878 12.3216 30.2389 12.2028C30.19 12.0839 30.1575 12.004 30.1415 11.9627L30.3354 11.8281C30.372 11.8992 30.4054 11.9674 30.4354 12.0325C30.4653 12.0977 30.4962 12.1695 30.5284 12.2488C30.5606 12.3277 30.5981 12.4224 30.6413 12.5322L30.6416 12.5315Z" fill="#7D2283"/>
<path d="M30.1428 14.9606L29.2775 15.2067L29.2002 14.8985L30.0656 14.6524L30.1428 14.9606ZM31.4516 15.3447L29.9429 15.0043L29.8726 14.7239L31.0205 13.6252L31.1025 13.952L30.3885 14.6171C30.3563 14.646 30.3226 14.6732 30.2866 14.699C30.2507 14.7246 30.2154 14.7501 30.1803 14.7756L30.1857 14.7971C30.228 14.8004 30.2709 14.8041 30.3141 14.8085C30.3576 14.8125 30.3986 14.8179 30.4374 14.8246L31.3705 15.0217L31.4516 15.3454V15.3447Z" fill="#7D2283"/>
</g>
<ellipse cx="3.50863" cy="18.0841" rx="0.960295" ry="0.996211" fill="#3200C6"/>
<ellipse cx="30.4569" cy="18.0841" rx="0.960295" ry="0.996211" fill="#DF00F0"/>
<defs>
<filter id="filter0_d_258_925" x="10.5934" y="8.7972" width="13.2387" height="5.01359" filterUnits="userSpaceOnUse" color-interpolation-filters="sRGB">
<feFlood flood-opacity="0" result="BackgroundImageFix"/>
<feColorMatrix in="SourceAlpha" type="matrix" values="0 0 0 0 0 0 0 0 0 0 0 0 0 0 0 0 0 0 127 0" result="hardAlpha"/>
<feOffset dy="0.416667"/>
<feGaussianBlur stdDeviation="0.416667"/>
<feComposite in2="hardAlpha" operator="out"/>
<feColorMatrix type="matrix" values="0 0 0 0 0 0 0 0 0 0 0 0 0 0 0 0 0 0 0.25 0"/>
<feBlend mode="normal" in2="BackgroundImageFix" result="effect1_dropShadow_258_925"/>
<feBlend mode="normal" in="SourceGraphic" in2="effect1_dropShadow_258_925" result="shape"/>
</filter>
<filter id="filter1_i_258_925" x="2.8418" y="21.2141" width="28.3276" height="12.7589" filterUnits="userSpaceOnUse" color-interpolation-filters="sRGB">
<feFlood flood-opacity="0" result="BackgroundImageFix"/>
<feBlend mode="normal" in="SourceGraphic" in2="BackgroundImageFix" result="shape"/>
<feColorMatrix in="SourceAlpha" type="matrix" values="0 0 0 0 0 0 0 0 0 0 0 0 0 0 0 0 0 0 127 0" result="hardAlpha"/>
<feOffset dy="0.833333"/>
<feGaussianBlur stdDeviation="0.416667"/>
<feComposite in2="hardAlpha" operator="arithmetic" k2="-1" k3="1"/>
<feColorMatrix type="matrix" values="0 0 0 0 0 0 0 0 0 0 0 0 0 0 0 0 0 0 0.25 0"/>
<feBlend mode="normal" in2="shape" result="effect1_innerShadow_258_925"/>
</filter>
<filter id="filter2_i_258_925" x="2.8418" y="2.87451" width="28.6099" height="12.7928" filterUnits="userSpaceOnUse" color-interpolation-filters="sRGB">
<feFlood flood-opacity="0" result="BackgroundImageFix"/>
<feBlend mode="normal" in="SourceGraphic" in2="BackgroundImageFix" result="shape"/>
<feColorMatrix in="SourceAlpha" type="matrix" values="0 0 0 0 0 0 0 0 0 0 0 0 0 0 0 0 0 0 127 0" result="hardAlpha"/>
<feOffset dy="0.208333"/>
<feGaussianBlur stdDeviation="0.208333"/>
<feComposite in2="hardAlpha" operator="arithmetic" k2="-1" k3="1"/>
<feColorMatrix type="matrix" values="0 0 0 0 0 0 0 0 0 0 0 0 0 0 0 0 0 0 0.25 0"/>
<feBlend mode="normal" in2="shape" result="effect1_innerShadow_258_925"/>
</filter>
<linearGradient id="paint0_linear_258_925" x1="28.8889" y1="-0.613734" x2="-0.284936" y2="35.4631" gradientUnits="userSpaceOnUse">
<stop stop-color="#D0AD62"/>
<stop offset="0.260417" stop-color="#EAC064"/>
<stop offset="0.760417" stop-color="#C09553"/>
<stop offset="1" stop-color="#D0AE62"/>
</linearGradient>
<linearGradient id="paint1_linear_258_925" x1="29.2222" y1="-1.0748" x2="-0.284829" y2="34.8712" gradientUnits="userSpaceOnUse">
<stop stop-color="#FBF3D5"/>
<stop offset="1" stop-color="#D5B470"/>
</linearGradient>
<linearGradient id="paint2_linear_258_925" x1="24.7779" y1="6.07219" x2="8.672" y2="28.5725" gradientUnits="userSpaceOnUse">
<stop stop-color="#B701D8"/>
<stop offset="1" stop-color="#5901D0"/>
</linearGradient>
<linearGradient id="paint3_linear_258_925" x1="17.4165" y1="13.543" x2="17.4165" y2="16.3195" gradientUnits="userSpaceOnUse">
<stop stop-color="#D2AA60"/>
<stop offset="0.510417" stop-color="#C49956"/>
<stop offset="1" stop-color="#D7B465"/>
</linearGradient>
<linearGradient id="paint4_linear_258_925" x1="15.1832" y1="18.6274" x2="15.1832" y2="21.422" gradientUnits="userSpaceOnUse">
<stop stop-color="#D2AA60"/>
<stop offset="0.510417" stop-color="#C49956"/>
<stop offset="1" stop-color="#D7B465"/>
</linearGradient>
<linearGradient id="paint5_linear_258_925" x1="13.5409" y1="23.2966" x2="13.5409" y2="26.0731" gradientUnits="userSpaceOnUse">
<stop stop-color="#D2AA60"/>
<stop offset="0.510417" stop-color="#C49956"/>
<stop offset="1" stop-color="#D7B465"/>
</linearGradient>
</defs>
</svg>
