<svg width="30" height="31" viewBox="0 0 30 31" fill="none" xmlns="http://www.w3.org/2000/svg">
<rect width="30" height="30.7259" rx="5.74573" fill="#747D87"/>
<path d="M25.6451 15.3628C25.6451 21.1752 20.9332 25.8871 15.1209 25.8871C9.30851 25.8871 4.59667 21.1752 4.59667 15.3628C4.59667 9.55047 9.30851 4.83862 15.1209 4.83862C20.9332 4.83862 25.6451 9.55047 25.6451 15.3628Z" fill="white" stroke="#747D87" stroke-width="0.483872"/>
<path d="M9.7854 11.3345H20.995V12.8233C20.995 13.3868 20.5382 13.8436 19.9747 13.8436H9.7854V11.3345Z" fill="#747D87"/>
<path d="M9.7854 15.9292H16.8077V17.6044C16.8077 18.074 16.427 18.4546 15.9574 18.4546H9.7854V15.9292Z" fill="#747D87"/>
<path d="M9.7854 20.1489H13.7283V21.6378C13.7283 22.2013 13.2715 22.6581 12.708 22.6581H9.7854V20.1489Z" fill="#747D87"/>
<path d="M10.2103 6.9792C10.3658 6.9792 10.5229 6.98072 10.6815 6.98377C10.8431 6.98377 11.0017 6.98682 11.1573 6.99292C11.3159 6.99597 11.4623 7.00512 11.5965 7.02037L11.569 7.44126H10.407C10.3155 7.44126 10.2469 7.46261 10.2011 7.50531C10.1554 7.54801 10.1325 7.61511 10.1325 7.7066V10.145H9.56065V7.59223C9.56065 7.40009 9.62012 7.25064 9.73907 7.14389C9.85801 7.0341 10.0151 6.9792 10.2103 6.9792ZM9.63842 8.33336H11.3952V8.75425H9.63842V8.33336ZM13.4668 6.9426L13.4622 9.46794C13.4622 9.55333 13.4866 9.61891 13.5354 9.66466C13.5842 9.70736 13.6544 9.7287 13.7459 9.7287H13.9426L14.0066 10.1176C13.9731 10.1328 13.9258 10.1465 13.8648 10.1587C13.8069 10.1709 13.7459 10.1786 13.6818 10.1816C13.6208 10.1877 13.5675 10.1908 13.5217 10.1908C13.3357 10.1908 13.1877 10.1404 13.0779 10.0398C12.9682 9.93915 12.9133 9.79428 12.9133 9.60518V6.9426H13.4668ZM16.351 7.84385C16.5309 7.84385 16.6819 7.86825 16.8039 7.91705C16.9289 7.9628 17.0235 8.0421 17.0875 8.15494C17.1516 8.26779 17.1836 8.42334 17.1836 8.62158V10.145H16.7444L16.6666 9.66008L16.6255 9.59603V8.61701C16.6255 8.49806 16.598 8.41266 16.5431 8.36081C16.4882 8.30591 16.383 8.27847 16.2274 8.27847C16.1115 8.27847 15.9651 8.28304 15.7882 8.29219C15.6144 8.30134 15.439 8.31354 15.2621 8.32879L15.2118 7.94907C15.3186 7.92772 15.439 7.90942 15.5732 7.89418C15.7074 7.87893 15.8431 7.86673 15.9804 7.85758C16.1176 7.84843 16.2412 7.84385 16.351 7.84385ZM16.9457 8.7634L16.9411 9.10652H15.9118C15.8203 9.10957 15.7547 9.13397 15.715 9.17972C15.6754 9.22547 15.6556 9.28799 15.6556 9.36729V9.49081C15.6556 9.58231 15.68 9.65246 15.7288 9.70126C15.7776 9.747 15.8538 9.76988 15.9575 9.76988C16.0399 9.76988 16.1314 9.7531 16.232 9.71956C16.3327 9.68601 16.4318 9.63721 16.5294 9.57316C16.63 9.50911 16.72 9.43286 16.7993 9.34441V9.63263C16.7688 9.67838 16.7246 9.73328 16.6666 9.79733C16.6087 9.85833 16.537 9.91933 16.4516 9.98032C16.3693 10.0413 16.2732 10.0916 16.1634 10.1313C16.0566 10.1709 15.9377 10.1908 15.8065 10.1908C15.6723 10.1908 15.5519 10.1679 15.4451 10.1221C15.3384 10.0733 15.2545 10.0032 15.1935 9.9117C15.1325 9.81715 15.102 9.70126 15.102 9.56401V9.32611C15.102 9.14922 15.16 9.01197 15.2759 8.91437C15.3948 8.81373 15.5565 8.7634 15.7608 8.7634H16.9457ZM20.7362 7.89875L20.0683 8.99215L20.7911 10.145H20.2192L19.5239 8.99215L20.1643 7.89875H20.7362ZM19.0389 7.89875L19.6794 8.99215L18.9932 10.145H18.4122L19.135 8.99215L18.4671 7.89875H19.0389ZM19.9127 8.79543V9.16599H19.2997V8.79543H19.9127Z" fill="#747D87"/>
<path d="M3.43724 18.559L1.81267 19.1253L1.72656 18.8664L3.35114 18.3L3.43724 18.559ZM3.58095 18.9196C3.62974 19.0664 3.65384 19.1882 3.65266 19.285C3.65148 19.3819 3.62033 19.4616 3.55891 19.5244C3.49749 19.5873 3.39933 19.6423 3.26444 19.6892C3.13102 19.7359 3.02111 19.7539 2.93441 19.7437C2.84772 19.7335 2.77631 19.6922 2.71988 19.6204C2.66346 19.5485 2.61261 19.4441 2.56736 19.3079C2.54267 19.2336 2.52034 19.1617 2.50094 19.0925C2.48125 19.0231 2.46509 18.959 2.45245 18.8998C2.43981 18.8405 2.43011 18.7894 2.42365 18.7464C2.41718 18.7034 2.41454 18.673 2.41571 18.6552L2.55472 18.6155C2.58587 18.7088 2.6179 18.8056 2.65141 18.9058C2.68462 19.0059 2.71812 19.1061 2.75133 19.2062C2.78042 19.2886 2.81187 19.3509 2.84507 19.3933C2.87828 19.4357 2.92119 19.4592 2.97379 19.464C3.0261 19.4688 3.09399 19.4568 3.17716 19.4279C3.2618 19.3984 3.32351 19.3653 3.3623 19.3286C3.4008 19.2919 3.42108 19.2465 3.42314 19.1918C3.4252 19.1371 3.41226 19.0685 3.38464 18.9855C3.33644 18.8405 3.29383 18.7154 3.25739 18.6107C3.22065 18.5058 3.19479 18.436 3.17951 18.4008L3.35114 18.3006C3.37935 18.3641 3.40462 18.4246 3.42725 18.4823C3.44988 18.5401 3.4731 18.6032 3.4969 18.6721C3.52071 18.741 3.54863 18.8237 3.58095 18.9205V18.9196Z" fill="white"/>
<path d="M4.13864 20.3387C4.17919 20.4199 4.22063 20.5026 4.26295 20.5871C4.30527 20.6716 4.34582 20.7552 4.38462 20.8385C4.42341 20.9216 4.45926 21.0019 4.49247 21.0789L4.31702 21.1586L3.9817 20.4888C3.95731 20.44 3.92822 20.41 3.89472 20.3991C3.86121 20.388 3.82007 20.3952 3.77129 20.4208L2.88582 20.8852C2.83704 20.9107 2.80706 20.9408 2.7956 20.9757C2.78414 21.0103 2.7906 21.0521 2.815 21.1008L3.15031 21.7706L2.98692 21.8686C2.94519 21.7962 2.90287 21.7195 2.86025 21.6383C2.81764 21.5571 2.77503 21.4743 2.73183 21.3904C2.68892 21.3065 2.6469 21.2238 2.60634 21.1426C2.55579 21.0419 2.54051 20.9489 2.5605 20.8638C2.58019 20.7787 2.63103 20.7134 2.71273 20.6686L3.69987 20.151C3.7848 20.1086 3.8665 20.1041 3.94468 20.1378C4.02314 20.1715 4.0875 20.2388 4.13776 20.3393L4.13864 20.3387ZM3.35515 20.3868L3.8136 21.3026L3.64315 21.3919L3.1847 20.4761L3.35515 20.3868Z" fill="white"/>
<path d="M4.95003 21.781L3.55438 22.803L3.40039 22.5825L4.79603 21.5605L4.95003 21.781ZM5.19218 22.0881C5.27712 22.2096 5.33413 22.3166 5.36293 22.409C5.39173 22.5013 5.38879 22.5858 5.35382 22.6628C5.31914 22.7398 5.2489 22.8168 5.14369 22.8941C5.06964 22.9485 5.00057 22.984 4.93739 23.0015C4.87391 23.0186 4.81396 23.0174 4.75695 22.9973C4.69993 22.9771 4.64321 22.9353 4.58649 22.8715L4.5765 22.8791C4.58885 22.9082 4.59561 22.9413 4.59707 22.9783C4.59854 23.0153 4.59325 23.0553 4.5812 23.0977C4.56916 23.1401 4.54565 23.1819 4.51126 23.2228L4.17359 23.689L4.00872 23.4529L4.35021 23.0009C4.38901 22.9455 4.4084 22.8944 4.40811 22.8475C4.40811 22.8006 4.39018 22.7518 4.35492 22.7013C4.28967 22.6078 4.23384 22.5275 4.18799 22.4601C4.14185 22.3927 4.10394 22.3362 4.07367 22.2899C4.0434 22.2436 4.01842 22.2063 3.99873 22.1783L4.16536 22.0664L4.52008 22.5741C4.57209 22.6457 4.62 22.6974 4.6632 22.7284C4.7064 22.7597 4.75254 22.7711 4.8022 22.763C4.85158 22.7549 4.90918 22.7266 4.9753 22.6782C5.04142 22.6297 5.0858 22.5831 5.10872 22.5386C5.13135 22.4938 5.13546 22.4457 5.12048 22.3936C5.10549 22.3416 5.07287 22.2794 5.02203 22.2066C4.93474 22.0821 4.85892 21.9747 4.79427 21.8854C4.72961 21.7957 4.68641 21.7356 4.66467 21.7043L4.79662 21.5605C4.84129 21.6129 4.88273 21.6634 4.92093 21.7118C4.95884 21.7603 4.9991 21.8144 5.04201 21.8739C5.08462 21.9335 5.13517 22.0048 5.19307 22.0881H5.19218Z" fill="white"/>
<path d="M6.1789 23.3471C6.23944 23.4115 6.30027 23.477 6.3614 23.5435C6.42252 23.61 6.48277 23.6758 6.54213 23.7414C6.6015 23.807 6.65587 23.871 6.70553 23.9339L6.56006 24.0581L6.08397 23.551C6.04195 23.5062 6.00257 23.4825 5.96525 23.4798C5.92822 23.477 5.89001 23.4951 5.85034 23.5339L4.87289 24.4951L4.68774 24.2978L5.69928 23.3032C5.77099 23.2325 5.84975 23.2022 5.93556 23.2115C6.02138 23.2208 6.10249 23.2662 6.17919 23.3477L6.1789 23.3471ZM5.42215 23.6395L6.10219 24.3637L5.96231 24.5011L5.28227 23.7769L5.42215 23.6395Z" fill="white"/>
<path d="M7.64218 24.6647C7.74945 24.7496 7.83173 24.8338 7.88904 24.9174C7.94635 25.0013 7.97691 25.0885 7.98044 25.1793C7.98397 25.2702 7.96134 25.37 7.91196 25.4789C7.86259 25.5878 7.78618 25.7108 7.68303 25.8476C7.58076 25.9833 7.48407 26.0897 7.39326 26.167C7.30245 26.2443 7.2137 26.2924 7.12701 26.312C7.04031 26.3315 6.95009 26.3234 6.85634 26.2879C6.7626 26.2524 6.66209 26.1923 6.55482 26.1078C6.44755 26.023 6.36527 25.9387 6.30796 25.8551C6.25065 25.7712 6.2198 25.6837 6.21539 25.5926C6.21098 25.5011 6.23332 25.4007 6.28269 25.2906C6.33177 25.1805 6.40759 25.0575 6.50986 24.9219C6.61301 24.7847 6.71028 24.6783 6.80139 24.6022C6.89249 24.5261 6.98154 24.4789 7.06911 24.4599C7.1564 24.441 7.24721 24.4494 7.34095 24.4849C7.4347 24.5204 7.53521 24.5802 7.64248 24.665L7.64218 24.6647ZM7.50993 24.8401C7.41824 24.7676 7.33272 24.727 7.25396 24.7183C7.17491 24.7096 7.09497 24.7357 7.01386 24.7971C6.93275 24.8584 6.83959 24.9589 6.73409 25.0987C6.62976 25.2371 6.55864 25.3547 6.52073 25.4512C6.48282 25.5478 6.47812 25.6341 6.50633 25.7099C6.53454 25.7857 6.59479 25.8599 6.68648 25.9324C6.77817 26.0049 6.8631 26.0452 6.94157 26.0533C7.01974 26.0615 7.09997 26.035 7.18255 25.9733C7.26484 25.912 7.35829 25.8121 7.46262 25.6735C7.56783 25.5336 7.63895 25.4157 7.67568 25.3192C7.71242 25.2226 7.71683 25.1369 7.6892 25.0614C7.66158 24.9862 7.60192 24.9123 7.51023 24.8398L7.50993 24.8401Z" fill="white"/>
<path d="M9.0934 25.4321L8.27377 26.975L8.04102 26.8457L8.86065 25.3028L9.0934 25.4321ZM9.44253 25.6002C9.57096 25.6718 9.66794 25.7425 9.73318 25.8126C9.79842 25.8827 9.83193 25.9602 9.8334 26.0451C9.83487 26.1299 9.80489 26.2306 9.74317 26.3467C9.69968 26.4288 9.65295 26.4917 9.60329 26.5356C9.55362 26.5795 9.49896 26.6051 9.4393 26.6123C9.37964 26.6195 9.31058 26.6072 9.23212 26.5753L9.22624 26.5864C9.24975 26.6072 9.27003 26.6339 9.28707 26.6667C9.30412 26.6995 9.31646 26.7377 9.32351 26.7813C9.33086 26.8249 9.32763 26.873 9.31411 26.9254L9.20919 27.4956L8.96028 27.357L9.0746 26.7979C9.08576 26.7308 9.08135 26.676 9.06108 26.6339C9.0408 26.5918 9.00406 26.556 8.95087 26.5263C8.85213 26.4712 8.76778 26.424 8.69784 26.384C8.6276 26.344 8.56912 26.31 8.5221 26.2821C8.47508 26.2541 8.43658 26.2315 8.4069 26.215L8.50887 26.0399L9.04462 26.338C9.1222 26.3792 9.18715 26.4042 9.23917 26.4129C9.29119 26.4216 9.33791 26.4114 9.37876 26.3819C9.41961 26.3524 9.45958 26.3013 9.49837 26.2282C9.53716 26.1551 9.55715 26.0935 9.55862 26.043C9.56009 25.9927 9.54304 25.9473 9.50748 25.9073C9.47192 25.8673 9.41579 25.8258 9.33909 25.7831C9.20743 25.71 9.0934 25.6475 8.9973 25.5957C8.90091 25.544 8.83626 25.5091 8.80334 25.4908L8.86065 25.3025C8.92325 25.3296 8.98202 25.3566 9.03698 25.3831C9.09193 25.4099 9.151 25.4402 9.21507 25.4748C9.27884 25.5094 9.35466 25.5509 9.44253 25.5999V25.6002Z" fill="white"/>
<path d="M12.0442 26.921C12.1103 26.9429 12.1335 26.9874 12.1144 27.0542L11.686 28.6488L11.4367 28.5658L11.842 27.0707L11.7912 27.0539L11.0388 28.1282C11.0083 28.1769 10.9642 28.1917 10.9066 28.1724L10.6979 28.1029C10.6386 28.0831 10.6098 28.044 10.6115 27.9856L10.6212 26.6638L10.5704 26.647L10.0432 28.1014L9.79395 28.0184L10.3623 26.4704C10.3867 26.4055 10.4311 26.3835 10.4957 26.4052L10.7705 26.4966C10.8249 26.5146 10.8519 26.5531 10.8519 26.6121L10.8455 27.702C10.8472 27.7438 10.8463 27.7844 10.8431 27.8244C10.8399 27.8644 10.8375 27.9065 10.8366 27.9508L10.8798 27.9652C10.9045 27.9288 10.9274 27.8936 10.9486 27.8596C10.9698 27.8256 10.9927 27.7905 11.0174 27.7541L11.6378 26.874C11.6683 26.8253 11.7124 26.8106 11.77 26.8298L12.0448 26.9213L12.0442 26.921Z" fill="white"/>
<path d="M13.5694 27.1833C13.5923 27.1863 13.612 27.1953 13.6279 27.2104C13.6441 27.2254 13.6543 27.2434 13.6587 27.2645L14.0217 29.0155L13.746 28.9782L13.4701 27.5162C13.4663 27.4901 13.4624 27.4639 13.4586 27.4377C13.4548 27.4116 13.4507 27.3872 13.4466 27.3643L13.3722 27.3544C13.3622 27.3755 13.3522 27.398 13.3419 27.4221C13.3317 27.4465 13.3205 27.4705 13.3084 27.4946L12.6722 28.8338L12.3992 28.7972L13.1924 27.2019C13.2021 27.1827 13.2165 27.168 13.2358 27.1577C13.2552 27.1475 13.2764 27.1439 13.2993 27.1469L13.5697 27.1833H13.5694ZM13.7692 28.2293L13.7422 28.4386L12.8088 28.3129L12.8359 28.1036L13.7692 28.2293Z" fill="white"/>
<path d="M16.1393 27.243L16.1895 28.8992C16.1916 28.9654 16.1596 28.9994 16.0937 29.0015L15.8639 29.0087C15.8336 29.0096 15.8098 29.0036 15.7925 28.9907C15.7752 28.9777 15.7599 28.9585 15.7467 28.9335L15.1066 27.7672C15.0895 27.7338 15.0696 27.6959 15.0469 27.6532C15.0243 27.6105 15.007 27.5708 14.9952 27.5338L14.9552 27.535C14.9599 27.5738 14.9638 27.6132 14.967 27.6529C14.9699 27.6926 14.972 27.7329 14.9735 27.7738L15.0117 29.0358L14.7498 29.0442L14.6996 27.3879C14.6975 27.3218 14.7304 27.2878 14.798 27.2854L15.0199 27.2782C15.0502 27.2773 15.0745 27.2833 15.0928 27.2962C15.111 27.3091 15.1269 27.3281 15.1401 27.3534L15.7578 28.4899C15.7784 28.5248 15.8007 28.5651 15.8242 28.6099C15.8477 28.655 15.871 28.6992 15.8939 28.7425L15.9368 28.7413C15.9318 28.6956 15.9277 28.6505 15.9247 28.6054C15.9215 28.5606 15.9195 28.5161 15.918 28.4719L15.881 27.2508L16.1402 27.2427L16.1393 27.243Z" fill="white"/>
<path d="M17.4367 26.9986C17.5154 26.9832 17.5833 26.9718 17.6397 26.964C17.6964 26.9564 17.7491 26.9516 17.7978 26.9501C17.8466 26.9483 17.8975 26.9492 17.9507 26.9525L17.9592 27.1453C17.9057 27.1504 17.856 27.1565 17.8099 27.1628C17.7637 27.1691 17.715 27.1766 17.6629 27.185C17.6109 27.1934 17.5489 27.2046 17.4772 27.2187C17.3652 27.2407 17.2806 27.2786 17.2236 27.333C17.1666 27.3874 17.1337 27.4659 17.1246 27.5688C17.1154 27.6716 17.1269 27.8079 17.1586 27.9781C17.1904 28.1483 17.2289 28.2792 17.2741 28.3715C17.3194 28.4638 17.3785 28.5243 17.4511 28.5535C17.5236 28.5826 17.6159 28.5859 17.7279 28.5643C17.8416 28.542 17.9371 28.5213 18.0144 28.502C18.0914 28.4828 18.1661 28.4608 18.2378 28.4365L18.2989 28.6187C18.2257 28.6554 18.1496 28.6864 18.0697 28.7114C17.99 28.7363 17.8895 28.7607 17.7687 28.7841C17.5936 28.8184 17.4478 28.8169 17.3312 28.7802C17.2145 28.7435 17.1204 28.6644 17.049 28.5438C16.9776 28.4232 16.9212 28.2527 16.8803 28.0326C16.8395 27.8124 16.8304 27.6329 16.8536 27.4936C16.8768 27.3543 16.9359 27.2458 17.0311 27.1676C17.1263 27.0894 17.2615 27.0331 17.4367 26.9992V26.9986Z" fill="white"/>
<path d="M18.8131 26.6565C18.8974 26.6267 18.9832 26.5966 19.0711 26.5657C19.1587 26.5347 19.2456 26.5055 19.3315 26.4781C19.4173 26.4505 19.4999 26.4255 19.5792 26.403L19.6315 26.5918L18.9359 26.8366C18.8853 26.8544 18.8521 26.8797 18.8369 26.9118C18.8213 26.9443 18.8225 26.987 18.8404 27.04L19.1639 28.0027C19.1819 28.0556 19.2066 28.0905 19.2386 28.107C19.2706 28.1236 19.3118 28.123 19.3623 28.1052L20.0579 27.8604L20.1296 28.0397C20.0538 28.0719 19.9733 28.1037 19.889 28.1353C19.8043 28.1669 19.7182 28.1985 19.6309 28.2301C19.5436 28.2616 19.4575 28.2923 19.3735 28.3221C19.2689 28.3588 19.1769 28.3612 19.0972 28.329C19.0176 28.2968 18.9618 28.2364 18.93 28.147L18.5694 27.0736C18.5403 26.9816 18.5477 26.8983 18.5915 26.8237C18.6353 26.7491 18.7093 26.6935 18.8139 26.6565H18.8131ZM18.7484 27.4571L19.6994 27.1224L19.7617 27.3076L18.8107 27.6424L18.7484 27.4571Z" fill="white"/>
<path d="M21.3584 25.4287C21.488 25.3484 21.5994 25.2987 21.692 25.2789C21.7846 25.2593 21.8674 25.2735 21.9406 25.3216C22.0138 25.3697 22.0872 25.456 22.161 25.5808C22.2339 25.7045 22.2747 25.8103 22.2833 25.8993C22.2918 25.9881 22.268 26.0684 22.2113 26.14C22.1545 26.2115 22.0661 26.2846 21.9456 26.3592C21.8801 26.3998 21.8163 26.4374 21.7543 26.4717C21.6923 26.506 21.6344 26.5361 21.5806 26.5613C21.5268 26.5866 21.4801 26.607 21.4404 26.6227C21.4007 26.6383 21.3722 26.6476 21.3552 26.65L21.2876 26.5195C21.3699 26.4687 21.4554 26.4157 21.5439 26.361C21.6323 26.3063 21.7208 26.2515 21.8095 26.1968C21.8818 26.1502 21.9347 26.1054 21.9679 26.063C22.0011 26.0206 22.0147 25.9727 22.0082 25.9192C22.0017 25.8657 21.9756 25.8007 21.9303 25.7237C21.8839 25.6452 21.8392 25.5908 21.796 25.5598C21.7528 25.5291 21.7049 25.5186 21.6523 25.5282C21.5997 25.5378 21.5368 25.5655 21.4636 25.6106C21.3355 25.6897 21.2253 25.7589 21.133 25.8181C21.0407 25.8771 20.9796 25.918 20.9493 25.9409L20.8171 25.7908C20.8718 25.7493 20.9241 25.7108 20.9743 25.6759C21.0246 25.641 21.0798 25.6043 21.1404 25.5658C21.2009 25.5273 21.2741 25.4816 21.3596 25.429L21.3584 25.4287ZM21.0449 25.6491L21.9324 27.1523L21.7034 27.294L20.8159 25.7908L21.0449 25.6491Z" fill="white"/>
<path d="M22.824 24.3346C22.9278 24.2453 23.0256 24.1809 23.1179 24.1415C23.2102 24.1021 23.2998 24.0901 23.3874 24.1058C23.4747 24.1214 23.5652 24.1656 23.6587 24.2381C23.7521 24.3106 23.8532 24.4131 23.9619 24.5458C24.0698 24.6769 24.1509 24.7963 24.2053 24.9034C24.2597 25.0107 24.287 25.1097 24.287 25.2005C24.287 25.2913 24.2602 25.3798 24.2065 25.4661C24.1527 25.5524 24.0739 25.6399 23.9702 25.7292C23.8664 25.8186 23.7686 25.8829 23.6763 25.9223C23.584 25.9617 23.4938 25.9741 23.4059 25.9587C23.3178 25.9437 23.2264 25.8998 23.1317 25.827C23.0371 25.7542 22.936 25.6525 22.8282 25.5211C22.7194 25.3888 22.6383 25.2688 22.5851 25.1614C22.5319 25.0543 22.5058 24.9548 22.5064 24.8634C22.5069 24.7719 22.5343 24.6832 22.5881 24.5969C22.6418 24.5106 22.7206 24.4231 22.8243 24.3337L22.824 24.3346ZM22.9633 24.5043C22.8746 24.5807 22.8176 24.6573 22.7926 24.7343C22.7673 24.8113 22.7756 24.897 22.8167 24.9912C22.8578 25.0853 22.9342 25.1999 23.045 25.3349C23.155 25.4688 23.2519 25.5647 23.336 25.6231C23.42 25.6814 23.5014 25.7046 23.5799 25.6925C23.6584 25.6805 23.7421 25.636 23.8309 25.5599C23.9196 25.4835 23.9761 25.4071 24.0007 25.3307C24.0251 25.2543 24.0169 25.1683 23.9758 25.073C23.9346 24.9777 23.8591 24.8631 23.7492 24.7292C23.6381 24.5942 23.5405 24.4979 23.4565 24.4408C23.3721 24.3837 23.2913 24.3608 23.2134 24.3722C23.1356 24.384 23.0524 24.4279 22.9636 24.504L22.9633 24.5043Z" fill="white"/>
<path d="M23.9994 23.228L25.2531 24.4271L25.0706 24.6271L23.8169 23.428L23.9994 23.228Z" fill="white"/>
<path d="M25.2945 21.5353L26.6052 22.5083C26.6575 22.5471 26.6643 22.594 26.6255 22.6484L26.4906 22.8388C26.4727 22.8641 26.4536 22.8794 26.433 22.8854C26.4124 22.8914 26.3883 22.8923 26.3607 22.8875L25.0676 22.6917C25.0315 22.6851 24.9898 22.6779 24.943 22.6704C24.8963 22.6629 24.8549 22.6523 24.819 22.6394L24.7955 22.6728C24.8284 22.6926 24.8613 22.7137 24.8939 22.7357C24.9266 22.7576 24.9589 22.7805 24.9912 22.8045L25.9898 23.5459L25.8358 23.763L24.5251 22.7901C24.4728 22.7513 24.4663 22.7038 24.5063 22.6475L24.6365 22.4638C24.6544 22.4388 24.6738 22.4226 24.695 22.4159C24.7161 22.4093 24.7405 22.4081 24.7679 22.4126L26.0242 22.6081C26.0639 22.6129 26.1086 22.6193 26.1576 22.6277C26.207 22.6361 26.2555 22.6445 26.3028 22.6526L26.3281 22.6172C26.2896 22.5934 26.2523 22.5687 26.2155 22.5438C26.1788 22.5188 26.1432 22.4935 26.1083 22.4674L25.142 21.7501L25.2942 21.535L25.2945 21.5353Z" fill="white"/>
<path d="M26.2015 19.7894L26.3922 19.8884L25.7413 21.2045L25.5505 21.1055L26.2015 19.7894ZM25.9358 20.3266L27.4669 21.1197L27.3462 21.3639L25.815 20.5708L25.9358 20.3266Z" fill="white"/>
<path d="M26.5193 18.795C26.5493 18.709 26.5825 18.6209 26.6192 18.5307C26.6559 18.4404 26.6985 18.3526 26.7476 18.2672L26.909 18.343C26.8813 18.4164 26.8517 18.4991 26.8196 18.5908C26.7876 18.6829 26.7576 18.7722 26.7291 18.8585C26.7091 18.919 26.6938 18.9716 26.6827 19.0158C26.6715 19.06 26.6686 19.0985 26.6739 19.131C26.6789 19.1635 26.695 19.1917 26.7223 19.2155C26.7497 19.2393 26.7905 19.2606 26.8458 19.2796C26.9289 19.3081 26.9933 19.3111 27.0386 19.288C27.0838 19.2651 27.1276 19.2176 27.1705 19.1457L27.3762 18.8152C27.4532 18.6877 27.5373 18.6107 27.629 18.5845C27.7207 18.5583 27.8294 18.5668 27.9552 18.6101C28.0495 18.6426 28.1218 18.6805 28.1724 18.7238C28.2229 18.7671 28.2558 18.8188 28.2711 18.879C28.2864 18.9391 28.2876 19.0101 28.2746 19.0922C28.2617 19.1743 28.2376 19.269 28.2023 19.3764C28.1829 19.4354 28.155 19.5123 28.1186 19.6074C28.0821 19.7027 28.0322 19.8095 27.9687 19.9283L27.8027 19.851C27.8394 19.7499 27.8694 19.6675 27.8932 19.6035C27.917 19.5394 27.9364 19.4841 27.9517 19.4375L27.9975 19.2973C28.026 19.2107 28.0425 19.1406 28.0472 19.0862C28.0519 19.032 28.0398 18.9884 28.0113 18.9556C27.9828 18.9229 27.9346 18.8946 27.867 18.8714C27.8088 18.8516 27.7609 18.8432 27.723 18.8465C27.6851 18.8498 27.6528 18.8648 27.6257 18.891C27.5987 18.9174 27.5714 18.9535 27.544 19.0002L27.3304 19.3397C27.2549 19.4582 27.1714 19.5316 27.0797 19.5596C26.9883 19.5878 26.8813 19.5809 26.7585 19.5388C26.6642 19.5063 26.5919 19.4684 26.5413 19.4251C26.4908 19.3818 26.459 19.331 26.4458 19.2723C26.4326 19.214 26.4332 19.1457 26.4473 19.0678C26.4614 18.9899 26.4855 18.8991 26.5196 18.7953L26.5193 18.795Z" fill="white"/>
<path d="M1.74674 12.1494C1.77158 12.0587 1.7973 11.9673 1.82361 11.8751C1.84992 11.7828 1.87653 11.6918 1.90314 11.6017C1.92975 11.5116 1.95784 11.4269 1.9874 11.3474L2.18904 11.4205L1.99332 12.1336C1.97617 12.1964 1.97706 12.2462 1.99627 12.2826C2.01549 12.319 2.05481 12.346 2.11424 12.363L3.58778 12.7887L3.5115 13.0661L1.98681 12.6255C1.8786 12.5942 1.8038 12.5357 1.76211 12.4498C1.72043 12.3639 1.7154 12.2638 1.74704 12.1488L1.74674 12.1494ZM2.46459 12.7132L2.74398 11.6948L2.95479 11.7558L2.67539 12.7742L2.46459 12.7132Z" fill="white"/>
<path d="M2.25424 10.5952L3.66363 11.2006C3.71892 11.2243 3.76563 11.2279 3.80407 11.2109C3.8425 11.1942 3.87354 11.1563 3.89749 11.0977L4.16536 10.4408L4.37024 10.5133C4.33033 10.6359 4.28657 10.7585 4.23838 10.8817C4.19019 11.0049 4.14111 11.1275 4.09144 11.2498C4.03645 11.3845 3.96461 11.4673 3.87621 11.498C3.78751 11.5286 3.69408 11.5229 3.59563 11.4807L2.14722 10.8586L2.25454 10.5952H2.25424Z" fill="white"/>
<path d="M3.21368 8.60653C3.22581 8.58498 3.24295 8.56951 3.26454 8.5601C3.28612 8.55069 3.30859 8.54857 3.33165 8.55342L5.24897 8.97277L5.10174 9.23191L3.5117 8.85474C3.48362 8.84685 3.45553 8.83896 3.42744 8.83107C3.39936 8.82318 3.37304 8.8162 3.34821 8.81044L3.30859 8.88023C3.32574 8.89934 3.34466 8.91967 3.36536 8.94091C3.38576 8.96215 3.40586 8.984 3.42537 9.00676L4.52876 10.2408L4.383 10.4972L3.08241 8.99189C3.06674 8.97369 3.05758 8.95244 3.05492 8.92878C3.05226 8.9048 3.05699 8.88235 3.06911 8.8605L3.21339 8.60653H3.21368ZM4.35255 8.87385L4.55389 8.99432L4.056 9.87095L3.85466 9.75049L4.35255 8.87385Z" fill="white"/>
<path d="M4.16493 7.12261C4.22406 7.04796 4.28763 6.97271 4.35503 6.89654C4.42274 6.82038 4.49577 6.74907 4.57471 6.68323L4.71958 6.82524C4.66695 6.88805 4.609 6.95936 4.54603 7.03916C4.48276 7.11896 4.42244 7.19664 4.36479 7.2725C4.32429 7.32561 4.29117 7.37203 4.26545 7.41239C4.23943 7.45275 4.22406 7.49007 4.21874 7.52496C4.21342 7.55986 4.2214 7.59476 4.24209 7.62995C4.26309 7.66485 4.29916 7.70308 4.3509 7.74465C4.42924 7.80747 4.49547 7.83629 4.55046 7.83144C4.60516 7.82658 4.66665 7.79654 4.73495 7.74162L5.05721 7.49159C5.17902 7.39418 5.29226 7.35079 5.39692 7.36172C5.50158 7.37264 5.61305 7.42544 5.73101 7.52011C5.81941 7.59111 5.88327 7.65878 5.9223 7.72311C5.96133 7.78744 5.97907 7.85298 5.97581 7.91974C5.97256 7.98649 5.95068 8.05871 5.91047 8.13639C5.87027 8.21407 5.81439 8.29964 5.74313 8.39371C5.70381 8.44529 5.64971 8.51144 5.58082 8.59276C5.51193 8.67408 5.42471 8.76147 5.32005 8.85554L5.17075 8.70989C5.2417 8.62311 5.29995 8.5521 5.34548 8.49688C5.39101 8.44195 5.42915 8.39401 5.46049 8.35305C5.49153 8.31208 5.52287 8.27142 5.55391 8.23046C5.61157 8.1549 5.65148 8.09057 5.67395 8.03778C5.69642 7.98498 5.6979 7.93612 5.67839 7.89152C5.65887 7.84691 5.61778 7.79897 5.55421 7.74799C5.49951 7.7043 5.45191 7.67638 5.41111 7.66424C5.37031 7.65211 5.33158 7.65393 5.29463 7.6697C5.25767 7.68518 5.21746 7.71097 5.1737 7.74647L4.83991 8.00197C4.72253 8.09057 4.61107 8.13063 4.50611 8.12183C4.40116 8.11303 4.29088 8.06266 4.17587 7.97011C4.08747 7.8991 4.02361 7.83144 3.98458 7.76711C3.94555 7.70278 3.9287 7.63875 3.93373 7.57442C3.93875 7.5101 3.96122 7.44152 4.00114 7.36869C4.04105 7.29587 4.09575 7.21424 4.16493 7.12321V7.12261Z" fill="white"/>
<path d="M5.18734 5.96405L6.53168 7.39688L6.32945 7.59685L4.98511 6.16402L5.18734 5.96405ZM6.37025 5.9155L6.53197 6.08785L5.87858 6.73357L5.71685 6.56122L6.37025 5.9155ZM6.00689 5.15417L7.35123 6.58701L7.14694 6.7891L5.80259 5.35626L6.00689 5.15417Z" fill="white"/>
<path d="M7.18163 4.23814C7.20144 4.22357 7.22302 4.21659 7.24638 4.2172C7.26973 4.21781 7.29102 4.22539 7.31024 4.23965L8.88933 5.43186L8.65133 5.60573L7.3537 4.59012C7.33123 4.57101 7.30876 4.5522 7.28658 4.53308C7.26411 4.51396 7.24283 4.49667 7.22272 4.48058L7.15857 4.52731C7.16655 4.5522 7.17571 4.57859 7.18577 4.60651C7.19582 4.63443 7.20528 4.66295 7.21415 4.69208L7.72474 6.28301L7.48911 6.45536L6.90756 4.53399C6.90046 4.51062 6.90076 4.48756 6.90756 4.46481C6.91465 4.44205 6.92825 4.42323 6.94806 4.40867L7.18133 4.23814H7.18163ZM8.11205 4.96305L8.24717 5.15786L7.4418 5.74653L7.30669 5.55172L8.11205 4.96305Z" fill="white"/>
<path d="M9.19175 3.02307L9.30617 3.24124L7.97306 3.97769L7.85864 3.75952L9.19175 3.02307ZM8.64775 3.32378L9.56634 5.07522L9.31918 5.21177L8.40058 3.46033L8.64775 3.32378Z" fill="white"/>
<path d="M10.8845 2.32955C10.9646 2.30284 11.0338 2.2816 11.0917 2.26613C11.15 2.25065 11.2044 2.23912 11.2549 2.23123C11.3055 2.22334 11.359 2.21819 11.4155 2.21545L11.4542 2.42998C11.3989 2.44243 11.3478 2.45487 11.3008 2.46761C11.2535 2.48036 11.2035 2.49462 11.1503 2.5104C11.0971 2.52617 11.0341 2.5462 10.9611 2.57078C10.8472 2.60901 10.7644 2.66181 10.713 2.72948C10.6616 2.79714 10.6391 2.88909 10.6456 3.0053C10.6518 3.12152 10.6846 3.27263 10.744 3.45894C10.8032 3.64525 10.8635 3.78726 10.9253 3.88497C10.9868 3.98268 11.0577 4.04336 11.1382 4.06673C11.2186 4.0904 11.3155 4.08312 11.4297 4.04488C11.5453 4.00604 11.6422 3.97115 11.72 3.9402C11.7978 3.90925 11.8723 3.87556 11.9435 3.83945L12.0355 4.03608C11.9645 4.08615 11.8894 4.12984 11.8099 4.16777C11.7303 4.2054 11.6289 4.24485 11.5062 4.28612C11.3283 4.34559 11.1754 4.36197 11.0477 4.33497C10.92 4.30796 10.8094 4.23119 10.716 4.10496C10.6225 3.97843 10.5377 3.79485 10.4611 3.55362C10.3845 3.31238 10.3476 3.11242 10.3502 2.95402C10.3529 2.79532 10.3981 2.66667 10.4859 2.56744C10.5735 2.46822 10.7065 2.38902 10.8845 2.32955Z" fill="white"/>
<path d="M12.216 2.00708L12.5046 3.54703C12.5158 3.60741 12.5389 3.64929 12.5737 3.67265C12.6086 3.69602 12.6565 3.70178 12.7171 3.68995L13.3983 3.55552L13.453 3.77066C13.3315 3.80434 13.2076 3.83469 13.0811 3.86169C12.9545 3.8887 12.828 3.91449 12.7009 3.93968C12.561 3.96729 12.4543 3.95151 12.3804 3.89295C12.3065 3.83408 12.2595 3.75094 12.2394 3.64352L11.9431 2.06109L12.2163 2.00738L12.216 2.00708Z" fill="white"/>
<path d="M14.2367 1.69624C14.3787 1.68775 14.5008 1.69806 14.6028 1.72659C14.7048 1.75511 14.7878 1.807 14.852 1.88225C14.9162 1.9575 14.9655 2.06037 15.0001 2.19115C15.0347 2.32193 15.0575 2.48518 15.0684 2.6809C15.0794 2.8748 15.0749 3.03896 15.0554 3.17399C15.0359 3.30902 14.9983 3.41765 14.9428 3.49958C14.8875 3.58181 14.8106 3.6431 14.7124 3.68346C14.6143 3.72382 14.4943 3.7484 14.3523 3.75689C14.2101 3.76539 14.0883 3.75507 13.9863 3.72655C13.8843 3.69803 13.8006 3.64614 13.7356 3.57119C13.6703 3.49624 13.62 3.39277 13.5845 3.26107C13.549 3.12938 13.5257 2.96674 13.5147 2.77284C13.5038 2.57712 13.5085 2.41236 13.5292 2.27824C13.5499 2.14412 13.5884 2.03609 13.6445 1.95386C13.7007 1.87163 13.7782 1.81034 13.876 1.76968C13.9742 1.72932 14.0942 1.70474 14.2361 1.69624H14.2367ZM14.2509 1.94658C14.1294 1.95386 14.0345 1.9836 13.9662 2.03579C13.8979 2.08798 13.8524 2.17112 13.8296 2.28491C13.8069 2.39901 13.8012 2.55558 13.8125 2.75524C13.8237 2.95278 13.8468 3.10753 13.8822 3.2189C13.9174 3.33026 13.9721 3.40794 14.0457 3.45163C14.1194 3.49533 14.2169 3.51353 14.3387 3.50656C14.4603 3.49927 14.5546 3.46984 14.622 3.41765C14.6894 3.36546 14.7349 3.28201 14.7583 3.16701C14.7819 3.05201 14.7881 2.89573 14.7769 2.6982C14.7657 2.49853 14.742 2.34378 14.7056 2.23333C14.6693 2.12288 14.6149 2.0458 14.5421 2.00181C14.4694 1.95811 14.3721 1.9396 14.2506 1.94688L14.2509 1.94658Z" fill="white"/>
<path d="M17.059 1.84156L16.9478 3.05834C16.9301 3.25163 16.8932 3.40487 16.8367 3.51805C16.7802 3.63123 16.6983 3.70922 16.591 3.752C16.4837 3.79479 16.3441 3.80783 16.1726 3.79145C15.9938 3.77415 15.8536 3.7341 15.7519 3.67129C15.6505 3.60847 15.5813 3.51593 15.5447 3.39364C15.5077 3.27136 15.4983 3.11357 15.516 2.92028L15.6272 1.70349L15.9068 1.7305L15.7957 2.94728C15.783 3.08504 15.7865 3.1958 15.8063 3.27985C15.8258 3.3639 15.8663 3.4255 15.9275 3.46525C15.9887 3.505 16.0736 3.52988 16.1815 3.5405C16.2897 3.55082 16.3763 3.54233 16.442 3.51502C16.5073 3.48771 16.5585 3.4346 16.5948 3.35601C16.6312 3.27742 16.6557 3.1694 16.6682 3.03164L16.7793 1.81485L17.059 1.84186V1.84156Z" fill="white"/>
<path d="M18.4194 2.11138C18.5574 2.14688 18.6698 2.19392 18.757 2.25218C18.8442 2.31044 18.9075 2.38478 18.9471 2.4752C18.9867 2.56563 19.0039 2.6782 18.9992 2.81263C18.9941 2.94705 18.9687 3.10757 18.9232 3.29388C18.8776 3.48019 18.8259 3.63403 18.7682 3.7548C18.7106 3.87557 18.6435 3.9663 18.5669 4.02668C18.4903 4.08706 18.4002 4.12196 18.2967 4.13076C18.1932 4.13956 18.0723 4.12621 17.9342 4.09071C17.8035 4.05702 17.6829 4.02334 17.5723 3.98996C17.4617 3.95659 17.3574 3.92321 17.2595 3.88983L17.4286 3.69563C17.504 3.71899 17.588 3.74418 17.6808 3.77119C17.7737 3.79819 17.8771 3.82641 17.9916 3.85584C18.1078 3.88589 18.205 3.88619 18.2837 3.85706C18.3623 3.82793 18.4291 3.76239 18.4838 3.66043C18.5388 3.55878 18.5897 3.41192 18.6367 3.21984C18.6837 3.02776 18.7065 2.87362 18.705 2.7574C18.7035 2.64118 18.6751 2.55045 18.6195 2.48552C18.564 2.42058 18.4782 2.37325 18.362 2.34321C18.2494 2.31408 18.1483 2.28919 18.059 2.26795C17.9694 2.24671 17.8819 2.22608 17.7961 2.20605L17.7317 1.96057C17.8334 1.97878 17.9407 2.00032 18.0534 2.02429C18.1663 2.04857 18.2881 2.07739 18.4188 2.11108L18.4194 2.11138ZM18.0046 2.03097L17.5318 3.95992L17.2595 3.88953L17.7323 1.96057L18.0046 2.03097Z" fill="white"/>
<path d="M21.0349 3.07584C21.1112 3.11255 21.1757 3.14593 21.2283 3.17567C21.2809 3.2054 21.3282 3.23514 21.3705 3.26518C21.4128 3.29522 21.455 3.3289 21.4979 3.36653L21.3826 3.54981C21.3341 3.52007 21.2886 3.49306 21.2457 3.4694C21.2029 3.44542 21.1567 3.42054 21.1077 3.39475C21.0586 3.36896 20.9991 3.33922 20.9297 3.30554C20.8212 3.25304 20.7257 3.23362 20.6432 3.24667C20.5604 3.25972 20.4826 3.311 20.4099 3.39991C20.3369 3.48882 20.2597 3.62203 20.1784 3.79954C20.0971 3.97674 20.0463 4.1227 20.0259 4.23709C20.0055 4.35149 20.0167 4.44556 20.0593 4.51929C20.1018 4.59303 20.1775 4.65614 20.286 4.70864C20.396 4.76174 20.4897 4.80452 20.5672 4.83669C20.6447 4.86885 20.7212 4.89677 20.7972 4.92074L20.7328 5.12859C20.6479 5.11524 20.5639 5.09431 20.4806 5.06578C20.3975 5.03726 20.2973 4.99478 20.1805 4.93834C20.0111 4.85641 19.889 4.76083 19.8139 4.65129C19.7388 4.54175 19.7098 4.40823 19.7261 4.25045C19.7426 4.09266 19.8035 3.89906 19.9088 3.66966C20.014 3.44027 20.1208 3.26852 20.2287 3.15503C20.3366 3.04155 20.4554 2.97965 20.5855 2.96903C20.7156 2.95871 20.8652 2.99421 21.0346 3.07614L21.0349 3.07584Z" fill="white"/>
<path d="M22.5986 3.98109C22.7178 4.0612 22.8097 4.14373 22.8751 4.229C22.9404 4.31427 22.9771 4.40682 22.985 4.50634C22.993 4.60587 22.9732 4.71875 22.925 4.84498C22.8768 4.97121 22.8006 5.11625 22.6959 5.28011C22.5924 5.44245 22.4934 5.57202 22.3994 5.66821C22.3053 5.7647 22.2122 5.82903 22.12 5.86119C22.0277 5.89336 21.9304 5.89579 21.8281 5.86848C21.7259 5.84117 21.6153 5.78746 21.4961 5.70735C21.377 5.62724 21.2847 5.54471 21.2197 5.45944C21.1544 5.37418 21.1171 5.28132 21.1085 5.18119C21.0997 5.08105 21.1192 4.96727 21.1671 4.83982C21.215 4.71238 21.2906 4.56733 21.3941 4.40499C21.4988 4.24114 21.5981 4.11157 21.6924 4.01629C21.7868 3.92131 21.8805 3.8579 21.9733 3.82603C22.0662 3.79448 22.164 3.79205 22.2663 3.81966C22.3686 3.84697 22.4792 3.90068 22.5983 3.98079L22.5986 3.98109ZM22.4647 4.19077C22.363 4.12219 22.2693 4.08821 22.1841 4.08851C22.099 4.08851 22.0141 4.12765 21.9299 4.20533C21.8456 4.28301 21.7501 4.4056 21.6434 4.5728C21.5378 4.73847 21.4666 4.87684 21.4305 4.9879C21.3941 5.09896 21.3929 5.19484 21.4269 5.27495C21.4606 5.35506 21.5287 5.4294 21.6304 5.49798C21.7321 5.56656 21.8252 5.60024 21.9097 5.59963C21.994 5.59902 22.0792 5.55958 22.1646 5.48159C22.25 5.40361 22.3458 5.28193 22.4514 5.11625C22.5581 4.94906 22.6288 4.81008 22.664 4.69903C22.6989 4.58797 22.6997 4.49299 22.6666 4.41319C22.6335 4.33369 22.5661 4.25934 22.4644 4.19107L22.4647 4.19077Z" fill="white"/>
<path d="M24.7823 5.82534L23.9858 6.73414C23.8592 6.87857 23.7404 6.97871 23.6295 7.03515C23.5183 7.09159 23.4072 7.10403 23.2963 7.07277C23.1854 7.04122 23.0657 6.96657 22.9377 6.84823C22.804 6.72473 22.7148 6.607 22.6698 6.49442C22.6249 6.38185 22.6231 6.26533 22.6648 6.14456C22.7062 6.02379 22.7901 5.89149 22.9167 5.74705L23.7132 4.83826L23.9219 5.03094L23.1254 5.93974C23.0352 6.0426 22.9737 6.13363 22.9406 6.21313C22.9075 6.29264 22.9043 6.36698 22.9303 6.43616C22.9563 6.50565 23.0098 6.57756 23.0905 6.65191C23.1712 6.72655 23.2457 6.77267 23.3146 6.79088C23.3832 6.80909 23.4548 6.79756 23.5296 6.7569C23.6044 6.71623 23.6869 6.64432 23.777 6.54145L24.5735 5.63266L24.7823 5.82534Z" fill="white"/>
<path d="M26.215 7.54348L24.7956 8.72628C24.7388 8.77362 24.6886 8.76937 24.6451 8.71445L24.4928 8.52207C24.4727 8.49658 24.463 8.472 24.4633 8.44833C24.4636 8.42436 24.4707 8.39826 24.4843 8.36974L25.1004 7.01732C25.1187 6.97969 25.1394 6.9363 25.1625 6.88775C25.1856 6.8389 25.2092 6.79672 25.2343 6.76121L25.2077 6.72753C25.1767 6.75848 25.1445 6.78883 25.1116 6.81887C25.0785 6.84891 25.0448 6.87834 25.0099 6.90747L23.9284 7.80868L23.7549 7.5893L25.1743 6.4065C25.2311 6.35916 25.2816 6.36401 25.3266 6.42076L25.4735 6.60646C25.4936 6.63195 25.5037 6.65683 25.504 6.68141C25.504 6.70599 25.4975 6.73269 25.4839 6.76121L24.8798 8.07389C24.8624 8.11576 24.8411 8.16219 24.8169 8.21377C24.7923 8.26505 24.7684 8.31542 24.7447 8.36489L24.7731 8.40069C24.8101 8.36489 24.847 8.33029 24.8846 8.29692C24.9218 8.26323 24.9594 8.23077 24.9972 8.19921L26.0438 7.32713L26.2156 7.54409L26.215 7.54348Z" fill="white"/>
<path d="M26.9681 8.77147L25.3006 9.78495L25.1575 9.53704L26.825 8.52356L26.9681 8.77147ZM27.2829 9.31705L27.0751 9.44328L26.3037 8.10633L26.5116 7.9801L27.2829 9.31705Z" fill="white"/>
<path d="M27.6095 10.0477L25.8217 10.8154L25.7144 10.552L27.5022 9.7843L27.6095 10.0477ZM27.789 10.4206C27.8481 10.566 27.8809 10.6901 27.8874 10.7923C27.8936 10.8949 27.8676 10.9826 27.8091 11.0557C27.7505 11.1288 27.6539 11.1941 27.5193 11.252C27.4244 11.293 27.3402 11.3155 27.2668 11.3197C27.1935 11.3239 27.1288 11.3097 27.0726 11.2766C27.0164 11.2435 26.9662 11.1874 26.9218 11.1085L26.9088 11.114C26.9141 11.147 26.9126 11.1832 26.9041 11.2223C26.8955 11.2614 26.8792 11.3018 26.8547 11.3437C26.8302 11.3855 26.7935 11.4241 26.745 11.4596L26.2533 11.8738L26.1383 11.5919L26.6303 11.1932C26.6874 11.1437 26.7219 11.0945 26.7344 11.0454C26.7468 10.9962 26.7409 10.9416 26.716 10.8812C26.6705 10.7696 26.6318 10.6737 26.6001 10.5936C26.5685 10.5135 26.5425 10.4458 26.5221 10.3912C26.5017 10.3363 26.4848 10.292 26.4709 10.2586L26.6814 10.1776L26.9286 10.7838C26.9656 10.87 27.0034 10.934 27.0418 10.9759C27.0803 11.0178 27.1273 11.0396 27.1829 11.0417C27.2385 11.0439 27.3088 11.0269 27.3934 10.9905C27.4779 10.9541 27.5388 10.9149 27.5755 10.8733C27.6122 10.8315 27.6296 10.782 27.6275 10.7244C27.6255 10.667 27.6065 10.5948 27.5714 10.508C27.5108 10.359 27.4572 10.231 27.4114 10.1235C27.3656 10.0161 27.3351 9.94391 27.3201 9.90659L27.5019 9.78491C27.5362 9.84924 27.5675 9.91083 27.5956 9.9697C27.6237 10.0286 27.6527 10.0935 27.6828 10.1651C27.713 10.2364 27.7482 10.322 27.7887 10.4212L27.789 10.4206Z" fill="white"/>
<path d="M27.3212 12.6158L26.5099 12.8383L26.4375 12.5597L27.2488 12.3373L27.3212 12.6158ZM28.5482 12.963L27.1338 12.6553L27.0678 12.4019L28.144 11.4091L28.2209 11.7043L27.5515 12.3054C27.5214 12.3315 27.4897 12.3561 27.456 12.3795C27.4223 12.4025 27.3892 12.4256 27.3564 12.4486L27.3614 12.4681C27.401 12.4711 27.4412 12.4744 27.4818 12.4784C27.5226 12.482 27.561 12.4869 27.5974 12.4929L28.4722 12.6711L28.5482 12.9636V12.963Z" fill="white"/>
<ellipse cx="2.35169" cy="15.4384" rx="0.900276" ry="0.900279" fill="white"/>
<ellipse cx="27.6156" cy="15.4384" rx="0.900276" ry="0.900279" fill="white"/>
</svg>
