<svg width="325" height="180" viewBox="0 0 325 180" fill="none" xmlns="http://www.w3.org/2000/svg">
<mask id="mask0_3733_11397" style="mask-type:alpha" maskUnits="userSpaceOnUse" x="0" y="0" width="325" height="180">
<rect width="325" height="180" rx="5" fill="#D9D9D9"/>
</mask>
<g mask="url(#mask0_3733_11397)">
<path d="M391.994 -135.541H-129.992V241.798H391.994V-135.541Z" fill="#FFAFFD"/>
<path style="mix-blend-mode:overlay" d="M-38.1992 162.96C-69.4975 162.96 -100.169 160.031 -129.992 154.432V241.801H391.994V-72.6133C294.654 70.2851 138.211 162.96 -38.1992 162.96Z" fill="url(#paint0_linear_3733_11397)"/>
<path style="mix-blend-mode:overlay" d="M74.5486 232.235C2.097 232.235 -66.9791 216.598 -129.986 188.275V241.804H392V118.98C303.234 190.154 193.422 232.243 74.5486 232.243V232.235Z" fill="url(#paint1_linear_3733_11397)"/>
<g style="mix-blend-mode:overlay">
<path d="M391.994 118.973C303.228 190.146 193.416 232.235 74.5428 232.235C2.09114 232.235 -66.985 216.598 -129.992 188.275" stroke="white" stroke-width="0.25" stroke-miterlimit="10"/>
</g>
<path style="mix-blend-mode:overlay" d="M-94.6035 -135.541H-129.994V241.798H168.032C37.0971 163.274 -60.229 26.896 -94.6035 -135.541Z" fill="url(#paint2_linear_3733_11397)"/>
<g style="mix-blend-mode:overlay">
<path d="M168.034 241.806C37.099 163.274 -60.227 26.896 -94.6016 -135.541" stroke="white" stroke-width="0.5" stroke-miterlimit="10"/>
</g>
<path d="M-129.992 97.8965V241.806H68.453C-7.51338 210.434 -75.1767 160.814 -129.992 97.8965Z" fill="#FFAFFD"/>
<g style="mix-blend-mode:overlay">
<path d="M-129.992 97.8965V241.806H68.453C-7.51338 210.434 -75.1767 160.814 -129.992 97.8965Z" stroke="white" stroke-width="0.25" stroke-miterlimit="10"/>
</g>
<path style="mix-blend-mode:overlay" d="M391.994 69.2636V-135.541H230.93C272.549 -56.8733 327.323 12.5646 391.994 69.2561V69.2636Z" fill="url(#paint3_linear_3733_11397)"/>
<g style="mix-blend-mode:overlay">
<path d="M230.938 -135.541C272.557 -56.8733 327.331 12.5646 392.001 69.2561" stroke="white" stroke-width="0.5" stroke-miterlimit="10"/>
</g>
<path style="mix-blend-mode:overlay" d="M391.995 29.3261V-135.541H313.391C333.136 -76.6761 359.673 -21.3431 391.995 29.3185V29.3261Z" fill="url(#paint4_linear_3733_11397)"/>
<g style="mix-blend-mode:overlay">
<path d="M313.398 -135.541C333.143 -76.6761 359.681 -21.3431 392.003 29.3185" stroke="white" stroke-width="0.25" stroke-miterlimit="10"/>
</g>
<g style="mix-blend-mode:overlay" opacity="0.5">
<path d="M391.992 -23.752C279.319 96.174 124.895 170.14 -45.4603 170.14C-74.1277 170.14 -102.35 168.042 -129.994 163.989" stroke="white" stroke-width="0.25" stroke-miterlimit="10"/>
<path d="M391.992 -9.31055C279.814 105.521 128.298 176.031 -38.403 176.031C-69.5342 176.031 -100.123 173.518 -129.994 168.68" stroke="white" stroke-width="0.28" stroke-miterlimit="10"/>
<path d="M391.993 5.13867C280.302 114.869 131.703 181.922 -31.3447 181.922C-64.9327 181.922 -97.8874 178.994 -130 173.364" stroke="white" stroke-width="0.31" stroke-miterlimit="10"/>
<path d="M391.992 19.582C280.795 124.218 135.105 187.807 -24.2815 187.807C-60.3264 187.807 -95.6544 184.457 -129.994 178.049" stroke="white" stroke-width="0.33" stroke-miterlimit="10"/>
<path d="M391.993 34.0352C281.29 133.57 138.51 193.71 -17.2232 193.71C-55.7318 193.71 -93.4262 189.944 -130 182.752" stroke="white" stroke-width="0.36" stroke-miterlimit="10"/>
<path d="M391.992 48.4785C281.776 142.919 141.912 199.595 -10.1601 199.595C-51.1255 199.595 -91.1862 195.414 -129.994 187.43" stroke="white" stroke-width="0.39" stroke-miterlimit="10"/>
<path d="M391.999 62.9219C282.277 152.261 145.322 205.481 -3.09588 205.481C-46.5181 205.481 -88.9521 200.885 -129.994 192.115" stroke="white" stroke-width="0.42" stroke-miterlimit="10"/>
<path d="M391.999 77.377C282.765 161.622 148.725 211.385 3.96137 211.385C-41.9177 211.385 -86.725 206.367 -129.994 196.82" stroke="white" stroke-width="0.44" stroke-miterlimit="10"/>
<path d="M392 91.8184C283.26 170.962 152.13 217.269 11.0264 217.269C-37.3164 217.269 -84.4831 211.835 -129.986 201.503" stroke="white" stroke-width="0.47" stroke-miterlimit="10"/>
<path d="M391.999 106.264C283.753 180.313 155.532 223.163 18.0828 223.163C-32.7168 223.163 -82.2568 217.315 -129.994 206.191" stroke="white" stroke-width="0.5" stroke-miterlimit="10"/>
</g>
<g style="mix-blend-mode:overlay" opacity="0.7">
<path d="M213.76 241.798C104.588 149.471 30.9884 16.0286 12.2734 -135.541" stroke="white" stroke-width="0.25" stroke-miterlimit="10" stroke-linecap="round"/>
</g>
</g>
<defs>
<linearGradient id="paint0_linear_3733_11397" x1="119.517" y1="43.5393" x2="192.898" y2="266.638" gradientUnits="userSpaceOnUse">
<stop stop-color="#848484"/>
<stop offset="1" stop-color="white" stop-opacity="0"/>
</linearGradient>
<linearGradient id="paint1_linear_3733_11397" x1="-129.993" y1="180.389" x2="391.993" y2="180.389" gradientUnits="userSpaceOnUse">
<stop stop-color="#848484"/>
<stop offset="1" stop-color="white" stop-opacity="0"/>
</linearGradient>
<linearGradient id="paint2_linear_3733_11397" x1="33.9025" y1="39.8085" x2="-144.658" y2="175.777" gradientUnits="userSpaceOnUse">
<stop stop-color="#848484"/>
<stop offset="1" stop-color="white" stop-opacity="0"/>
</linearGradient>
<linearGradient id="paint3_linear_3733_11397" x1="278.319" y1="-6.40042" x2="441.027" y2="-118.034" gradientUnits="userSpaceOnUse">
<stop stop-color="#5E5E5E"/>
<stop offset="1" stop-color="#CCCCCC" stop-opacity="0"/>
</linearGradient>
<linearGradient id="paint4_linear_3733_11397" x1="322.25" y1="-43.8098" x2="503.808" y2="-90.9647" gradientUnits="userSpaceOnUse">
<stop stop-color="#848484"/>
<stop offset="1" stop-color="white" stop-opacity="0"/>
</linearGradient>
</defs>
</svg>
