<svg width="182" height="38" viewBox="0 0 182 38" fill="none" xmlns="http://www.w3.org/2000/svg">
<mask id="mask0_3693_68974" style="mask-type:alpha" maskUnits="userSpaceOnUse" x="0" y="0" width="182" height="38">
<path d="M0 0.5H174C178.142 0.5 181.5 3.85786 181.5 8V30.5C181.5 34.6421 178.142 38 174 38H0V0.5Z" fill="#FFF3B2"/>
</mask>
<g mask="url(#mask0_3693_68974)">
<path d="M181.498 -36.001H0.00390625V84.9948H181.498V-36.001Z" fill="#B227C1"/>
<path style="mix-blend-mode:overlay" d="M31.9202 59.7134C21.0378 59.7134 10.3732 58.7745 0.00390625 56.9789V84.9943H181.498V-15.8242C147.653 29.9969 93.2578 59.7134 31.9202 59.7134Z" fill="url(#paint0_linear_3693_68974)"/>
<path style="mix-blend-mode:overlay" d="M12.3092 -36.001H0.00390625V84.9948H103.627C58.1012 59.8156 24.2611 16.0853 12.3092 -36.001Z" fill="url(#paint1_linear_3693_68974)"/>
<g style="mix-blend-mode:overlay">
<path d="M103.627 84.9972C58.1007 59.8156 24.2606 16.0853 12.3086 -36.001" stroke="white" stroke-width="0.75" stroke-miterlimit="10"/>
</g>
<path style="mix-blend-mode:overlay" d="M181.498 29.6707V-36.001H125.496C139.967 -10.7758 159.012 11.4899 181.498 29.6683V29.6707Z" fill="url(#paint2_linear_3693_68974)"/>
<g style="mix-blend-mode:overlay">
<path d="M125.496 -36.001C139.967 -10.7758 159.012 11.4899 181.498 29.6683" stroke="white" stroke-width="0.75" stroke-miterlimit="10"/>
</g>
<path style="mix-blend-mode:overlay" d="M181.495 16.8645V-36.001H154.164C161.029 -17.1256 170.257 0.617191 181.495 16.8621V16.8645Z" fill="url(#paint3_linear_3693_68974)"/>
<g style="mix-blend-mode:overlay">
<path d="M154.168 -36.001C161.033 -17.1256 170.26 0.617191 181.498 16.8621" stroke="white" stroke-width="0.375" stroke-miterlimit="10"/>
</g>
<g style="mix-blend-mode:overlay" opacity="0.5">
<path d="M181.494 -0.152954C142.318 38.3019 88.6246 62.0195 29.3923 62.0195C19.4247 62.0195 9.6119 61.3468 0 60.0473" stroke="white" stroke-width="0.375" stroke-miterlimit="10"/>
<path d="M181.494 4.47888C142.489 41.3003 89.8079 63.9096 31.8461 63.9096C21.0218 63.9096 10.3863 63.1038 0 61.5526" stroke="white" stroke-width="0.42" stroke-miterlimit="10"/>
<path d="M181.496 9.11069C142.661 44.2963 90.9937 65.7972 34.3023 65.7972C22.6238 65.7972 11.1655 64.8583 0 63.053" stroke="white" stroke-width="0.465" stroke-miterlimit="10"/>
<path d="M181.494 13.7426C142.831 47.2947 92.1746 67.6849 36.7561 67.6849C24.2234 67.6849 11.9399 66.6104 0 64.5559" stroke="white" stroke-width="0.495" stroke-miterlimit="10"/>
<path d="M181.496 18.3772C143.005 50.2934 93.3603 69.5778 39.2123 69.5778C25.8229 69.5778 12.7167 68.3702 0 66.064" stroke="white" stroke-width="0.54" stroke-miterlimit="10"/>
<path d="M181.494 23.0077C143.172 53.2905 94.5413 71.4641 41.6661 71.4641C27.4225 71.4641 13.4934 70.1234 0 67.5632" stroke="white" stroke-width="0.585" stroke-miterlimit="10"/>
<path d="M181.496 27.6396C143.346 56.2866 95.727 73.3518 44.1223 73.3518C29.0245 73.3518 14.2702 71.8781 0 69.0662" stroke="white" stroke-width="0.63" stroke-miterlimit="10"/>
<path d="M181.496 32.2728C143.516 59.2863 96.9104 75.2433 46.5761 75.2433C30.624 75.2433 15.0446 73.634 0 70.5728" stroke="white" stroke-width="0.66" stroke-miterlimit="10"/>
<path d="M181.501 36.9061C143.693 62.2838 98.0991 77.1324 49.0377 77.1324C32.229 77.1324 15.8292 75.39 0.0078125 72.0772" stroke="white" stroke-width="0.705" stroke-miterlimit="10"/>
</g>
<g style="mix-blend-mode:overlay" opacity="0.7">
<path d="M119.525 84.9948C81.5665 55.3896 55.9759 12.6006 49.4688 -36.001" stroke="white" stroke-width="0.375" stroke-miterlimit="10" stroke-linecap="round"/>
</g>
</g>
<defs>
<linearGradient id="paint0_linear_3693_68974" x1="86.7579" y1="21.4207" x2="108.779" y2="94.0182" gradientUnits="userSpaceOnUse">
<stop stop-color="#848484"/>
<stop offset="1" stop-color="white" stop-opacity="0"/>
</linearGradient>
<linearGradient id="paint1_linear_3693_68974" x1="56.9905" y1="20.2258" x2="-1.33189" y2="68.3821" gradientUnits="userSpaceOnUse">
<stop stop-color="#848484"/>
<stop offset="1" stop-color="white" stop-opacity="0"/>
</linearGradient>
<linearGradient id="paint2_linear_3693_68974" x1="141.973" y1="5.40862" x2="195.533" y2="-34.4377" gradientUnits="userSpaceOnUse">
<stop stop-color="#848484"/>
<stop offset="1" stop-color="white" stop-opacity="0"/>
</linearGradient>
<linearGradient id="paint3_linear_3693_68974" x1="157.245" y1="-6.5869" x2="219.678" y2="-24.17" gradientUnits="userSpaceOnUse">
<stop stop-color="#848484"/>
<stop offset="1" stop-color="white" stop-opacity="0"/>
</linearGradient>
</defs>
</svg>
