<svg width="488" height="270" viewBox="0 0 488 270" fill="none" xmlns="http://www.w3.org/2000/svg">
<mask id="mask0_3693_68943" style="mask-type:alpha" maskUnits="userSpaceOnUse" x="0" y="0" width="488" height="270">
<rect width="487.5" height="270" rx="7.5" fill="#D9D9D9"/>
</mask>
<g mask="url(#mask0_3693_68943)">
<path d="M646.866 -114.262H0.0078125V353.346H646.866V-114.262Z" fill="url(#paint0_linear_3693_68943)"/>
<path style="mix-blend-mode:overlay" d="M113.76 255.648C74.9743 255.648 36.965 252.019 0.0078125 245.08V353.35H646.866V-36.2802C526.24 140.803 332.372 255.648 113.76 255.648Z" fill="url(#paint1_linear_3693_68943)"/>
<path style="mix-blend-mode:overlay" d="M253.48 341.496C163.697 341.496 78.0957 322.118 0.015625 287.02V353.355H646.873V201.148C536.873 289.348 400.791 341.505 253.48 341.505V341.496Z" fill="url(#paint2_linear_3693_68943)"/>
<g style="mix-blend-mode:overlay">
<path d="M646.866 201.138C536.865 289.338 400.784 341.495 253.473 341.495C163.689 341.495 78.0879 322.118 0.0078125 287.019" stroke="white" stroke-width="0.375" stroke-miterlimit="10"/>
</g>
<path style="mix-blend-mode:overlay" d="M43.8648 -114.262H0.0078125V353.346H369.329C207.071 256.037 86.4625 87.0337 43.8648 -114.262Z" fill="url(#paint3_linear_3693_68943)"/>
<g style="mix-blend-mode:overlay">
<path d="M369.332 353.355C207.074 256.037 86.4649 87.0336 43.8672 -114.262" stroke="white" stroke-width="0.75" stroke-miterlimit="10"/>
</g>
<path d="M0.0078125 175.023V353.359H245.926C151.787 314.482 67.9365 252.992 0.0078125 175.023Z" fill="url(#paint4_linear_3693_68943)"/>
<g style="mix-blend-mode:overlay">
<path d="M0.0078125 175.023V353.359H245.926C151.787 314.482 67.9365 252.992 0.0078125 175.023Z" stroke="white" stroke-width="0.375" stroke-miterlimit="10"/>
</g>
<path style="mix-blend-mode:overlay" d="M646.868 139.537V-114.262H447.273C498.85 -16.7753 566.727 69.2739 646.868 139.527V139.537Z" fill="url(#paint5_linear_3693_68943)"/>
<g style="mix-blend-mode:overlay">
<path d="M447.281 -114.262C498.857 -16.7753 566.734 69.2739 646.876 139.527" stroke="white" stroke-width="0.75" stroke-miterlimit="10"/>
</g>
<g style="mix-blend-mode:overlay" opacity="0.5">
<path d="M646.866 24.2695C507.239 172.885 315.873 264.545 104.764 264.545C69.2388 264.545 34.2654 261.945 0.0078125 256.923" stroke="white" stroke-width="0.375" stroke-miterlimit="10"/>
<path d="M646.866 42.1668C507.852 184.469 320.09 271.847 113.51 271.847C74.9312 271.847 37.0253 268.732 0.0078125 262.738" stroke="white" stroke-width="0.42" stroke-miterlimit="10"/>
<path d="M646.866 60.0685C508.456 196.049 324.309 279.143 122.256 279.143C80.633 279.143 39.7947 275.514 0 268.538" stroke="white" stroke-width="0.465" stroke-miterlimit="10"/>
<path d="M646.866 77.9706C509.068 207.638 328.525 286.44 131.009 286.44C86.3418 286.44 42.5624 282.287 0.0078125 274.347" stroke="white" stroke-width="0.495" stroke-miterlimit="10"/>
<path d="M646.866 95.8813C509.681 219.227 332.744 293.754 139.756 293.754C92.0349 293.754 45.3232 289.088 0 280.175" stroke="white" stroke-width="0.54" stroke-miterlimit="10"/>
<path d="M646.866 113.777C510.284 230.81 336.96 301.045 148.509 301.045C97.7437 301.045 48.0995 295.864 0.0078125 285.969" stroke="white" stroke-width="0.585" stroke-miterlimit="10"/>
<path d="M646.874 131.679C510.905 242.39 341.187 308.341 157.263 308.341C103.453 308.341 50.8681 302.646 0.0078125 291.779" stroke="white" stroke-width="0.63" stroke-miterlimit="10"/>
<path d="M646.874 149.59C511.509 253.988 345.404 315.656 166.009 315.656C109.154 315.656 53.628 309.437 0.0078125 297.606" stroke="white" stroke-width="0.66" stroke-miterlimit="10"/>
<path d="M646.873 167.489C512.12 265.565 349.621 322.95 174.762 322.95C114.854 322.95 56.4044 316.216 0.015625 303.413" stroke="white" stroke-width="0.705" stroke-miterlimit="10"/>
<path d="M646.874 185.389C512.733 277.153 353.839 330.254 183.508 330.254C120.556 330.254 59.1651 323.006 0.0078125 309.221" stroke="white" stroke-width="0.75" stroke-miterlimit="10"/>
</g>
<g style="mix-blend-mode:overlay" opacity="0.7">
<path d="M425.996 353.346C290.708 238.931 199.501 73.5665 176.309 -114.262" stroke="white" stroke-width="0.375" stroke-miterlimit="10" stroke-linecap="round"/>
</g>
</g>
<defs>
<linearGradient id="paint0_linear_3693_68943" x1="43.5974" y1="413.967" x2="559.66" y2="-47.8076" gradientUnits="userSpaceOnUse">
<stop stop-color="#FFF5BB"/>
<stop offset="1" stop-color="#FFE45F"/>
</linearGradient>
<linearGradient id="paint1_linear_3693_68943" x1="309.206" y1="107.659" x2="400.141" y2="384.129" gradientUnits="userSpaceOnUse">
<stop stop-color="#848484"/>
<stop offset="1" stop-color="white" stop-opacity="0"/>
</linearGradient>
<linearGradient id="paint2_linear_3693_68943" x1="0.00700023" y1="277.247" x2="646.865" y2="277.247" gradientUnits="userSpaceOnUse">
<stop stop-color="#848484"/>
<stop offset="1" stop-color="white" stop-opacity="0"/>
</linearGradient>
<linearGradient id="paint3_linear_3693_68943" x1="203.113" y1="103.035" x2="-18.1642" y2="271.531" gradientUnits="userSpaceOnUse">
<stop stop-color="#848484"/>
<stop offset="1" stop-color="white" stop-opacity="0"/>
</linearGradient>
<linearGradient id="paint4_linear_3693_68943" x1="0.0078125" y1="264.186" x2="245.926" y2="264.186" gradientUnits="userSpaceOnUse">
<stop stop-color="#FFF5BB"/>
<stop offset="1" stop-color="#FFE239"/>
</linearGradient>
<linearGradient id="paint5_linear_3693_68943" x1="505.999" y1="45.7719" x2="707.632" y2="-92.5666" gradientUnits="userSpaceOnUse">
<stop stop-color="#848484"/>
<stop offset="1" stop-color="white" stop-opacity="0"/>
</linearGradient>
</defs>
</svg>
