<svg width="325" height="180" viewBox="0 0 325 180" fill="none" xmlns="http://www.w3.org/2000/svg">
<mask id="mask0_3733_11310" style="mask-type:alpha" maskUnits="userSpaceOnUse" x="0" y="0" width="325" height="180">
<rect width="325" height="180" rx="5" fill="#D9D9D9"/>
</mask>
<g mask="url(#mask0_3733_11310)">
<path d="M431.244 -76.1748H0.00585938V235.564H431.244V-76.1748Z" fill="url(#paint0_linear_3733_11310)"/>
<path style="mix-blend-mode:overlay" d="M75.8406 170.432C49.9835 170.432 24.644 168.013 0.00585938 163.387V235.567H431.244V-24.1865C350.827 93.8689 221.582 170.432 75.8406 170.432Z" fill="url(#paint1_linear_3733_11310)"/>
<path style="mix-blend-mode:overlay" d="M168.988 227.664C109.132 227.664 52.0651 214.745 0.0117188 191.346V235.57H431.25V134.099C357.917 192.899 267.196 227.67 168.988 227.67V227.664Z" fill="url(#paint2_linear_3733_11310)"/>
<g style="mix-blend-mode:overlay">
<path d="M431.244 134.092C357.911 192.892 267.19 227.663 168.982 227.663C109.126 227.663 52.0592 214.745 0.00585938 191.346" stroke="white" stroke-width="0.25" stroke-miterlimit="10"/>
</g>
<path style="mix-blend-mode:overlay" d="M29.2419 -76.1748H0.00390625V235.564H246.218C138.046 170.691 57.6404 58.0225 29.2419 -76.1748Z" fill="url(#paint3_linear_3733_11310)"/>
<g style="mix-blend-mode:overlay">
<path d="M246.22 235.57C138.048 170.691 57.6426 58.0225 29.2441 -76.1748" stroke="white" stroke-width="0.5" stroke-miterlimit="10"/>
</g>
<path d="M0.00585938 116.682V235.573H163.951C101.192 209.655 45.2917 168.661 0.00585938 116.682Z" fill="url(#paint4_linear_3733_11310)"/>
<g style="mix-blend-mode:overlay">
<path d="M0.00585938 116.682V235.573H163.951C101.192 209.655 45.2917 168.661 0.00585938 116.682Z" stroke="white" stroke-width="0.25" stroke-miterlimit="10"/>
</g>
<path style="mix-blend-mode:overlay" d="M431.245 93.0245V-76.1748H298.182C332.566 -11.1835 377.817 46.1827 431.245 93.0183V93.0245Z" fill="url(#paint5_linear_3733_11310)"/>
<g style="mix-blend-mode:overlay">
<path d="M298.188 -76.1748C332.572 -11.1835 377.823 46.1827 431.25 93.0183" stroke="white" stroke-width="0.5" stroke-miterlimit="10"/>
</g>
<g style="mix-blend-mode:overlay" opacity="0.5">
<path d="M431.244 16.1797C338.16 115.256 210.583 176.364 69.8435 176.364C46.1599 176.364 22.8443 174.63 0.00585938 171.282" stroke="white" stroke-width="0.25" stroke-miterlimit="10"/>
<path d="M431.244 28.1113C338.568 122.98 213.394 181.231 75.6739 181.231C49.9548 181.231 24.6842 179.155 0.00585938 175.158" stroke="white" stroke-width="0.28" stroke-miterlimit="10"/>
<path d="M431.244 40.0459C338.971 130.7 216.206 186.095 81.5041 186.095C53.7553 186.095 26.5298 183.676 0 179.025" stroke="white" stroke-width="0.31" stroke-miterlimit="10"/>
<path d="M431.244 51.9805C339.379 138.426 219.018 190.96 87.3403 190.96C57.5618 190.96 28.3756 188.192 0.00585938 182.898" stroke="white" stroke-width="0.33" stroke-miterlimit="10"/>
<path d="M431.244 63.9209C339.787 146.151 221.829 195.836 93.1705 195.836C61.3566 195.836 30.2154 192.725 0 186.783" stroke="white" stroke-width="0.36" stroke-miterlimit="10"/>
<path d="M431.244 75.8516C340.19 153.874 224.641 200.697 99.0067 200.697C65.1631 200.697 32.067 197.243 0.00585938 190.646" stroke="white" stroke-width="0.39" stroke-miterlimit="10"/>
<path d="M431.25 87.7861C340.604 161.593 227.458 205.561 104.843 205.561C68.9695 205.561 33.9127 201.764 0.00585938 194.519" stroke="white" stroke-width="0.42" stroke-miterlimit="10"/>
<path d="M431.25 99.7266C341.006 169.325 230.27 210.437 110.673 210.437C72.7702 210.437 35.7527 206.291 0.00585938 198.404" stroke="white" stroke-width="0.44" stroke-miterlimit="10"/>
<path d="M431.25 111.659C341.415 177.043 233.082 215.3 116.509 215.3C76.5709 215.3 37.6042 210.811 0.0117188 202.275" stroke="white" stroke-width="0.47" stroke-miterlimit="10"/>
<path d="M431.25 123.593C341.823 184.768 235.893 220.169 122.34 220.169C80.3715 220.169 39.4441 215.337 0.00585938 206.147" stroke="white" stroke-width="0.5" stroke-miterlimit="10"/>
</g>
<g style="mix-blend-mode:overlay" opacity="0.7">
<path d="M283.997 235.564C193.805 159.288 133 49.0444 117.539 -76.1748" stroke="white" stroke-width="0.25" stroke-miterlimit="10" stroke-linecap="round"/>
</g>
<path d="M460.993 -86H-14.9941V211.18H460.993V-86Z" fill="#E6CD17"/>
<path style="mix-blend-mode:overlay" d="M68.7098 149.086C40.1696 149.086 12.2006 146.78 -14.9941 142.37V211.179H460.993V-36.4434C372.231 76.0987 229.574 149.086 68.7098 149.086Z" fill="url(#paint6_linear_3733_11310)"/>
<path style="mix-blend-mode:overlay" d="M171.523 203.649C105.455 203.649 42.4665 191.334 -14.9883 169.027V211.185H460.999V114.453C380.056 170.507 279.921 203.655 171.523 203.655V203.649Z" fill="url(#paint7_linear_3733_11310)"/>
<g style="mix-blend-mode:overlay">
<path d="M460.993 114.448C380.05 170.502 279.915 203.65 171.517 203.65C105.45 203.65 42.4607 191.335 -14.9941 169.028" stroke="white" stroke-width="0.0885112" stroke-miterlimit="10"/>
</g>
<path style="mix-blend-mode:overlay" d="M17.2778 -86H-14.9941V211.18H256.769C137.372 149.337 48.6231 41.9301 17.2778 -86Z" fill="url(#paint8_linear_3733_11310)"/>
<g style="mix-blend-mode:overlay">
<path d="M256.769 211.186C137.372 149.337 48.6227 41.9301 17.2773 -86" stroke="white" stroke-width="0.177022" stroke-miterlimit="10"/>
</g>
<path d="M-14.9941 97.8477V211.186H165.963C96.6915 186.479 34.9909 147.399 -14.9941 97.8477Z" fill="#E6CD17"/>
<g style="mix-blend-mode:overlay">
<path d="M-14.9941 97.8477V211.186H165.963C96.6915 186.479 34.9909 147.399 -14.9941 97.8477Z" stroke="white" stroke-width="0.0885112" stroke-miterlimit="10"/>
</g>
<path style="mix-blend-mode:overlay" d="M460.994 75.2975V-86H314.123C352.075 -24.0439 402.022 30.6432 460.994 75.2915V75.2975Z" fill="url(#paint9_linear_3733_11310)"/>
<g style="mix-blend-mode:overlay">
<path d="M314.129 -86C352.081 -24.0439 402.028 30.6432 460.999 75.2915" stroke="white" stroke-width="0.177022" stroke-miterlimit="10"/>
</g>
<g style="mix-blend-mode:overlay" opacity="0.5">
<path d="M460.993 2.04297C358.25 96.4928 217.434 154.746 62.0904 154.746C35.9492 154.746 10.2141 153.094 -14.9941 149.902" stroke="white" stroke-width="0.0885112" stroke-miterlimit="10"/>
<path d="M460.993 13.417C358.7 103.855 220.537 159.386 68.5257 159.386C40.1379 159.386 12.245 157.407 -14.9941 153.597" stroke="white" stroke-width="0.0991325" stroke-miterlimit="10"/>
<path d="M460.993 24.7939C359.145 111.214 223.641 164.023 74.9616 164.023C44.3334 164.023 14.2827 161.717 -15 157.283" stroke="white" stroke-width="0.109754" stroke-miterlimit="10"/>
<path d="M460.993 36.1719C359.595 118.58 226.744 168.661 81.4028 168.661C48.5343 168.661 16.3195 166.022 -14.9941 160.976" stroke="white" stroke-width="0.116835" stroke-miterlimit="10"/>
<path d="M460.993 47.5527C360.046 125.943 229.848 173.307 87.8386 173.307C52.7234 173.307 18.3508 170.342 -15 164.677" stroke="white" stroke-width="0.127456" stroke-miterlimit="10"/>
<path d="M460.993 58.9297C360.49 133.308 232.951 177.944 94.2798 177.944C56.9243 177.944 20.3939 174.652 -14.9941 168.363" stroke="white" stroke-width="0.138077" stroke-miterlimit="10"/>
<path d="M460.999 70.3057C360.947 140.666 236.061 182.58 100.722 182.58C61.1257 182.58 22.4311 178.961 -14.9941 172.054" stroke="white" stroke-width="0.148699" stroke-miterlimit="10"/>
<path d="M460.999 81.6875C361.391 148.036 239.164 187.228 107.157 187.228C65.3208 187.228 24.462 183.276 -14.9941 175.757" stroke="white" stroke-width="0.15578" stroke-miterlimit="10"/>
<path d="M460.999 93.0635C361.841 155.394 242.267 191.864 113.598 191.864C69.5153 191.864 26.5051 187.585 -14.9883 179.448" stroke="white" stroke-width="0.166401" stroke-miterlimit="10"/>
<path d="M460.999 104.439C362.292 162.758 245.371 196.506 120.034 196.506C73.7108 196.506 28.5365 191.9 -14.9941 183.139" stroke="white" stroke-width="0.177022" stroke-miterlimit="10"/>
</g>
<g style="mix-blend-mode:overlay" opacity="0.7">
<path d="M298.467 211.18C198.916 138.466 131.802 33.3713 114.736 -86" stroke="white" stroke-width="0.0885112" stroke-miterlimit="10" stroke-linecap="round"/>
</g>
</g>
<defs>
<linearGradient id="paint0_linear_3733_11310" x1="29.0656" y1="275.978" x2="373.107" y2="-31.8717" gradientUnits="userSpaceOnUse">
<stop stop-color="#FFE5A2"/>
<stop offset="1" stop-color="#FFE1A8"/>
</linearGradient>
<linearGradient id="paint1_linear_3733_11310" x1="206.138" y1="71.7729" x2="266.761" y2="256.086" gradientUnits="userSpaceOnUse">
<stop stop-color="#848484"/>
<stop offset="1" stop-color="white" stop-opacity="0"/>
</linearGradient>
<linearGradient id="paint2_linear_3733_11310" x1="0.0059689" y1="184.831" x2="431.244" y2="184.831" gradientUnits="userSpaceOnUse">
<stop stop-color="#848484"/>
<stop offset="1" stop-color="white" stop-opacity="0"/>
</linearGradient>
<linearGradient id="paint3_linear_3733_11310" x1="135.407" y1="68.6902" x2="-12.1108" y2="181.021" gradientUnits="userSpaceOnUse">
<stop stop-color="#848484"/>
<stop offset="1" stop-color="white" stop-opacity="0"/>
</linearGradient>
<linearGradient id="paint4_linear_3733_11310" x1="0.00585938" y1="176.124" x2="163.951" y2="176.124" gradientUnits="userSpaceOnUse">
<stop stop-color="#FFF5BB"/>
<stop offset="1" stop-color="#FFE3A7"/>
</linearGradient>
<linearGradient id="paint5_linear_3733_11310" x1="337.332" y1="30.5147" x2="471.754" y2="-61.7111" gradientUnits="userSpaceOnUse">
<stop stop-color="#848484"/>
<stop offset="1" stop-color="white" stop-opacity="0"/>
</linearGradient>
<linearGradient id="paint6_linear_3733_11310" x1="172.5" y1="36.5" x2="262.983" y2="236.642" gradientUnits="userSpaceOnUse">
<stop stop-color="#886A01"/>
<stop offset="1" stop-opacity="0"/>
</linearGradient>
<linearGradient id="paint7_linear_3733_11310" x1="-14.9946" y1="162.816" x2="460.992" y2="162.816" gradientUnits="userSpaceOnUse">
<stop stop-color="#A08E0A"/>
<stop offset="1" stop-color="#302F2F" stop-opacity="0"/>
</linearGradient>
<linearGradient id="paint8_linear_3733_11310" x1="134.459" y1="52.0996" x2="-10.2734" y2="179.705" gradientUnits="userSpaceOnUse">
<stop stop-color="#3F390C"/>
<stop offset="1" stop-color="white" stop-opacity="0"/>
</linearGradient>
<linearGradient id="paint9_linear_3733_11310" x1="357.336" y1="15.7069" x2="491.122" y2="-90.5708" gradientUnits="userSpaceOnUse">
<stop stop-color="#332F0E"/>
<stop offset="1" stop-color="#CCCCCC" stop-opacity="0"/>
</linearGradient>
</defs>
</svg>
