<svg width="283" height="142" viewBox="0 0 283 142" fill="none" xmlns="http://www.w3.org/2000/svg">
<circle cx="279.75" cy="30.75" r="2.75" fill="#B228E2" fill-opacity="0.5"/>
<circle cx="239.1" cy="4.1" r="2.8" stroke="#B227C1" stroke-width="1.4"/>
<circle cx="225.8" cy="66.3898" r="3.85" fill="white" stroke="#B227C1" stroke-width="2.1"/>
<ellipse cx="65.6008" cy="83.0535" rx="2.8" ry="2.76056" fill="#B228E2" fill-opacity="0.5"/>
<ellipse cx="24.5984" cy="44.4494" rx="4.2" ry="4.14084" fill="#B228E2" fill-opacity="0.5"/>
<path d="M7.2 112.682C10.274 112.682 12.8 110.22 12.8 107.141C12.8 104.062 10.274 101.6 7.2 101.6C4.12599 101.6 1.6 104.062 1.6 107.141C1.6 110.22 4.12599 112.682 7.2 112.682Z" fill="white" stroke="#B227C1" stroke-width="2.8"/>
<path fill-rule="evenodd" clip-rule="evenodd" d="M75 54.1288C75 50.58 77.8769 47.7031 81.4256 47.7031H171.384C174.933 47.7031 177.81 50.58 177.81 54.1288V118.385C177.81 121.934 174.933 124.811 171.384 124.811H92.4079C91.5562 124.811 90.7395 125.149 90.137 125.751L80.4836 135.396C78.4593 137.418 75 135.985 75 133.123V54.1288Z" fill="#A61BA9"/>
<g filter="url(#filter0_d_5926_75142)">
<path d="M102.309 48.7461H174.597V101.758H108.734C105.185 101.758 102.309 98.8807 102.309 95.3319V48.7461Z" fill="black" fill-opacity="0.01"/>
</g>
<rect x="105.52" y="22" width="102.81" height="77.1076" rx="6.42563" fill="#E258F1"/>
<mask id="mask0_5926_75142" style="mask-type:luminance" maskUnits="userSpaceOnUse" x="105" y="22" width="104" height="78">
<rect x="105.52" y="22" width="102.81" height="77.1076" rx="6.42563" fill="white"/>
</mask>
<g mask="url(#mask0_5926_75142)">
<g filter="url(#filter1_d_5926_75142)">
<path fill-rule="evenodd" clip-rule="evenodd" d="M105.52 29.7142C105.52 25.4538 108.973 22 113.234 22H200.585C204.862 22 208.33 25.4675 208.33 29.745V29.745C208.33 30.5526 207.983 31.3213 207.378 31.8559L162.185 71.7687C159.794 73.8804 156.215 73.9181 153.78 71.8574L106.513 31.8555C105.883 31.3225 105.52 30.5393 105.52 29.7142V29.7142Z" fill="black" fill-opacity="0.01"/>
</g>
<path fill-rule="evenodd" clip-rule="evenodd" d="M105.52 28.4279C105.52 24.8792 108.396 22 111.945 22H201.906C205.454 22 208.33 24.8758 208.33 28.4233V28.4233C208.33 30.4471 207.376 32.3525 205.756 33.5653L160.69 67.304C158.404 69.0156 155.263 69.0128 152.979 67.2974L108.085 33.5663C106.47 32.3525 105.52 30.4485 105.52 28.4279V28.4279Z" fill="#B227C1"/>
</g>
<defs>
<filter id="filter0_d_5926_75142" x="95.3086" y="43.7461" width="84.2891" height="65.0117" filterUnits="userSpaceOnUse" color-interpolation-filters="sRGB">
<feFlood flood-opacity="0" result="BackgroundImageFix"/>
<feColorMatrix in="SourceAlpha" type="matrix" values="0 0 0 0 0 0 0 0 0 0 0 0 0 0 0 0 0 0 127 0" result="hardAlpha"/>
<feOffset dx="-1" dy="1"/>
<feGaussianBlur stdDeviation="3"/>
<feColorMatrix type="matrix" values="0 0 0 0 0.117647 0 0 0 0 0.292649 0 0 0 0 0.411765 0 0 0 0.4 0"/>
<feBlend mode="normal" in2="BackgroundImageFix" result="effect1_dropShadow_5926_75142"/>
<feBlend mode="normal" in="SourceGraphic" in2="effect1_dropShadow_5926_75142" result="shape"/>
</filter>
<filter id="filter1_d_5926_75142" x="98.5195" y="17" width="114.809" height="63.3789" filterUnits="userSpaceOnUse" color-interpolation-filters="sRGB">
<feFlood flood-opacity="0" result="BackgroundImageFix"/>
<feColorMatrix in="SourceAlpha" type="matrix" values="0 0 0 0 0 0 0 0 0 0 0 0 0 0 0 0 0 0 127 0" result="hardAlpha"/>
<feOffset dx="-1" dy="1"/>
<feGaussianBlur stdDeviation="3"/>
<feColorMatrix type="matrix" values="0 0 0 0 0.117647 0 0 0 0 0.292649 0 0 0 0 0.411765 0 0 0 0.2 0"/>
<feBlend mode="normal" in2="BackgroundImageFix" result="effect1_dropShadow_5926_75142"/>
<feBlend mode="normal" in="SourceGraphic" in2="effect1_dropShadow_5926_75142" result="shape"/>
</filter>
</defs>
</svg>
