<svg width="28" height="28" viewBox="0 0 28 28" fill="none" xmlns="http://www.w3.org/2000/svg">
<path d="M19.2203 8.71398V19.2055C19.2203 21.6452 17.2425 23.6229 14.8028 23.6229C12.3631 23.6229 10.3853 21.6452 10.3853 19.2055V7.60961C10.3853 6.0848 11.6214 4.84869 13.1462 4.84869C14.671 4.84869 15.9071 6.0848 15.9071 7.60961V16.9967C15.9071 17.6067 15.4127 18.1011 14.8028 18.1011C14.1929 18.1011 13.6984 17.6067 13.6984 16.9967V8.71398H12.0419V16.9967C12.0419 18.5215 13.278 19.7577 14.8028 19.7577C16.3276 19.7577 17.5637 18.5215 17.5637 16.9967V7.60961C17.5637 5.16991 15.5859 3.19214 13.1462 3.19214C10.7065 3.19214 8.72876 5.16991 8.72876 7.60961V19.2055C8.72876 22.5601 11.4482 25.2795 14.8028 25.2795C18.1574 25.2795 20.8768 22.5601 20.8768 19.2055V8.71398H19.2203Z" fill="#547F91"/>
</svg>
