<svg width="634" height="745" viewBox="0 0 634 745" fill="none" xmlns="http://www.w3.org/2000/svg">
<g filter="url(#filter0_d_612_75864)">
<path fill-rule="evenodd" clip-rule="evenodd" d="M557.118 517.3V314.075C557.118 200.639 478.064 105.677 372.412 80.5511V55.425C372.412 24.8146 347.603 0 317 0C286.397 0 261.588 24.8146 261.588 55.425V80.5511C155.567 105.677 76.8824 200.639 76.8824 314.075V517.3L3 591.2V628.15H631V591.2L557.118 517.3ZM483.237 554.249H150.767V314.074C150.767 221.699 224.649 147.799 317.002 147.799C409.355 147.799 483.237 221.699 483.237 314.074V554.249ZM390.884 665.1C390.884 705.914 357.806 739 317.002 739C276.198 739 243.119 705.914 243.119 665.1H390.884Z" fill="#010101"/>
</g>
<defs>
<filter id="filter0_d_612_75864" x="0" y="0" width="634" height="745" filterUnits="userSpaceOnUse" color-interpolation-filters="sRGB">
<feFlood flood-opacity="0" result="BackgroundImageFix"/>
<feColorMatrix in="SourceAlpha" type="matrix" values="0 0 0 0 0 0 0 0 0 0 0 0 0 0 0 0 0 0 127 0" result="hardAlpha"/>
<feOffset dy="3"/>
<feGaussianBlur stdDeviation="1.5"/>
<feColorMatrix type="matrix" values="0 0 0 0 0 0 0 0 0 0 0 0 0 0 0 0 0 0 0.04 0"/>
<feBlend mode="normal" in2="BackgroundImageFix" result="effect1_dropShadow_612_75864"/>
<feBlend mode="normal" in="SourceGraphic" in2="effect1_dropShadow_612_75864" result="shape"/>
</filter>
</defs>
</svg>
