<svg width="32" height="32" viewBox="0 0 32 32" fill="none" xmlns="http://www.w3.org/2000/svg">
<path d="M15.9979 30.7717C24.1559 30.7717 30.7693 24.1583 30.7693 16.0003C30.7693 7.84236 24.1559 1.229 15.9979 1.229C7.83992 1.229 1.22656 7.84236 1.22656 16.0003C1.22656 24.1583 7.83992 30.7717 15.9979 30.7717Z" fill="#747D87"/>
<path d="M16.0011 28.3679C22.8319 28.3679 28.3694 22.8304 28.3694 15.9996C28.3694 9.16882 22.8319 3.63135 16.0011 3.63135C9.17028 3.63135 3.63281 9.16882 3.63281 15.9996C3.63281 22.8304 9.17028 28.3679 16.0011 28.3679Z" fill="white"/>
<path d="M24 24C28.4183 19.5817 28.4183 12.4183 24 8C19.5817 3.58172 12.4183 3.58172 8 8C3.58172 12.4183 3.58172 19.5817 8 24C12.4183 28.4183 19.5817 28.4183 24 24Z" fill="#747D87"/>
<path opacity="0.1" d="M26.1822 5.30176L4.55469 25.3336C4.89454 25.75 5.25774 26.1475 5.64062 26.5245L27.2886 6.47375C26.9414 6.06315 26.5717 5.67224 26.1822 5.30176Z" fill="white"/>
<path opacity="0.1" d="M28.4093 7.98145L7.0625 27.7536C8.12145 28.561 9.29344 29.2261 10.5493 29.7257L30.1136 11.6054C29.7111 10.3116 29.132 9.09582 28.41 7.98145H28.4093Z" fill="white"/>
<path opacity="0.1" d="M21.3717 2.24072L1.86719 20.3056C2.288 21.6891 2.90718 22.9865 3.69045 24.1651L25.0802 4.35425C23.9615 3.48054 22.7151 2.76582 21.3717 2.24072Z" fill="white"/>
<path d="M10.25 8.30432H21.6782V9.2918C21.6782 10.3369 20.8293 11.1858 19.7842 11.1858H10.25V8.30432Z" fill="white" fill-opacity="0.5"/>
<path d="M10.25 12.2498H18.2826V13.1199C18.2826 14.2299 17.3819 15.1306 16.2719 15.1306H10.25V12.2491V12.2498Z" fill="white" fill-opacity="0.5"/>
<path d="M10.25 16.3232H14.8869V17.3471C14.8869 18.3718 14.0548 19.2047 13.0294 19.2047H10.25V16.3232Z" fill="white" fill-opacity="0.5"/>
<path d="M10.3125 7.91846H21.7407V8.90594C21.7407 9.95103 20.8918 10.7999 19.8467 10.7999H10.3125V7.91846Z" fill="white"/>
<path d="M10.3125 11.863H18.3451V12.7331C18.3451 13.8431 17.4444 14.7438 16.3344 14.7438H10.3125V11.8623V11.863Z" fill="white"/>
<path d="M10.3125 15.9375H14.9494V16.9614C14.9494 17.9861 14.1173 18.819 13.0919 18.819H10.3125V15.9375Z" fill="white"/>
<path d="M11.5685 21.58V22.7885H13.0989V23.3955H11.5685V25.0586H10.8062V20.9758H13.3812V21.58H11.5685ZM16.3962 24.4318V25.0586H14.0047V20.9758H14.7642V24.4318H16.3962ZM17.7009 25.0586H16.9385V20.9758H17.7009V25.0586ZM21.9326 25.0586H21.1759C21.1232 25.0586 21.0809 25.0454 21.0489 25.0191C21.0187 24.9927 20.9943 24.9626 20.9754 24.9287L20.0296 23.3617C20.0145 23.4087 19.9966 23.4492 19.9759 23.4831L19.0696 24.9287C19.047 24.9607 19.0206 24.9908 18.9905 25.0191C18.9623 25.0454 18.9246 25.0586 18.8776 25.0586H18.1689L19.5242 22.9579L18.2225 20.9758H18.9792C19.0319 20.9758 19.0696 20.9833 19.0922 20.9984C19.1166 21.0115 19.1392 21.0341 19.1599 21.0661L20.0889 22.5626C20.1077 22.5155 20.1303 22.4685 20.1566 22.4214L21.0093 21.0802C21.03 21.0445 21.0526 21.0181 21.0771 21.0012C21.1016 20.9842 21.1326 20.9758 21.1703 20.9758H21.8959L20.583 22.9268L21.9326 25.0586Z" fill="white"/>
</svg>
