<svg width="48" height="48" viewBox="0 0 48 48" fill="none" xmlns="http://www.w3.org/2000/svg">
<circle cx="24" cy="24" r="21" stroke="#747D87" stroke-width="2"/>
<path d="M24.3939 28.2502L26.3397 26.4535C25.8455 25.6342 24.6789 24.3747 24.0147 23.6922C23.3373 23.0236 22.4401 21.8846 21.6259 21.4031L19.5771 23.4338C18.976 23.8365 18.2687 24.0438 17.5469 24.0289C16.825 24.0141 16.1217 23.7777 15.5281 23.3504L13.6674 22.0177C12.9121 21.4766 12.3825 20.6643 12.1856 19.745C11.9887 18.8256 12.1393 17.8678 12.6068 17.0652C14.2395 14.2683 17.4867 12.5514 20.6763 13.9598C23.4932 15.2118 26.0669 16.9812 28.269 19.1795C30.4901 21.38 32.2923 23.9835 33.582 26.8548C35.0323 30.099 33.4463 33.4769 30.784 35.2357C30.0159 35.7406 29.085 35.9234 28.1823 35.7466C27.2795 35.5698 26.4733 35.0468 25.9289 34.2848L24.5874 32.4154C24.1553 31.815 23.9059 31.0984 23.871 30.3569C23.8361 29.6153 24.0172 28.8823 24.3913 28.251L24.3939 28.2502Z" fill="#747D87"/>
<path d="M30.1421 33.1373L26.16 28.1731" stroke="white" stroke-width="0.4" stroke-linecap="round"/>
<path d="M18.8267 21.6622L14.1488 17.3474" stroke="white" stroke-width="0.4" stroke-linecap="round"/>
</svg>
