<svg width="24" height="23" viewBox="0 0 24 23" fill="none" xmlns="http://www.w3.org/2000/svg">
<path fill-rule="evenodd" clip-rule="evenodd" d="M14.7292 3.00787L16.4614 4.90097H20.4085C21.454 4.90097 22.3015 5.74853 22.3015 6.79406V18.1526C22.3015 19.1982 21.454 20.0457 20.4085 20.0457H3.37063C2.3251 20.0457 1.47754 19.1982 1.47754 18.1526V6.79406C1.47754 5.74853 2.3251 4.90097 3.37063 4.90097H7.31773L9.04991 3.00787H14.7292ZM3.37063 6.79406V18.1526H20.4085V6.79406H15.6284L13.8962 4.90097H9.88287L8.15069 6.79406H3.37063ZM7.15681 12.4733C7.15681 15.0871 9.27573 17.2061 11.8895 17.2061C14.5033 17.2061 16.6223 15.0871 16.6223 12.4733C16.6223 9.85954 14.5033 7.7406 11.8895 7.7406C9.27573 7.7406 7.15681 9.85954 7.15681 12.4733ZM9.04991 12.4733C9.04991 14.0417 10.3212 15.313 11.8895 15.313C13.4579 15.313 14.7292 14.0417 14.7292 12.4733C14.7292 10.905 13.4579 9.6337 11.8895 9.6337C10.3212 9.6337 9.04991 10.905 9.04991 12.4733Z" fill="white"/>
</svg>
