<svg width="60" height="60" viewBox="0 0 60 60" fill="none" xmlns="http://www.w3.org/2000/svg">
<g id="camera">
<circle id="Oval" cx="30" cy="30" r="27.2857" fill="white" stroke="#B227C1" stroke-width="4.57143"/>
<g id="camera_alt-24px">
<circle id="Oval_2" cx="30.0988" cy="30.1045" r="3.84615" fill="#747D87"/>
<path id="Shape" fill-rule="evenodd" clip-rule="evenodd" d="M24.3033 20.4898L26.5028 18.0859H33.7144L35.9139 20.4898H39.724C41.0461 20.4898 42.1278 21.5715 42.1278 22.8936V37.3167C42.1278 38.6388 41.0461 39.7206 39.724 39.7206H20.4932C19.1711 39.7206 18.0894 38.6388 18.0894 37.3167V22.8936C18.0894 21.5715 19.1711 20.4898 20.4932 20.4898H24.3033ZM24.1015 30.1045C24.1015 33.4218 26.7938 36.1141 30.1111 36.1141C33.4284 36.1141 36.1208 33.4218 36.1208 30.1045C36.1208 26.7872 33.4284 24.0949 30.1111 24.0949C26.7938 24.0949 24.1015 26.7872 24.1015 30.1045Z" fill="#747D87"/>
</g>
</g>
</svg>
