<svg width="13" height="16" viewBox="0 0 13 16" fill="none" xmlns="http://www.w3.org/2000/svg">
<path d="M2.02 15.16C1.68667 15.16 1.41333 15.0733 1.2 14.9C0.986667 14.7133 0.86 14.4867 0.82 14.22C0.793333 13.94 0.886667 13.66 1.1 13.38L5.68 7.28V8.38L1.32 2.54C1.10667 2.24667 1.01333 1.96667 1.04 1.7C1.06667 1.42 1.18667 1.19333 1.4 1.02C1.61333 0.833332 1.88 0.739999 2.2 0.739999C2.46667 0.739999 2.7 0.806666 2.9 0.94C3.11333 1.06 3.32667 1.26667 3.54 1.56L7.14 6.52H6.32L9.9 1.56C10.1133 1.26667 10.32 1.06 10.52 0.94C10.7333 0.806666 10.98 0.739999 11.26 0.739999C11.5933 0.739999 11.8667 0.826666 12.08 0.999999C12.2933 1.17333 12.4133 1.4 12.44 1.68C12.4667 1.94667 12.3667 2.23333 12.14 2.54L7.78 8.38V7.28L12.34 13.38C12.5533 13.66 12.6467 13.94 12.62 14.22C12.5933 14.4867 12.4733 14.7133 12.26 14.9C12.0467 15.0733 11.7667 15.16 11.42 15.16C11.1667 15.16 10.9333 15.0933 10.72 14.96C10.52 14.8267 10.3067 14.6133 10.08 14.32L6.28 9.12H7.16L3.38 14.32C3.16667 14.6133 2.95333 14.8267 2.74 14.96C2.52667 15.0933 2.28667 15.16 2.02 15.16Z" fill="black"/>
</svg>
