<svg width="28" height="30" viewBox="0 0 28 30" fill="none" xmlns="http://www.w3.org/2000/svg">
<g filter="url(#filter0_d_140_11557)">
<path fill-rule="evenodd" clip-rule="evenodd" d="M13.9538 25.175C11.0249 25.175 8.21586 24.0115 6.14477 21.9404C4.07368 19.8693 2.91016 17.0603 2.91016 14.1313C2.91016 11.2024 4.07368 8.39335 6.14477 6.32226C8.21586 4.25117 11.0249 3.08765 13.9538 3.08765C16.8828 3.08765 19.6918 4.25117 21.7629 6.32226C23.834 8.39335 24.9975 11.2024 24.9975 14.1313C24.9975 20.2306 20.0531 25.175 13.9538 25.175ZM22.7884 14.1313C22.7884 9.25191 18.8329 5.29637 13.9535 5.29637C9.0741 5.29637 5.11856 9.25191 5.11856 14.1313C5.11856 19.0107 9.0741 22.9663 13.9535 22.9663C16.2967 22.9663 18.5439 22.0354 20.2007 20.3786C21.8576 18.7217 22.7884 16.4745 22.7884 14.1313ZM10.0887 13.0269C10.9722 13.0269 11.7453 12.2539 11.7453 11.3704C11.7453 10.4869 10.9722 9.71382 10.0887 9.71382C9.20523 9.71382 8.43217 10.4869 8.43217 11.3704C8.43217 12.2539 9.20523 13.0269 10.0887 13.0269ZM19.476 11.3704C19.476 12.2539 18.703 13.0269 17.8195 13.0269C16.936 13.0269 16.1629 12.2539 16.1629 11.3704C16.1629 10.4869 16.936 9.71382 17.8195 9.71382C18.703 9.71382 19.476 10.4869 19.476 11.3704ZM9.32641 17.9082C10.3203 19.1009 12.0211 19.9071 13.9537 19.9071C15.8864 19.9071 17.5871 19.1009 18.581 17.9082L17.0128 16.34C16.5158 17.1352 15.3342 17.6984 13.9537 17.6984C12.5733 17.6984 11.3916 17.1352 10.8946 16.34L9.32641 17.9082Z" fill="#647D8D"/>
</g>
<defs>
<filter id="filter0_d_140_11557" x="0.910156" y="3.08765" width="26.0874" height="26.0873" filterUnits="userSpaceOnUse" color-interpolation-filters="sRGB">
<feFlood flood-opacity="0" result="BackgroundImageFix"/>
<feColorMatrix in="SourceAlpha" type="matrix" values="0 0 0 0 0 0 0 0 0 0 0 0 0 0 0 0 0 0 127 0" result="hardAlpha"/>
<feOffset dy="2"/>
<feGaussianBlur stdDeviation="1"/>
<feColorMatrix type="matrix" values="0 0 0 0 0 0 0 0 0 0 0 0 0 0 0 0 0 0 0.04 0"/>
<feBlend mode="normal" in2="BackgroundImageFix" result="effect1_dropShadow_140_11557"/>
<feBlend mode="normal" in="SourceGraphic" in2="effect1_dropShadow_140_11557" result="shape"/>
</filter>
</defs>
</svg>
