<svg width="23" height="24" viewBox="0 0 23 24" fill="none" xmlns="http://www.w3.org/2000/svg">
<path fill-rule="evenodd" clip-rule="evenodd" d="M2.11719 4.42088C2.12079 3.90364 2.53893 3.48508 3.05616 3.48096H20.1091C20.6278 3.48096 21.0481 3.90217 21.0481 4.42088V19.5789C21.0445 20.0961 20.6264 20.5147 20.1091 20.5188H3.05616C2.53743 20.5183 2.11719 20.0976 2.11719 19.5789V4.42088ZM19.1525 5.37402H4.00781V18.6257L12.8031 9.82847C13.1727 9.45895 13.7719 9.45895 14.1415 9.82847L19.1525 14.8489V5.37402ZM5.90625 9.16018C5.90625 10.2057 6.75382 11.0533 7.79934 11.0533C8.84487 11.0533 9.69243 10.2057 9.69243 9.16018C9.69243 8.11466 8.84487 7.26709 7.79934 7.26709C6.75382 7.26709 5.90625 8.11466 5.90625 9.16018Z" fill="white"/>
</svg>
