<svg width="48" height="48" viewBox="0 0 48 48" fill="none" xmlns="http://www.w3.org/2000/svg">
<circle cx="24" cy="24" r="21" stroke="#747D87" stroke-width="2"/>
<circle cx="33" cy="19" r="3" fill="#747D87"/>
<circle cx="15" cy="19" r="3" fill="#747D87"/>
<circle cx="24" cy="21" r="4" fill="#747D87"/>
<path fill-rule="evenodd" clip-rule="evenodd" d="M37.9912 24.9448C39.2771 26.1451 39.9996 27.7729 39.9996 29.4703H33.1424H32.5634C32.1658 28.7312 31.6598 28.0471 31.0556 27.4429C30.1397 26.5269 29.0403 25.8367 27.8438 25.408C27.985 25.2475 28.135 25.0929 28.2937 24.9448C29.5797 23.7446 31.3238 23.0703 33.1424 23.0703C34.9611 23.0703 36.7052 23.7446 37.9912 24.9448Z" fill="#747D87"/>
<path fill-rule="evenodd" clip-rule="evenodd" d="M15.4362 29.4703C15.8338 28.7312 16.3398 28.0471 16.944 27.4429C17.8599 26.5269 18.9593 25.8367 20.1558 25.408C20.0146 25.2475 19.8645 25.0929 19.7059 24.9448C18.4199 23.7446 16.6758 23.0703 14.8571 23.0703C13.0385 23.0703 11.2944 23.7446 10.0084 24.9448C8.72245 26.1451 8 27.7729 8 29.4703L9.80451 29.4703H10.8872L14.8571 29.4703H15.4362Z" fill="#747D87"/>
<path d="M33 34C33 31.8783 32.0518 29.8434 30.364 28.3431C28.6761 26.8429 26.3869 26 24 26C21.6131 26 19.3239 26.8429 17.636 28.3431C15.9482 29.8434 15 31.8783 15 34L17.3684 34H18.7895L24 34H33Z" fill="#747D87"/>
</svg>
