<svg width="80" height="58" viewBox="0 0 80 58" fill="none" xmlns="http://www.w3.org/2000/svg">
<g clip-path="url(#clip0_4887_10604)">
<path d="M75.1482 0C81.7582 1.39 81.5182 10.52 74.7882 11.42H5.24817C2.53817 11.12 0.618171 9.19 0.0381712 6.57C0.0881712 6.02 -0.0318288 5.39 0.0381712 4.86C0.268171 3.07 1.85817 1.07 3.55817 0.45L4.89817 0H75.1582H75.1482Z" fill="#747D87"/>
<path d="M0.0375 29.4096C-0.0125 29.0196 -0.0125 28.0896 0.0375 27.6996C0.3575 25.2296 2.7875 23.0296 5.2475 22.8496H74.6475C81.8075 23.6196 81.7075 33.6796 74.5075 34.2796H5.2475C2.7875 34.0896 0.3475 31.8896 0.0375 29.4196V29.4096Z" fill="#747D87"/>
<path d="M0.0375 52.2504C-0.0125 51.8604 -0.0125 50.9304 0.0375 50.5404C0.3575 48.0704 2.7875 45.8704 5.2475 45.6904H74.6475C81.8075 46.4604 81.7075 56.5204 74.5075 57.1204H5.2475C2.7875 56.9304 0.3475 54.7304 0.0375 52.2604V52.2504Z" fill="#747D87"/>
</g>
<defs>
<clipPath id="clip0_4887_10604">
<rect width="79.98" height="57.11" fill="white"/>
</clipPath>
</defs>
</svg>
