<svg width="32" height="32" viewBox="0 0 32 32" fill="none" xmlns="http://www.w3.org/2000/svg">
<rect x="1" y="1" width="30" height="30" rx="5" fill="white" stroke="#B227C1" stroke-width="2"/>
<path d="M25.1728 8.9115L22.4308 10.7549C21.935 11.0882 21.8966 11.8037 22.354 12.188C22.6606 12.4456 23.1007 12.4692 23.4331 12.2458L26.1751 10.4024C26.6709 10.0691 26.7092 9.35364 26.2518 8.96928C25.9452 8.71164 25.5051 8.68808 25.1728 8.9115Z" fill="#B227C1"/>
<path d="M27.0482 14.7887L24.0472 14.8228C23.5294 14.8287 23.1317 15.2833 23.1947 15.7973C23.2486 16.2367 23.6243 16.5653 24.067 16.5603L27.0679 16.5262C27.5857 16.5203 27.9834 16.0656 27.9204 15.5516C27.8665 15.1122 27.4908 14.7836 27.0482 14.7887Z" fill="#B227C1"/>
<path d="M26.1476 21.3894L23.7885 19.5343C23.3815 19.2142 22.7866 19.319 22.5134 19.7589C22.2799 20.135 22.3665 20.6265 22.7144 20.9002L25.0736 22.7553C25.4806 23.0754 26.0755 22.9706 26.3487 22.5307C26.5822 22.1546 26.4956 21.6631 26.1476 21.3894Z" fill="#B227C1"/>
<path d="M4.2666 13.7223V18.0654C4.2666 18.5704 4.67601 18.9798 5.18105 18.9798C7.32214 18.9798 9.4335 19.4811 11.3461 20.4434L12.7401 21.1448C14.4277 21.9939 16.2907 22.4361 18.1799 22.4361C18.6255 22.4361 18.9867 22.0749 18.9867 21.6293V10.1584C18.9867 9.71281 18.6255 9.35156 18.1799 9.35156C16.2907 9.35156 14.4277 9.79382 12.7401 10.6429L11.3461 11.3443C9.4335 12.3066 7.32214 12.8079 5.18105 12.8079C4.67601 12.8079 4.2666 13.2173 4.2666 13.7223Z" fill="#FFE200" stroke="#B227C1"/>
</svg>
