<svg width="48" height="48" viewBox="0 0 48 48" fill="none" xmlns="http://www.w3.org/2000/svg">
<circle cx="24" cy="24" r="21" stroke="#747D87" stroke-width="2"/>
<circle cx="24.959" cy="22.9594" r="2.09264" transform="rotate(45 24.959 22.9594)" fill="#747D87"/>
<path d="M32.6903 30.6528C34.6595 28.6837 35.7285 25.9757 35.6621 23.1247C35.5958 20.2736 34.3997 17.513 32.3368 15.4501C30.2739 13.3871 27.5132 12.191 24.6621 12.1247C21.8111 12.0584 19.1031 13.1274 17.134 15.0965L18.0409 16.0035C19.7805 14.2639 22.1727 13.3196 24.6913 13.3782C27.2099 13.4367 29.6487 14.4934 31.471 16.3158C33.2934 18.1382 34.3501 20.5769 34.4086 23.0955C34.4672 25.6141 33.5229 28.0064 31.7833 29.7459L32.6903 30.6528Z" fill="#747D87"/>
<path d="M30.569 28.5311C31.9755 27.1245 32.7285 25.1796 32.6621 23.1242C32.5958 21.0688 31.7157 19.0712 30.2154 17.5709C28.7152 16.0706 26.7176 15.1905 24.6621 15.1242C22.6067 15.0579 20.6618 15.8108 19.2553 17.2174L19.9149 17.877C21.1574 16.6345 22.8755 15.9693 24.6913 16.0279C26.5071 16.0865 28.2717 16.864 29.5971 18.1893C30.9224 19.5147 31.6999 21.2793 31.7585 23.0951C31.817 24.9108 31.1519 26.6289 29.9094 27.8715L30.569 28.5311Z" fill="#747D87"/>
<path d="M28.4477 26.4093C29.2916 25.5654 29.7285 24.3835 29.6621 23.1238C29.5958 21.864 29.0318 20.6295 28.0941 19.6918C27.1564 18.7541 25.9219 18.1901 24.6621 18.1238C23.4024 18.0575 22.2205 18.4943 21.3766 19.3382L21.7889 19.7505C22.5344 19.005 23.5784 18.6191 24.6913 18.6776C25.8042 18.7362 26.8948 19.2345 27.7231 20.0628C28.5514 20.8912 29.0497 21.9817 29.1083 23.0946C29.1668 24.2075 28.7809 25.2515 28.0354 25.997L28.4477 26.4093Z" fill="#747D87"/>
<path d="M25.7119 35C12.2121 38.5 10.2122 28 13.2116 21L17.2399 24.4915C19.5435 26.4881 21.568 28.7854 23.2592 31.3217L25.7119 35Z" fill="#747D87"/>
<path d="M13.2116 21C10.2122 28 12.2121 38.5 25.7119 35M13.2116 21L16.8021 25.7878C18.4046 27.9248 20.1985 29.9115 22.1614 31.7231L25.7119 35M13.2116 21L17.2399 24.4915C19.5435 26.4881 21.568 28.7854 23.2592 31.3217L25.7119 35" stroke="#747D87" stroke-linecap="round"/>
<path d="M20 27.5L22.5 25.5" stroke="#747D87" stroke-linecap="round"/>
</svg>
