<svg width="48" height="48" viewBox="0 0 48 48" fill="none" xmlns="http://www.w3.org/2000/svg">
<circle cx="24" cy="24" r="21" stroke="#B227C1" stroke-width="2"/>
<circle cx="24.9585" cy="22.9594" r="2.09264" transform="rotate(45 24.9585 22.9594)" fill="#B227C1"/>
<path d="M32.6898 30.6528C34.659 28.6837 35.728 25.9757 35.6617 23.1247C35.5954 20.2736 34.3992 17.513 32.3363 15.4501C30.2734 13.3871 27.5127 12.191 24.6617 12.1247C21.8106 12.0584 19.1026 13.1274 17.1335 15.0965L18.0405 16.0035C19.78 14.2639 22.1722 13.3196 24.6908 13.3782C27.2094 13.4367 29.6482 14.4934 31.4705 16.3158C33.2929 18.1382 34.3496 20.5769 34.4082 23.0955C34.4667 25.6141 33.5224 28.0064 31.7829 29.7459L32.6898 30.6528Z" fill="#B227C1"/>
<path d="M30.5685 28.5311C31.975 27.1245 32.728 25.1796 32.6617 23.1242C32.5954 21.0688 31.7153 19.0712 30.215 17.5709C28.7147 16.0706 26.7171 15.1905 24.6617 15.1242C22.6062 15.0579 20.6613 15.8108 19.2548 17.2174L19.9144 17.877C21.1569 16.6345 22.8751 15.9693 24.6908 16.0279C26.5066 16.0865 28.2712 16.864 29.5966 18.1893C30.9219 19.5147 31.6994 21.2793 31.758 23.0951C31.8165 24.9108 31.1514 26.6289 29.9089 27.8715L30.5685 28.5311Z" fill="#B227C1"/>
<path d="M28.4472 26.4093C29.2911 25.5654 29.728 24.3835 29.6617 23.1238C29.5954 21.864 29.0313 20.6295 28.0936 19.6918C27.156 18.7541 25.9214 18.1901 24.6617 18.1238C23.4019 18.0575 22.22 18.4943 21.3761 19.3382L21.7884 19.7505C22.5339 19.005 23.5779 18.6191 24.6908 18.6776C25.8037 18.7362 26.8943 19.2345 27.7226 20.0628C28.5509 20.8912 29.0492 21.9817 29.1078 23.0946C29.1664 24.2075 28.7804 25.2515 28.0349 25.997L28.4472 26.4093Z" fill="#B227C1"/>
<path d="M25.7114 35C12.2116 38.5 10.2117 28 13.2111 21L17.2394 24.4915C19.543 26.4881 21.5676 28.7854 23.2587 31.3217L25.7114 35Z" fill="#B227C1"/>
<path d="M13.2111 21C10.2117 28 12.2116 38.5 25.7114 35M13.2111 21L16.8016 25.7878C18.4042 27.9248 20.198 29.9115 22.1609 31.7231L25.7114 35M13.2111 21L17.2394 24.4915C19.543 26.4881 21.5676 28.7854 23.2587 31.3217L25.7114 35" stroke="#B227C1" stroke-linecap="round"/>
<path d="M19.9995 27.5L22.4995 25.5" stroke="#B227C1" stroke-linecap="round"/>
</svg>
