<svg width="27" height="27" viewBox="0 0 27 27" fill="none" xmlns="http://www.w3.org/2000/svg">
<path fill-rule="evenodd" clip-rule="evenodd" d="M13.3464 5.91569C14.5585 4.53031 16.4157 3.64673 18.3507 3.64673C21.7758 3.64673 24.467 6.27567 24.467 9.64638C24.467 13.7589 20.686 17.1296 14.9589 22.2238L13.3464 23.6637L11.7339 22.2238C6.00682 17.1296 2.22583 13.7589 2.22583 9.64638C2.22583 6.27567 4.91701 3.64673 8.34214 3.64673C10.2771 3.64673 12.1343 4.53031 13.3464 5.91569ZM13.3464 20.7185L13.4576 20.6094C18.751 15.9078 22.2429 12.7989 22.2429 9.64638C22.2429 7.46469 20.5748 5.82842 18.3507 5.82842C16.6381 5.82842 14.97 6.91927 14.3806 8.40282H12.3122C11.7228 6.91927 10.0547 5.82842 8.34214 5.82842C6.11803 5.82842 4.44994 7.46469 4.44994 9.64638C4.44994 12.7989 7.9418 15.9078 13.2241 20.6094L13.3464 20.7185Z" fill="#B227C1"/>
</svg>
