<svg width="100" height="91" viewBox="0 0 100 91" fill="none" xmlns="http://www.w3.org/2000/svg">
<path d="M49.9997 66.2426C58.7626 66.2426 65.8664 59.1389 65.8664 50.3759C65.8664 41.613 58.7626 34.5093 49.9997 34.5093C41.2368 34.5093 34.1331 41.613 34.1331 50.3759C34.1331 59.1389 41.2368 66.2426 49.9997 66.2426Z" fill="#979797"/>
<path d="M35.1251 0.791504L26.0513 10.7082H10.3334C4.87925 10.7082 0.416748 15.1707 0.416748 20.6248V80.1248C0.416748 85.579 4.87925 90.0415 10.3334 90.0415H89.6667C95.1209 90.0415 99.5834 85.579 99.5834 80.1248V20.6248C99.5834 15.1707 95.1209 10.7082 89.6667 10.7082H73.9488L64.8751 0.791504H35.1251ZM50.0001 75.1665C36.3151 75.1665 25.2084 64.0598 25.2084 50.3748C25.2084 36.6898 36.3151 25.5832 50.0001 25.5832C63.6851 25.5832 74.7917 36.6898 74.7917 50.3748C74.7917 64.0598 63.6851 75.1665 50.0001 75.1665Z" fill="#979797"/>
</svg>
