<svg width="56" height="89" viewBox="0 0 56 89" fill="none" xmlns="http://www.w3.org/2000/svg">
<path d="M11.125 16.6875C11.125 12.2617 12.8831 8.01717 16.0127 4.88766C19.1422 1.75814 23.3867 0 27.8125 0C32.2383 0 36.4828 1.75814 39.6123 4.88766C42.7419 8.01717 44.5 12.2617 44.5 16.6875V44.5C44.5 48.9258 42.7419 53.1703 39.6123 56.2998C36.4828 59.4294 32.2383 61.1875 27.8125 61.1875C23.3867 61.1875 19.1422 59.4294 16.0127 56.2998C12.8831 53.1703 11.125 48.9258 11.125 44.5V16.6875Z" fill="#979797"/>
<path d="M2.78125 36.1562C3.51888 36.1562 4.2263 36.4493 4.74789 36.9709C5.26948 37.4924 5.5625 38.1999 5.5625 38.9375V44.5C5.5625 50.4011 7.90669 56.0604 12.0794 60.2331C16.2521 64.4058 21.9114 66.75 27.8125 66.75C33.7136 66.75 39.3729 64.4058 43.5456 60.2331C47.7183 56.0604 50.0625 50.4011 50.0625 44.5V38.9375C50.0625 38.1999 50.3555 37.4924 50.8771 36.9709C51.3987 36.4493 52.1061 36.1562 52.8438 36.1562C53.5814 36.1562 54.2888 36.4493 54.8104 36.9709C55.332 37.4924 55.625 38.1999 55.625 38.9375V44.5C55.6251 51.3949 53.0641 58.044 48.4389 63.1574C43.8137 68.2708 37.4541 71.484 30.5938 72.1734V83.4375H47.2812C48.0189 83.4375 48.7263 83.7305 49.2479 84.2521C49.7695 84.7737 50.0625 85.4811 50.0625 86.2188C50.0625 86.9564 49.7695 87.6638 49.2479 88.1854C48.7263 88.707 48.0189 89 47.2812 89H8.34375C7.60612 89 6.8987 88.707 6.37711 88.1854C5.85552 87.6638 5.5625 86.9564 5.5625 86.2188C5.5625 85.4811 5.85552 84.7737 6.37711 84.2521C6.8987 83.7305 7.60612 83.4375 8.34375 83.4375H25.0312V72.1734C18.1709 71.484 11.8113 68.2708 7.18608 63.1574C2.56089 58.044 -8.66174e-05 51.3949 2.19722e-09 44.5V38.9375C2.19722e-09 38.1999 0.293024 37.4924 0.81461 36.9709C1.3362 36.4493 2.04362 36.1562 2.78125 36.1562Z" fill="#979797"/>
</svg>
