<svg width="134" height="89" viewBox="0 0 134 89" fill="none" xmlns="http://www.w3.org/2000/svg">
<path d="M103.833 33.375V7.41667C103.833 5.44964 103.052 3.56319 101.661 2.17229C100.27 0.781398 98.3837 0 96.4167 0H7.41667C5.44964 0 3.56319 0.781398 2.17229 2.17229C0.781396 3.56319 0 5.44964 0 7.41667V81.5833C0 83.5504 0.781396 85.4368 2.17229 86.8277C3.56319 88.2186 5.44964 89 7.41667 89H96.4167C98.3837 89 100.27 88.2186 101.661 86.8277C103.052 85.4368 103.833 83.5504 103.833 81.5833V55.625L133.5 85.2917V3.70833L103.833 33.375Z" fill="#979797"/>
</svg>
