<svg width="94" height="89" viewBox="0 0 94 89" fill="none" xmlns="http://www.w3.org/2000/svg">
<rect x="20.5138" y="28.745" width="7.84542" height="16.591" rx="3.92271" stroke="#9E9F9F" stroke-width="5.0159"/>
<rect x="63.7279" y="28.745" width="7.84542" height="16.591" rx="3.92271" stroke="#9E9F9F" stroke-width="5.0159"/>
<path d="M62.5061 65.8497V82.3289C62.5061 84.5 64.6025 86.0599 66.6323 85.2898C82.6305 79.2203 87.441 69.0677 90.662 61.231C91.5581 59.0508 89.9254 56.5896 87.5682 56.5896H71.7662C66.652 56.5896 62.5061 60.7355 62.5061 65.8497Z" stroke="#9E9F9F" stroke-width="4.63007" stroke-linecap="round"/>
<path fill-rule="evenodd" clip-rule="evenodd" d="M27.2921 59.1488C26.1486 56.8617 23.3674 55.9346 21.0802 57.0782C18.7931 58.2218 17.866 61.0029 19.0096 63.2901C20.5253 66.3216 23.5755 70.4418 29.217 73.5063C34.8612 76.5723 42.7584 78.3972 53.6655 77.4056C55.6827 77.2223 57.2797 75.7711 57.7414 73.91C32.6774 75.1536 23.5005 65.8444 22.0813 60.7886C22.0352 60.6245 22.1309 60.4541 22.2951 60.408C22.4592 60.3619 22.6296 60.4576 22.6757 60.6217C23.9787 65.2639 32.785 74.5671 57.8511 73.2863C57.8826 72.9891 57.8855 72.6844 57.8574 72.3754C57.6259 69.8288 55.3738 67.952 52.8272 68.1836C43.362 69.044 37.369 67.3964 33.6372 65.3693C29.9029 63.3407 28.0914 60.7474 27.2921 59.1488Z" fill="#9E9F9F"/>
<path fill-rule="evenodd" clip-rule="evenodd" d="M9.26013 4.63007H83.3414C85.8985 4.63007 87.9714 6.70301 87.9714 9.26013V42.6994C87.9714 45.2565 85.8985 47.3295 83.3414 47.3295H71.7661C61.5377 47.3295 53.2459 55.6213 53.2459 65.8497V73.4062C54.7238 73.4068 56.2664 73.3677 57.8759 73.2851V65.8497C57.8759 58.1784 64.0948 51.9595 71.7661 51.9595H83.3414C88.4556 51.9595 92.6015 47.8136 92.6015 42.6994V9.26013C92.6015 4.1459 88.4556 0 83.3414 0H9.26013C4.1459 0 0 4.1459 0 9.26013V79.7399C0 84.8541 4.14589 89 9.26012 89H48.6158C53.73 89 57.8759 84.8541 57.8759 79.7399V73.9032C56.2682 73.9852 54.7255 74.0239 53.2459 74.0231V79.7399C53.2459 82.297 51.1729 84.3699 48.6158 84.3699H9.26012C6.70301 84.3699 4.63007 82.297 4.63007 79.7399V9.26013C4.63007 6.70302 6.70302 4.63007 9.26013 4.63007Z" fill="#9E9F9F"/>
</svg>
