<svg width="169" height="215" viewBox="0 0 169 215" fill="none" xmlns="http://www.w3.org/2000/svg">
<rect x="13.3574" width="142.531" height="141.638" rx="20.1266" fill="url(#paint0_linear_612_75481)"/>
<path d="M110.367 46.6624H43.1527C41.72 46.6624 40.5598 45.7131 40.5598 44.5441V27.4572C40.5598 26.2881 41.72 25.3389 43.1527 25.3389H128.842C130.275 25.3389 131.435 26.2881 131.435 27.4572V32.5551C132.121 48.139 114.199 46.6976 110.375 46.6624H110.367Z" fill="#FFE200"/>
<path d="M57.0664 116.337H41.3858C40.9375 116.337 40.5684 115.493 40.5684 114.447V99.1622C40.5684 98.1163 40.9375 97.2725 41.3858 97.2725H68.4577C68.906 97.2725 69.2751 98.1163 69.2751 99.1622V103.724C69.4949 117.656 58.2794 116.372 57.0752 116.337H57.0664Z" fill="#FFE200"/>
<path d="M78.522 82.0851H42.2035C41.2981 82.0851 40.5686 81.2238 40.5686 80.1602V64.629C40.5686 63.5655 41.2981 62.7041 42.2035 62.7041H96.3385C97.2439 62.7041 97.9734 63.5655 97.9734 64.629V69.2611C98.4041 83.4212 80.9392 82.1115 78.522 82.0851Z" fill="#FFE200"/>
<path d="M107.598 46.6624H40.3842C38.9515 46.6624 37.7913 45.7131 37.7913 44.5441V27.4572C37.7913 26.2881 38.9515 25.3389 40.3842 25.3389H126.074C127.507 25.3389 128.667 26.2881 128.667 27.4572V32.5551C129.352 48.139 111.43 46.6976 107.607 46.6624H107.598Z" fill="#FFE200"/>
<path d="M75.7447 82.0851H39.4261C38.5208 82.0851 37.7913 81.2238 37.7913 80.1602V64.629C37.7913 63.5655 38.5208 62.7041 39.4261 62.7041H93.5612C94.4665 62.7041 95.196 63.5655 95.196 64.629V69.2611C95.6267 83.4212 78.1618 82.1115 75.7447 82.0851Z" fill="#FFE200"/>
<path d="M54.2893 116.382H38.6087C38.1604 116.382 37.7913 115.529 37.7913 114.483V99.1632C37.7913 98.1172 38.1604 97.2646 38.6087 97.2646H65.6806C66.1289 97.2646 66.498 98.1172 66.498 99.1632V103.734C66.7178 117.7 55.5023 116.417 54.2981 116.382H54.2893Z" fill="#FFE200"/>
<path d="M21.2232 147.604C22.6053 147.604 24.0015 147.618 25.4118 147.646C26.8221 147.646 28.2183 147.66 29.6003 147.688C30.9824 147.717 32.294 147.787 33.535 147.9L33.3235 151.115H22.4502C21.4912 151.115 20.7861 151.327 20.3348 151.75C19.9117 152.173 19.7001 152.85 19.7001 153.781V176.839H15.4693V152.977C15.4693 151.285 15.9911 149.973 17.0347 149.042C18.0783 148.083 19.4745 147.604 21.2232 147.604ZM16.1885 160.254H31.7158V163.554H16.1885V160.254ZM42.2079 147.223L42.1656 170.958C42.1656 171.832 42.4054 172.495 42.8849 172.946C43.3926 173.398 44.0836 173.623 44.958 173.623H46.9042L47.3696 176.627C47.0875 176.768 46.6926 176.881 46.1849 176.966C45.7054 177.05 45.1977 177.107 44.6618 177.135C44.1541 177.191 43.7169 177.22 43.3503 177.22C41.7707 177.22 40.5015 176.768 39.5425 175.866C38.6117 174.963 38.1463 173.652 38.1463 171.931V147.223H42.2079ZM60.8547 155.685C62.4342 155.685 63.7599 155.896 64.8317 156.319C65.9317 156.714 66.7497 157.405 67.2856 158.392C67.8497 159.38 68.1318 160.733 68.1318 162.454V176.839H64.9163L64.2817 172.354L64.0279 171.846V162.454C64.0279 161.241 63.7458 160.367 63.1817 159.831C62.6176 159.295 61.5458 159.027 59.9663 159.027C58.8944 159.027 57.5406 159.083 55.9046 159.196C54.2969 159.309 52.7033 159.422 51.1238 159.535L50.743 156.615C51.702 156.446 52.7597 156.291 53.9161 156.15C55.1008 156.009 56.2995 155.896 57.5124 155.812C58.7252 155.727 59.8393 155.685 60.8547 155.685ZM66.2702 164.104L66.2279 166.981L56.497 167.023C55.538 167.052 54.861 167.305 54.4662 167.785C54.0995 168.236 53.9161 168.871 53.9161 169.689V170.958C53.9161 171.973 54.1559 172.721 54.6354 173.2C55.1431 173.652 55.9328 173.877 57.0047 173.877C57.7944 173.877 58.6688 173.736 59.6278 173.454C60.615 173.144 61.6022 172.693 62.5894 172.1C63.5766 171.48 64.4651 170.704 65.2548 169.773V172.439C64.9728 172.834 64.5497 173.313 63.9856 173.877C63.4214 174.413 62.7304 174.935 61.9124 175.443C61.1227 175.95 60.2342 176.373 59.247 176.712C58.288 177.05 57.2303 177.22 56.0739 177.22C54.8328 177.22 53.7328 177.008 52.7738 176.585C51.843 176.134 51.1097 175.485 50.5738 174.639C50.0379 173.764 49.7699 172.707 49.7699 171.466V169.223C49.7699 167.616 50.2776 166.36 51.293 165.458C52.3366 164.555 53.7751 164.104 55.6085 164.104H66.2702ZM81.3631 155.685C82.2657 155.685 83.2388 155.713 84.2824 155.769C85.326 155.826 86.3555 155.896 87.3709 155.981C88.4145 156.065 89.3594 156.178 90.2056 156.319L89.9094 159.196C88.5838 159.14 87.2581 159.098 85.9324 159.069C84.635 159.013 83.3375 158.985 82.04 158.985C80.799 158.956 79.8259 158.985 79.1208 159.069C78.4156 159.154 77.9079 159.365 77.5977 159.704C77.2874 160.042 77.1323 160.621 77.1323 161.439C77.1323 162.426 77.372 163.075 77.8515 163.385C78.3592 163.695 79.1067 163.963 80.0939 164.189L85.9747 165.543C87.6389 165.966 88.8658 166.586 89.6556 167.404C90.4453 168.222 90.8402 169.519 90.8402 171.296C90.8402 172.989 90.5158 174.272 89.8671 175.147C89.2466 175.993 88.2735 176.557 86.9478 176.839C85.6222 177.149 83.9439 177.304 81.9131 177.304C81.1516 177.304 80.0092 177.276 78.4861 177.22C76.9912 177.163 75.3412 176.98 73.536 176.67L73.8322 173.835C74.4809 173.863 75.1861 173.891 75.9476 173.92C76.7092 173.948 77.513 173.962 78.3592 173.962C79.2336 173.962 80.108 173.962 80.9823 173.962C82.5054 173.962 83.6901 173.905 84.5362 173.793C85.4106 173.652 86.017 173.398 86.3555 173.031C86.7222 172.636 86.9055 172.058 86.9055 171.296C86.9055 170.366 86.6094 169.745 86.017 169.435C85.4529 169.096 84.6773 168.814 83.6901 168.589L77.8938 167.235C76.7092 166.953 75.7643 166.572 75.0591 166.093C74.3822 165.585 73.8886 164.964 73.5783 164.231C73.2963 163.469 73.1553 162.524 73.1553 161.396C73.1553 159.817 73.4373 158.618 74.0014 157.8C74.5655 156.954 75.4399 156.39 76.6246 156.108C77.8374 155.797 79.4169 155.656 81.3631 155.685ZM108.852 155.685C112.603 155.685 114.479 157.574 114.479 161.354V176.839H110.333V162.539C110.333 161.241 110.121 160.353 109.698 159.873C109.303 159.365 108.598 159.112 107.582 159.112C106.37 159.112 105.157 159.394 103.944 159.958C102.731 160.494 101.279 161.298 99.5862 162.369L99.3746 159.662C100.954 158.421 102.534 157.447 104.113 156.742C105.721 156.037 107.3 155.685 108.852 155.685ZM100.009 147.223L100.052 155.219C100.052 156.178 100.009 157.081 99.9246 157.927C99.8682 158.773 99.7554 159.521 99.5862 160.169L100.009 160.762V176.839H95.9476V147.223H100.009ZM130.639 155.685C132.218 155.685 133.544 155.896 134.616 156.319C135.716 156.714 136.534 157.405 137.07 158.392C137.634 159.38 137.916 160.733 137.916 162.454V176.839H134.701L134.066 172.354L133.812 171.846V162.454C133.812 161.241 133.53 160.367 132.966 159.831C132.402 159.295 131.33 159.027 129.75 159.027C128.679 159.027 127.325 159.083 125.689 159.196C124.081 159.309 122.488 159.422 120.908 159.535L120.527 156.615C121.486 156.446 122.544 156.291 123.7 156.15C124.885 156.009 126.084 155.896 127.297 155.812C128.509 155.727 129.624 155.685 130.639 155.685ZM136.054 164.104L136.012 166.981L126.281 167.023C125.322 167.052 124.645 167.305 124.25 167.785C123.884 168.236 123.7 168.871 123.7 169.689V170.958C123.7 171.973 123.94 172.721 124.42 173.2C124.927 173.652 125.717 173.877 126.789 173.877C127.579 173.877 128.453 173.736 129.412 173.454C130.399 173.144 131.386 172.693 132.374 172.1C133.361 171.48 134.249 170.704 135.039 169.773V172.439C134.757 172.834 134.334 173.313 133.77 173.877C133.206 174.413 132.515 174.935 131.697 175.443C130.907 175.95 130.018 176.373 129.031 176.712C128.072 177.05 127.015 177.22 125.858 177.22C124.617 177.22 123.517 177.008 122.558 176.585C121.627 176.134 120.894 175.485 120.358 174.639C119.822 173.764 119.554 172.707 119.554 171.466V169.223C119.554 167.616 120.062 166.36 121.077 165.458C122.121 164.555 123.559 164.104 125.393 164.104H136.054ZM149.793 150.142V170.958C149.793 171.917 149.991 172.608 150.386 173.031C150.809 173.426 151.514 173.623 152.501 173.623H155.547L156.013 176.627C155.533 176.768 154.983 176.881 154.363 176.966C153.77 177.05 153.164 177.107 152.543 177.135C151.951 177.191 151.472 177.22 151.105 177.22C149.356 177.22 148.016 176.74 147.086 175.781C146.155 174.822 145.69 173.44 145.69 171.635V150.142H149.793ZM156.224 156.192V159.239H141.966V156.404L146.028 156.192H156.224Z" fill="#85098D"/>
<path d="M18.5723 201.408C18.5723 202.696 18.3683 203.88 17.9603 204.96C17.5523 206.032 16.9763 206.956 16.2323 207.732C15.4883 208.508 14.5923 209.112 13.5443 209.544C12.5043 209.968 11.3523 210.18 10.0883 210.18C8.82428 210.18 7.67228 209.968 6.63228 209.544C5.59228 209.112 4.70028 208.508 3.95628 207.732C3.21228 206.956 2.63628 206.032 2.22828 204.96C1.82028 203.88 1.61628 202.696 1.61628 201.408C1.61628 200.12 1.82028 198.94 2.22828 197.868C2.63628 196.788 3.21228 195.86 3.95628 195.084C4.70028 194.3 5.59228 193.692 6.63228 193.26C7.67228 192.828 8.82428 192.612 10.0883 192.612C11.3523 192.612 12.5043 192.828 13.5443 193.26C14.5923 193.692 15.4883 194.3 16.2323 195.084C16.9763 195.86 17.5523 196.788 17.9603 197.868C18.3683 198.94 18.5723 200.12 18.5723 201.408ZM16.1843 201.408C16.1843 200.352 16.0403 199.404 15.7523 198.564C15.4643 197.724 15.0563 197.016 14.5283 196.44C14.0003 195.856 13.3603 195.408 12.6083 195.096C11.8563 194.784 11.0163 194.628 10.0883 194.628C9.16828 194.628 8.33228 194.784 7.58028 195.096C6.82828 195.408 6.18428 195.856 5.64828 196.44C5.12028 197.016 4.71228 197.724 4.42428 198.564C4.13628 199.404 3.99228 200.352 3.99228 201.408C3.99228 202.464 4.13628 203.412 4.42428 204.252C4.71228 205.084 5.12028 205.792 5.64828 206.376C6.18428 206.952 6.82828 207.396 7.58028 207.708C8.33228 208.012 9.16828 208.164 10.0883 208.164C11.0163 208.164 11.8563 208.012 12.6083 207.708C13.3603 207.396 14.0003 206.952 14.5283 206.376C15.0563 205.792 15.4643 205.084 15.7523 204.252C16.0403 203.412 16.1843 202.464 16.1843 201.408ZM22.1213 210V199.668L20.7773 199.512C20.6013 199.472 20.4613 199.412 20.3573 199.332C20.2533 199.244 20.2013 199.12 20.2013 198.96V198.084H22.1213V197.088C22.1213 196.392 22.2173 195.776 22.4093 195.24C22.6093 194.696 22.8893 194.24 23.2493 193.872C23.6093 193.496 24.0453 193.212 24.5573 193.02C25.0693 192.828 25.6453 192.732 26.2853 192.732C26.8293 192.732 27.3333 192.812 27.7973 192.972L27.7373 194.052C27.7213 194.244 27.6173 194.348 27.4253 194.364C27.2333 194.38 26.9693 194.388 26.6333 194.388C26.2653 194.388 25.9293 194.436 25.6253 194.532C25.3293 194.62 25.0733 194.772 24.8573 194.988C24.6493 195.204 24.4853 195.492 24.3653 195.852C24.2533 196.204 24.1973 196.64 24.1973 197.16V198.084H29.6813V197.412C29.6813 196.668 29.7973 195.988 30.0293 195.372C30.2613 194.748 30.6093 194.212 31.0733 193.764C31.5373 193.316 32.1133 192.968 32.8013 192.72C33.4973 192.472 34.3013 192.348 35.2133 192.348C35.5173 192.348 35.8293 192.368 36.1493 192.408C36.4693 192.448 36.7453 192.508 36.9773 192.588L36.8933 193.704C36.8853 193.784 36.8533 193.84 36.7973 193.872C36.7493 193.904 36.6813 193.924 36.5933 193.932C36.5053 193.94 36.3933 193.944 36.2573 193.944C36.1293 193.936 35.9813 193.932 35.8133 193.932C34.3893 193.932 33.3573 194.228 32.7173 194.82C32.0773 195.404 31.7573 196.288 31.7573 197.472V198.084H39.1013V210H36.9533V199.632H31.8173V210H29.6813V199.632H24.2573V210H22.1213ZM51.07 200.004C51.006 200.092 50.942 200.16 50.878 200.208C50.814 200.256 50.726 200.28 50.614 200.28C50.494 200.28 50.362 200.232 50.218 200.136C50.074 200.032 49.894 199.92 49.678 199.8C49.47 199.68 49.21 199.572 48.898 199.476C48.594 199.372 48.218 199.32 47.77 199.32C47.17 199.32 46.642 199.428 46.186 199.644C45.73 199.852 45.346 200.156 45.034 200.556C44.73 200.956 44.498 201.44 44.338 202.008C44.186 202.576 44.11 203.212 44.11 203.916C44.11 204.652 44.194 205.308 44.362 205.884C44.53 206.452 44.766 206.932 45.07 207.324C45.382 207.708 45.754 208.004 46.186 208.212C46.626 208.412 47.118 208.512 47.662 208.512C48.182 208.512 48.61 208.452 48.946 208.332C49.282 208.204 49.558 208.064 49.774 207.912C49.998 207.76 50.182 207.624 50.326 207.504C50.478 207.376 50.626 207.312 50.77 207.312C50.946 207.312 51.082 207.38 51.178 207.516L51.778 208.296C51.514 208.624 51.214 208.904 50.878 209.136C50.542 209.368 50.178 209.564 49.786 209.724C49.402 209.876 48.998 209.988 48.574 210.06C48.15 210.132 47.718 210.168 47.278 210.168C46.518 210.168 45.81 210.028 45.154 209.748C44.506 209.468 43.942 209.064 43.462 208.536C42.982 208 42.606 207.344 42.334 206.568C42.062 205.792 41.926 204.908 41.926 203.916C41.926 203.012 42.05 202.176 42.298 201.408C42.554 200.64 42.922 199.98 43.402 199.428C43.89 198.868 44.486 198.432 45.19 198.12C45.902 197.808 46.718 197.652 47.638 197.652C48.494 197.652 49.246 197.792 49.894 198.072C50.55 198.344 51.13 198.732 51.634 199.236L51.07 200.004ZM56.3269 197.844V210H54.1909V197.844H56.3269ZM56.7829 194.028C56.7829 194.236 56.7389 194.432 56.6509 194.616C56.5709 194.792 56.4589 194.952 56.3149 195.096C56.1789 195.232 56.0149 195.34 55.8229 195.42C55.6389 195.5 55.4429 195.54 55.2349 195.54C55.0269 195.54 54.8309 195.5 54.6469 195.42C54.4709 195.34 54.3149 195.232 54.1789 195.096C54.0429 194.952 53.9349 194.792 53.8549 194.616C53.7749 194.432 53.7349 194.236 53.7349 194.028C53.7349 193.82 53.7749 193.624 53.8549 193.44C53.9349 193.248 54.0429 193.084 54.1789 192.948C54.3149 192.804 54.4709 192.692 54.6469 192.612C54.8309 192.532 55.0269 192.492 55.2349 192.492C55.4429 192.492 55.6389 192.532 55.8229 192.612C56.0149 192.692 56.1789 192.804 56.3149 192.948C56.4589 193.084 56.5709 193.248 56.6509 193.44C56.7389 193.624 56.7829 193.82 56.7829 194.028ZM66.4245 204.528C65.4405 204.56 64.6005 204.64 63.9045 204.768C63.2165 204.888 62.6525 205.048 62.2125 205.248C61.7805 205.448 61.4645 205.684 61.2645 205.956C61.0725 206.228 60.9765 206.532 60.9765 206.868C60.9765 207.188 61.0285 207.464 61.1325 207.696C61.2365 207.928 61.3765 208.12 61.5525 208.272C61.7365 208.416 61.9485 208.524 62.1885 208.596C62.4365 208.66 62.7005 208.692 62.9805 208.692C63.3565 208.692 63.7005 208.656 64.0125 208.584C64.3245 208.504 64.6165 208.392 64.8885 208.248C65.1685 208.104 65.4325 207.932 65.6805 207.732C65.9365 207.532 66.1845 207.304 66.4245 207.048V204.528ZM59.5245 199.56C60.1965 198.912 60.9205 198.428 61.6965 198.108C62.4725 197.788 63.3325 197.628 64.2765 197.628C64.9565 197.628 65.5605 197.74 66.0885 197.964C66.6165 198.188 67.0605 198.5 67.4205 198.9C67.7805 199.3 68.0525 199.784 68.2365 200.352C68.4205 200.92 68.5125 201.544 68.5125 202.224V210H67.5645C67.3565 210 67.1965 209.968 67.0845 209.904C66.9725 209.832 66.8845 209.696 66.8205 209.496L66.5805 208.344C66.2605 208.64 65.9485 208.904 65.6445 209.136C65.3405 209.36 65.0205 209.552 64.6845 209.712C64.3485 209.864 63.9885 209.98 63.6045 210.06C63.2285 210.148 62.8085 210.192 62.3445 210.192C61.8725 210.192 61.4285 210.128 61.0125 210C60.5965 209.864 60.2325 209.664 59.9205 209.4C59.6165 209.136 59.3725 208.804 59.1885 208.404C59.0125 207.996 58.9245 207.516 58.9245 206.964C58.9245 206.484 59.0565 206.024 59.3205 205.584C59.5845 205.136 60.0125 204.74 60.6045 204.396C61.1965 204.052 61.9685 203.772 62.9205 203.556C63.8725 203.332 65.0405 203.204 66.4245 203.172V202.224C66.4245 201.28 66.2205 200.568 65.8125 200.088C65.4045 199.6 64.8085 199.356 64.0245 199.356C63.4965 199.356 63.0525 199.424 62.6925 199.56C62.3405 199.688 62.0325 199.836 61.7685 200.004C61.5125 200.164 61.2885 200.312 61.0965 200.448C60.9125 200.576 60.7285 200.64 60.5445 200.64C60.4005 200.64 60.2765 200.604 60.1725 200.532C60.0685 200.452 59.9805 200.356 59.9085 200.244L59.5245 199.56ZM73.9742 192.324V210H71.8382V192.324H73.9742ZM106.039 192.804L100.675 210H98.5866L94.2306 196.884C94.1906 196.756 94.1506 196.62 94.1106 196.476C94.0786 196.332 94.0426 196.18 94.0026 196.02C93.9626 196.18 93.9226 196.332 93.8826 196.476C93.8426 196.62 93.8026 196.756 93.7626 196.884L89.3826 210H87.2946L81.9306 192.804H83.8626C84.0706 192.804 84.2426 192.856 84.3786 192.96C84.5226 193.064 84.6146 193.196 84.6546 193.356L88.2066 205.308C88.2626 205.524 88.3146 205.756 88.3626 206.004C88.4186 206.252 88.4706 206.516 88.5186 206.796C88.5746 206.516 88.6306 206.252 88.6866 206.004C88.7506 205.748 88.8186 205.516 88.8906 205.308L92.9346 193.356C92.9826 193.22 93.0746 193.096 93.2106 192.984C93.3546 192.864 93.5266 192.804 93.7266 192.804H94.3986C94.6066 192.804 94.7746 192.856 94.9026 192.96C95.0306 193.064 95.1266 193.196 95.1906 193.356L99.2226 205.308C99.2946 205.516 99.3586 205.74 99.4146 205.98C99.4786 206.22 99.5386 206.472 99.5946 206.736C99.6346 206.472 99.6786 206.22 99.7266 205.98C99.7746 205.74 99.8266 205.516 99.8826 205.308L103.447 193.356C103.487 193.212 103.575 193.084 103.711 192.972C103.855 192.86 104.027 192.804 104.227 192.804H106.039ZM114.871 202.596C114.871 202.1 114.799 201.648 114.655 201.24C114.519 200.824 114.315 200.468 114.043 200.172C113.779 199.868 113.455 199.636 113.071 199.476C112.687 199.308 112.251 199.224 111.763 199.224C110.739 199.224 109.927 199.524 109.327 200.124C108.735 200.716 108.367 201.54 108.223 202.596H114.871ZM116.599 208.296C116.335 208.616 116.019 208.896 115.651 209.136C115.283 209.368 114.887 209.56 114.463 209.712C114.047 209.864 113.615 209.976 113.167 210.048C112.719 210.128 112.275 210.168 111.835 210.168C110.995 210.168 110.219 210.028 109.507 209.748C108.803 209.46 108.191 209.044 107.671 208.5C107.159 207.948 106.759 207.268 106.471 206.46C106.183 205.652 106.039 204.724 106.039 203.676C106.039 202.828 106.167 202.036 106.423 201.3C106.687 200.564 107.063 199.928 107.551 199.392C108.039 198.848 108.635 198.424 109.339 198.12C110.043 197.808 110.835 197.652 111.715 197.652C112.443 197.652 113.115 197.776 113.731 198.024C114.355 198.264 114.891 198.616 115.339 199.08C115.795 199.536 116.151 200.104 116.407 200.784C116.663 201.456 116.791 202.224 116.791 203.088C116.791 203.424 116.755 203.648 116.683 203.76C116.611 203.872 116.475 203.928 116.275 203.928H108.151C108.175 204.696 108.279 205.364 108.463 205.932C108.655 206.5 108.919 206.976 109.255 207.36C109.591 207.736 109.991 208.02 110.455 208.212C110.919 208.396 111.439 208.488 112.015 208.488C112.551 208.488 113.011 208.428 113.395 208.308C113.787 208.18 114.123 208.044 114.403 207.9C114.683 207.756 114.915 207.624 115.099 207.504C115.291 207.376 115.455 207.312 115.591 207.312C115.767 207.312 115.903 207.38 115.999 207.516L116.599 208.296ZM121.563 207.072C121.955 207.6 122.383 207.972 122.847 208.188C123.319 208.404 123.835 208.512 124.395 208.512C125.539 208.512 126.415 208.108 127.023 207.3C127.631 206.492 127.935 205.288 127.935 203.688C127.935 202.2 127.663 201.108 127.119 200.412C126.583 199.708 125.815 199.356 124.815 199.356C124.119 199.356 123.511 199.516 122.991 199.836C122.479 200.156 122.003 200.608 121.563 201.192V207.072ZM121.563 199.596C122.075 199.004 122.651 198.532 123.291 198.18C123.939 197.828 124.683 197.652 125.523 197.652C126.235 197.652 126.875 197.788 127.443 198.06C128.019 198.332 128.507 198.728 128.907 199.248C129.307 199.76 129.611 200.384 129.819 201.12C130.035 201.856 130.143 202.684 130.143 203.604C130.143 204.588 130.023 205.484 129.783 206.292C129.543 207.1 129.195 207.792 128.739 208.368C128.291 208.936 127.743 209.38 127.095 209.7C126.447 210.012 125.719 210.168 124.911 210.168C124.111 210.168 123.435 210.02 122.883 209.724C122.339 209.42 121.863 208.992 121.455 208.44L121.347 209.544C121.283 209.848 121.099 210 120.795 210H119.415V192.324H121.563V199.596ZM139.924 199.848C139.828 200.024 139.68 200.112 139.48 200.112C139.36 200.112 139.224 200.068 139.072 199.98C138.92 199.892 138.732 199.796 138.508 199.692C138.292 199.58 138.032 199.48 137.728 199.392C137.424 199.296 137.064 199.248 136.648 199.248C136.288 199.248 135.964 199.296 135.676 199.392C135.388 199.48 135.14 199.604 134.932 199.764C134.732 199.924 134.576 200.112 134.464 200.328C134.36 200.536 134.308 200.764 134.308 201.012C134.308 201.324 134.396 201.584 134.572 201.792C134.756 202 134.996 202.18 135.292 202.332C135.588 202.484 135.924 202.62 136.3 202.74C136.676 202.852 137.06 202.976 137.452 203.112C137.852 203.24 138.24 203.384 138.616 203.544C138.992 203.704 139.328 203.904 139.624 204.144C139.92 204.384 140.156 204.68 140.332 205.032C140.516 205.376 140.608 205.792 140.608 206.28C140.608 206.84 140.508 207.36 140.308 207.84C140.108 208.312 139.812 208.724 139.42 209.076C139.028 209.42 138.548 209.692 137.98 209.892C137.412 210.092 136.756 210.192 136.012 210.192C135.164 210.192 134.396 210.056 133.708 209.784C133.02 209.504 132.436 209.148 131.956 208.716L132.46 207.9C132.524 207.796 132.6 207.716 132.688 207.66C132.776 207.604 132.888 207.576 133.024 207.576C133.168 207.576 133.32 207.632 133.48 207.744C133.64 207.856 133.832 207.98 134.056 208.116C134.288 208.252 134.568 208.376 134.896 208.488C135.224 208.6 135.632 208.656 136.12 208.656C136.536 208.656 136.9 208.604 137.212 208.5C137.524 208.388 137.784 208.24 137.992 208.056C138.2 207.872 138.352 207.66 138.448 207.42C138.552 207.18 138.604 206.924 138.604 206.652C138.604 206.316 138.512 206.04 138.328 205.824C138.152 205.6 137.916 205.412 137.62 205.26C137.324 205.1 136.984 204.964 136.6 204.852C136.224 204.732 135.836 204.608 135.436 204.48C135.044 204.352 134.656 204.208 134.272 204.048C133.896 203.88 133.56 203.672 133.264 203.424C132.968 203.176 132.728 202.872 132.544 202.512C132.368 202.144 132.28 201.7 132.28 201.18C132.28 200.716 132.376 200.272 132.568 199.848C132.76 199.416 133.04 199.04 133.408 198.72C133.776 198.392 134.228 198.132 134.764 197.94C135.3 197.748 135.912 197.652 136.6 197.652C137.4 197.652 138.116 197.78 138.748 198.036C139.388 198.284 139.94 198.628 140.404 199.068L139.924 199.848ZM145.483 197.844V210H143.347V197.844H145.483ZM145.939 194.028C145.939 194.236 145.895 194.432 145.807 194.616C145.727 194.792 145.615 194.952 145.471 195.096C145.335 195.232 145.171 195.34 144.979 195.42C144.795 195.5 144.599 195.54 144.391 195.54C144.183 195.54 143.987 195.5 143.803 195.42C143.627 195.34 143.471 195.232 143.335 195.096C143.199 194.952 143.091 194.792 143.011 194.616C142.931 194.432 142.891 194.236 142.891 194.028C142.891 193.82 142.931 193.624 143.011 193.44C143.091 193.248 143.199 193.084 143.335 192.948C143.471 192.804 143.627 192.692 143.803 192.612C143.987 192.532 144.183 192.492 144.391 192.492C144.599 192.492 144.795 192.532 144.979 192.612C145.171 192.692 145.335 192.804 145.471 192.948C145.615 193.084 145.727 193.248 145.807 193.44C145.895 193.624 145.939 193.82 145.939 194.028ZM152.725 210.192C151.765 210.192 151.025 209.924 150.505 209.388C149.993 208.852 149.737 208.08 149.737 207.072V199.632H148.273C148.145 199.632 148.037 199.596 147.949 199.524C147.861 199.444 147.817 199.324 147.817 199.164V198.312L149.809 198.06L150.301 194.304C150.325 194.184 150.377 194.088 150.457 194.016C150.545 193.936 150.657 193.896 150.793 193.896H151.873V198.084H155.389V199.632H151.873V206.928C151.873 207.44 151.997 207.82 152.245 208.068C152.493 208.316 152.813 208.44 153.205 208.44C153.429 208.44 153.621 208.412 153.781 208.356C153.949 208.292 154.093 208.224 154.213 208.152C154.333 208.08 154.433 208.016 154.513 207.96C154.601 207.896 154.677 207.864 154.741 207.864C154.853 207.864 154.953 207.932 155.041 208.068L155.665 209.088C155.297 209.432 154.853 209.704 154.333 209.904C153.813 210.096 153.277 210.192 152.725 210.192ZM165.66 202.596C165.66 202.1 165.588 201.648 165.444 201.24C165.308 200.824 165.104 200.468 164.832 200.172C164.568 199.868 164.244 199.636 163.86 199.476C163.476 199.308 163.04 199.224 162.552 199.224C161.528 199.224 160.716 199.524 160.116 200.124C159.524 200.716 159.156 201.54 159.012 202.596H165.66ZM167.388 208.296C167.124 208.616 166.808 208.896 166.44 209.136C166.072 209.368 165.676 209.56 165.252 209.712C164.836 209.864 164.404 209.976 163.956 210.048C163.508 210.128 163.064 210.168 162.624 210.168C161.784 210.168 161.008 210.028 160.296 209.748C159.592 209.46 158.98 209.044 158.46 208.5C157.948 207.948 157.548 207.268 157.26 206.46C156.972 205.652 156.828 204.724 156.828 203.676C156.828 202.828 156.956 202.036 157.212 201.3C157.476 200.564 157.852 199.928 158.34 199.392C158.828 198.848 159.424 198.424 160.128 198.12C160.832 197.808 161.624 197.652 162.504 197.652C163.232 197.652 163.904 197.776 164.52 198.024C165.144 198.264 165.68 198.616 166.128 199.08C166.584 199.536 166.94 200.104 167.196 200.784C167.452 201.456 167.58 202.224 167.58 203.088C167.58 203.424 167.544 203.648 167.472 203.76C167.4 203.872 167.264 203.928 167.064 203.928H158.94C158.964 204.696 159.068 205.364 159.252 205.932C159.444 206.5 159.708 206.976 160.044 207.36C160.38 207.736 160.78 208.02 161.244 208.212C161.708 208.396 162.228 208.488 162.804 208.488C163.34 208.488 163.8 208.428 164.184 208.308C164.576 208.18 164.912 208.044 165.192 207.9C165.472 207.756 165.704 207.624 165.888 207.504C166.08 207.376 166.244 207.312 166.38 207.312C166.556 207.312 166.692 207.38 166.788 207.516L167.388 208.296Z" fill="#747D87"/>
<defs>
<linearGradient id="paint0_linear_612_75481" x1="166.295" y1="71.2655" x2="3.17692" y2="71.8058" gradientUnits="userSpaceOnUse">
<stop stop-color="#603197"/>
<stop offset="0.59375" stop-color="#B227C1"/>
</linearGradient>
</defs>
</svg>
