<svg width="17" height="17" viewBox="0 0 17 17" fill="none" xmlns="http://www.w3.org/2000/svg">
<g opacity="0.9">
<path fill-rule="evenodd" clip-rule="evenodd" d="M6.94574 8.86315C4.74414 8.86315 2.96094 7.07091 2.96094 4.85815C2.96094 2.64539 4.74414 0.853149 6.94574 0.853149C9.14734 0.853149 10.9305 2.64539 10.9305 4.85815C10.9305 7.07091 9.14734 8.86315 6.94574 8.86315ZM1.63135 14.8709C1.63135 11.9217 4.01008 9.53086 6.94441 9.53086C9.87873 9.53086 12.2575 11.9217 12.2575 14.8709H10.9292C10.9292 12.659 9.14515 10.8659 6.94441 10.8659C4.74366 10.8659 2.95961 12.659 2.95961 14.8709H1.63135ZM9.60198 4.85829C9.60198 6.33347 8.41319 7.52829 6.94546 7.52829C5.47772 7.52829 4.28893 6.33347 4.28893 4.85829C4.28893 3.38312 5.47772 2.18829 6.94546 2.18829C8.41319 2.18829 9.60198 3.38312 9.60198 4.85829Z" fill="#B227C1"/>
<path d="M12.4464 10C14.3528 10.863 15.5786 12.7693 15.5784 14.8707H14.2502C14.2505 13.2946 13.3311 11.8647 11.9011 11.2175L12.4457 10L12.4464 10Z" fill="#B227C1"/>
<path d="M11.9906 2.46399C13.3591 3.03093 14.2519 4.37188 14.2513 5.85956C14.2519 7.75814 12.8119 9.34384 10.9307 9.51613V8.17245C11.9408 8.02704 12.7385 7.23645 12.8973 6.2233C13.056 5.21016 12.5388 4.21141 11.622 3.76094L11.9906 2.46399V2.46399Z" fill="#B227C1"/>
</g>
</svg>
