<svg width="21" height="20" viewBox="0 0 21 20" fill="none" xmlns="http://www.w3.org/2000/svg">
<path fill-rule="evenodd" clip-rule="evenodd" d="M8.95343 10.8302C6.22274 10.8302 4.011 8.63929 4.011 5.93427C4.011 3.22924 6.22274 1.0383 8.95343 1.0383C11.6841 1.0383 13.8959 3.22924 13.8959 5.93427C13.8959 8.63929 11.6841 10.8302 8.95343 10.8302ZM2.36353 18.1742C2.36353 14.5689 5.31392 11.6462 8.95342 11.6462C12.5929 11.6462 15.5433 14.5689 15.5433 18.1742H13.8958C13.8958 15.4702 11.6831 13.2782 8.95342 13.2782C6.2238 13.2782 4.011 15.4702 4.011 18.1742H2.36353ZM12.2484 5.93427C12.2484 7.73761 10.7739 9.19824 8.95342 9.19824C7.13297 9.19824 5.65848 7.73761 5.65848 5.93427C5.65848 4.13092 7.13297 2.67029 8.95342 2.67029C10.7739 2.67029 12.2484 4.13092 12.2484 5.93427Z" fill="#B227C1"/>
<path d="M15.7774 12.2198C18.142 13.2748 19.6624 15.6052 19.6621 18.1742H18.0146C18.015 16.2473 16.8747 14.4994 15.1011 13.7082L15.7765 12.2198L15.7774 12.2198Z" fill="#F8DF01"/>
<path d="M15.2104 3.00729C16.9078 3.70036 18.0151 5.33962 18.0144 7.15826C18.0152 9.4792 16.229 11.4177 13.8958 11.6283V9.98568C15.1487 9.80792 16.138 8.84145 16.335 7.60292C16.5319 6.36439 15.8904 5.14345 14.7533 4.59277L15.2104 3.00729V3.00729Z" fill="#F8DF01"/>
</svg>
