<svg width="48" height="48" viewBox="0 0 48 48" fill="none" xmlns="http://www.w3.org/2000/svg">
<circle cx="24" cy="24" r="21" stroke="#747D87" stroke-width="2"/>
<path d="M14 23C14 21.3431 15.3431 20 17 20H31C32.6569 20 34 21.3431 34 23V32C34 33.6569 32.6569 35 31 35H17C15.3431 35 14 33.6569 14 32V23Z" fill="#747D87"/>
<path d="M19 18V15C19 13.3431 20.3431 12 22 12H26C27.6569 12 29 13.3431 29 15V18" stroke="#747D87" stroke-width="2" stroke-linecap="round"/>
<path d="M19.6 27C19.6 27.8024 19.8143 28.553 20.1883 29.1996C20.291 29.3772 20.3161 29.565 20.3215 29.7015C20.3272 29.845 20.3127 29.9913 20.2929 30.1239C20.2587 30.3532 20.1967 30.6111 20.1423 30.8379C20.1348 30.8691 20.1274 30.8997 20.1203 30.9296C20.0762 31.1144 20.0403 31.274 20.0176 31.4086C20.1466 31.3706 20.2977 31.3177 20.4715 31.2548C20.4977 31.2453 20.5246 31.2355 20.5518 31.2256C20.7709 31.146 21.0201 31.0554 21.2429 30.9958C21.37 30.9618 21.5117 30.9313 21.6526 30.921C21.7849 30.9113 21.9771 30.9142 22.1669 31.0013C22.7242 31.2571 23.3446 31.4 24 31.4C26.4301 31.4 28.4 29.4301 28.4 27C28.4 24.5699 26.4301 22.6 24 22.6C21.5699 22.6 19.6 24.5699 19.6 27Z" fill="#747D87" stroke="white" stroke-width="1.2"/>
</svg>
