<svg width="48" height="48" viewBox="0 0 48 48" fill="none" xmlns="http://www.w3.org/2000/svg">
<circle cx="24" cy="24" r="21" stroke="#747D87" stroke-width="2"/>
<path d="M13.2626 35.1177L11.4765 32.024L9.88108 29.2607C9.5514 28.6897 9.85493 27.9614 10.4926 27.7936L14.0304 26.8625C14.4883 26.742 14.8886 26.463 15.16 26.0751L22.4295 15.6867C23.2684 14.4878 25.0686 14.5662 25.8002 15.8334L32.2529 27.0099C32.9604 28.2353 32.2066 29.7877 30.8061 29.9895L18.4952 31.7632C18.0086 31.8333 17.5648 32.0802 17.2487 32.4567L14.8945 35.2607C14.4483 35.7922 13.6096 35.7187 13.2626 35.1177Z" fill="#747D87" stroke="#747D87" stroke-linecap="round"/>
<path d="M31.1401 20.1641C32.4018 22.474 33.1513 24.7534 33.3572 26.5587C33.4603 27.4628 33.4241 28.2219 33.2672 28.7978C33.1108 29.3718 32.8485 29.7208 32.5268 29.8966C32.2051 30.0723 31.7696 30.1044 31.2021 29.9258C30.6328 29.7466 29.9745 29.3668 29.2695 28.7915C27.8618 27.6426 26.349 25.7802 25.0872 23.4703C23.8255 21.1604 23.076 18.881 22.8701 17.0757C22.767 16.1717 22.8032 15.4125 22.9601 14.8366C23.1165 14.2626 23.3788 13.9136 23.7005 13.7379C24.0222 13.5621 24.4576 13.53 25.0252 13.7086C25.5945 13.8878 26.2528 14.2676 26.9578 14.8429C28.3655 15.9918 29.8783 17.8542 31.1401 20.1641Z" fill="#747D87" stroke="#747D87"/>
<ellipse opacity="0.7" cx="26.3189" cy="23.0985" rx="1.13334" ry="3.664" transform="rotate(-28.6444 26.3189 23.0985)" fill="white"/>
<path d="M14.4897 26.2465L17.9897 32.3087" stroke="white" stroke-linecap="round"/>
<path d="M15.9995 34.4965L17.0267 36.2941C17.5671 37.2397 18.7647 37.5791 19.7209 37.0576L21.7086 35.9734C22.6919 35.437 23.0431 34.1978 22.4874 33.2253L21.4995 31.4965" stroke="#747D87" stroke-linecap="round"/>
<path d="M29.0006 12.9778L30.3578 10.1216" stroke="#747D87" stroke-linecap="round"/>
<path d="M34.966 26.4542L38.0318 26.2963" stroke="#747D87" stroke-linecap="round"/>
<path d="M32.0003 16.342L34.6046 14.7167" stroke="#747D87" stroke-linecap="round"/>
<path d="M34.0005 20.8264L36.964 20.0251" stroke="#747D87" stroke-linecap="round"/>
</svg>
