<svg width="26" height="26" viewBox="0 0 26 26" fill="none" xmlns="http://www.w3.org/2000/svg">
<path fill-rule="evenodd" clip-rule="evenodd" d="M16.2498 13C16.2498 14.795 14.7948 16.25 12.9998 16.25C11.2049 16.25 9.74984 14.795 9.74984 13V6.5C9.74984 4.70508 11.2049 3.25 12.9998 3.25C14.7948 3.25 16.2498 4.70508 16.2498 6.5V13ZM11.6998 6.39167C11.6998 5.67667 12.2848 5.09167 12.9998 5.09167C13.7148 5.09167 14.2998 5.67667 14.2998 6.39167L14.289 13.1083C14.289 13.8233 13.7148 14.4083 12.9998 14.4083C12.2848 14.4083 11.6998 13.8233 11.6998 13.1083V6.39167ZM18.7415 13C18.7415 16.25 15.9898 18.525 12.9998 18.525C10.0098 18.525 7.25817 16.25 7.25817 13H5.4165C5.4165 16.6942 8.36317 19.7492 11.9165 20.28V23.8333H14.0832V20.28C17.6365 19.7492 20.5832 16.6942 20.5832 13H18.7415Z" fill="#557F91"/>
</svg>
