<svg width="48" height="48" viewBox="0 0 48 48" fill="none" xmlns="http://www.w3.org/2000/svg">
<circle cx="24" cy="24" r="21" stroke="#B227C1" stroke-width="2"/>
<path fill-rule="evenodd" clip-rule="evenodd" d="M15 11C14.4477 11 14 11.4477 14 12V36C14 36.5523 14.4477 37 15 37H28.1154C28.6273 37 29 36.5119 29 36C29 34.1325 30.2798 32.5639 32.0101 32.1234C32.5453 31.9872 33 31.5523 33 31V12C33 11.4477 32.5523 11 32 11H15Z" fill="#B227C1"/>
<path d="M32.9999 36.5V32.5C29.7999 32.9 29.3333 35.3333 29.4999 36.5H32.9999Z" fill="#B227C1"/>
<rect x="23" y="14" width="8" height="1" rx="0.5" fill="white"/>
<rect x="23" y="17" width="8" height="1" rx="0.5" fill="white"/>
<rect x="16" y="31" width="11" height="1" rx="0.5" fill="white"/>
<rect x="16" y="34" width="11" height="1" rx="0.5" fill="white"/>
<circle cx="19" cy="16" r="3" fill="white"/>
<path d="M20.7628 24.284V23.052H21.4138C21.8898 23.052 22.0928 23.29 22.0928 23.668C22.0928 24.046 21.8898 24.284 21.4138 24.284H20.7628ZM23.3108 23.668C23.3108 22.765 22.7088 22.086 21.5048 22.086H19.5658V27H20.7628V25.236H21.5048C22.7578 25.236 23.3108 24.48 23.3108 23.668ZM25.131 24.284V23.052H25.782C26.258 23.052 26.461 23.29 26.461 23.668C26.461 24.046 26.258 24.284 25.782 24.284H25.131ZM27.679 23.668C27.679 22.765 27.077 22.086 25.873 22.086H23.934V27H25.131V25.236H25.873C27.126 25.236 27.679 24.48 27.679 23.668Z" fill="white"/>
</svg>
