<svg width="34" height="34" viewBox="0 0 34 34" fill="none" xmlns="http://www.w3.org/2000/svg">
<circle cx="16.6809" cy="16.6809" r="14.2908" stroke="#717171" stroke-width="2"/>
<path fill-rule="evenodd" clip-rule="evenodd" d="M10.7305 7.64539C10.1782 7.64539 9.73047 8.0931 9.73047 8.64539V24.7163C9.73047 25.2686 10.1782 25.7163 10.7305 25.7163H19.5412C19.897 25.7163 20.156 25.3771 20.156 25.0213V25.0213C20.156 23.8304 20.9048 22.8143 21.9573 22.4183C22.4742 22.2239 22.9361 21.7934 22.9361 21.2411V8.64539C22.9361 8.0931 22.4884 7.64539 21.9361 7.64539H10.7305Z" fill="#717171"/>
<path d="M22.9361 25.3688V22.5886C20.712 22.8666 20.3876 24.5579 20.5035 25.3688H22.9361Z" fill="#717171"/>
<rect x="15.9858" y="9.73047" width="5.56028" height="0.695035" rx="0.347518" fill="white"/>
<rect x="15.9858" y="11.8156" width="5.56028" height="0.695035" rx="0.347518" fill="white"/>
<rect x="11.1206" y="21.5461" width="7.64539" height="0.695035" rx="0.347518" fill="white"/>
<rect x="11.1206" y="23.6312" width="7.64539" height="0.695035" rx="0.347518" fill="white"/>
<circle cx="13.2057" cy="11.1206" r="2.08511" fill="white"/>
</svg>
