<svg width="15" height="20" viewBox="0 0 15 20" fill="none" xmlns="http://www.w3.org/2000/svg">
<path d="M7.4654 12.155C6.64433 12.155 5.96159 11.8616 5.41717 11.275C4.87275 10.6884 4.60054 9.9836 4.60054 9.16066V3.58038C4.60054 2.80534 4.87609 2.139 5.42717 1.58135C5.97826 1.0237 6.655 0.744873 7.4574 0.744873C8.25979 0.744873 8.94076 1.0237 9.5003 1.58135C10.0598 2.139 10.3396 2.80534 10.3396 3.58038V9.16066C10.3396 9.9836 10.0658 10.6884 9.51831 11.275C8.97078 11.8616 8.28648 12.155 7.4654 12.155ZM6.57406 19.2551V16.0793C4.77445 15.8978 3.28487 15.153 2.10529 13.8447C0.925723 12.5364 0.335938 10.9751 0.335938 9.16066H2.15066C2.15066 10.6124 2.66903 11.8449 3.70577 12.8582C4.74249 13.8714 5.99632 14.378 7.46724 14.378C8.93815 14.378 10.1891 13.8703 11.2202 12.8549C12.2513 11.8396 12.7668 10.6081 12.7668 9.16066H14.5815C14.5815 10.9752 13.9917 12.5366 12.8122 13.8448C11.6326 15.153 10.1506 15.8971 8.3661 16.077V19.2551H6.57406ZM7.46112 10.0907C7.69544 10.0907 7.88595 9.9995 8.03264 9.81709C8.17933 9.63467 8.25268 9.41586 8.25268 9.16066V3.58338C8.25268 3.37571 8.17337 3.19475 8.01477 3.0405C7.85617 2.88625 7.67083 2.80912 7.45874 2.80912C7.24664 2.80912 7.06129 2.88625 6.90268 3.0405C6.74409 3.19475 6.66479 3.37571 6.66479 3.58338V9.16066C6.66479 9.41586 6.73893 9.63467 6.88721 9.81709C7.0355 9.9995 7.22681 10.0907 7.46112 10.0907Z" fill="white"/>
</svg>
