<svg width="350" height="143" viewBox="0 0 350 143" fill="none" xmlns="http://www.w3.org/2000/svg">
<path d="M226.617 52.4529L204.837 67.0951C203.733 67.8373 203.647 69.4303 204.666 70.2861L209.891 74.6769C210.573 75.2505 211.553 75.303 212.293 74.8055L234.074 60.1633C235.178 59.4211 235.263 57.8281 234.245 56.9723L229.02 52.5815C228.337 52.0079 227.357 51.9554 226.617 52.4529Z" fill="#D1D1D2"/>
<path d="M238.371 88.3454L214.482 88.6171C213.29 88.6307 212.374 89.6773 212.519 90.8604L213.28 97.0651C213.404 98.0766 214.269 98.8331 215.288 98.8215L239.177 98.5498C240.369 98.5362 241.285 97.4896 241.14 96.3065L240.379 90.1018C240.255 89.0903 239.39 88.3338 238.371 88.3454Z" fill="#D1D1D2"/>
<path d="M232.491 128.891L213.712 114.124C212.775 113.387 211.405 113.628 210.776 114.641L207.479 119.951C206.941 120.817 207.14 121.949 207.941 122.579L226.721 137.346C227.658 138.083 229.028 137.842 229.656 136.829L232.954 131.519C233.492 130.653 233.292 129.521 232.491 128.891Z" fill="#D1D1D2"/>
<path d="M101.687 78.7272V111.003C101.687 112.108 102.582 113.003 103.687 113.003H119.078C123.761 113.003 128.379 114.1 132.562 116.204L160.214 130.117C164.397 132.222 169.014 133.318 173.697 133.318H186.205C187.31 133.318 188.205 132.423 188.205 131.318V58.4125C188.205 57.308 187.31 56.4125 186.205 56.4125H173.697C169.014 56.4125 164.397 57.5088 160.214 59.6135L132.562 73.5262C128.379 75.6309 123.761 76.7272 119.078 76.7272H103.687C102.582 76.7272 101.687 77.6226 101.687 78.7272Z" fill="#D1D1D2" stroke="#D1D1D2" stroke-width="2"/>
<circle cx="347" cy="33.3524" r="2.99856" fill="#C4C4C4" fill-opacity="0.5"/>
<circle cx="302.677" cy="4.28981" r="2.98981" stroke="#C4C4C4" stroke-width="1.4"/>
<circle cx="288.176" cy="72.2097" r="4.10308" fill="white" stroke="#C4C4C4" stroke-width="2.1"/>
<ellipse cx="71.2604" cy="95.0239" rx="3.05308" ry="3.01008" fill="#C4C4C4" fill-opacity="0.5"/>
<ellipse cx="26.5515" cy="52.9279" rx="4.57962" ry="4.51511" fill="#C4C4C4" fill-opacity="0.5"/>
<path d="M7.57962 127.197C10.8633 127.197 13.5592 124.567 13.5592 121.282C13.5592 117.996 10.8633 115.367 7.57962 115.367C4.29595 115.367 1.6 117.996 1.6 121.282C1.6 124.567 4.29595 127.197 7.57962 127.197Z" fill="white" stroke="#C4C4C4" stroke-width="2.8"/>
</svg>
