<svg width="43" height="43" viewBox="0 0 43 43" fill="none" xmlns="http://www.w3.org/2000/svg">
<path d="M5.10429 42.9097C3.71416 42.9097 2.51591 42.4065 1.50952 41.4001C0.503174 40.3938 0 39.1955 0 37.8054V5.16038C0 3.75481 0.503174 2.54336 1.50952 1.52601C2.51591 0.508671 3.71416 0 5.10429 0H37.7493C39.1549 0 40.3663 0.508671 41.3837 1.52601C42.401 2.54336 42.9097 3.75481 42.9097 5.16038V37.8054C42.9097 39.1955 42.401 40.3938 41.3837 41.4001C40.3663 42.4065 39.1549 42.9097 37.7493 42.9097H5.10429ZM5.10429 37.8054H37.7493V5.16038H5.10429V37.8054ZM7.12357 33.262H35.7861L26.9237 21.0902L19.5197 30.6257L14.3032 23.5022L7.12357 33.262ZM13.5938 17.2761C14.6464 17.2761 15.5232 16.9282 16.2243 16.2326C16.9255 15.5369 17.2761 14.6629 17.2761 13.6103C17.2761 12.5578 16.9189 11.681 16.2045 10.9798C15.4902 10.2787 14.6068 9.92812 13.5542 9.92812C12.5017 9.92812 11.6342 10.2853 10.9518 10.9996C10.2693 11.714 9.92812 12.5974 9.92812 13.6499C9.92812 14.7025 10.2759 15.5699 10.9716 16.2524C11.6672 16.9348 12.5413 17.2761 13.5938 17.2761Z" fill="#747D87"/>
</svg>
