<svg width="13" height="14" viewBox="0 0 13 14" fill="none" xmlns="http://www.w3.org/2000/svg">
<path fill-rule="evenodd" clip-rule="evenodd" d="M5.41671 7.84165C3.62108 7.84165 2.16671 6.38728 2.16671 4.59165C2.16671 2.79603 3.62108 1.34165 5.41671 1.34165C7.21233 1.34165 8.66671 2.79603 8.66671 4.59165C8.66671 6.38728 7.21233 7.84165 5.41671 7.84165ZM1.08337 12.7167C1.08337 10.3234 3.02347 8.38332 5.41671 8.38332C7.80994 8.38332 9.75004 10.3234 9.75004 12.7167H8.66671C8.66671 10.9217 7.21163 9.46665 5.41671 9.46665C3.62178 9.46665 2.16671 10.9217 2.16671 12.7167H1.08337ZM7.58337 4.59165C7.58337 5.78874 6.61379 6.75832 5.41671 6.75832C4.21962 6.75832 3.25004 5.78874 3.25004 4.59165C3.25004 3.39457 4.21962 2.42499 5.41671 2.42499C6.61379 2.42499 7.58337 3.39457 7.58337 4.59165Z" fill="#373737"/>
<path d="M9.90381 8.76411C11.4587 9.4644 12.4585 11.0113 12.4583 12.7167H11.375C11.3752 11.4376 10.6254 10.2773 9.45911 9.75211L9.90327 8.76411L9.90381 8.76411Z" fill="#373737"/>
<path d="M9.53113 2.6487C10.6473 3.10876 11.3754 4.19692 11.375 5.40416C11.3754 6.94482 10.2009 8.2316 8.66663 8.37141V7.28103C9.49051 7.16303 10.1411 6.52148 10.2706 5.69933C10.4001 4.87717 9.97822 4.0667 9.2305 3.70116L9.53113 2.6487V2.6487Z" fill="#373737"/>
</svg>
