<svg width="396" height="393" viewBox="0 0 396 393" fill="none" xmlns="http://www.w3.org/2000/svg">
<rect width="395.449" height="392.972" rx="55.8408" fill="url(#paint0_linear_16022_2876)"/>
<path d="M269.151 129.464H82.6677C78.6927 129.464 75.4736 126.83 75.4736 123.586V76.179C75.4736 72.9356 78.6927 70.3019 82.6677 70.3019H320.412C324.387 70.3019 327.606 72.9356 327.606 76.179V90.3232C329.508 133.561 279.784 129.561 269.176 129.464H269.151Z" fill="#FFE200"/>
<path d="M121.269 322.775H77.7631C76.5194 322.775 75.4951 320.434 75.4951 317.532V275.124C75.4951 272.222 76.5194 269.881 77.7631 269.881H152.874C154.117 269.881 155.141 272.222 155.141 275.124V287.781C155.751 326.433 124.634 322.873 121.293 322.775H121.269Z" fill="#FFE200"/>
<path d="M180.796 227.74H80.031C77.5192 227.74 75.4951 225.35 75.4951 222.4V179.309C75.4951 176.358 77.5192 173.968 80.031 173.968H230.228C232.739 173.968 234.763 176.358 234.763 179.309V192.16C235.958 231.447 187.502 227.813 180.796 227.74Z" fill="#FFE200"/>
<path d="M261.47 129.464H74.986C71.011 129.464 67.792 126.83 67.792 123.586V76.179C67.792 72.9356 71.011 70.3019 74.986 70.3019H312.73C316.705 70.3019 319.924 72.9356 319.924 76.179V90.3232C321.826 133.561 272.102 129.561 261.494 129.464H261.47Z" fill="#FFE200"/>
<path d="M173.093 227.741H72.3279C69.8161 227.741 67.792 225.351 67.792 222.4V179.309C67.792 176.358 69.8161 173.968 72.3279 173.968H222.524C225.036 173.968 227.06 176.358 227.06 179.309V192.161C228.255 231.447 179.799 227.814 173.093 227.741Z" fill="#FFE200"/>
<path d="M113.565 322.898H70.0599C68.8162 322.898 67.792 320.532 67.792 317.63V275.124C67.792 272.222 68.8162 269.857 70.0599 269.857H145.17C146.414 269.857 147.438 272.222 147.438 275.124V287.805C148.048 326.556 116.931 322.995 113.59 322.898H113.565Z" fill="#FFE200"/>
<defs>
<linearGradient id="paint0_linear_16022_2876" x1="424.323" y1="197.725" x2="-28.2456" y2="199.224" gradientUnits="userSpaceOnUse">
<stop stop-color="#603197"/>
<stop offset="0.59375" stop-color="#B227C1"/>
</linearGradient>
</defs>
</svg>
