<svg width="117" height="121" viewBox="0 0 117 121" fill="none" xmlns="http://www.w3.org/2000/svg">
<path d="M96.7605 76.0248L88.2656 67.5782C89.6326 65.3452 90.6578 63.0151 91.3413 60.5879C92.0248 58.1607 92.3666 55.6364 92.3666 53.0151H104.084C104.084 57.2869 103.449 61.3403 102.18 65.1753C100.91 69.0102 99.104 72.6267 96.7605 76.0248ZM79.4777 58.5491L45.4979 24.7626V18.0636C45.4979 13.2092 47.2067 9.08304 50.6242 5.68498C54.0417 2.28692 58.1915 0.587891 63.0737 0.587891C67.9558 0.587891 72.1056 2.28692 75.5232 5.68498C78.9407 9.08304 80.6494 13.2092 80.6494 18.0636V53.0151C80.6494 54.083 80.5274 55.0539 80.2833 55.9277C80.0392 56.8015 79.7706 57.6753 79.4777 58.5491ZM57.2151 111.267V93.2092C47.0602 91.85 38.6629 87.3597 32.0232 79.7384C25.3834 72.117 22.0636 63.2092 22.0636 53.0151H33.7807C33.7807 61.0733 36.6368 67.9423 42.3489 73.6219C48.061 79.3015 54.9693 82.1413 63.0737 82.1413C66.3935 82.1413 69.5425 81.6316 72.5206 80.6122C75.4987 79.5927 78.2083 78.1607 80.6494 76.316L88.9979 84.617C86.1663 86.85 83.0661 88.719 79.6974 90.2238C76.3287 91.7287 72.7403 92.7238 68.9322 93.2092V111.267H57.2151ZM108.771 120.588L0.972656 13.4034L9.17468 5.24808L116.973 112.433L108.771 120.588Z" fill="#3F464E"/>
</svg>
