<svg width="35" height="46" viewBox="0 0 35 46" fill="none" xmlns="http://www.w3.org/2000/svg">
<path d="M17.2425 31.625C22.8488 31.625 26.3855 27.1687 26.3855 21.5625V10.0625C26.3855 4.45625 22.8488 0 17.2425 0C11.6363 0 8.15612 4.45625 8.15612 10.0625V21.5625C8.15612 27.1687 11.6363 31.625 17.2425 31.625Z" fill="#3F464E"/>
<path d="M34.4416 22.9994C34.5062 22.2082 33.8564 21.5625 33.0625 21.5625C32.2686 21.5625 31.6326 22.208 31.5534 22.9979C30.8272 30.2369 24.672 35.9375 17.25 35.9375C9.828 35.9375 3.67279 30.2369 2.94664 22.9979C2.8674 22.208 2.23141 21.5625 1.4375 21.5625C0.643591 21.5625 -0.00624109 22.2082 0.0584154 22.9994C0.743514 31.3837 7.37647 37.9884 15.8125 38.6687V43.125H11.5C10.6375 43.125 10.0625 43.7 10.0625 44.5625C10.0625 45.425 10.6375 46 11.5 46H23C23.8625 46 24.4375 45.425 24.4375 44.5625C24.4375 43.7 23.8625 43.125 23 43.125H18.6875V38.6687C27.1235 37.9884 33.7565 31.3837 34.4416 22.9994Z" fill="#3F464E"/>
</svg>
