<svg width="11" height="12" viewBox="0 0 11 12" fill="none" xmlns="http://www.w3.org/2000/svg">
<path d="M7.315 8.585L8.085 7.815L6.05 5.78V3.25H4.95V6.22L7.315 8.585ZM5.5 11.5C4.73917 11.5 4.02417 11.3556 3.355 11.0669C2.68583 10.7781 2.10375 10.3862 1.60875 9.89125C1.11375 9.39625 0.721875 8.81417 0.433125 8.145C0.144375 7.47583 0 6.76083 0 6C0 5.23917 0.144375 4.52417 0.433125 3.855C0.721875 3.18583 1.11375 2.60375 1.60875 2.10875C2.10375 1.61375 2.68583 1.22188 3.355 0.933125C4.02417 0.644375 4.73917 0.5 5.5 0.5C6.26083 0.5 6.97583 0.644375 7.645 0.933125C8.31417 1.22188 8.89625 1.61375 9.39125 2.10875C9.88625 2.60375 10.2781 3.18583 10.5669 3.855C10.8556 4.52417 11 5.23917 11 6C11 6.76083 10.8556 7.47583 10.5669 8.145C10.2781 8.81417 9.88625 9.39625 9.39125 9.89125C8.89625 10.3862 8.31417 10.7781 7.645 11.0669C6.97583 11.3556 6.26083 11.5 5.5 11.5ZM5.5 10.4C6.71917 10.4 7.75729 9.97146 8.61438 9.11438C9.47146 8.25729 9.9 7.21917 9.9 6C9.9 4.78083 9.47146 3.74271 8.61438 2.88562C7.75729 2.02854 6.71917 1.6 5.5 1.6C4.28083 1.6 3.24271 2.02854 2.38562 2.88562C1.52854 3.74271 1.1 4.78083 1.1 6C1.1 7.21917 1.52854 8.25729 2.38562 9.11438C3.24271 9.97146 4.28083 10.4 5.5 10.4Z" fill="#3F464E"/>
</svg>
