<svg width="83" height="79" viewBox="0 0 83 79" fill="none" xmlns="http://www.w3.org/2000/svg">
<rect width="83" height="78.5308" rx="5" fill="#E8E8ED"/>
<path d="M27.5098 38.1045C24.3554 39.3256 23.6364 43.434 24.3554 47.9803" stroke="#C3C4C4" stroke-width="1.54922"/>
<rect width="5.41974" height="4.97736" rx="2.32604" transform="matrix(-0.916438 -0.409521 -0.420206 0.903202 30.5332 36.9219)" fill="#C3C4C4"/>
<path fill-rule="evenodd" clip-rule="evenodd" d="M22.9034 47.3369C21.2966 47.3369 20.1102 48.8359 20.4793 50.3997L21.7172 55.6446C21.9105 56.4637 22.6417 57.0424 23.4834 57.0424H27.4441C28.0578 57.0424 28.5391 56.5159 28.4842 55.9047V55.9047C28.3174 54.0475 29.7802 52.4474 31.6449 52.4474H49.7363C51.5864 52.4474 53.0442 54.0235 52.9001 55.8679V55.8679C52.8506 56.5012 53.3512 57.0424 53.9864 57.0424H58.4056C59.2473 57.0424 59.9785 56.4637 60.1718 55.6446L61.4096 50.3997C61.7787 48.8359 60.5923 47.3369 58.9855 47.3369H22.9034Z" fill="#C3C4C4"/>
<path d="M41.5003 38.2908C38.1852 38.2847 35.5598 35.6767 35.5645 32.3927C35.5691 29.159 38.2318 26.5662 41.5422 26.5723C44.8557 26.5784 47.5153 29.2001 47.5091 32.4536C47.5029 35.6995 44.8293 38.2969 41.4987 38.2908H41.5003Z" fill="#C3C4C4"/>
<path d="M57.1004 28.3188C54.9832 28.3149 53.3066 26.6493 53.3096 24.5521C53.3126 22.4869 55.013 20.8311 57.1272 20.835C59.2433 20.8389 60.9418 22.5132 60.9378 24.591C60.9338 26.6639 59.2264 28.3227 57.0994 28.3188H57.1004Z" fill="#C3C4C4"/>
<path d="M26.0293 28.0151C23.9122 28.0112 22.2356 26.3456 22.2385 24.2484C22.2415 22.1832 23.942 20.5274 26.0561 20.5313C28.1723 20.5351 29.8707 22.2095 29.8668 24.2873C29.8628 26.3602 28.1554 28.019 26.0283 28.0151H26.0293Z" fill="#C3C4C4"/>
<path d="M53.8482 45.8748H29.0218C28.5197 42.9927 30.1086 41.1397 31.6383 40.1235C32.7045 39.4152 34.0175 39.2744 35.2976 39.2744H47.7464C48.7451 39.2744 49.7654 39.3415 50.6639 39.7772C52.9537 40.8876 54.0373 43.1147 53.8482 45.8748Z" fill="#C3C4C4"/>
<path d="M64.9866 33.1625H49.1317C48.811 31.3219 49.8258 30.1385 50.8027 29.4895C51.4836 29.0371 52.3221 28.9473 53.1396 28.9473H61.0898C61.7276 28.9473 62.3792 28.9901 62.9531 29.2684C64.4154 29.9775 65.1074 31.3998 64.9866 33.1625Z" fill="#C3C4C4"/>
<path d="M33.9153 32.8578H18.0604C17.7397 31.0172 18.7545 29.8338 19.7314 29.1848C20.4123 28.7325 21.2508 28.6426 22.0683 28.6426H30.0186C30.6563 28.6426 31.3079 28.6854 31.8818 28.9637C33.3441 29.6728 34.0361 31.0951 33.9153 32.8578Z" fill="#C3C4C4"/>
</svg>
