<svg width="35" height="46" viewBox="0 0 35 46" fill="none" xmlns="http://www.w3.org/2000/svg">
<path d="M17.3644 31.6285C23.0023 31.6285 26.5589 27.1718 26.5589 21.5649V10.0636C26.5589 4.45675 23.0023 0 17.3644 0C11.7266 0 8.22692 4.45675 8.22692 10.0636V21.5649C8.22692 27.1718 11.7266 31.6285 17.3644 31.6285Z" fill="#B227C1"/>
<path d="M34.6745 22.3911C34.6963 21.9318 34.3214 21.5586 33.8615 21.5586H32.6357C32.1758 21.5586 31.8055 21.9322 31.7788 22.3913C31.3414 29.9149 25.0168 35.9352 17.3471 35.9352C9.67733 35.9352 3.35279 29.9149 2.91533 22.3913C2.88864 21.9322 2.51836 21.5586 2.05847 21.5586H0.832715C0.372819 21.5586 -0.00208996 21.9318 0.0196373 22.3911C0.429723 31.0616 7.21512 37.9701 15.9015 38.6668V43.1235H11.5647C10.6974 43.1235 10.1191 43.6986 10.1191 44.5612C10.1191 45.4238 10.6974 45.9988 11.5647 45.9988H23.1294C23.9968 45.9988 24.575 45.4238 24.575 44.5612C24.575 43.6986 23.9968 43.1235 23.1294 43.1235H18.7927V38.6668C27.4791 37.9701 34.2645 31.0616 34.6745 22.3911Z" fill="#B227C1"/>
</svg>
