<svg width="50" height="90" viewBox="0 0 50 90" fill="none" xmlns="http://www.w3.org/2000/svg">
<path d="M48.5481 44.241C49.1842 45.3907 49.1668 46.7906 48.5024 47.9241L27.5341 83.6946C26.5748 85.3311 24.0687 84.6507 24.0687 82.7538L24.0687 7.20488C24.0687 5.28349 26.6267 4.623 27.5569 6.30418L48.5481 44.241Z" fill="#FFE900"/>
<path d="M24.0664 22.9932L24.0664 66.8512L4.6518 66.8512C2.08313 66.8512 0.000816426 64.7689 0.000816539 62.2003L0.000818049 27.6442C0.000818162 25.0755 2.08314 22.9932 4.65181 22.9932L24.0664 22.9932Z" fill="#FFE900"/>
<path d="M33.6178 56.1685H29.5642C29.2818 56.1685 29.055 56.0979 28.8835 55.9567C28.7222 55.8155 28.5911 55.6542 28.4903 55.4727L23.4232 47.078C23.3426 47.3301 23.2468 47.5469 23.1358 47.7284L18.2806 55.4727C18.1596 55.6441 18.0184 55.8054 17.857 55.9567C17.7058 56.0979 17.5041 56.1685 17.252 56.1685H13.4555L20.7158 44.9151L13.7429 34.297H17.7965C18.0789 34.297 18.2806 34.3373 18.4016 34.418C18.5327 34.4886 18.6537 34.6096 18.7646 34.781L23.7409 42.7975C23.8417 42.5454 23.9627 42.2933 24.1039 42.0413L28.6718 34.8566C28.7827 34.6651 28.9037 34.5239 29.0348 34.4331C29.1659 34.3424 29.3323 34.297 29.5339 34.297H33.4212L26.3878 44.7487L33.6178 56.1685Z" fill="#B227C1"/>
</svg>
