<svg width="16" height="17" viewBox="0 0 16 17" fill="none" xmlns="http://www.w3.org/2000/svg">
<path d="M8 16.5C5.95555 16.5 4.17422 15.8224 2.656 14.4671C1.13778 13.1118 0.267259 11.4191 0.0444444 9.38889H1.86667C2.07407 10.9296 2.75941 12.2037 3.92267 13.2111C5.08593 14.2185 6.44504 14.7222 8 14.7222C9.73333 14.7222 11.2038 14.1187 12.4116 12.9116C13.6193 11.7044 14.2228 10.2339 14.2222 8.5C14.2222 6.76667 13.6187 5.29644 12.4116 4.08933C11.2044 2.88222 9.73392 2.27837 8 2.27778C6.97778 2.27778 6.02222 2.51481 5.13333 2.98889C4.24444 3.46296 3.4963 4.11481 2.88889 4.94444H5.33333V6.72222H0V1.38889H1.77778V3.47778C2.53333 2.52963 3.4557 1.7963 4.54489 1.27778C5.63407 0.759259 6.78578 0.5 8 0.5C9.11111 0.5 10.152 0.711259 11.1227 1.13378C12.0933 1.5563 12.9378 2.12637 13.656 2.844C14.3742 3.56281 14.9446 4.40726 15.3671 5.37733C15.7896 6.34741 16.0006 7.3883 16 8.5C16 9.61111 15.789 10.652 15.3671 11.6227C14.9452 12.5933 14.3748 13.4378 13.656 14.156C12.9372 14.8742 12.0927 15.4446 11.1227 15.8671C10.1526 16.2896 9.1117 16.5006 8 16.5ZM10.4889 12.2333L7.11111 8.85555V4.05556H8.88889V8.14444L11.7333 10.9889L10.4889 12.2333Z" fill="#B227C1"/>
</svg>
