<svg width="283" height="116" viewBox="0 0 283 116" fill="none" xmlns="http://www.w3.org/2000/svg">
<path d="M115.145 21.8391C109.303 24.1542 107.967 31.9336 109.294 40.5407" stroke="#D1D1D2" stroke-width="2.93374"/>
<rect width="10.1074" height="9.35178" rx="4.40479" transform="matrix(-0.909017 -0.415452 -0.414282 0.910745 120.733 19.594)" fill="#D1D1D2"/>
<path fill-rule="evenodd" clip-rule="evenodd" d="M106.719 39.3232C103.686 39.3232 101.441 42.1445 102.123 45.0999L104.415 55.0383C104.775 56.5977 106.163 57.7024 107.763 57.7024H114.957C116.126 57.7024 117.043 56.7006 116.941 55.5362C116.633 52.0234 119.401 49.0012 122.927 49.0012H156.134C159.633 49.0012 162.393 51.979 162.126 55.4681C162.034 56.6736 162.988 57.7024 164.197 57.7024H172.237C173.838 57.7024 175.226 56.5977 175.586 55.0383L177.878 45.0999C178.56 42.1445 176.315 39.3232 173.282 39.3232H106.719Z" fill="#D1D1D2"/>
<path d="M141.029 22.1912C134.894 22.1796 130.036 17.2409 130.044 11.0221C130.053 4.89839 134.98 -0.0115121 141.107 2.02737e-05C147.239 0.0115526 152.16 4.97623 152.149 11.1374C152.137 17.2841 147.19 22.2027 141.026 22.1912H141.029Z" fill="#D1D1D2"/>
<path d="M163.88 36.5518H117.937C117.021 31.1723 119.865 27.6862 122.657 25.7445C124.691 24.3303 127.238 24.0527 129.715 24.0527H152.459C154.393 24.0527 156.374 24.1821 158.097 25.0598C162.259 27.1804 164.227 31.3702 163.88 36.5518Z" fill="#D1D1D2"/>
<path d="M125.195 110.592L121.168 57.1636C120.981 54.6835 122.943 52.5681 125.43 52.5681H154.587C157.068 52.5681 159.028 54.6737 158.85 57.1485L155.013 110.576C154.853 112.812 152.992 114.545 150.75 114.545H129.457C127.221 114.545 125.363 112.821 125.195 110.592Z" fill="#D1D1D2"/>
<path d="M127.215 59.8362H154.492V61.5459C154.492 63.9065 152.578 65.8201 150.218 65.8201H127.215V59.8362Z" fill="white"/>
<path d="M127.215 70.9478H144.263V72.6574C144.263 75.018 142.349 76.9317 139.989 76.9317H127.215V70.9478Z" fill="white"/>
<path d="M127.215 81.6299H136.165V84.1944C136.165 86.0829 134.635 87.6138 132.746 87.6138H127.215V81.6299Z" fill="white"/>
<circle cx="279.75" cy="31.75" r="2.75" fill="#D1D1D2" fill-opacity="0.5"/>
<circle cx="239.1" cy="5.1" r="2.8" stroke="#D1D1D2" stroke-width="1.4"/>
<circle cx="225.8" cy="67.3916" r="3.85" fill="white" stroke="#D1D1D2" stroke-width="2.1"/>
<ellipse cx="65.5998" cy="84.0562" rx="2.8" ry="2.76056" fill="#D1D1D2" fill-opacity="0.5"/>
<ellipse cx="24.6004" cy="45.4507" rx="4.2" ry="4.14084" fill="#D1D1D2" fill-opacity="0.5"/>
<path d="M7.2 113.682C10.274 113.682 12.8 111.22 12.8 108.141C12.8 105.062 10.274 102.6 7.2 102.6C4.12599 102.6 1.6 105.062 1.6 108.141C1.6 111.22 4.12599 113.682 7.2 113.682Z" fill="white" stroke="#D1D1D2" stroke-width="2.8"/>
</svg>
