<svg width="25" height="24" viewBox="0 0 25 24" fill="none" xmlns="http://www.w3.org/2000/svg">
<circle cx="12.6855" cy="12" r="12" fill="#B227C1"/>
<path d="M11.7189 11.0417C9.82721 11.0417 9.44388 8.175 9.44388 8.175C9.21888 6.68333 9.90221 5 11.6939 5C13.4939 5 14.1772 6.68333 13.9522 8.175C13.9522 8.175 13.6105 11.0417 11.7189 11.0417ZM11.7189 13.1833L13.9855 11.6667C15.9772 11.6667 17.7522 13.6083 17.7522 15.4417V17.5167C17.7522 17.5167 14.7105 18.4583 11.7189 18.4583C8.67721 18.4583 5.68555 17.5167 5.68555 17.5167V15.4417C5.68555 13.5667 7.30221 11.7083 9.41055 11.7083L11.7189 13.1833Z" fill="white"/>
<path d="M16.1035 7.9165L17.7702 9.58317L20.6868 6.6665" stroke="white" stroke-width="0.833333" stroke-linecap="round"/>
</svg>
