<svg width="61" height="61" viewBox="0 0 61 61" fill="none" xmlns="http://www.w3.org/2000/svg">
<circle cx="30.9035" cy="30.4821" r="29.9855" fill="#B227C1"/>
<path d="M30.9088 36.589C35.051 36.589 37.6642 33.4335 37.6642 29.4638V21.3206C37.6642 17.3508 35.051 14.1953 30.9088 14.1953C26.7666 14.1953 24.1952 17.3508 24.1952 21.3206V29.4638C24.1952 33.4335 26.7666 36.589 30.9088 36.589Z" fill="white"/>
<path d="M43.6237 30.2086C43.6494 29.7966 43.3123 29.4609 42.8995 29.4609H42.2702C41.8574 29.4609 41.5257 29.7967 41.4942 30.2084C41.0915 35.4614 36.481 39.6399 30.9016 39.6399C25.3222 39.6399 20.7117 35.4614 20.309 30.2084C20.2775 29.7967 19.9458 29.4609 19.533 29.4609H18.9037C18.4909 29.4609 18.1538 29.7966 18.1795 30.2086C18.5579 36.2731 23.5123 41.0849 29.8395 41.5739V44.7294H26.6532C26.0159 44.7294 25.591 45.1365 25.591 45.7473C25.591 46.358 26.0159 46.7652 26.6532 46.7652H35.1501C35.7873 46.7652 36.2122 46.358 36.2122 45.7473C36.2122 45.1365 35.7873 44.7294 35.1501 44.7294H31.9637V41.5739C38.2909 41.0849 43.2453 36.2731 43.6237 30.2086Z" fill="white"/>
</svg>
