<svg width="17" height="17" viewBox="0 0 17 17" fill="none" xmlns="http://www.w3.org/2000/svg">
<path d="M13.4823 10.6786L12.2866 9.48295C12.479 9.16685 12.6233 8.83701 12.7195 8.49342C12.8157 8.14984 12.8638 7.79251 12.8638 7.42144H14.513C14.513 8.02615 14.4237 8.59993 14.245 9.1428C14.0664 9.68566 13.8121 10.1976 13.4823 10.6786ZM11.0497 8.20481L6.26699 3.42211V2.47381C6.26699 1.78664 6.5075 1.20255 6.98852 0.721529C7.46954 0.24051 8.05363 0 8.7408 0C9.42797 0 10.0121 0.24051 10.4931 0.721529C10.9741 1.20255 11.2146 1.78664 11.2146 2.47381V7.42144C11.2146 7.57261 11.1974 7.71005 11.1631 7.83374C11.1287 7.95743 11.0909 8.08112 11.0497 8.20481ZM7.9162 15.6675V13.1112C6.48688 12.9188 5.30495 12.2832 4.3704 11.2043C3.43585 10.1255 2.96857 8.86449 2.96857 7.42144H4.61778C4.61778 8.56214 5.01978 9.53448 5.82377 10.3385C6.62775 11.1425 7.6001 11.5445 8.7408 11.5445C9.20808 11.5445 9.6513 11.4723 10.0705 11.328C10.4897 11.1837 10.871 10.981 11.2146 10.7199L12.3897 11.8949C11.9911 12.211 11.5548 12.4756 11.0806 12.6886C10.6065 12.9016 10.1014 13.0425 9.56541 13.1112V15.6675H7.9162ZM15.1727 16.9868L0 1.81413L1.15445 0.659683L16.3272 15.8324L15.1727 16.9868Z" fill="white"/>
</svg>
