<svg width="46" height="46" viewBox="0 0 46 46" fill="none" xmlns="http://www.w3.org/2000/svg">
<path fill-rule="evenodd" clip-rule="evenodd" d="M40.7391 23C40.7391 23.759 40.6682 24.495 40.5736 25.231L45.5628 29.049C46.012 29.394 46.1303 30.015 45.8465 30.521L41.1175 38.479C40.8337 38.985 40.1953 39.169 39.6751 38.985L33.7874 36.662C32.5579 37.582 31.2811 38.341 29.7914 38.939L28.9165 45.034C28.8219 45.586 28.3254 46 27.7343 46H18.2762C17.685 46 17.1885 45.586 17.0939 45.034L16.219 38.939C14.7294 38.364 13.4526 37.582 12.223 36.662L6.33534 38.985C5.81514 39.169 5.17672 38.985 4.89298 38.479L0.163936 30.521C-0.143452 30.015 -0.00158044 29.394 0.447679 29.049L5.43682 25.231C5.34224 24.495 5.2713 23.759 5.2713 23C5.2713 22.241 5.34224 21.482 5.43682 20.7L0.447679 16.951C-0.00158044 16.606 -0.143452 15.985 0.163936 15.479L4.89298 7.521C5.17672 7.015 5.81514 6.808 6.33534 7.015L12.223 9.315C13.4526 8.418 14.7294 7.636 16.219 7.061L17.0939 0.966C17.1885 0.414 17.685 0 18.2762 0H27.7343C28.3254 0 28.8219 0.414 28.9165 0.966L29.7914 7.061C31.2811 7.636 32.5579 8.418 33.7874 9.315L39.6751 7.015C40.1953 6.808 40.8337 7.015 41.1175 7.521L45.8465 15.479C46.1303 15.985 46.012 16.606 45.5628 16.951L40.5736 20.7C40.6682 21.482 40.7391 22.241 40.7391 23ZM14.7282 23C14.7282 27.4459 18.4334 31.05 23.004 31.05C27.5746 31.05 31.2799 27.4459 31.2799 23C31.2799 18.5541 27.5746 14.95 23.004 14.95C18.4334 14.95 14.7282 18.5541 14.7282 23Z" fill="#FFE200"/>
</svg>
