<svg width="29" height="29" viewBox="0 0 29 29" fill="none" xmlns="http://www.w3.org/2000/svg">
<path fill-rule="evenodd" clip-rule="evenodd" d="M23.6575 14.3999C23.6575 14.7959 23.6205 15.1799 23.5712 15.5639L26.1742 17.5559C26.4086 17.7359 26.4703 18.0599 26.3223 18.3239L23.8549 22.4759C23.7069 22.7399 23.3738 22.8359 23.1024 22.7399L20.0306 21.5279C19.3891 22.0079 18.7229 22.4039 17.9457 22.7159L17.4892 25.8959C17.4399 26.1839 17.1808 26.3999 16.8724 26.3999H11.9377C11.6293 26.3999 11.3703 26.1839 11.3209 25.8959L10.8645 22.7159C10.0872 22.4159 9.42107 22.0079 8.77956 21.5279L5.70774 22.7399C5.43633 22.8359 5.10324 22.7399 4.9552 22.4759L2.48788 18.3239C2.3275 18.0599 2.40152 17.7359 2.63592 17.5559L5.23895 15.5639C5.1896 15.1799 5.15259 14.7959 5.15259 14.3999C5.15259 14.0039 5.1896 13.6079 5.23895 13.1999L2.63592 11.2439C2.40152 11.0639 2.3275 10.7399 2.48788 10.4759L4.9552 6.3239C5.10324 6.0599 5.43633 5.9519 5.70774 6.0599L8.77956 7.2599C9.42107 6.7919 10.0872 6.3839 10.8645 6.0839L11.3209 2.9039C11.3703 2.6159 11.6293 2.3999 11.9377 2.3999H16.8724C17.1808 2.3999 17.4399 2.6159 17.4892 2.9039L17.9457 6.0839C18.7229 6.3839 19.3891 6.7919 20.0306 7.2599L23.1024 6.0599C23.3738 5.9519 23.7069 6.0599 23.8549 6.3239L26.3223 10.4759C26.4703 10.7399 26.4086 11.0639 26.1742 11.2439L23.5712 13.1999C23.6205 13.6079 23.6575 14.0039 23.6575 14.3999ZM10.0852 14.3999C10.0852 16.7195 12.0183 18.5999 14.403 18.5999C16.7876 18.5999 18.7208 16.7195 18.7208 14.3999C18.7208 12.0803 16.7876 10.1999 14.403 10.1999C12.0183 10.1999 10.0852 12.0803 10.0852 14.3999Z" fill="#3F464E"/>
</svg>
