<svg width="33" height="36" viewBox="0 0 33 36" fill="none" xmlns="http://www.w3.org/2000/svg">
<path d="M27 36C25.5 36 24.225 35.475 23.175 34.425C22.125 33.375 21.6 32.1 21.6 30.6C21.6 30.39 21.615 30.1722 21.645 29.9466C21.675 29.721 21.72 29.5188 21.78 29.34L9.09 21.96C8.58 22.41 8.01 22.7628 7.38 23.0184C6.75 23.274 6.09 23.4012 5.4 23.4C3.9 23.4 2.625 22.875 1.575 21.825C0.525 20.775 0 19.5 0 18C0 16.5 0.525 15.225 1.575 14.175C2.625 13.125 3.9 12.6 5.4 12.6C6.09 12.6 6.75 12.7278 7.38 12.9834C8.01 13.239 8.58 13.5912 9.09 14.04L21.78 6.66C21.72 6.48 21.675 6.2778 21.645 6.0534C21.615 5.829 21.6 5.6112 21.6 5.4C21.6 3.9 22.125 2.625 23.175 1.575C24.225 0.525 25.5 0 27 0C28.5 0 29.775 0.525 30.825 1.575C31.875 2.625 32.4 3.9 32.4 5.4C32.4 6.9 31.875 8.175 30.825 9.225C29.775 10.275 28.5 10.8 27 10.8C26.31 10.8 25.65 10.6728 25.02 10.4184C24.39 10.164 23.82 9.8112 23.31 9.36L10.62 16.74C10.68 16.92 10.725 17.1228 10.755 17.3484C10.785 17.574 10.8 17.7912 10.8 18C10.8 18.21 10.785 18.4278 10.755 18.6534C10.725 18.879 10.68 19.0812 10.62 19.26L23.31 26.64C23.82 26.19 24.39 25.8378 25.02 25.5834C25.65 25.329 26.31 25.2012 27 25.2C28.5 25.2 29.775 25.725 30.825 26.775C31.875 27.825 32.4 29.1 32.4 30.6C32.4 32.1 31.875 33.375 30.825 34.425C29.775 35.475 28.5 36 27 36Z" fill="#3F464E"/>
</svg>
