<svg width="15" height="13" viewBox="0 0 15 13" fill="none" xmlns="http://www.w3.org/2000/svg">
<path d="M9.35911 7.87784C8.2755 7.53577 8.58397 7.26347 9.61812 6.87496C10.1135 6.68853 9.81225 6.29535 9.82578 5.98082C9.83185 5.83685 10.3979 5.86555 10.3569 5.31021C10.3279 4.91914 9.46645 4.36193 9.23171 4.12416C9.09614 3.98696 9.50798 3.61152 9.21794 3.28135C8.82197 2.83007 8.75944 2.04489 8.5198 1.60576C8.5198 1.60576 8.7025 1.32668 8.5625 1.16802C7.35475 -0.199104 2.84785 -0.0735688 1.6961 1.93849C0.403184 4.19719 0.385917 7.319 3.07419 9.00089C4.26981 9.74874 2.73842 12.3971 2.73842 12.3971H7.47959C7.47959 11.9449 6.95084 10.3227 7.87626 10.3955C8.68034 10.4588 9.66502 10.424 9.57775 9.51587C9.55138 9.24193 9.52035 8.99529 9.71168 8.76826C9.90302 8.54145 10.18 8.13685 9.35911 7.87784ZM10.4444 7.45154L14.8477 8.02835V6.87496L10.4444 7.45154ZM14.0216 11.2493L14.4939 10.2504L10.4444 8.06451L14.0216 11.2493ZM14.4939 4.6424L14.0216 3.64325L10.4444 6.82853L14.4939 4.6424Z" fill="#3F464E"/>
</svg>
