<svg width="29" height="38" viewBox="0 0 29 38" fill="none" xmlns="http://www.w3.org/2000/svg">
<path d="M14.2027 26.1286C18.8131 26.1286 21.7216 22.4468 21.7216 17.8149V8.31363C21.7216 3.68175 18.8131 0 14.2027 0C9.59231 0 6.73036 3.68175 6.73036 8.31363V17.8149C6.73036 22.4468 9.59231 26.1286 14.2027 26.1286Z" fill="white"/>
<path d="M28.324 18.993C28.3767 18.3423 27.8424 17.8113 27.1895 17.8113C26.5366 17.8113 26.0135 18.3421 25.9489 18.9918C25.3543 24.9752 20.2913 29.6879 14.1858 29.6879C8.08035 29.6879 3.01731 24.9752 2.42268 18.9918C2.35811 18.3421 1.83503 17.8113 1.18215 17.8113C0.529267 17.8113 -0.00508497 18.3423 0.0475951 18.993C0.608569 25.9227 6.06433 31.3823 13.0037 31.9445V35.6263H9.45721C8.74792 35.6263 8.27505 36.1013 8.27505 36.8139C8.27505 37.5265 8.74792 38.0016 9.45721 38.0016H18.9144C19.6237 38.0016 20.0966 37.5265 20.0966 36.8139C20.0966 36.1013 19.6237 35.6263 18.9144 35.6263H15.368V31.9445C22.3073 31.3823 27.763 25.9227 28.324 18.993Z" fill="white"/>
</svg>
