<svg width="17" height="17" viewBox="0 0 17 17" fill="none" xmlns="http://www.w3.org/2000/svg">
<path d="M10.9725 12.6275L12.1275 11.4725L9.075 8.42V4.625H7.425V9.08L10.9725 12.6275ZM8.25 17C7.10875 17 6.03625 16.7834 5.0325 16.3503C4.02875 15.9172 3.15563 15.3294 2.41313 14.5869C1.67063 13.8444 1.08281 12.9713 0.649688 11.9675C0.216563 10.9638 0 9.89125 0 8.75C0 7.60875 0.216563 6.53625 0.649688 5.5325C1.08281 4.52875 1.67063 3.65563 2.41313 2.91313C3.15563 2.17063 4.02875 1.58281 5.0325 1.14969C6.03625 0.716563 7.10875 0.5 8.25 0.5C9.39125 0.5 10.4638 0.716563 11.4675 1.14969C12.4713 1.58281 13.3444 2.17063 14.0869 2.91313C14.8294 3.65563 15.4172 4.52875 15.8503 5.5325C16.2834 6.53625 16.5 7.60875 16.5 8.75C16.5 9.89125 16.2834 10.9638 15.8503 11.9675C15.4172 12.9713 14.8294 13.8444 14.0869 14.5869C13.3444 15.3294 12.4713 15.9172 11.4675 16.3503C10.4638 16.7834 9.39125 17 8.25 17ZM8.25 15.35C10.0788 15.35 11.6359 14.7072 12.9216 13.4216C14.2072 12.1359 14.85 10.5788 14.85 8.75C14.85 6.92125 14.2072 5.36406 12.9216 4.07844C11.6359 2.79281 10.0788 2.15 8.25 2.15C6.42125 2.15 4.86406 2.79281 3.57844 4.07844C2.29281 5.36406 1.65 6.92125 1.65 8.75C1.65 10.5788 2.29281 12.1359 3.57844 13.4216C4.86406 14.7072 6.42125 15.35 8.25 15.35Z" fill="#FFE900"/>
</svg>
