<svg width="108" height="109" viewBox="0 0 108 109" fill="none" xmlns="http://www.w3.org/2000/svg">
<rect width="108" height="109" fill="#ACACAC"/>
<path fill-rule="evenodd" clip-rule="evenodd" d="M66.226 43.1435C66.226 49.2455 61.2509 54.287 55.0323 54.287C48.8134 54.287 43.8385 49.2455 43.8385 43.1435C43.8385 37.0415 48.9021 32 55.0323 32C61.1618 32 66.226 37.0409 66.226 43.1435ZM26.6917 53.0488C31.0451 53.0488 34.687 49.5114 34.687 45.0893C34.687 40.6672 31.1338 37.1299 26.6917 37.1299C22.3384 37.1299 18.6964 40.6672 18.6964 45.0893C18.6964 49.5114 22.339 53.0488 26.6917 53.0488ZM83.3703 37.1299C78.9283 37.1299 75.375 40.7555 75.375 45.0893C75.375 49.5114 78.9283 53.0488 83.3703 53.0488C87.8123 53.0488 91.3656 49.5114 91.3656 45.0893C91.3656 40.6672 87.7236 37.1299 83.3703 37.1299ZM83.3718 55.348C86.1257 55.348 88.7018 54.1987 90.5677 52.3411V52.3412C94.6547 54.8174 98.3858 58.2666 96.6092 61.8929C93.1446 68.8796 83.3718 68.6143 83.3718 68.6143C83.3718 68.6143 79.8178 68.7031 76.2645 67.2879C77.5969 64.3694 77.5082 60.3014 72.089 55.4369C73.2442 54.2868 74.6657 53.2258 76.1759 52.3411C78.0411 54.1981 80.5286 55.348 83.3718 55.348ZM74.2192 63.2194C74.1306 62.6 73.9528 61.9812 73.6863 61.4507C73.421 60.8341 73.0673 60.3056 72.7139 59.7774L72.7138 59.7773L72.709 59.7701V59.6819C72.621 59.5061 72.445 59.3308 72.2684 59.155L72.2647 59.1514C71.9982 58.7979 71.6425 58.4438 71.2874 58.0903L71.1988 58.002L70.6659 57.4715C69.0671 55.9681 67.1126 54.5529 65.1579 53.4029C62.5819 55.9673 58.9393 57.5596 55.0301 57.5596C51.121 57.5596 47.4784 55.968 44.9024 53.4029C42.9479 54.641 40.9932 55.9673 39.3944 57.4715L38.8615 58.002C38.8615 58.002 38.8615 58.0903 38.7729 58.0903L38.7728 58.0903L38.7728 58.0903C38.4177 58.4438 38.062 58.7979 37.7956 59.1514C37.7067 59.2399 37.64 59.3283 37.5734 59.4167L37.5734 59.4167C37.5068 59.505 37.4402 59.5934 37.3513 59.6819V59.7701C36.9075 60.3 36.6411 60.9185 36.375 61.5365L36.374 61.5388C36.1075 62.1582 35.9297 62.777 35.841 63.3075C35.6632 64.3686 35.841 65.3415 36.2854 66.4033C36.3399 66.4576 36.3609 66.5121 36.3897 66.5871C36.4078 66.634 36.4289 66.6889 36.4632 66.7568C41.3496 76.4857 55.1197 76.1314 55.1197 76.1314C55.1184 76.132 68.7995 76.3973 73.6857 66.6685C73.7402 66.6142 73.7612 66.5597 73.7901 66.4847L73.7901 66.4846C73.8081 66.4377 73.8292 66.3828 73.8635 66.315C74.3073 65.2539 74.3965 64.281 74.2186 63.2192L74.2192 63.2194ZM37.9739 55.348C37.9739 55.348 37.9739 55.348 37.9739 55.3481V55.348C37.9739 55.348 37.9739 55.348 37.9739 55.348ZM33.8869 52.2523C35.3979 53.2253 36.8188 54.1981 37.9739 55.348C32.5547 60.2125 32.5547 64.2811 33.7991 67.2879C30.245 68.7025 26.6917 68.6143 26.6917 68.6143C26.6917 68.6143 16.9191 68.7914 13.4543 61.8929C11.6777 58.2666 15.4088 54.8174 19.4952 52.2523C21.3603 54.1092 23.8478 55.2591 26.6911 55.2591C29.4449 55.2591 32.021 54.1099 33.8869 52.2523Z" fill="white"/>
</svg>
