<svg width="153" height="36" viewBox="0 0 153 36" fill="none" xmlns="http://www.w3.org/2000/svg">
<path d="M0.749423 35V8.44903C0.749423 7.11313 0.946772 5.98976 1.34147 5.07892C1.76653 4.16808 2.31303 3.45459 2.98098 2.93844C3.64893 2.39194 4.39278 2.01242 5.21254 1.79989C6.06265 1.557 6.89759 1.43556 7.71735 1.43556C8.96216 1.46592 10.374 1.49628 11.9528 1.52664C13.5315 1.52664 15.1711 1.557 16.8713 1.61773C18.6019 1.67845 20.2718 1.78472 21.8809 1.93652V5.67096H8.8559C7.73253 5.67096 6.86723 5.97458 6.26 6.5818C5.65278 7.18903 5.34916 8.06951 5.34916 9.22324V17.0109L19.8315 17.2842V20.8364L5.34916 21.1097V35H0.749423ZM33.4607 35.0455C31.973 35.0455 30.713 34.7875 29.6807 34.2713C28.6788 33.7552 27.9197 32.9354 27.4036 31.8121C26.9178 30.6583 26.6749 29.1099 26.6749 27.1668V0.251468H31.2291V26.5747C31.2291 27.8499 31.3506 28.8367 31.5934 29.535C31.8667 30.2029 32.231 30.6735 32.6864 30.9468C33.1722 31.22 33.7339 31.4022 34.3715 31.4933L36.6486 31.7665V35.0455H33.4607ZM45.2016 35.2733C43.4103 35.2733 41.9226 34.7419 40.7385 33.6793C39.5848 32.5863 39.0079 31.0834 39.0079 29.1706V27.2579C39.0079 25.3755 39.6455 23.8422 40.9207 22.6581C42.2262 21.4437 44.1845 20.8364 46.7956 20.8364H54.4011V18.2861C54.4011 17.3449 54.2341 16.5555 53.9001 15.9179C53.5965 15.25 53.0196 14.749 52.1695 14.415C51.3194 14.081 50.0594 13.9141 48.3895 13.9141H40.9207V11.2271C42.0137 10.9842 43.2888 10.7717 44.7462 10.5895C46.2339 10.4073 47.9645 10.3011 49.938 10.2707C51.9418 10.2707 53.6117 10.5288 54.9476 11.0449C56.3138 11.5307 57.3309 12.3505 57.9989 13.5042C58.6668 14.6276 59.0008 16.1304 59.0008 18.0128V35H55.403L54.6288 32.313C54.4466 32.4345 54.0671 32.6622 53.4902 32.9962C52.9134 33.2998 52.1695 33.6337 51.2587 33.9981C50.3782 34.3624 49.4066 34.666 48.344 34.9089C47.3117 35.1518 46.2642 35.2733 45.2016 35.2733ZM47.2965 31.9487C47.7519 31.979 48.2833 31.9335 48.8905 31.8121C49.5281 31.6906 50.1505 31.554 50.7577 31.4022C51.3953 31.22 51.9722 31.0378 52.4883 30.8557C53.0348 30.6735 53.4751 30.5217 53.809 30.4003C54.1734 30.2485 54.3707 30.1574 54.4011 30.127V23.1135L48.0252 23.3868C46.4464 23.4779 45.3079 23.8726 44.6096 24.5709C43.9416 25.2692 43.6076 26.18 43.6076 27.3034V28.3964C43.6076 29.2769 43.7898 29.9904 44.1541 30.5369C44.5185 31.053 44.9739 31.4174 45.5204 31.6299C46.0973 31.8424 46.6893 31.9487 47.2965 31.9487ZM73.7062 35.2733C73.0687 35.2733 72.3096 35.2581 71.4292 35.2277C70.5487 35.1973 69.6378 35.1366 68.6966 35.0455C67.7858 34.9848 66.9357 34.9089 66.1463 34.8178C65.3872 34.7267 64.78 34.6205 64.3246 34.499V31.7665H74.5715C75.452 31.7665 76.2111 31.7058 76.8486 31.5844C77.4862 31.4325 77.972 31.1289 78.306 30.6735C78.6703 30.2181 78.8525 29.5501 78.8525 28.6697V27.6677C78.8525 26.7569 78.5489 26.0434 77.9417 25.5273C77.3344 25.0111 76.3325 24.7531 74.9359 24.7531H71.3836C69.9566 24.7531 68.6815 24.5709 67.5581 24.2065C66.4651 23.8119 65.5998 23.1591 64.9622 22.2482C64.355 21.3374 64.0513 20.1078 64.0513 18.5593V17.2386C64.0513 15.6902 64.3398 14.415 64.9166 13.4131C65.5239 12.4112 66.4803 11.6673 67.7858 11.1815C69.0913 10.6654 70.8219 10.4073 72.9776 10.4073C73.8884 10.4073 74.8903 10.4529 75.9833 10.544C77.1067 10.6047 78.1997 10.6958 79.2624 10.8172C80.325 10.9387 81.1751 11.0753 81.8127 11.2271V13.9596H72.1578C70.8219 13.9596 69.7896 14.1873 69.061 14.6427C68.3627 15.0982 68.0135 15.9635 68.0135 17.2386V18.1495C68.0135 18.9389 68.1805 19.5461 68.5145 19.9711C68.8484 20.3962 69.319 20.6695 69.9263 20.7909C70.5639 20.9123 71.3077 20.9731 72.1578 20.9731H75.8012C78.1086 20.9731 79.8544 21.5196 81.0385 22.6126C82.2226 23.6752 82.8146 25.1781 82.8146 27.1212V28.9885C82.8146 30.628 82.4351 31.9031 81.6761 32.814C80.9171 33.7248 79.8544 34.3624 78.4882 34.7267C77.1523 35.0911 75.5583 35.2733 73.7062 35.2733ZM88.0054 35V0.251468H92.5596V13.2765C93.6222 12.4871 94.9126 11.7888 96.4306 11.1815C97.9487 10.544 99.5123 10.2252 101.121 10.2252C102.882 10.2252 104.309 10.5895 105.402 11.3182C106.526 12.0468 107.346 13.0488 107.862 14.3239C108.378 15.5688 108.636 16.9806 108.636 18.5593V35H104.082V19.1058C104.082 18.1646 103.884 17.3449 103.49 16.6466C103.125 15.9179 102.594 15.3562 101.896 14.9615C101.228 14.5668 100.423 14.3695 99.4819 14.3695C98.5711 14.3695 97.721 14.4606 96.9316 14.6427C96.1726 14.8249 95.4439 15.083 94.7456 15.4169C94.0473 15.7509 93.3186 16.1304 92.5596 16.5555V35H88.0054ZM119.741 35.2733C117.95 35.2733 116.462 34.7419 115.278 33.6793C114.124 32.5863 113.547 31.0834 113.547 29.1706V27.2579C113.547 25.3755 114.185 23.8422 115.46 22.6581C116.766 21.4437 118.724 20.8364 121.335 20.8364H128.94V18.2861C128.94 17.3449 128.774 16.5555 128.44 15.9179C128.136 15.25 127.559 14.749 126.709 14.415C125.859 14.081 124.599 13.9141 122.929 13.9141H115.46V11.2271C116.553 10.9842 117.828 10.7717 119.286 10.5895C120.773 10.4073 122.504 10.3011 124.477 10.2707C126.481 10.2707 128.151 10.5288 129.487 11.0449C130.853 11.5307 131.87 12.3505 132.538 13.5042C133.206 14.6276 133.54 16.1304 133.54 18.0128V35H129.942L129.168 32.313C128.986 32.4345 128.607 32.6622 128.03 32.9962C127.453 33.2998 126.709 33.6337 125.798 33.9981C124.918 34.3624 123.946 34.666 122.883 34.9089C121.851 35.1518 120.804 35.2733 119.741 35.2733ZM121.836 31.9487C122.291 31.979 122.823 31.9335 123.43 31.8121C124.067 31.6906 124.69 31.554 125.297 31.4022C125.935 31.22 126.512 31.0378 127.028 30.8557C127.574 30.6735 128.014 30.5217 128.348 30.4003C128.713 30.2485 128.91 30.1574 128.94 30.127V23.1135L122.565 23.3868C120.986 23.4779 119.847 23.8726 119.149 24.5709C118.481 25.2692 118.147 26.18 118.147 27.3034V28.3964C118.147 29.2769 118.329 29.9904 118.694 30.5369C119.058 31.053 119.513 31.4174 120.06 31.6299C120.637 31.8424 121.229 31.9487 121.836 31.9487ZM148.155 35C146.515 35 145.149 34.7419 144.056 34.2258C142.993 33.6793 142.204 32.814 141.688 31.6299C141.202 30.4458 140.974 28.867 141.004 26.8935L141.187 14.3695H137.316V11.4093L141.278 10.635L141.961 3.80374H145.559V10.635H152.162V14.3695H145.559V26.848C145.559 27.7892 145.65 28.5482 145.832 29.1251C146.014 29.7019 146.272 30.1422 146.606 30.4458C146.94 30.7494 147.304 30.9771 147.699 31.1289C148.094 31.2504 148.473 31.3263 148.838 31.3566L151.843 31.6299V35H148.155Z" fill="#B227C1"/>
</svg>
