<svg width="34" height="34" viewBox="0 0 34 34" fill="none" xmlns="http://www.w3.org/2000/svg">
<rect x="1.33594" y="1.3335" width="31.3333" height="31.3333" rx="7" stroke="#747D87" stroke-width="2"/>
<path d="M11.1297 19.6211C11.3083 19.2932 11.7125 19.1686 12.0325 19.3429C12.3525 19.5171 12.4671 19.9243 12.2885 20.2522L11.818 21.1161C11.6394 21.444 11.2352 21.5686 10.9152 21.3943C10.5953 21.2201 10.4807 20.8129 10.6593 20.485L11.1297 19.6211Z" fill="#747D87"/>
<path d="M12.8481 20.9041C13.0744 20.4887 13.5494 20.3107 13.9092 20.5066C14.2689 20.7025 14.3771 21.1981 14.1508 21.6136L13.4878 22.831C13.2616 23.2465 12.7865 23.4244 12.4268 23.2285C12.067 23.0326 11.9588 22.537 12.1851 22.1215L12.8481 20.9041Z" fill="#747D87"/>
<path d="M14.7938 22.2981C15.0026 21.9148 15.4379 21.7489 15.766 21.9276C16.0941 22.1063 16.1909 22.5619 15.9821 22.9453L15.5822 23.6795C15.3734 24.0629 14.9382 24.2288 14.61 24.0501C14.2819 23.8714 14.1852 23.4158 14.394 23.0324L14.7938 22.2981Z" fill="#747D87"/>
<path d="M16.5748 23.7128C16.7492 23.3925 17.1536 23.276 17.478 23.4527C17.8024 23.6294 17.924 24.0323 17.7495 24.3526L17.5274 24.7604C17.353 25.0807 16.9486 25.1972 16.6242 25.0205C16.2998 24.8438 16.1782 24.4409 16.3527 24.1206L16.5748 23.7128Z" fill="#747D87"/>
<path fill-rule="evenodd" clip-rule="evenodd" d="M24.6527 19.963C24.6043 19.8833 24.5387 19.7878 24.4608 19.6849C24.3496 19.538 24.2371 19.407 24.1668 19.3316L18.7453 17.1915C16.9553 17.795 15.7258 17.9338 14.8107 17.7156C13.8501 17.4866 13.2963 16.8795 12.8325 16.1832L12.6588 15.9225L15.9917 13.3914C15.9998 13.3858 16.0079 13.3803 16.016 13.3748C15.4107 13.1415 14.8663 13.1045 14.3209 13.1469C13.9473 13.1759 13.574 13.2422 13.1673 13.3143L13.1346 13.3201C12.7199 13.3936 12.2747 13.4714 11.7928 13.5095C11.3409 13.5452 10.907 13.4166 10.5381 13.2017C9.59118 12.6501 8.37551 13.0801 7.9861 14.1045L6.96563 16.789C6.49809 18.0189 7.16302 19.4061 8.41583 19.8341C8.60079 19.8973 8.78164 19.9793 8.9513 20.0775L10.0487 20.7128C10.0624 20.6807 10.0777 20.649 10.0948 20.6177L10.8628 19.2076C11.1543 18.6722 11.8246 18.4746 12.36 18.7662C12.8531 19.0347 13.0596 19.6245 12.8614 20.1343C13.2332 19.8283 13.7682 19.7608 14.217 20.0052C14.7407 20.2904 14.9712 20.9045 14.7919 21.4515C15.1513 21.2297 15.6164 21.2015 16.0139 21.418C16.5446 21.707 16.7742 22.3337 16.5813 22.8862C16.9407 22.6646 17.4056 22.6365 17.8029 22.8529C18.053 22.9891 18.2362 23.2002 18.3399 23.4433L19.2562 23.8659C19.6818 24.0064 19.9756 24.0158 20.1733 23.971C20.3642 23.9278 20.4885 23.8293 20.5759 23.6982C20.742 23.4493 20.7834 23.0651 20.7497 22.7212L18.1305 21.4203L18.4271 20.8232L21.2163 22.2086L21.2276 22.2153C21.6164 22.4485 21.9101 22.5126 22.1255 22.4992C22.3352 22.4863 22.5058 22.398 22.6512 22.2543C22.9067 22.0018 23.0686 21.5912 23.1451 21.2148L19.5216 19.4507L19.8134 18.8513L23.6376 20.7131C24.029 20.8365 24.266 20.8007 24.399 20.7342C24.5286 20.6695 24.6179 20.5464 24.6555 20.3646C24.6805 20.2436 24.6798 20.1047 24.6527 19.963ZM10.6367 21.0533L11.357 21.4703C11.3927 21.4381 11.4236 21.3993 11.448 21.3547L12.2159 19.9445C12.3314 19.7325 12.2531 19.4671 12.0411 19.3516C11.8291 19.2362 11.5637 19.3144 11.4482 19.5264L10.6802 20.9366C10.6598 20.9742 10.6454 21.0135 10.6367 21.0533ZM12.4486 22.1023L13.401 22.6536L14.1181 21.3368C14.2634 21.0701 14.1649 20.736 13.8981 20.5907C13.6314 20.4454 13.2973 20.5439 13.152 20.8107L12.4486 22.1023ZM14.3997 23.2319L15.3521 23.7832L15.915 22.7496C16.0603 22.4828 15.9618 22.1488 15.695 22.0035C15.4282 21.8582 15.0942 21.9567 14.9489 22.2234L14.3997 23.2319ZM16.354 24.3633L17.3064 24.9147L17.7041 24.1845C17.7507 24.0988 17.7722 24.0062 17.7711 23.9151L16.8686 23.4989C16.8168 23.5421 16.7722 23.5955 16.738 23.6583L16.354 24.3633ZM18.6322 25.3219C18.4656 25.3425 18.2274 25.3215 17.9025 25.2139L18.2895 24.5033C18.3416 24.4077 18.3796 24.3081 18.404 24.207L18.9239 24.4468C18.9876 24.5353 19.0337 24.651 19.0489 24.7739C19.0669 24.9198 19.0386 25.0481 18.9791 25.1376C18.9254 25.2184 18.8269 25.2979 18.6322 25.3219Z" fill="#747D87"/>
<path fill-rule="evenodd" clip-rule="evenodd" d="M24.939 12.8785L27.0147 18.2817C27.2295 18.8407 26.9504 19.468 26.3913 19.6828C25.8323 19.8976 25.205 19.6185 24.9902 19.0594L22.9145 13.6563C22.6997 13.0972 22.9788 12.4699 23.5378 12.2552C24.0969 12.0404 24.7242 12.3195 24.939 12.8785Z" fill="#747D87"/>
<path fill-rule="evenodd" clip-rule="evenodd" d="M24.0953 18.5898L18.7539 16.4813L18.6375 16.5213C16.8184 17.1466 15.7041 17.2452 14.9574 17.0672C14.3374 16.9193 13.9312 16.5708 13.5591 16.07L16.3695 13.9358C17.343 13.2652 18.4921 13.4306 19.7223 13.8049C20.02 13.8954 20.3154 13.9959 20.6105 14.0961L20.6105 14.0961L20.6299 14.1027C20.9292 14.2045 21.229 14.3062 21.5197 14.3925C21.8715 14.497 22.2266 14.5845 22.5707 14.6212L24.0953 18.5898Z" fill="#747D87"/>
</svg>
