<svg width="34" height="35" viewBox="0 0 34 35" fill="none" xmlns="http://www.w3.org/2000/svg">
<rect x="1.05054" y="1.95361" width="31.3333" height="31.3333" rx="7" stroke="#B227C1" stroke-width="2"/>
<path d="M10.8443 20.2413C11.0229 19.9133 11.4271 19.7887 11.7471 19.963V19.963C12.0671 20.1372 12.1817 20.5444 12.0031 20.8723L11.5326 21.7362C11.354 22.0641 10.9498 22.1887 10.6298 22.0144V22.0144C10.3099 21.8402 10.1953 21.4331 10.3739 21.1051L10.8443 20.2413Z" fill="#B227C1"/>
<path d="M12.5627 21.5242C12.789 21.1088 13.264 20.9308 13.6238 21.1267V21.1267C13.9835 21.3226 14.0917 21.8182 13.8654 22.2337L13.2024 23.4511C12.9762 23.8666 12.5011 24.0446 12.1414 23.8486V23.8486C11.7816 23.6527 11.6734 23.1571 11.8997 22.7416L12.5627 21.5242Z" fill="#B227C1"/>
<path d="M14.5084 22.9183C14.7172 22.5349 15.1525 22.369 15.4806 22.5477V22.5477C15.8087 22.7264 15.9055 23.182 15.6967 23.5654L15.2968 24.2996C15.088 24.683 14.6528 24.8489 14.3246 24.6702V24.6702C13.9965 24.4915 13.8998 24.0359 14.1086 23.6525L14.5084 22.9183Z" fill="#B227C1"/>
<path d="M16.2894 24.3329C16.4638 24.0126 16.8682 23.8962 17.1926 24.0728V24.0728C17.517 24.2495 17.6386 24.6524 17.4641 24.9727L17.242 25.3805C17.0676 25.7008 16.6632 25.8173 16.3388 25.6406V25.6406C16.0144 25.464 15.8928 25.0611 16.0673 24.7407L16.2894 24.3329Z" fill="#B227C1"/>
<path fill-rule="evenodd" clip-rule="evenodd" d="M24.3673 20.5831C24.3189 20.5034 24.2533 20.4079 24.1754 20.3051C24.0642 20.1581 23.9517 20.0271 23.8814 19.9517L18.4599 17.8116C16.6699 18.4151 15.4404 18.5539 14.5253 18.3357C13.5647 18.1067 13.0109 17.4996 12.5471 16.8033L12.3734 16.5426L15.7063 14.0115C15.7144 14.006 15.7225 14.0004 15.7306 13.9949C15.1253 13.7616 14.5809 13.7246 14.0355 13.767C13.6619 13.7961 13.2886 13.8623 12.8818 13.9344L12.8492 13.9402C12.4345 14.0137 11.9893 14.0915 11.5074 14.1296C11.0555 14.1653 10.6216 14.0367 10.2527 13.8219C9.30578 13.2702 8.09011 13.7002 7.7007 14.7246L6.68023 17.4091C6.21269 18.639 6.87762 20.0262 8.13043 20.4543C8.31539 20.5174 8.49624 20.5994 8.6659 20.6976L9.76328 21.333C9.77701 21.3009 9.79237 21.2691 9.80941 21.2378L10.5774 19.8277C10.869 19.2923 11.5393 19.0947 12.0746 19.3863C12.5677 19.6548 12.7743 20.2446 12.5761 20.7544C12.9479 20.4484 13.4828 20.3809 13.9316 20.6253C14.4553 20.9105 14.6859 21.5246 14.5065 22.0716C14.866 21.8498 15.331 21.8216 15.7285 22.0381C16.2592 22.3271 16.4888 22.9538 16.296 23.5063C16.6554 23.2847 17.1202 23.2566 17.5176 23.473C17.7677 23.6092 17.9509 23.8204 18.0546 24.0634L18.9708 24.486C19.3963 24.6265 19.6902 24.6359 19.8879 24.5911C20.0788 24.5479 20.2031 24.4494 20.2905 24.3183C20.4566 24.0694 20.498 23.6852 20.4643 23.3413L17.8451 22.0404L18.1417 21.4433L20.9309 22.8287L20.9422 22.8355C21.331 23.0686 21.6247 23.1327 21.8401 23.1194C22.0498 23.1064 22.2204 23.0181 22.3658 22.8744C22.6213 22.6219 22.7832 22.2113 22.8597 21.8349L19.2362 20.0708L19.528 19.4714L23.3522 21.3332C23.7436 21.4566 23.9806 21.4208 24.1136 21.3544C24.2432 21.2896 24.3325 21.1665 24.3701 20.9847C24.3951 20.8638 24.3944 20.7248 24.3673 20.5831ZM10.3514 21.6734L11.0716 22.0904C11.1073 22.0582 11.1383 22.0195 11.1626 21.9748L11.9306 20.5646C12.046 20.3526 11.9678 20.0872 11.7558 19.9717C11.5438 19.8563 11.2783 19.9345 11.1629 20.1465L10.3949 21.5567C10.3744 21.5943 10.36 21.6336 10.3514 21.6734ZM12.1632 22.7224L13.1156 23.2738L13.8328 21.9569C13.9781 21.6902 13.8796 21.3561 13.6128 21.2108C13.346 21.0655 13.012 21.164 12.8667 21.4308L12.1632 22.7224ZM14.1143 23.852L15.0667 24.4034L15.6296 23.3697C15.7749 23.1029 15.6764 22.7689 15.4097 22.6236C15.1429 22.4783 14.8088 22.5768 14.6635 22.8435L14.1143 23.852ZM16.0687 24.9834L17.021 25.5348L17.4187 24.8046C17.4654 24.7189 17.4869 24.6263 17.4858 24.5353L16.5832 24.119C16.5315 24.1622 16.4868 24.2156 16.4526 24.2784L16.0687 24.9834ZM18.3468 25.9421C18.1802 25.9626 17.942 25.9416 17.6172 25.834L18.0042 25.1234C18.0563 25.0278 18.0942 24.9282 18.1187 24.8272L18.6385 25.0669C18.7022 25.1554 18.7483 25.2712 18.7635 25.3941C18.7815 25.54 18.7532 25.6683 18.6937 25.7577C18.64 25.8385 18.5415 25.918 18.3468 25.9421Z" fill="#B227C1"/>
<path fill-rule="evenodd" clip-rule="evenodd" d="M24.6536 13.4987L26.7293 18.9018C26.9441 19.4608 26.665 20.0881 26.1059 20.3029C25.5469 20.5177 24.9196 20.2386 24.7048 19.6795L22.6291 14.2764C22.4143 13.7174 22.6934 13.09 23.2524 12.8753C23.8115 12.6605 24.4388 12.9396 24.6536 13.4987Z" fill="#B227C1"/>
<path fill-rule="evenodd" clip-rule="evenodd" d="M23.8099 19.21L18.4685 17.1015L18.3521 17.1414C16.533 17.7667 15.4187 17.8653 14.672 17.6873C14.052 17.5395 13.6458 17.1909 13.2737 16.6901L16.0841 14.5559C17.0576 13.8854 18.2067 14.0507 19.4369 14.425C19.7346 14.5155 20.03 14.616 20.3251 14.7163L20.3251 14.7163L20.3445 14.7228C20.6438 14.8246 20.9436 14.9263 21.2343 15.0126C21.5861 15.1171 21.9412 15.2046 22.2853 15.2413L23.8099 19.21Z" fill="#B227C1"/>
</svg>
