<svg width="32" height="32" viewBox="0 0 32 32" fill="none" xmlns="http://www.w3.org/2000/svg">
<rect x="1" y="1" width="30" height="30" rx="5" stroke="#747D87" stroke-width="2"/>
<path fill-rule="evenodd" clip-rule="evenodd" d="M17.5763 21.2228C17.6213 20.8337 17.7611 20.4337 17.8977 20.1418L19.9427 19.7502L23.4112 16.983L23.3312 16.7423C23.2003 16.3484 22.8886 15.8084 22.3514 15.5081C21.7852 15.1916 21.0515 15.1863 20.1968 15.7181L18.9672 16.2633L19.2741 13.8391C19.2994 13.6398 19.1583 13.4579 18.9591 13.4326C18.7598 13.4074 18.5778 13.5485 18.5526 13.7477L18.0838 17.4506L20.5397 16.3616L20.5622 16.3474C21.249 15.9134 21.7033 15.979 21.9965 16.143C22.0176 16.1547 22.0382 16.1672 22.0584 16.1804L21.4037 16.6714C21.1141 16.8886 20.9437 17.2294 20.9437 17.5914V18.0212L19.6295 19.0697L17.5916 19.4599C17.2016 19.5182 16.9247 19.5324 16.73 19.5205C16.5315 19.5085 16.445 19.4709 16.4129 19.4504L16.4099 19.4485C16.3897 19.4362 16.3683 19.4232 16.3679 19.2118L16.6588 10.8444V10.8318C16.6588 10.3456 16.8228 10.1612 16.9943 10.0738C17.2095 9.96399 17.5506 9.94737 17.9919 10.0291C18.8606 10.1901 19.834 10.6743 20.2038 10.8593L20.2502 10.8826L25.1879 11.7823C26.3977 12.0027 27.277 13.0567 27.277 14.2865V17.2572C27.277 18.0232 26.9497 18.7185 26.3443 19.0536C25.063 19.7628 23.6183 20.116 22.9355 20.212L22.8565 20.2231L20.4199 21.7902L20.3061 21.8056C20.0546 21.507 19.6626 21.3511 19.2638 21.408L17.5711 21.6498C17.5563 21.5215 17.5583 21.3788 17.5763 21.2228ZM17.6444 21.9424C17.6771 22.02 17.7196 22.0889 17.7722 22.1486L19.9241 21.8573C19.7496 21.7314 19.5293 21.6731 19.3062 21.705L17.6444 21.9424ZM21.5837 16.9114L22.2922 16.38C22.3956 16.4916 22.4802 16.6186 22.5447 16.744L21.2437 17.7819V17.5914C21.2437 17.3239 21.3697 17.0719 21.5837 16.9114Z" fill="#747D87"/>
<path fill-rule="evenodd" clip-rule="evenodd" d="M14.1022 20.1418C14.2388 20.4337 14.3786 20.8337 14.4236 21.2228C14.4411 21.3743 14.4434 21.5133 14.43 21.6388L12.7361 21.3968C12.3328 21.3392 11.9365 21.4993 11.6854 21.8045L11.58 21.7902L9.14341 20.2231L9.0644 20.212C8.38159 20.116 6.93692 19.7628 5.65562 19.0536C5.05017 18.7185 4.7229 18.0232 4.7229 17.2572V14.2865C4.7229 13.0567 5.60215 12.0027 6.81205 11.7823L11.7497 10.8826L11.7962 10.8593C12.1659 10.6743 13.1394 10.1901 14.008 10.0291C14.4493 9.94737 14.7904 9.96399 15.0056 10.0738C15.1771 10.1612 15.3411 10.3456 15.3411 10.8318V10.8444L15.632 19.2118C15.6316 19.4232 15.6102 19.4362 15.5901 19.4485L15.587 19.4504C15.5549 19.4709 15.4684 19.5085 15.2699 19.5205C15.0752 19.5324 14.7983 19.5182 14.4083 19.4599L12.3704 19.0697L11.0562 18.0212V17.9434C11.0562 17.5815 10.8858 17.2406 10.5962 17.0234L9.7203 16.3665C9.80319 16.2793 9.89778 16.202 10.0034 16.143C10.2966 15.979 10.7509 15.9134 11.4377 16.3474L11.4602 16.3616L13.7826 17.3914L14.0964 17.8622C14.1271 17.9081 14.1892 17.9206 14.2351 17.8899C14.2811 17.8593 14.2935 17.7972 14.2628 17.7513L13.8818 17.1797L13.4473 13.7477C13.4221 13.5485 13.2401 13.4074 13.0409 13.4326C12.8416 13.4579 12.7005 13.6398 12.7258 13.8391L13.0327 16.2633L11.8031 15.7181C10.9484 15.1863 10.2148 15.1916 9.64848 15.5081C9.11132 15.8084 8.79963 16.3484 8.66872 16.7423L8.58872 16.983L12.0572 19.7502L14.1022 20.1418ZM12.6937 21.6938L14.3599 21.9318C14.3266 22.0137 14.2827 22.0862 14.2277 22.1486L12.063 21.8556C12.2394 21.7231 12.4651 21.6611 12.6937 21.6938ZM9.53605 16.6033C9.50634 16.6498 9.47938 16.697 9.45525 16.744L10.7377 17.7671C10.6955 17.5678 10.5824 17.3881 10.4162 17.2634L9.53605 16.6033Z" fill="#747D87"/>
</svg>
