<svg width="33" height="33" viewBox="0 0 33 33" fill="none" xmlns="http://www.w3.org/2000/svg">
<rect x="1.7146" y="1.62012" width="30" height="30" rx="5" stroke="#B227C1" stroke-width="2"/>
<path fill-rule="evenodd" clip-rule="evenodd" d="M18.2909 21.843C18.3359 21.4538 18.4757 21.0538 18.6123 20.7619L20.6573 20.3703L24.1258 17.6031L24.0458 17.3624C23.9149 16.9685 23.6032 16.4286 23.066 16.1283C22.4997 15.8117 21.7661 15.8064 20.9114 16.3382L19.6818 16.8834L19.9887 14.4592C20.014 14.2599 19.8729 14.078 19.6737 14.0527C19.4744 14.0275 19.2924 14.1686 19.2672 14.3678L18.7984 18.0707L21.2543 16.9818L21.2768 16.9675C21.9636 16.5335 22.4179 16.5991 22.7111 16.7631C22.7322 16.7748 22.7528 16.7873 22.773 16.8005L22.1183 17.2915C21.8287 17.5087 21.6583 17.8495 21.6583 18.2115V18.6413L20.3441 19.6898L18.3062 20.08C17.9162 20.1383 17.6393 20.1525 17.4446 20.1407C17.2461 20.1286 17.1596 20.091 17.1275 20.0705L17.1245 20.0686C17.1043 20.0564 17.0829 20.0433 17.0825 19.832L17.3734 11.4645V11.4519C17.3734 10.9657 17.5374 10.7813 17.7089 10.6939C17.9241 10.5841 18.2652 10.5675 18.7065 10.6492C19.5752 10.8102 20.5486 11.2944 20.9184 11.4794L20.9648 11.5027L25.9025 12.4024C27.1123 12.6229 27.9916 13.6768 27.9916 14.9066V17.8774C27.9916 18.6433 27.6643 19.3386 27.0589 19.6737C25.7776 20.3829 24.3329 20.7362 23.6501 20.8321L23.5711 20.8432L21.1345 22.4103L21.0207 22.4257C20.7692 22.1271 20.3772 21.9712 19.9784 22.0281L18.2857 22.27C18.2709 22.1416 18.2729 21.9989 18.2909 21.843ZM18.359 22.5625C18.3917 22.6401 18.4342 22.709 18.4868 22.7687L20.6387 22.4775C20.4642 22.3515 20.2439 22.2933 20.0208 22.3251L18.359 22.5625ZM22.2983 17.5315L23.0068 17.0001C23.1102 17.1118 23.1948 17.2387 23.2593 17.3641L21.9583 18.402V18.2115C21.9583 17.944 22.0843 17.692 22.2983 17.5315Z" fill="#B227C1"/>
<path fill-rule="evenodd" clip-rule="evenodd" d="M14.8168 20.7619C14.9534 21.0538 15.0932 21.4538 15.1382 21.843C15.1557 21.9944 15.158 22.1334 15.1446 22.2589L13.4507 22.0169C13.0474 21.9593 12.6511 22.1194 12.4 22.4246L12.2946 22.4103L9.85801 20.8432L9.779 20.8321C9.09619 20.7362 7.65152 20.3829 6.37022 19.6737C5.76477 19.3386 5.4375 18.6433 5.4375 17.8774V14.9066C5.4375 13.6768 6.31675 12.6229 7.52665 12.4024L12.4643 11.5027L12.5108 11.4794C12.8805 11.2944 13.854 10.8102 14.7226 10.6492C15.1639 10.5675 15.505 10.5841 15.7202 10.6939C15.8917 10.7813 16.0557 10.9657 16.0557 11.4519V11.4645L16.3466 19.832C16.3462 20.0433 16.3248 20.0564 16.3047 20.0686L16.3016 20.0705C16.2695 20.091 16.183 20.1286 15.9845 20.1407C15.7898 20.1525 15.5129 20.1383 15.1229 20.08L13.085 19.6898L11.7708 18.6413V18.5636C11.7708 18.2016 11.6004 17.8607 11.3108 17.6436L10.4349 16.9866C10.5178 16.8994 10.6124 16.8221 10.718 16.7631C11.0112 16.5991 11.4655 16.5335 12.1523 16.9675L12.1748 16.9818L14.4972 18.0115L14.811 18.4823C14.8417 18.5283 14.9038 18.5407 14.9497 18.51C14.9957 18.4794 15.0081 18.4173 14.9774 18.3714L14.5964 17.7998L14.1619 14.3678C14.1367 14.1686 13.9547 14.0275 13.7555 14.0527C13.5562 14.078 13.4151 14.2599 13.4404 14.4592L13.7473 16.8834L12.5177 16.3382C11.663 15.8064 10.9294 15.8117 10.3631 16.1283C9.82592 16.4286 9.51423 16.9685 9.38332 17.3624L9.30332 17.6031L12.7718 20.3703L14.8168 20.7619ZM13.4083 22.3139L15.0745 22.5519C15.0412 22.6338 14.9973 22.7063 14.9423 22.7687L12.7776 22.4757C12.954 22.3432 13.1796 22.2812 13.4083 22.3139ZM10.2506 17.2234C10.2209 17.2699 10.194 17.3171 10.1698 17.3641L11.4523 18.3872C11.4101 18.1879 11.297 18.0082 11.1308 17.8836L10.2506 17.2234Z" fill="#B227C1"/>
</svg>
