<svg width="32" height="32" viewBox="0 0 32 32" fill="none" xmlns="http://www.w3.org/2000/svg">
<rect x="1" y="1" width="30" height="30" rx="5" fill="white" stroke="#B227C1" stroke-width="2"/>
<path d="M25.1728 8.91101L22.4308 10.7544C21.935 11.0877 21.8966 11.8032 22.354 12.1875C22.6606 12.4452 23.1007 12.4687 23.4331 12.2453L26.1751 10.4019C26.6709 10.0686 26.7092 9.35315 26.2518 8.96879C25.9452 8.71115 25.5051 8.68759 25.1728 8.91101Z" fill="#B227C1"/>
<path d="M27.0482 14.7882L24.0472 14.8223C23.5294 14.8282 23.1317 15.2828 23.1947 15.7968C23.2486 16.2362 23.6243 16.5648 24.067 16.5598L27.0679 16.5257C27.5857 16.5198 27.9834 16.0651 27.9204 15.5512C27.8665 15.1118 27.4908 14.7831 27.0482 14.7882Z" fill="#B227C1"/>
<path d="M26.1476 21.3891L23.7885 19.5339C23.3815 19.2138 22.7866 19.3186 22.5134 19.7585C22.2799 20.1346 22.3665 20.6262 22.7144 20.8998L25.0736 22.7549C25.4806 23.075 26.0755 22.9702 26.3487 22.5303C26.5822 22.1542 26.4956 21.6627 26.1476 21.3891Z" fill="#B227C1"/>
<path d="M4.2666 13.7218V18.0649C4.2666 18.5699 4.67601 18.9793 5.18105 18.9793C7.32214 18.9793 9.4335 19.4806 11.3461 20.4429L12.7401 21.1443C14.4277 21.9934 16.2907 22.4356 18.1799 22.4356C18.6255 22.4356 18.9867 22.0744 18.9867 21.6288V10.1579C18.9867 9.71232 18.6255 9.35107 18.1799 9.35107C16.2907 9.35107 14.4277 9.79333 12.7401 10.6424L11.3461 11.3438C9.4335 12.3062 7.32214 12.8074 5.18105 12.8074C4.67601 12.8074 4.2666 13.2168 4.2666 13.7218Z" fill="#FFE200" stroke="#B227C1"/>
</svg>
