<svg width="32" height="32" viewBox="0 0 32 32" fill="none" xmlns="http://www.w3.org/2000/svg">
<rect x="1" y="1" width="30" height="30" rx="5" fill="white" stroke="#747D87" stroke-width="2"/>
<path d="M25.1716 8.91101L22.4295 10.7544C21.9337 11.0877 21.8954 11.8032 22.3528 12.1875C22.6594 12.4452 23.0995 12.4687 23.4318 12.2453L26.1739 10.4019C26.6697 10.0686 26.708 9.35315 26.2506 8.96879C25.944 8.71115 25.5039 8.68759 25.1716 8.91101Z" fill="#747D87"/>
<path d="M27.0469 14.7882L24.046 14.8223C23.5282 14.8282 23.1305 15.2828 23.1935 15.7968C23.2474 16.2362 23.6231 16.5648 24.0657 16.5598L27.0667 16.5257C27.5845 16.5198 27.9822 16.0651 27.9192 15.5512C27.8653 15.1118 27.4896 14.7831 27.0469 14.7882Z" fill="#747D87"/>
<path d="M26.1472 21.3892L23.788 19.534C23.381 19.214 22.7861 19.3187 22.5129 19.7586C22.2794 20.1347 22.366 20.6263 22.714 20.8999L25.0731 22.7551C25.4801 23.0751 26.075 22.9703 26.3482 22.5305C26.5817 22.1544 26.4951 21.6628 26.1472 21.3892Z" fill="#747D87"/>
<path d="M4.26562 13.7218V18.0649C4.26562 18.5699 4.67504 18.9793 5.18007 18.9793C7.32116 18.9793 9.43252 19.4806 11.3452 20.4429L12.7391 21.1443C14.4267 21.9934 16.2897 22.4356 18.1789 22.4356C18.6245 22.4356 18.9858 22.0744 18.9858 21.6288V10.1579C18.9858 9.71232 18.6245 9.35107 18.1789 9.35107C16.2897 9.35107 14.4267 9.79333 12.7391 10.6424L11.3452 11.3438C9.43252 12.3062 7.32116 12.8074 5.18007 12.8074C4.67504 12.8074 4.26562 13.2168 4.26562 13.7218Z" fill="#747D87" stroke="#747D87"/>
</svg>
