<svg width="34" height="34" viewBox="0 0 34 34" fill="none" xmlns="http://www.w3.org/2000/svg">
<path fill-rule="evenodd" clip-rule="evenodd" d="M26.1273 18.8633L20.1036 25.1185C18.9849 26.0742 15.1125 27.2909 12.5309 25.1185C11.4983 24.0764 11.1541 23.1207 11.1541 21.5569C11.1827 20.9198 11.0852 19.3846 10.4656 18.342L8.40036 14.6063C8.05616 13.9977 9.17484 13.0421 9.77721 13.7375L12.3588 18.0814C12.4449 18.2555 12.9612 18.2555 12.8751 17.8207L11.1541 10.8705C10.8959 10.0886 12.4449 9.22047 12.8751 10.0886L14.7683 16.9526C14.8543 17.2999 15.3707 17.5605 15.4567 16.9526V9.22047C15.3707 8.26471 17.4359 7.82951 17.522 9.22047V16.9526C17.522 17.7289 18.3174 16.9195 18.5276 16.1722L20.1896 10.2627C20.4478 9.30706 22.341 9.04642 22.0828 10.8705L20.3695 17.1604C20.2501 17.5987 20.1896 18.0509 20.1896 18.5051C20.1896 19.5852 20.703 21.1652 21.6279 20.6075C21.779 20.5164 21.9322 20.3743 22.0828 20.1668L23.4597 18.342C23.7752 17.9948 24.6472 17.3523 25.611 17.5605C26.5748 17.7687 26.3855 18.6023 26.1273 18.8633ZM19.6911 20.5821C19.8286 20.57 19.9304 20.4488 19.9183 20.3112C19.9063 20.1737 19.785 20.0719 19.6475 20.084C18.4034 20.1928 17.5493 20.9438 16.9949 21.8038C16.4428 22.6603 16.1709 23.6478 16.0879 24.3015C16.0705 24.4385 16.1675 24.5636 16.3044 24.581C16.4414 24.5984 16.5666 24.5015 16.5839 24.3645C16.6597 23.7682 16.9117 22.8557 17.4151 22.0747C17.9163 21.2973 18.6494 20.6732 19.6911 20.5821Z" fill="#747D87"/>
<rect x="1.33594" y="1.3335" width="31.3333" height="31.3333" rx="7" stroke="#747D87" stroke-width="2"/>
</svg>
