<svg width="34" height="35" viewBox="0 0 34 35" fill="none" xmlns="http://www.w3.org/2000/svg">
<path fill-rule="evenodd" clip-rule="evenodd" d="M25.8419 19.4834L19.8182 25.7386C18.6995 26.6943 14.8271 27.911 12.2455 25.7386C11.2129 24.6965 10.8687 23.7408 10.8687 22.177C10.8973 21.5399 10.7998 20.0047 10.1802 18.9621L8.11496 15.2264C7.77076 14.6179 8.88944 13.6622 9.49181 14.3576L12.0734 18.7015C12.1595 18.8756 12.6758 18.8756 12.5897 18.4408L10.8687 11.4906C10.6105 10.7087 12.1595 9.84059 12.5897 10.7087L14.4829 17.5728C14.5689 17.92 15.0853 18.1806 15.1713 17.5728V9.84059C15.0853 8.88483 17.1505 8.44962 17.2366 9.84059V17.5728C17.2366 18.349 18.032 17.5396 18.2422 16.7923L19.9042 10.8828C20.1624 9.92718 22.0556 9.66654 21.7974 11.4906L20.0841 17.7805C19.9647 18.2188 19.9042 18.671 19.9042 19.1252C19.9042 20.2053 20.4176 21.7853 21.3425 21.2276C21.4936 21.1365 21.6468 20.9944 21.7974 20.787L23.1743 18.9621C23.4898 18.6149 24.3618 17.9724 25.3256 18.1806C26.2894 18.3888 26.1001 19.2224 25.8419 19.4834ZM19.4057 21.2022C19.5432 21.1901 19.645 21.0689 19.6329 20.9313C19.6209 20.7938 19.4996 20.692 19.3621 20.7041C18.118 20.8129 17.2639 21.5639 16.7095 22.4239C16.1574 23.2804 15.8855 24.2679 15.8025 24.9216C15.7851 25.0586 15.8821 25.1837 16.019 25.2011C16.156 25.2185 16.2812 25.1216 16.2985 24.9846C16.3743 24.3884 16.6263 23.4758 17.1297 22.6948C17.6309 21.9174 18.364 21.2933 19.4057 21.2022Z" fill="#B227C1"/>
<rect x="1.05054" y="1.95361" width="31.3333" height="31.3333" rx="7" stroke="#B227C1" stroke-width="2"/>
</svg>
