<svg width="34" height="34" viewBox="0 0 34 34" fill="none" xmlns="http://www.w3.org/2000/svg">
<rect x="1.33594" y="1.3335" width="31.3333" height="31.3333" rx="7" stroke="#747D87" stroke-width="2"/>
<path fill-rule="evenodd" clip-rule="evenodd" d="M17.1836 14.3489L21.5407 12.5055C21.0873 10.6129 19.3844 9.20605 17.3528 9.20605C15.1546 9.20605 13.341 10.8533 13.0791 12.9807L17.1836 14.3489ZM21.6383 13.0876L17.64 14.7792V17.8089C19.8843 17.6612 21.659 15.7939 21.659 13.5122C21.659 13.3689 21.652 13.2273 21.6383 13.0876ZM16.7097 14.7961V17.7707C14.6567 17.4632 13.0777 15.7066 13.0471 13.5753L16.7097 14.7961Z" fill="#747D87"/>
<path fill-rule="evenodd" clip-rule="evenodd" d="M8.41679 16.2362L7.66309 11.7831L16.702 14.7961V24.9824L9.58062 23.1123L9.26212 21.2305C9.37009 21.2521 9.48161 21.2634 9.59553 21.2634C10.631 21.2634 11.4233 20.3412 11.2673 19.3176L10.9695 17.3633C10.8918 16.8533 10.5806 16.4087 10.128 16.1612C9.54204 15.8408 8.89745 15.9157 8.41679 16.2362ZM9.577 17.1687C9.21726 16.972 8.78522 17.2625 8.83178 17.6699L9.05624 19.634C9.08757 19.9081 9.3196 20.1151 9.59553 20.1151C9.92789 20.1151 10.1822 19.8191 10.1321 19.4906L9.83433 17.5363C9.81057 17.3803 9.7154 17.2444 9.577 17.1687Z" fill="#747D87"/>
<path fill-rule="evenodd" clip-rule="evenodd" d="M25.7318 15.7552L26.3271 11.1006L17.6323 14.7792V24.9617L24.8478 22.6665L25.077 20.8748C24.9294 20.8771 24.7785 20.8607 24.6273 20.8235C23.7676 20.6122 23.1999 19.7937 23.303 18.9145L23.5043 17.198C23.6361 16.0739 24.7561 15.4445 25.7318 15.7552ZM25.5779 16.9583C25.2299 16.6689 24.6977 16.8804 24.6447 17.3317L24.4435 19.0482C24.4078 19.3523 24.6042 19.6353 24.9015 19.7084C25.0139 19.7361 25.1258 19.7305 25.2274 19.6986L25.5779 16.9583Z" fill="#747D87"/>
</svg>
