<svg width="34" height="35" viewBox="0 0 34 35" fill="none" xmlns="http://www.w3.org/2000/svg">
<rect x="1.05054" y="1.95361" width="31.3333" height="31.3333" rx="7" stroke="#B227C1" stroke-width="2"/>
<path fill-rule="evenodd" clip-rule="evenodd" d="M16.8982 14.969L21.2552 13.1256C20.8019 11.233 19.099 9.82617 17.0674 9.82617C14.8692 9.82617 13.0556 11.4734 12.7937 13.6008L16.8982 14.969ZM21.3529 13.7077L17.3546 15.3993V18.4291C19.5989 18.2813 21.3736 16.414 21.3736 14.1323C21.3736 13.989 21.3666 13.8474 21.3529 13.7077ZM16.4243 15.4162V18.3908C14.3713 18.0834 12.7923 16.3267 12.7617 14.1954L16.4243 15.4162Z" fill="#B227C1"/>
<path fill-rule="evenodd" clip-rule="evenodd" d="M8.13139 16.8562L7.37769 12.4032L16.4166 15.4162V25.6024L9.29522 23.7323L8.97672 21.8505C9.08469 21.8722 9.19621 21.8835 9.31013 21.8835C10.3456 21.8835 11.1379 20.9613 10.9819 19.9376L10.6841 17.9833C10.6064 17.4733 10.2952 17.0288 9.84257 16.7813C9.25664 16.4608 8.61205 16.5357 8.13139 16.8562ZM9.2916 17.7887C8.93186 17.592 8.49982 17.8826 8.54638 18.29L8.77084 20.254C8.80217 20.5282 9.0342 20.7352 9.31013 20.7352C9.64249 20.7352 9.8968 20.4392 9.84673 20.1106L9.54893 18.1563C9.52517 18.0004 9.43 17.8644 9.2916 17.7887Z" fill="#B227C1"/>
<path fill-rule="evenodd" clip-rule="evenodd" d="M25.4464 16.3753L26.0417 11.7207L17.3469 15.3993V25.5818L24.5624 23.2866L24.7916 21.4949C24.644 21.4972 24.4931 21.4808 24.3419 21.4437C23.4822 21.2323 22.9145 20.4138 23.0176 19.5346L23.2189 17.8181C23.3507 16.694 24.4707 16.0646 25.4464 16.3753ZM25.2925 17.5784C24.9445 17.289 24.4123 17.5005 24.3593 17.9518L24.1581 19.6683C24.1224 19.9724 24.3188 20.2555 24.6161 20.3286C24.7285 20.3562 24.8404 20.3506 24.942 20.3187L25.2925 17.5784Z" fill="#B227C1"/>
</svg>
