<svg width="21" height="21" viewBox="0 0 21 21" fill="none" xmlns="http://www.w3.org/2000/svg">
<circle cx="10.5106" cy="10.6893" r="10.0182" fill="#FFE200" stroke="#B227C1" stroke-width="0.389197"/>
<path d="M15.7398 14.3249H5.58349L2.98722 10.488C1.85925 8.62626 3.16451 6.4684 4.4546 5.91769C5.53778 5.45531 6.77671 5.55725 7.16336 5.91769C8.78838 4.96963 10.2103 5.67323 10.7181 6.14354C11.8917 5.0602 13.4641 5.54158 14.1035 5.91769C14.3744 5.60172 15.4008 5.46673 16.3602 5.69221C18.6172 6.3693 19.0686 9.35978 18.3353 10.488L15.7398 14.3249Z" fill="#B227C1"/>
<path d="M6.21051 9.97192C5.66884 8.97885 5.87197 7.63972 6.04124 7.09429C4.51785 6.81216 3.78421 8.56131 4.29203 9.74622C4.69828 10.6941 6.04118 12.1725 6.66184 12.7931C7.39548 13.4139 7.62118 12.7368 7.33893 12.2853L6.21051 9.97192Z" fill="#FFE200"/>
<path d="M15.0086 9.97192C15.5503 8.97885 15.3471 7.63972 15.1779 7.09429C16.7013 6.81216 17.4349 8.56131 16.9271 9.74622C16.5208 10.6941 15.1779 12.1725 14.5573 12.7931C13.8236 13.4139 13.5979 12.7368 13.8802 12.2853L15.0086 9.97192Z" fill="#FFE200"/>
<path d="M9.75608 12.5196V7.88989C9.75608 7.81751 9.74101 7.7451 9.70501 7.6823C9.10212 6.63054 7.6071 7.22866 7.44269 7.6671C7.32862 7.97128 7.36669 8.43028 7.41525 8.71357C7.43112 8.80612 7.46195 8.89518 7.50021 8.98093L9.07899 12.5196C9.44011 13.0161 9.68085 12.7265 9.75608 12.5196Z" fill="#FFE200"/>
<path d="M11.4646 12.5196V7.88989C11.4646 7.81751 11.4797 7.7451 11.5157 7.6823C12.1186 6.63054 13.6136 7.22866 13.778 7.6671C13.8921 7.97128 13.854 8.43028 13.8055 8.71357C13.7896 8.80612 13.7587 8.89518 13.7205 8.98093L12.1417 12.5196C11.7806 13.0161 11.5399 12.7265 11.4646 12.5196Z" fill="#FFE200"/>
<path d="M5.47827 16.0824V14.7847H15.6346V16.0824H5.47827Z" fill="#B227C1"/>
</svg>
