<svg width="21" height="21" viewBox="0 0 21 21" fill="none" xmlns="http://www.w3.org/2000/svg">
<path fill-rule="evenodd" clip-rule="evenodd" d="M8.94586 11.1557C6.21517 11.1557 4.00343 8.96476 4.00343 6.25974C4.00343 3.55471 6.21517 1.36377 8.94586 1.36377C11.6765 1.36377 13.8883 3.55471 13.8883 6.25974C13.8883 8.96476 11.6765 11.1557 8.94586 11.1557ZM2.35596 18.4997C2.35596 14.8944 5.30636 11.9717 8.94586 11.9717C12.5854 11.9717 15.5358 14.8944 15.5358 18.4997H13.8883C13.8883 15.7957 11.6755 13.6037 8.94586 13.6037C6.21623 13.6037 4.00343 15.7957 4.00343 18.4997H2.35596ZM12.2408 6.25974C12.2408 8.06308 10.7663 9.52372 8.94586 9.52372C7.1254 9.52372 5.65091 8.06308 5.65091 6.25974C5.65091 4.45639 7.1254 2.99576 8.94586 2.99576C10.7663 2.99576 12.2408 4.45639 12.2408 6.25974Z" fill="#B227C1"/>
<path d="M15.7698 12.5454C18.1344 13.6004 19.6548 15.9308 19.6545 18.4997H18.0071C18.0075 16.5729 16.8671 14.8249 15.0935 14.0338L15.769 12.5454L15.7698 12.5454Z" fill="#F7DD01"/>
<path d="M15.2029 3.33276C16.9002 4.02583 18.0076 5.66509 18.0069 7.48373C18.0076 9.80467 16.2215 11.7431 13.8882 11.9537V10.3111C15.1411 10.1334 16.1305 9.16692 16.3274 7.92839C16.5243 6.68986 15.8828 5.46892 14.7457 4.91824L15.2029 3.33276V3.33276Z" fill="#F7DD01"/>
</svg>
