<svg width="30" height="31" viewBox="0 0 30 31" fill="none" xmlns="http://www.w3.org/2000/svg">
<rect x="1" y="1.80005" width="28" height="28" rx="4" stroke="#373737" stroke-width="2"/>
<path d="M23.2573 11.3029L19.4981 7.54311C19.3418 7.3868 19.1563 7.2628 18.9521 7.17819C18.7479 7.09359 18.529 7.05005 18.308 7.05005C18.087 7.05005 17.8681 7.09359 17.6639 7.17819C17.4597 7.2628 17.2742 7.3868 17.1179 7.54311L6.74305 17.9181C6.58622 18.0738 6.46188 18.2592 6.37725 18.4634C6.29261 18.6676 6.24936 18.8866 6.25001 19.1077V22.8674C6.25001 23.3137 6.42729 23.7417 6.74287 24.0572C7.05844 24.3728 7.48645 24.55 7.93273 24.55H11.6928C11.9138 24.5506 12.1328 24.5074 12.337 24.4227C12.5412 24.3381 12.7266 24.2138 12.8825 24.057L23.2573 13.6821C23.5728 13.3666 23.75 12.9387 23.75 12.4925C23.75 12.0463 23.5728 11.6184 23.2573 11.3029ZM11.5506 22.5309H8.26928V19.2498L15.3367 12.1829L18.618 15.464L11.5506 22.5309ZM20.0484 14.0338L16.767 10.7527L18.3101 9.20973L21.5914 12.4908L20.0484 14.0338Z" fill="#373737"/>
</svg>
