<svg width="18" height="19" viewBox="0 0 18 19" fill="none" xmlns="http://www.w3.org/2000/svg">
<g clip-path="url(#clip0_9_17339)">
<path fill-rule="evenodd" clip-rule="evenodd" d="M11.1218 2.5686L12.457 4.02786H15.4996C16.3055 4.02786 16.9588 4.68119 16.9588 5.48712V14.2427C16.9588 15.0486 16.3055 15.7019 15.4996 15.7019H2.36624C1.56031 15.7019 0.906982 15.0486 0.906982 14.2427V5.48712C0.906982 4.68119 1.56031 4.02786 2.36624 4.02786H5.40879L6.74402 2.5686H11.1218ZM2.36624 5.48712V14.2427H15.4996V5.48712H11.8149L10.4797 4.02786H7.38609L6.05087 5.48712H2.36624ZM5.28476 9.8649C5.28476 11.8797 6.91809 13.513 8.9329 13.513C10.9477 13.513 12.581 11.8797 12.581 9.8649C12.581 7.8501 10.9477 6.21675 8.9329 6.21675C6.91809 6.21675 5.28476 7.8501 5.28476 9.8649ZM6.74402 9.8649C6.74402 11.0738 7.72398 12.0538 8.9329 12.0538C10.1418 12.0538 11.1218 11.0738 11.1218 9.8649C11.1218 8.65597 10.1418 7.67601 8.9329 7.67601C7.72398 7.67601 6.74402 8.65597 6.74402 9.8649Z" fill="white"/>
</g>
<defs>
<clipPath id="clip0_9_17339">
<rect width="17.5111" height="17.5111" fill="white" transform="translate(0.177246 0.379639)"/>
</clipPath>
</defs>
</svg>
