<svg width="21" height="21" viewBox="0 0 21 21" fill="none" xmlns="http://www.w3.org/2000/svg">
<circle cx="10.5106" cy="10.6893" r="10.0182" fill="#FFE200" stroke="#B227C1" stroke-width="0.389197"/>
<path d="M15.7397 14.3249H5.58336L2.98709 10.488C1.85913 8.62626 3.16439 6.4684 4.45448 5.91769C5.53766 5.45531 6.77659 5.55725 7.16324 5.91769C8.78826 4.96963 10.2101 5.67323 10.718 6.14354C11.8916 5.0602 13.4639 5.54158 14.1034 5.91769C14.3742 5.60172 15.4007 5.46673 16.3601 5.69221C18.6171 6.3693 19.0685 9.35978 18.3352 10.488L15.7397 14.3249Z" fill="#B227C1"/>
<path d="M6.21045 9.97192C5.66878 8.97885 5.87191 7.63972 6.04118 7.09429C4.51779 6.81216 3.78415 8.56131 4.29197 9.74622C4.69822 10.6941 6.04112 12.1725 6.66178 12.7931C7.39542 13.4139 7.62112 12.7368 7.33887 12.2853L6.21045 9.97192Z" fill="#FFE200"/>
<path d="M15.0085 9.97192C15.5502 8.97885 15.3471 7.63972 15.1778 7.09429C16.7012 6.81216 17.4348 8.56131 16.927 9.74622C16.5208 10.6941 15.1779 12.1725 14.5572 12.7931C13.8236 13.4139 13.5979 12.7368 13.8801 12.2853L15.0085 9.97192Z" fill="#FFE200"/>
<path d="M9.75584 12.5196V7.88989C9.75584 7.81751 9.74077 7.7451 9.70477 7.6823C9.10188 6.63054 7.60686 7.22866 7.44245 7.6671C7.32838 7.97128 7.36645 8.43028 7.41501 8.71357C7.43087 8.80612 7.46171 8.89518 7.49997 8.98093L9.07875 12.5196C9.43986 13.0161 9.6806 12.7265 9.75584 12.5196Z" fill="#FFE200"/>
<path d="M11.4646 12.5196V7.88989C11.4646 7.81751 11.4797 7.7451 11.5157 7.6823C12.1186 6.63054 13.6136 7.22866 13.778 7.6671C13.8921 7.97128 13.854 8.43028 13.8055 8.71357C13.7896 8.80612 13.7587 8.89518 13.7205 8.98093L12.1417 12.5196C11.7806 13.0161 11.5399 12.7265 11.4646 12.5196Z" fill="#FFE200"/>
<path d="M5.47803 16.0824V14.7847H15.6344V16.0824H5.47803Z" fill="#B227C1"/>
</svg>
