<svg width="30" height="30" viewBox="0 0 30 30" fill="none" xmlns="http://www.w3.org/2000/svg">
<path d="M23.5994 8.35398L21.0288 10.0821C20.564 10.3946 20.5281 11.0654 20.9569 11.4257C21.2443 11.6672 21.6569 11.6893 21.9685 11.4799L24.5391 9.75172C25.0039 9.43923 25.0398 8.76848 24.611 8.40815C24.3236 8.16661 23.911 8.14452 23.5994 8.35398Z" fill="#747D87"/>
<path d="M25.3577 13.8639L22.5443 13.8959C22.0589 13.9014 21.6861 14.3276 21.7452 14.8095C21.7957 15.2214 22.1479 15.5295 22.5629 15.5248L25.3763 15.4928C25.8617 15.4873 26.2345 15.061 26.1754 14.5792C26.1249 14.1672 25.7727 13.8592 25.3577 13.8639Z" fill="#747D87"/>
<path d="M24.5137 20.0522L22.302 18.313C21.9204 18.0129 21.3627 18.1111 21.1066 18.5235C20.8877 18.8761 20.9688 19.3369 21.2951 19.5935L23.5067 21.3327C23.8883 21.6327 24.4461 21.5345 24.7022 21.1221C24.9211 20.7695 24.8399 20.3087 24.5137 20.0522Z" fill="#747D87"/>
<path d="M4 12.8642V16.9358C4 17.4093 4.38382 17.7931 4.85729 17.7931C6.86456 17.7931 8.84396 18.263 10.6371 19.1652L11.9439 19.8227C13.5261 20.6188 15.2726 21.0334 17.0437 21.0334C17.4615 21.0334 17.8001 20.6947 17.8001 20.277V9.52304C17.8001 9.10527 17.4615 8.7666 17.0437 8.7666C15.2726 8.7666 13.5261 9.18122 11.9439 9.97727L10.6371 10.6348C8.84396 11.537 6.86456 12.0069 4.85729 12.0069C4.38382 12.0069 4 12.3907 4 12.8642Z" fill="#747D87" stroke="#747D87"/>
<rect x="1" y="1" width="28" height="28" rx="5" stroke="#747D87" stroke-width="2"/>
</svg>
