<svg width="30" height="30" viewBox="0 0 30 30" fill="none" xmlns="http://www.w3.org/2000/svg">
<rect x="1" y="1" width="28" height="28" rx="5" fill="white" stroke="#B227C1" stroke-width="2"/>
<path d="M23.5994 8.35411L21.0288 10.0823C20.564 10.3948 20.5281 11.0655 20.9569 11.4258C21.2443 11.6674 21.6569 11.6895 21.9685 11.48L24.5391 9.75184C25.0039 9.43935 25.0398 8.76861 24.611 8.40827C24.3236 8.16674 23.911 8.14465 23.5994 8.35411Z" fill="#B227C1"/>
<path d="M25.3577 13.864L22.5443 13.896C22.0589 13.9015 21.6861 14.3278 21.7452 14.8096C21.7957 15.2215 22.1479 15.5296 22.5629 15.5249L25.3763 15.4929C25.8617 15.4874 26.2345 15.0611 26.1754 14.5793C26.1249 14.1674 25.7727 13.8593 25.3577 13.864Z" fill="#B227C1"/>
<path d="M24.5137 20.0523L22.302 18.3131C21.9204 18.013 21.3627 18.1113 21.1066 18.5237C20.8877 18.8762 20.9688 19.3371 21.2951 19.5936L23.5067 21.3328C23.8883 21.6329 24.4461 21.5346 24.7022 21.1222C24.9211 20.7696 24.8399 20.3088 24.5137 20.0523Z" fill="#B227C1"/>
<path d="M4 12.8643V16.9359C4 17.4094 4.38382 17.7932 4.85729 17.7932C6.86456 17.7932 8.84396 18.2631 10.6371 19.1653L11.9439 19.8228C13.5261 20.6189 15.2726 21.0335 17.0437 21.0335C17.4615 21.0335 17.8001 20.6948 17.8001 20.2771V9.52316C17.8001 9.10539 17.4615 8.76672 17.0437 8.76672C15.2726 8.76672 13.5261 9.18134 11.9439 9.97739L10.6371 10.6349C8.84396 11.5371 6.86456 12.007 4.85729 12.007C4.38382 12.007 4 12.3908 4 12.8643Z" fill="#FFE900" stroke="#B227C1"/>
</svg>
