<svg width="15" height="15" viewBox="0 0 15 15" fill="none" xmlns="http://www.w3.org/2000/svg">
<path fill-rule="evenodd" clip-rule="evenodd" d="M0.304688 1.65787C0.307466 1.25917 0.629781 0.93653 1.02848 0.93335H14.1735C14.5733 0.93335 14.8973 1.25803 14.8973 1.65787V13.3422C14.8945 13.7409 14.5722 14.0635 14.1735 14.0667H1.02848C0.628622 14.0663 0.304688 13.742 0.304688 13.3422V1.65787ZM13.438 2.3926H1.76394V12.6074L8.54366 5.82624C8.82858 5.5414 9.29043 5.5414 9.57535 5.82624L13.438 9.69619V2.3926ZM3.2232 5.31112C3.2232 6.11705 3.87653 6.77038 4.68246 6.77038C5.48838 6.77038 6.14172 6.11705 6.14172 5.31112C6.14172 4.50519 5.48838 3.85186 4.68246 3.85186C3.87653 3.85186 3.2232 4.50519 3.2232 5.31112Z" fill="white"/>
</svg>
