<svg width="32" height="33" viewBox="0 0 32 33" fill="none" xmlns="http://www.w3.org/2000/svg">
<g clip-path="url(#clip0_22_1634)">
<path d="M8.33333 12.2V28.2H3V12.2H8.33333ZM13.6667 28.2C12.9594 28.2 12.2811 27.919 11.781 27.4189C11.281 26.9188 11 26.2406 11 25.5333V12.2C11 11.4667 11.2933 10.8 11.7867 10.32L20.56 1.53333L21.9733 2.94666C22.3333 3.30666 22.56 3.79999 22.56 4.34666L22.52 4.77333L21.2533 10.8667H29.6667C30.3739 10.8667 31.0522 11.1476 31.5523 11.6477C32.0524 12.1478 32.3333 12.8261 32.3333 13.5333V16.2C32.3333 16.5467 32.2667 16.8667 32.1467 17.1733L28.12 26.5733C27.72 27.5333 26.7733 28.2 25.6667 28.2H13.6667ZM13.6667 25.5333H25.7067L29.6667 16.2V13.5333H17.9467L19.4533 6.43999L13.6667 12.24V25.5333Z" fill="#B227C1"/>
</g>
<defs>
<clipPath id="clip0_22_1634">
<rect width="32" height="32" fill="white" transform="translate(0 0.199951)"/>
</clipPath>
</defs>
</svg>
