<svg width="12" height="15" viewBox="0 0 12 15" fill="none" xmlns="http://www.w3.org/2000/svg">
<path d="M5.73782 9.161C5.10491 9.161 4.57863 8.9349 4.15897 8.4827C3.73932 8.03051 3.52949 7.48724 3.52949 6.85289V2.55143C3.52949 1.954 3.74189 1.44036 4.16668 1.01051C4.59148 0.58065 5.11313 0.365723 5.73165 0.365723C6.35016 0.365723 6.87507 0.58065 7.30639 1.01051C7.7377 1.44036 7.95335 1.954 7.95335 2.55143V6.85289C7.95335 7.48724 7.74233 8.03051 7.32027 8.4827C6.89821 8.9349 6.37073 9.161 5.73782 9.161ZM5.05074 14.634V12.186C3.66354 12.0461 2.51532 11.472 1.60607 10.4635C0.696814 9.45506 0.242188 8.25152 0.242188 6.85289H1.64104C1.64104 7.97197 2.04061 8.92203 2.83977 9.70305C3.63891 10.4841 4.6054 10.8746 5.73923 10.8746C6.87306 10.8746 7.83737 10.4832 8.63215 9.70055C9.42693 8.91787 9.82432 7.96865 9.82432 6.85289H11.2232C11.2232 8.25162 10.7685 9.45518 9.85929 10.4636C8.95004 11.472 7.80764 12.0455 6.4321 12.1842V14.634H5.05074ZM5.73451 7.56981C5.91514 7.56981 6.06199 7.4995 6.17506 7.35889C6.28814 7.21827 6.34468 7.04961 6.34468 6.85289V2.55374C6.34468 2.39366 6.28355 2.25417 6.16129 2.13527C6.03904 2.01637 5.89617 1.95692 5.73268 1.95692C5.56919 1.95692 5.42631 2.01637 5.30405 2.13527C5.1818 2.25417 5.12068 2.39366 5.12068 2.55374V6.85289C5.12068 7.04961 5.17783 7.21827 5.29213 7.35889C5.40644 7.4995 5.5539 7.56981 5.73451 7.56981Z" fill="white"/>
</svg>
