<svg width="15" height="16" viewBox="0 0 15 16" fill="none" xmlns="http://www.w3.org/2000/svg">
<ellipse cx="7.76098" cy="8" rx="6.76098" ry="7" fill="#B227C1" stroke="white" stroke-width="0.8"/>
<path fill-rule="evenodd" clip-rule="evenodd" d="M11.8172 6.76527C11.8228 6.74184 11.8244 6.71824 11.8232 6.69506C12.0094 6.62696 12.1434 6.44341 12.1434 6.2276C12.1434 5.95402 11.9285 5.73148 11.6642 5.73148C11.4 5.73148 11.185 5.95402 11.185 6.2276C11.185 6.38356 11.255 6.52272 11.3641 6.61376L10.7316 7.26858C10.5707 7.43522 10.3567 7.52698 10.1291 7.52698C9.8617 7.52698 9.60656 7.39458 9.44653 7.17282L8.42111 5.75192L8.42022 5.75082C8.50246 5.6617 8.55333 5.54128 8.55333 5.4086C8.55333 5.13502 8.33838 4.91248 8.07415 4.91248C7.80991 4.91248 7.59496 5.13502 7.59496 5.4086C7.59496 5.54537 7.64869 5.66942 7.73546 5.7592L6.70255 7.17619C6.54246 7.39584 6.28823 7.52694 6.02159 7.52694C5.79609 7.52694 5.57566 7.43194 5.41682 7.26622L4.78831 6.61058C4.89507 6.51951 4.96325 6.38167 4.96325 6.2276C4.96325 5.95402 4.7483 5.73148 4.48407 5.73148C4.21983 5.73148 4.00488 5.95402 4.00488 6.2276C4.00488 6.44933 4.14614 6.63748 4.34034 6.70083C4.33888 6.72461 4.34056 6.74886 4.34634 6.77293L4.84834 8.8598C4.87365 8.96508 4.96495 9.03898 5.06974 9.03898H8.08178H8.08294L11.095 9.02323C11.1992 9.02266 11.2899 8.94901 11.3152 8.84427L11.8172 6.76527ZM11.0377 9.54281C11.1638 9.54281 11.2659 9.64858 11.2659 9.77906V10.3461C11.2659 10.4765 11.1638 10.5823 11.0377 10.5823H5.13541C5.00939 10.5823 4.90723 10.4765 4.90723 10.3461V9.77906C4.90723 9.64858 5.00939 9.54281 5.13541 9.54281H11.0377Z" fill="white"/>
</svg>
