<svg width="24" height="25" viewBox="0 0 24 25" fill="none" xmlns="http://www.w3.org/2000/svg">
<path d="M9.33333 6.59995V0.199951L0 11.4L9.33333 22.6V16.04C16 16.04 20.6667 18.6 24 24.2C22.6667 16.2 18.6667 8.19995 9.33333 6.59995Z" fill="#B227C1"/>
<path d="M9.33333 6.59995V0.199951L0 11.4L9.33333 22.6V16.04C16 16.04 20.6667 18.6 24 24.2C22.6667 16.2 18.6667 8.19995 9.33333 6.59995Z" fill="#B227C1"/>
<path d="M9.33333 6.59995V0.199951L0 11.4L9.33333 22.6V16.04C16 16.04 20.6667 18.6 24 24.2C22.6667 16.2 18.6667 8.19995 9.33333 6.59995Z" fill="#B227C1"/>
<path d="M9.33333 6.59995V0.199951L0 11.4L9.33333 22.6V16.04C16 16.04 20.6667 18.6 24 24.2C22.6667 16.2 18.6667 8.19995 9.33333 6.59995Z" fill="#B227C1"/>
</svg>
