<svg width="37" height="37" viewBox="0 0 37 37" fill="none" xmlns="http://www.w3.org/2000/svg">
<rect x="2.14949" y="1.37104" width="33.3541" height="33.3541" rx="8.5419" transform="rotate(0.478351 2.14949 1.37104)" stroke="url(#paint0_linear_3342_27291)" stroke-width="2.44054"/>
<path d="M13.5847 22.9083C13.865 22.4037 14.4465 22.1914 14.8834 22.4341C15.3204 22.6768 15.4473 23.2826 15.167 23.7873L14.3456 25.2659C14.0653 25.7706 13.4839 25.9829 13.0469 25.7402C12.61 25.4975 12.483 24.8916 12.7634 24.387L13.5847 22.9083Z" fill="url(#paint1_linear_3342_27291)"/>
<path fill-rule="evenodd" clip-rule="evenodd" d="M27.985 21.8681C27.9275 21.7728 27.8511 21.66 27.761 21.5389C27.6267 21.3585 27.4909 21.1975 27.4059 21.1048L20.8125 18.4383C18.6224 19.1564 17.1207 19.3133 16.0064 19.0377C14.8366 18.7484 14.1671 18.0021 13.6083 17.1478L13.399 16.8279L17.4915 13.7736C17.5004 13.7675 17.5093 13.7615 17.5182 13.7556C16.7811 13.464 16.1165 13.4131 15.4499 13.4593C14.9937 13.491 14.5375 13.5679 14.0405 13.6518L14.0005 13.6586C13.4938 13.744 12.9497 13.8344 12.3614 13.876C11.8095 13.915 11.2814 13.7536 10.8335 13.4877C9.68361 12.8049 8.19584 13.3173 7.71023 14.5633L6.43767 17.8285C5.85464 19.3245 6.65187 21.0241 8.17622 21.5591C8.40127 21.6381 8.62112 21.74 8.82714 21.8616L10.1634 22.6502C10.1806 22.6109 10.1997 22.5721 10.221 22.5339L11.1724 20.8211C11.5336 20.1709 12.3535 19.9366 13.0038 20.2978C13.6041 20.6313 13.8499 21.3559 13.5997 21.9769C14.0568 21.6029 14.7137 21.5238 15.2614 21.8281C15.8976 22.1815 16.1726 22.9333 15.948 23.599C16.3887 23.3327 16.9558 23.3033 17.4382 23.5712C18.083 23.9294 18.3568 24.6969 18.1153 25.3692C18.5565 25.1009 19.1254 25.0706 19.6091 25.3393C19.9142 25.5088 20.1363 25.77 20.26 26.0694L21.3628 26.5892C21.8807 26.7649 22.2391 26.7795 22.4809 26.7268C22.7142 26.676 22.8669 26.5571 22.9749 26.398C23.1801 26.096 23.2345 25.6277 23.197 25.2077L20.0142 23.5935L20.3821 22.868L23.7715 24.5869L23.7852 24.5952C24.2573 24.8837 24.6151 24.9649 24.878 24.9508C25.134 24.9371 25.343 24.8312 25.522 24.6573C25.8363 24.3518 26.0381 23.8524 26.1353 23.3939L21.7317 21.2044L22.0938 20.476L26.7413 22.7867C27.2176 22.9413 27.5072 22.9 27.6701 22.8203C27.829 22.7426 27.9392 22.5933 27.9869 22.3718C28.0194 22.2206 28.0192 22.0459 27.985 21.8681ZM10.8777 23.0717L11.7518 23.5875C11.7959 23.5485 11.8343 23.5014 11.8646 23.4469L12.816 21.7341C12.959 21.4766 12.8662 21.1519 12.6087 21.0089C12.3512 20.8659 12.0265 20.9587 11.8835 21.2161L10.9321 22.9289C10.9066 22.9748 10.8886 23.0229 10.8777 23.0717ZM13.0807 24.3718L14.2371 25.0542L15.1272 23.4518C15.3072 23.1278 15.1905 22.7192 14.8664 22.5392C14.5424 22.3592 14.1338 22.476 13.9538 22.8L13.0807 24.3718ZM15.4493 25.7696L16.6057 26.4521L17.304 25.195C17.484 24.871 17.3672 24.4624 17.0432 24.2824C16.7191 24.1024 16.3105 24.2191 16.1306 24.5432L15.4493 25.7696ZM17.8239 27.171L18.9803 27.8534L19.4749 26.9631C19.5321 26.8601 19.5593 26.7485 19.5594 26.6385L18.4599 26.1202C18.3973 26.172 18.3432 26.236 18.3014 26.3112L17.8239 27.171ZM20.5866 28.3596C20.3846 28.3828 20.0967 28.3553 19.7055 28.2231L20.186 27.3581C20.25 27.2428 20.297 27.1228 20.3279 27.0008L20.9515 27.2947C21.0284 27.4033 21.0834 27.545 21.1007 27.6951C21.1212 27.8733 21.0854 28.0296 21.0118 28.1382C20.9455 28.2362 20.8244 28.3322 20.5866 28.3596Z" fill="url(#paint2_linear_3342_27291)"/>
<path fill-rule="evenodd" clip-rule="evenodd" d="M28.4162 13.2397L30.8939 19.8535C31.1502 20.5378 30.8033 21.3004 30.119 21.5567C29.4347 21.8131 28.6721 21.4662 28.4157 20.7819L25.9381 14.1681C25.6817 13.4838 26.0287 12.7212 26.713 12.4648C27.3973 12.2085 28.1599 12.5554 28.4162 13.2397Z" fill="url(#paint3_linear_3342_27291)"/>
<path fill-rule="evenodd" clip-rule="evenodd" d="M27.327 20.1946L20.841 17.5715L20.6987 17.6191C18.4727 18.3635 17.112 18.4724 16.2028 18.2476C15.4478 18.0609 14.9557 17.6315 14.5068 17.0166L17.9576 14.4412C19.1523 13.633 20.5528 13.8464 22.0499 14.3156C22.4122 14.4292 22.7717 14.5547 23.1307 14.6801L23.1307 14.6801L23.1543 14.6883C23.5185 14.8155 23.8833 14.9426 24.237 15.0509C24.6622 15.1811 25.0916 15.2908 25.5083 15.3396L27.327 20.1946Z" fill="url(#paint4_linear_3342_27291)"/>
<defs>
<linearGradient id="paint0_linear_3342_27291" x1="18.8368" y1="0.140625" x2="18.8368" y2="35.9352" gradientUnits="userSpaceOnUse">
<stop stop-color="#B227C1"/>
<stop offset="1" stop-color="#C531D1"/>
<stop stop-color="#B227C1"/>
</linearGradient>
<linearGradient id="paint1_linear_3342_27291" x1="14.8834" y1="22.4341" x2="13.0469" y2="25.7402" gradientUnits="userSpaceOnUse">
<stop stop-color="#B227C1"/>
<stop offset="1" stop-color="#C531D1"/>
<stop stop-color="#B227C1"/>
</linearGradient>
<linearGradient id="paint2_linear_3342_27291" x1="17.1891" y1="13.2456" x2="17.0631" y2="28.3388" gradientUnits="userSpaceOnUse">
<stop stop-color="#B227C1"/>
<stop offset="1" stop-color="#C531D1"/>
<stop stop-color="#B227C1"/>
</linearGradient>
<linearGradient id="paint3_linear_3342_27291" x1="28.4545" y1="12.391" x2="28.3774" y2="21.6306" gradientUnits="userSpaceOnUse">
<stop stop-color="#B227C1"/>
<stop offset="1" stop-color="#C531D1"/>
<stop stop-color="#B227C1"/>
</linearGradient>
<linearGradient id="paint4_linear_3342_27291" x1="20.9561" y1="13.9081" x2="20.9041" y2="20.1409" gradientUnits="userSpaceOnUse">
<stop stop-color="#B227C1"/>
<stop offset="1" stop-color="#C531D1"/>
<stop stop-color="#B227C1"/>
</linearGradient>
</defs>
</svg>
