<svg width="37" height="36" viewBox="0 0 37 36" fill="none" xmlns="http://www.w3.org/2000/svg">
<rect x="1.99209" y="1.21794" width="32.8416" height="32.8412" rx="8.45531" transform="rotate(0.478346 1.99209 1.21794)" stroke="url(#paint0_linear_3342_27328)" stroke-width="2.4158"/>
<path fill-rule="evenodd" clip-rule="evenodd" d="M19.96 23.5398C20.0132 23.1115 20.1708 22.6721 20.324 22.3517L22.5807 21.9391L26.4276 18.9223L26.3416 18.6563C26.201 18.2211 25.8626 17.6234 25.2735 17.2876C24.6526 16.9336 23.8443 16.9211 22.8977 17.4991L21.538 18.0885L21.8985 15.4204C21.9281 15.2011 21.7744 14.9993 21.5551 14.9697C21.3358 14.9401 21.134 15.0938 21.1044 15.3131L20.5538 19.3884L23.2696 18.2113L23.2945 18.1958C24.0527 17.7256 24.5517 17.7999 24.8734 17.9819L24.3766 18.348C23.9073 18.6939 23.6283 19.2405 23.6234 19.8235L23.6211 20.1049L22.2419 21.1865L19.993 21.5976C19.5628 21.6583 19.2576 21.6714 19.0432 21.6565C18.8246 21.6414 18.7297 21.5992 18.6945 21.5763L18.6911 21.5742C18.6691 21.5605 18.6456 21.546 18.6471 21.3131L19.0446 12.097L19.0447 12.0831C19.0492 11.5474 19.2316 11.3458 19.4213 11.251C19.6594 11.1321 20.0353 11.1169 20.5208 11.211C21.4764 11.3963 22.5445 11.9388 22.9501 12.146L23.0011 12.1721L28.4329 13.2088C29.7639 13.4628 30.7229 14.632 30.7116 15.987L30.6842 19.26C30.6772 20.1039 30.3102 20.8669 29.6401 21.2305C28.2219 22.0001 26.627 22.376 25.8738 22.4754L25.7866 22.4869L23.0877 24.1911L23.0317 24.1982C22.7096 23.8249 22.2151 23.6289 21.71 23.6967L19.9441 23.934C19.937 23.8129 19.9425 23.6812 19.96 23.5398ZM20.062 24.4056C20.0915 24.4625 20.1266 24.5145 20.1673 24.5615L22.3736 24.2817C22.1939 24.1872 21.9855 24.1472 21.7743 24.1756L20.062 24.4056ZM24.6633 18.737L25.2498 18.3046C25.3404 18.4138 25.4157 18.5331 25.4751 18.6509L24.1117 19.7202C24.1456 19.3302 24.3454 18.9713 24.6633 18.737Z" fill="url(#paint1_linear_3342_27328)"/>
<path fill-rule="evenodd" clip-rule="evenodd" d="M16.1488 22.338C16.2966 22.661 16.4469 23.1029 16.4929 23.532C16.5067 23.6613 16.5107 23.7823 16.5044 23.8944L14.7395 23.6272C14.2226 23.5489 13.7122 23.7485 13.3845 24.1353L13.3548 24.131L10.6846 22.382L10.5977 22.3691C9.8463 22.2571 8.25787 21.8546 6.85271 21.0614C6.18874 20.6866 5.83456 19.9177 5.84161 19.0737L5.86894 15.8008C5.88025 14.4458 6.85867 13.2927 8.1937 13.061L13.6421 12.1151L13.6935 12.0899C14.1025 11.8895 15.1795 11.3649 16.138 11.1956C16.625 11.1096 17.0006 11.1311 17.2367 11.254C17.4248 11.3519 17.6038 11.5566 17.5994 12.0922L17.5992 12.1061L17.8428 21.3276C17.8404 21.5604 17.8167 21.5746 17.7944 21.5879L17.791 21.59C17.7554 21.6122 17.6598 21.6529 17.441 21.6643C17.2264 21.6756 16.9215 21.6575 16.4923 21.5896L14.2506 21.1409L12.8876 20.0348C12.867 19.4859 12.6025 18.973 12.1635 18.638L11.423 18.0729C11.498 18.0044 11.5803 17.9436 11.6696 17.8947C11.9943 17.7167 12.4953 17.6486 13.2481 18.1331L13.2728 18.149L15.7554 19.2747L16.1213 19.8336C16.17 19.908 16.2698 19.9288 16.3442 19.8801C16.4186 19.8314 16.4395 19.7316 16.3907 19.6571L15.9167 18.9331L15.486 15.2874C15.4601 15.0676 15.2609 14.9106 15.0411 14.9365C14.8214 14.9625 14.6643 15.1617 14.6903 15.3814L15.0061 18.0551L13.6564 17.4431C12.7196 16.8494 11.9113 16.8484 11.2845 17.192C10.6899 17.5179 10.3415 18.1099 10.1937 18.5427L10.1033 18.8072L13.8993 21.8878L16.1488 22.338ZM14.6671 24.1049L16.392 24.366C16.3584 24.4343 16.3173 24.4958 16.2686 24.5501L14.0188 24.2265C14.2105 24.1165 14.4379 24.0702 14.6671 24.1049ZM11.1186 18.4484C11.0978 18.4828 11.0783 18.5173 11.0602 18.5518L12.2865 19.547C12.1949 19.3428 12.0531 19.1615 11.8704 19.0221L11.1186 18.4484Z" fill="url(#paint2_linear_3342_27328)"/>
<defs>
<linearGradient id="paint0_linear_3342_27328" x1="18.423" y1="0" x2="18.423" y2="35.257" gradientUnits="userSpaceOnUse">
<stop offset="1" stop-color="#C531D1"/>
<stop stop-color="#B227C1"/>
</linearGradient>
<linearGradient id="paint1_linear_3342_27328" x1="24.7416" y1="11.1897" x2="24.6297" y2="24.5988" gradientUnits="userSpaceOnUse">
<stop offset="1" stop-color="#C531D1"/>
<stop stop-color="#B227C1"/>
</linearGradient>
<linearGradient id="paint2_linear_3342_27328" x1="11.9181" y1="11.1038" x2="11.8062" y2="24.5129" gradientUnits="userSpaceOnUse">
<stop offset="1" stop-color="#C531D1"/>
<stop stop-color="#B227C1"/>
</linearGradient>
</defs>
</svg>
