<svg width="40" height="39" viewBox="0 0 40 39" fill="none" xmlns="http://www.w3.org/2000/svg">
<path fill-rule="evenodd" clip-rule="evenodd" d="M30.8735 22.0618L23.5631 29.4646C22.2075 30.5937 17.5362 32.0067 14.4519 29.3892C13.2199 28.1356 12.8154 26.992 12.8311 25.1263C12.872 24.3664 12.7701 22.5338 12.0351 21.2839L9.58774 16.8063C9.17971 16.0769 10.5353 14.9479 11.2531 15.7835L14.3155 20.9917C14.4173 21.2004 15.0385 21.2055 14.9394 20.6859L12.9384 12.3767C12.6357 11.4413 14.5081 10.421 15.017 11.461L17.2259 19.6691C17.3259 20.0842 17.9445 20.4003 18.0542 19.676L18.1318 10.451C18.0379 9.30988 20.5272 8.81122 20.6167 10.4716L20.5391 19.6965C20.5312 20.626 21.4968 19.6634 21.758 18.7713L23.8159 11.7416C24.1361 10.604 26.4165 10.3119 26.0876 12.4856L23.9631 19.9725C23.815 20.4943 23.7377 21.0337 23.7331 21.5761C23.7222 22.8637 24.3132 24.7448 25.4306 24.1048C25.6172 23.9979 25.8069 23.828 25.9942 23.5767L27.6691 21.4133C28.0522 21.0021 29.1079 20.2443 30.2654 20.5023C31.4229 20.7603 31.1867 21.753 30.8735 22.0618ZM23.1217 24.1489C23.3407 24.1317 23.5043 23.9403 23.4871 23.7213C23.47 23.5024 23.2786 23.3388 23.0596 23.356C21.5238 23.4764 20.4647 24.3874 19.778 25.4247C19.0951 26.4561 18.7539 27.6467 18.6459 28.4377C18.6161 28.6553 18.7684 28.8558 18.9861 28.8855C19.2037 28.9152 19.4042 28.7629 19.4339 28.5453C19.5294 27.8465 19.8375 26.7755 20.4412 25.8638C21.0408 24.958 21.9054 24.2443 23.1217 24.1489Z" fill="url(#paint0_linear_3342_27317)"/>
<rect x="1.18302" y="1.20294" width="32.908" height="32.6115" rx="8.35172" transform="matrix(0.999966 0.00827855 -0.00841945 0.999965 2.42325 2.09425)" stroke="url(#paint1_linear_3342_27317)" stroke-width="2.3862"/>
<defs>
<linearGradient id="paint0_linear_3342_27317" x1="20.4017" y1="9.41094" x2="20.224" y2="30.886" gradientUnits="userSpaceOnUse">
<stop offset="1" stop-color="#C531D1"/>
<stop stop-color="#B227C1"/>
</linearGradient>
<linearGradient id="paint1_linear_3342_27317" x1="17.6471" y1="0" x2="17.6471" y2="34.9977" gradientUnits="userSpaceOnUse">
<stop offset="1" stop-color="#C531D1"/>
<stop stop-color="#B227C1"/>
</linearGradient>
</defs>
</svg>
