<svg width="38" height="37" viewBox="0 0 38 37" fill="none" xmlns="http://www.w3.org/2000/svg">
<rect x="1.69999" y="1.69999" width="33.5998" height="33.5998" rx="5.99997" stroke="url(#paint0_linear_3342_27262)" stroke-width="2.39999"/>
<path d="M6.50972 20.7625C6.59236 20.7334 6.6118 20.6507 6.64583 20.5875C7.73953 18.8376 8.83322 17.0828 9.92692 15.3281C9.96095 15.2746 9.99012 15.2211 10.0241 15.1676C10.2137 14.9003 10.4616 14.9052 10.6366 15.1871C11.2296 16.1398 11.8227 17.0926 12.4157 18.0453C12.9455 18.8911 13.4705 19.7369 14.0003 20.5827C14.0344 20.6361 14.0635 20.6945 14.1024 20.7382C14.1899 20.8354 14.2677 20.9327 14.1948 21.0688C14.1219 21.2194 14.0003 21.2875 13.8399 21.2875C13.4559 21.2875 13.0768 21.2875 12.6928 21.2875C12.3007 21.2875 12.1046 21.4852 12.1046 21.8805C12.1046 24.311 12.1046 26.7365 12.1046 29.167C12.1046 29.6385 12.0171 29.7211 11.5407 29.7211C10.729 29.7211 9.9172 29.7211 9.10543 29.7211C8.73115 29.7211 8.61935 29.6045 8.61935 29.2302C8.61935 26.6588 8.61935 24.0922 8.61935 21.5208C8.61935 21.3264 8.5756 21.2729 8.3763 21.2778C7.92424 21.2924 7.47218 21.2778 7.01525 21.2875C6.80624 21.2875 6.63124 21.2486 6.5 21.0785V20.7528L6.50972 20.7625Z" fill="url(#paint1_linear_3342_27262)"/>
<path d="M28.3986 25.3996C28.3986 26.6828 28.3986 27.9613 28.3986 29.2445C28.3986 29.6188 28.2868 29.7355 27.9125 29.7355C27.0764 29.7355 26.2403 29.7355 25.4043 29.7355C25.0105 29.7355 24.9084 29.6285 24.9084 29.2299C24.9084 26.678 24.9084 24.1212 24.9084 21.5692C24.9084 21.365 24.8696 21.2873 24.646 21.297C24.1793 21.3164 23.7078 21.297 23.2412 21.3018C23.0662 21.3018 22.9155 21.263 22.8231 21.1025C22.7308 20.9421 22.8037 20.806 22.8912 20.6699C24.014 18.8714 25.1369 17.0729 26.2501 15.2695C26.4493 14.9438 26.741 14.8758 26.9889 15.2792C28.1264 17.1312 29.2881 18.9735 30.4401 20.8158C30.586 21.0491 30.4596 21.2824 30.1582 21.297C29.8131 21.3164 29.4728 21.297 29.1277 21.3067C28.8895 21.3116 28.5687 21.2046 28.4326 21.3505C28.3159 21.4817 28.3986 21.7977 28.3986 22.031C28.3986 23.1538 28.3986 24.2816 28.3986 25.4044V25.3996Z" fill="url(#paint2_linear_3342_27262)"/>
<path d="M16.9113 12.3577C16.9113 11.9348 16.8967 11.5119 16.9162 11.0939C16.9308 10.8557 16.8481 10.8071 16.6342 10.8216C16.3718 10.8411 16.1044 10.8216 15.8371 10.8265C15.6669 10.8265 15.526 10.7779 15.4482 10.6223C15.3704 10.4717 15.4288 10.3307 15.5211 10.2092C16.4204 9.03284 17.3196 7.8565 18.2286 6.68503C18.4231 6.43226 18.6758 6.44198 18.8703 6.69475C19.7549 7.84678 20.6348 8.99881 21.5194 10.146C21.6458 10.3112 21.6555 10.4862 21.5778 10.6515C21.5097 10.8119 21.3396 10.8314 21.1743 10.8265C20.8924 10.8216 20.6105 10.8314 20.3334 10.8265C20.1827 10.8216 20.1389 10.8605 20.1389 11.0161C20.1487 11.891 20.1389 12.766 20.1389 13.641C20.1389 14.025 20.0223 14.1465 19.6383 14.1465C18.8946 14.1465 18.1557 14.1465 17.412 14.1465C17.0183 14.1465 16.9065 14.0347 16.9065 13.6507C16.9065 13.2229 16.9065 12.7903 16.9065 12.3625L16.9113 12.3577Z" fill="url(#paint3_linear_3342_27262)"/>
<path d="M21.3162 22.5365C20.7961 22.3858 20.4607 22.0309 20.31 21.5205C20.2128 21.1851 20.2225 20.874 20.4753 20.5435C21.1363 19.6831 21.4086 18.7012 21.1363 17.6172C20.7961 16.2756 19.3718 15.3667 18.0302 15.6243C16.5525 15.9062 15.5658 17.2089 15.731 18.6477C15.8185 19.4255 16.1248 20.1012 16.6206 20.6942C16.6935 20.7817 16.7372 20.8595 16.7372 20.981C16.7372 21.817 16.3484 22.342 15.5415 22.5753C14.3943 22.9059 13.5485 23.9218 13.4513 25.0981C13.3881 25.8856 13.393 26.6779 13.4367 27.4605C13.5096 28.807 14.5207 29.7257 15.8671 29.7257H21.0926C22.4877 29.7257 23.5279 28.6903 23.5328 27.2855C23.5328 26.6779 23.5328 26.0655 23.5328 25.4578C23.5328 23.9899 22.7356 22.9399 21.3211 22.5267L21.3162 22.5365ZM16.5282 17.904C16.7664 16.9027 17.7046 16.2124 18.6865 16.3194C19.7753 16.4409 20.5433 17.2867 20.5433 18.4922C20.4704 19.3574 20.0913 20.1838 19.2212 20.7282C18.8226 20.9761 18.3997 20.9907 17.9719 20.8011C17.0143 20.3782 16.29 18.92 16.5282 17.8992V17.904ZM20.2128 22.8233C19.8628 23.3579 19.4496 23.81 18.7885 23.9558C18.2684 24.0676 17.8407 23.8926 17.4421 23.5815C17.1893 23.3823 16.9803 23.1392 16.8102 22.867C16.781 22.8232 16.7081 22.7795 16.781 22.7114C17.1504 22.3517 17.3594 21.9094 17.4323 21.3844C18.1372 21.7539 18.8226 21.7587 19.5323 21.3844C19.6246 21.8948 19.8288 22.3226 20.1788 22.6774C20.2225 22.7212 20.2711 22.7503 20.2176 22.833L20.2128 22.8233Z" fill="url(#paint4_linear_3342_27262)"/>
<defs>
<linearGradient id="paint0_linear_3342_27262" x1="18.4999" y1="0.5" x2="18.4999" y2="36.4998" gradientUnits="userSpaceOnUse">
<stop offset="1" stop-color="#C531D1"/>
<stop stop-color="#B227C1"/>
</linearGradient>
<linearGradient id="paint1_linear_3342_27262" x1="10.3618" y1="14.9713" x2="10.3618" y2="29.7211" gradientUnits="userSpaceOnUse">
<stop offset="1" stop-color="#C531D1"/>
<stop stop-color="#B227C1"/>
</linearGradient>
<linearGradient id="paint2_linear_3342_27262" x1="26.6405" y1="15.0005" x2="26.6405" y2="29.7355" gradientUnits="userSpaceOnUse">
<stop offset="1" stop-color="#C531D1"/>
<stop stop-color="#B227C1"/>
</linearGradient>
<linearGradient id="paint3_linear_3342_27262" x1="18.5196" y1="6.50024" x2="18.5196" y2="14.1465" gradientUnits="userSpaceOnUse">
<stop offset="1" stop-color="#C531D1"/>
<stop stop-color="#B227C1"/>
</linearGradient>
<linearGradient id="paint4_linear_3342_27262" x1="18.4683" y1="15.5806" x2="18.4683" y2="29.7257" gradientUnits="userSpaceOnUse">
<stop offset="1" stop-color="#C531D1"/>
<stop stop-color="#B227C1"/>
</linearGradient>
</defs>
</svg>
