<svg width="41" height="39" viewBox="0 0 41 39" fill="none" xmlns="http://www.w3.org/2000/svg">
<g filter="url(#filter0_d_3342_27240)">
<path d="M7.5 30.5C6.675 30.5 5.96875 30.2063 5.38125 29.6188C4.79375 29.0312 4.5 28.325 4.5 27.5V9.5C4.5 8.675 4.79375 7.96875 5.38125 7.38125C5.96875 6.79375 6.675 6.5 7.5 6.5H16.5L19.5 9.5H31.5C32.325 9.5 33.0313 9.79375 33.6188 10.3813C34.2063 10.9688 34.5 11.675 34.5 12.5H18.2625L15.2625 9.5H7.5V27.5L11.1 15.5H36.75L32.8875 28.3625C32.6875 29.0125 32.3188 29.5312 31.7813 29.9188C31.2438 30.3063 30.65 30.5 30 30.5H7.5ZM10.65 27.5H30L32.7 18.5H13.35L10.65 27.5Z" fill="url(#paint0_linear_3342_27240)"/>
</g>
<defs>
<filter id="filter0_d_3342_27240" x="-2.5" y="0.5" width="44" height="44" filterUnits="userSpaceOnUse" color-interpolation-filters="sRGB">
<feFlood flood-opacity="0" result="BackgroundImageFix"/>
<feColorMatrix in="SourceAlpha" type="matrix" values="0 0 0 0 0 0 0 0 0 0 0 0 0 0 0 0 0 0 127 0" result="hardAlpha"/>
<feOffset dy="4"/>
<feGaussianBlur stdDeviation="2"/>
<feComposite in2="hardAlpha" operator="out"/>
<feColorMatrix type="matrix" values="0 0 0 0 0 0 0 0 0 0 0 0 0 0 0 0 0 0 0.25 0"/>
<feBlend mode="normal" in2="BackgroundImageFix" result="effect1_dropShadow_3342_27240"/>
<feBlend mode="normal" in="SourceGraphic" in2="effect1_dropShadow_3342_27240" result="shape"/>
</filter>
<linearGradient id="paint0_linear_3342_27240" x1="20.625" y1="6.5" x2="20.625" y2="30.5" gradientUnits="userSpaceOnUse">
<stop offset="1" stop-color="#C531D1"/>
<stop stop-color="#B227C1"/>
</linearGradient>
</defs>
</svg>
