<svg width="40" height="39" viewBox="0 0 40 39" fill="none" xmlns="http://www.w3.org/2000/svg">
<rect x="1.18302" y="1.20294" width="32.908" height="32.6115" rx="8.35172" transform="matrix(0.999966 0.00827855 -0.00841945 0.999965 2.24406 1.59425)" stroke="url(#paint0_linear_3342_27246)" stroke-width="2.3862"/>
<rect x="1.18302" y="1.20294" width="32.908" height="32.6115" rx="8.35172" transform="matrix(0.999966 0.00827855 -0.00841945 0.999965 1.92179 1.59425)" stroke="url(#paint1_linear_3342_27246)" stroke-width="2.3862"/>
<path d="M7.8208 24.0614C7.8208 21.0661 10.2495 18.6395 13.2449 18.6392C14.5447 18.6391 15.8446 18.6383 17.1444 18.6358C17.3604 18.6358 17.4343 18.6708 17.4289 18.9038C17.4113 19.6568 17.4272 20.4104 17.4179 21.1634C17.4157 21.3236 17.4552 21.3662 17.6207 21.3656C19.073 21.3586 20.5258 21.3656 21.9781 21.3565C22.1759 21.3554 22.2208 21.405 22.2175 21.5949C22.2049 22.3096 22.2175 23.0242 22.2088 23.7389C22.2066 23.9002 22.2493 23.9434 22.4148 23.9423C23.8753 23.9358 25.3353 23.9423 26.7958 23.9337C26.9865 23.9326 27.0254 23.9887 27.0232 24.164C27.0134 24.8555 27.0254 25.5475 27.0145 26.239C27.0117 26.4116 27.0572 26.4553 27.2326 26.4542C28.6848 26.4467 30.1377 26.4537 31.59 26.4456C31.7752 26.4445 31.8212 26.4931 31.819 26.6727C31.8092 27.5486 31.8053 28.4252 31.8207 29.3011C31.8245 29.5368 31.7418 29.5719 31.5275 29.5714C23.9997 29.5492 16.472 29.5331 8.94426 29.5163C8.32509 29.5146 7.8208 29.0185 7.8208 28.3993L7.8208 24.0614Z" fill="url(#paint2_linear_3342_27246)"/>
<path d="M25.217 15.1401C24.9699 15.4772 24.7358 15.7917 24.5073 16.111C24.4015 16.2588 24.2744 16.3748 24.1078 16.4552C23.5839 16.7081 23.0633 16.9687 22.5399 17.2227C22.1678 17.4034 21.8225 17.3133 21.6548 16.9972C21.4932 16.6925 21.6362 16.3484 22.0017 16.1623C22.0363 16.1445 22.0713 16.1277 22.1059 16.1105C22.5788 15.8769 23.1148 15.7162 23.5066 15.3882C23.899 15.0603 24.1566 14.5711 24.4574 14.1417C24.7863 13.673 25.2154 13.3288 25.7431 13.1109C26.4534 12.8175 27.1669 12.53 27.9298 12.3849C28.1347 12.3461 28.3101 12.3682 28.4772 12.4993C29.0943 12.9815 29.7158 13.4588 30.3362 13.9373C30.4902 14.0559 30.5926 14.201 30.6102 14.3995C30.6814 15.1951 30.7614 15.9902 30.8245 16.7869C30.8497 17.1078 30.6107 17.384 30.3071 17.4277C30.0057 17.4714 29.6961 17.2702 29.6511 16.9401C29.5695 16.3473 29.5119 15.7502 29.479 15.1525C29.4632 14.8672 29.3766 14.6687 29.131 14.5063C28.8346 14.3111 28.5649 14.077 28.24 13.8256C28.303 14.2615 28.3611 14.6498 28.4148 15.0393C28.6143 16.4843 28.8998 17.9191 29.0192 19.3727C29.1053 20.4213 29.1113 21.4763 29.1458 22.5287C29.1513 22.697 29.1963 22.8372 29.2911 22.9769C29.7975 23.7234 30.2956 24.4753 30.7993 25.2235C30.9143 25.3945 30.9911 25.5714 30.9752 25.7828C30.9669 25.8885 30.9308 25.9285 30.819 25.9268C30.4206 25.9214 30.0227 25.922 29.6243 25.9268C29.5349 25.9279 29.4834 25.8972 29.4358 25.8254C28.9025 25.0228 28.3654 24.2224 27.8311 23.4208C27.744 23.2898 27.6996 23.1414 27.6952 22.9861C27.6607 21.657 27.5631 20.3307 27.5615 19.0005C27.5615 18.9099 27.5264 18.8598 27.465 18.808C27.3883 18.7432 27.3099 18.678 27.2431 18.6035C27.1231 18.4698 26.997 18.4396 26.8112 18.4833C26.2583 18.6127 25.6987 18.7179 25.1403 18.822C24.9929 18.8495 24.9397 18.9099 24.9244 19.0593C24.7852 20.3884 24.6383 21.7169 24.4898 23.0454C24.4492 23.4068 24.4432 23.4057 24.0651 23.4057C23.8387 23.4057 23.6113 23.3933 23.3861 23.4095C23.191 23.4235 23.1307 23.3302 23.1444 23.1684C23.1762 22.7784 23.2118 22.3884 23.2551 21.999C23.3877 20.8005 23.5274 19.6025 23.6573 18.404C23.7072 17.9423 23.8623 17.7524 24.3287 17.6515C24.8844 17.5318 25.4401 17.412 25.9991 17.309C26.1459 17.282 26.1306 17.233 26.0873 17.1337C25.8007 16.48 25.5168 15.8251 25.2187 15.1401H25.217Z" fill="url(#paint3_linear_3342_27246)"/>
<path d="M24.2759 10.6628C24.2644 9.77333 25.0147 9.02088 25.9326 9.00039C26.8407 8.98043 27.6211 9.73342 27.6343 10.6423C27.6474 11.5334 26.8654 12.3063 25.9529 12.3042C25.0432 12.302 24.2869 11.5619 24.2754 10.6622L24.2759 10.6628Z" fill="url(#paint4_linear_3342_27246)"/>
<defs>
<linearGradient id="paint0_linear_3342_27246" x1="17.6471" y1="0" x2="17.6471" y2="34.9977" gradientUnits="userSpaceOnUse">
<stop offset="1" stop-color="#C531D1"/>
<stop stop-color="#B227C1"/>
</linearGradient>
<linearGradient id="paint1_linear_3342_27246" x1="17.6471" y1="0" x2="17.6471" y2="34.9977" gradientUnits="userSpaceOnUse">
<stop offset="1" stop-color="#C531D1"/>
<stop stop-color="#B227C1"/>
</linearGradient>
<linearGradient id="paint2_linear_3342_27246" x1="19.8208" y1="18.6358" x2="19.8208" y2="29.5714" gradientUnits="userSpaceOnUse">
<stop offset="1" stop-color="#C531D1"/>
<stop stop-color="#B227C1"/>
</linearGradient>
<linearGradient id="paint3_linear_3342_27246" x1="26.2831" y1="12.3677" x2="26.2831" y2="25.9269" gradientUnits="userSpaceOnUse">
<stop offset="1" stop-color="#C531D1"/>
<stop stop-color="#B227C1"/>
</linearGradient>
<linearGradient id="paint4_linear_3342_27246" x1="25.9549" y1="9" x2="25.9549" y2="12.3042" gradientUnits="userSpaceOnUse">
<stop offset="1" stop-color="#C531D1"/>
<stop stop-color="#B227C1"/>
</linearGradient>
</defs>
</svg>
