<svg width="38" height="37" viewBox="0 0 38 37" fill="none" xmlns="http://www.w3.org/2000/svg">
<rect x="1.69999" y="1.69999" width="33.5998" height="33.5998" rx="5.99997" stroke="url(#paint0_linear_3342_27274)" stroke-width="2.39999"/>
<path d="M19.8922 21.8263L31.5751 15.9043L21.8931 25.3315C21.8104 25.412 21.7214 25.4857 21.6268 25.5519L21.5517 25.6045C21.1395 25.893 20.6307 26.0083 20.1345 25.9256L19.9674 25.8734C19.6246 25.7662 19.311 25.5819 19.0506 25.3346L19.0402 25.3247C18.7429 25.0423 18.5267 24.6854 18.4141 24.2912C18.3859 23.868 18.4652 23.4445 18.6445 23.0602L18.6722 23.0009C18.9525 22.4964 19.3774 22.0873 19.8922 21.8263Z" fill="url(#paint1_linear_3342_27274)"/>
<path d="M28.233 14.7288C26.2677 12.7635 23.7131 11.4953 20.9595 11.1179C18.2058 10.7405 15.4042 11.2747 12.9826 12.6388C10.5609 14.003 8.65226 16.1222 7.54796 18.6728C6.69116 20.6518 6.35511 22.8062 6.55689 24.9332C6.65386 25.9554 7.67516 26.5664 8.67235 26.3217C9.66954 26.077 10.2588 25.0665 10.2236 24.0403C10.178 22.7126 10.4263 21.3833 10.9602 20.1501C11.7419 18.3444 13.0932 16.8442 14.8075 15.8785C16.5219 14.9127 18.5052 14.5346 20.4546 14.8018C22.404 15.0689 24.2125 15.9667 25.6038 17.358L28.233 14.7288Z" fill="url(#paint2_linear_3342_27274)"/>
<path d="M29.2196 26.1789C30.3261 26.4891 31.4913 25.8398 31.62 24.6979C31.7986 23.1129 31.6908 21.5024 31.296 19.9458L27.2786 20.9817C27.495 21.8349 27.5851 22.7118 27.5491 23.5845C27.502 24.7258 28.1197 25.8704 29.2196 26.1789Z" fill="url(#paint3_linear_3342_27274)"/>
<defs>
<linearGradient id="paint0_linear_3342_27274" x1="18.4999" y1="0.5" x2="18.4999" y2="36.4998" gradientUnits="userSpaceOnUse">
<stop offset="1" stop-color="#C531D1"/>
<stop stop-color="#B227C1"/>
</linearGradient>
<linearGradient id="paint1_linear_3342_27274" x1="24.9731" y1="15.9043" x2="24.9731" y2="26.0546" gradientUnits="userSpaceOnUse">
<stop offset="1" stop-color="#C531D1"/>
<stop stop-color="#B227C1"/>
</linearGradient>
<linearGradient id="paint2_linear_3342_27274" x1="17.3665" y1="11" x2="17.3665" y2="26.7648" gradientUnits="userSpaceOnUse">
<stop offset="1" stop-color="#C531D1"/>
<stop stop-color="#B227C1"/>
</linearGradient>
<linearGradient id="paint3_linear_3342_27274" x1="29.467" y1="19.9458" x2="29.467" y2="26.7414" gradientUnits="userSpaceOnUse">
<stop offset="1" stop-color="#C531D1"/>
<stop stop-color="#B227C1"/>
</linearGradient>
</defs>
</svg>
