<svg width="34" height="34" viewBox="0 0 34 34" fill="none" xmlns="http://www.w3.org/2000/svg">
<g clip-path="url(#clip0_1_7945)">
<path d="M10.4123 12.9589L10.1523 12.8074C9.08502 12.1857 7.71491 12.6704 7.27603 13.8249L5.82881 17.632C5.42683 18.6894 5.98118 19.8695 7.05171 20.2352L7.92848 20.5348C8.05197 20.577 8.17104 20.6311 8.28398 20.6965L17.5183 26.0427C19.5321 26.8683 19.7493 25.3452 19.1899 24.7261C21.1589 25.3865 21.3528 23.8317 21.2037 22.9717C22.9937 24.045 23.665 22.3869 23.7768 21.4238C25.6787 22.043 25.6787 19.8758 24.6718 19.2567L18.9662 16.6767C15.1624 18.1215 14.0648 17.3729 13.5054 16.3409L14.7149 15.3352L15.9455 14.2L16.8405 13.4777C14.7855 12.2455 13.3911 13.0684 11.419 13.2108C11.0662 13.2363 10.7179 13.137 10.4123 12.9589Z" fill="#B227C1"/>
<path d="M23.7768 21.4238C25.6787 22.043 25.6787 19.8758 24.6718 19.2567L18.9662 16.6767C15.1624 18.1215 14.0648 17.3729 13.5054 16.3409L14.7149 15.3352L15.9455 14.2L16.8405 13.4777C14.7855 12.2455 13.3911 13.0684 11.419 13.2108C11.0662 13.2363 10.7179 13.137 10.4123 12.9589L10.1523 12.8074C9.08502 12.1857 7.71491 12.6704 7.27603 13.8249L5.82881 17.632C5.42683 18.6894 5.98118 19.8695 7.05171 20.2352L7.92848 20.5348C8.05197 20.577 8.17104 20.6311 8.28398 20.6965L17.5183 26.0427C19.5321 26.8683 19.7493 25.3452 19.1899 24.7261M23.7768 21.4238L19.7493 19.463M23.7768 21.4238C23.665 22.3869 22.9937 24.045 21.2037 22.9717M21.2037 22.9717L18.2949 21.527M21.2037 22.9717C21.3529 23.8317 21.1589 25.3865 19.1899 24.7261M19.1899 24.7261L16.7286 23.5909" stroke="white" stroke-width="0.8"/>
<rect x="11.2064" y="18.9116" width="1.71195" height="3.39364" rx="0.855974" transform="rotate(28.5732 11.2064 18.9116)" fill="#B227C1" stroke="white" stroke-width="0.6"/>
<rect x="13.0499" y="20.1662" width="1.94853" height="4.01065" rx="0.974265" transform="rotate(28.5732 13.0499 20.1662)" fill="#B227C1" stroke="white" stroke-width="0.6"/>
<rect x="14.9291" y="21.6335" width="1.94853" height="3.29641" rx="0.974265" transform="rotate(28.5732 14.9291 21.6335)" fill="#B227C1" stroke="white" stroke-width="0.6"/>
<rect x="16.8055" y="23.1445" width="1.94853" height="2.84451" rx="0.974265" transform="rotate(28.5732 16.8055 23.1445)" fill="#B227C1" stroke="white" stroke-width="0.6"/>
<path d="M23.4259 14.3693C21.5167 14.6092 18.4378 12.0999 16.1065 13.7147L12.8894 16.1578C13.8206 17.5556 14.9539 18.3576 18.8003 17.0355L24.6672 19.3514C24.8242 19.504 25.3019 20.0737 25.3991 20.3789L26.0385 20.2L23.4259 14.3693Z" fill="#B227C1" stroke="white" stroke-width="0.8"/>
<rect x="22.3667" y="12.4673" width="2.86775" height="8.92968" rx="1.43388" transform="rotate(-21.0153 22.3667 12.4673)" fill="#B227C1" stroke="white" stroke-width="0.8"/>
<circle cx="16.6837" cy="16.9264" r="14.5605" stroke="#B227C1" stroke-width="1.6"/>
</g>
<defs>
<clipPath id="clip0_1_7945">
<rect width="33.5137" height="33.5137" fill="white" transform="translate(0.206055 0.44873)"/>
</clipPath>
</defs>
</svg>
