<svg width="44" height="44" viewBox="0 0 44 44" fill="none" xmlns="http://www.w3.org/2000/svg">
<path d="M13.5455 16.5094L12.4204 15.854C11.3532 15.2322 9.98306 15.7169 9.54418 16.8714L7.1518 23.1648C6.74982 24.2223 7.30418 25.4023 8.3747 25.7681L10.1966 26.3905C10.3201 26.4327 10.4392 26.4869 10.5521 26.5523L22.729 33.602C25.3729 34.6859 25.658 32.6863 24.9236 31.8734C27.5087 32.7405 27.7633 30.6992 27.5675 29.5701C29.9176 30.9792 30.7989 28.8024 30.9458 27.5378C33.4428 28.3508 33.4428 25.5055 32.1208 24.6926L24.6298 21.3055C19.6359 23.2023 18.1949 22.2195 17.4605 20.8646L19.0483 19.5442L20.664 18.0538L21.8391 17.1054C19.0827 15.4528 17.2316 16.6161 14.552 16.766C14.1989 16.7857 13.8511 16.6875 13.5455 16.5094Z" fill="#747D87"/>
<path d="M30.9458 27.5378C33.4428 28.3508 33.4428 25.5055 32.1208 24.6926L24.6298 21.3055C19.6359 23.2023 18.1949 22.2195 17.4605 20.8646L19.0483 19.5442L20.664 18.0538L21.8391 17.1054C19.0827 15.4528 17.2316 16.6161 14.552 16.766C14.1989 16.7857 13.8511 16.6875 13.5455 16.5094L12.4204 15.854C11.3532 15.2322 9.98306 15.7169 9.54418 16.8714L7.1518 23.1648C6.74982 24.2223 7.30418 25.4023 8.3747 25.7681L10.1966 26.3905C10.3201 26.4327 10.4392 26.4869 10.5521 26.5523L22.729 33.602C25.3729 34.6859 25.658 32.6863 24.9236 31.8734M30.9458 27.5378L25.658 24.9636M30.9458 27.5378C30.7989 28.8024 29.9176 30.9792 27.5675 29.5701M27.5675 29.5701L23.7486 27.6733M27.5675 29.5701C27.7633 30.6992 27.5087 32.7405 24.9236 31.8734M24.9236 31.8734L21.6922 30.383" stroke="white" stroke-width="0.8"/>
<rect x="14.4046" y="24.1123" width="2.43535" height="4.64323" rx="1.21767" transform="rotate(28.5732 14.4046 24.1123)" fill="#747D87" stroke="white" stroke-width="0.6"/>
<rect x="16.8251" y="25.7595" width="2.74595" height="5.4533" rx="1.37298" transform="rotate(28.5732 16.8251 25.7595)" fill="#747D87" stroke="white" stroke-width="0.6"/>
<rect x="19.2923" y="27.6859" width="2.74595" height="4.51559" rx="1.37298" transform="rotate(28.5732 19.2923 27.6859)" fill="#747D87" stroke="white" stroke-width="0.6"/>
<rect x="21.7557" y="29.6696" width="2.74595" height="3.92228" rx="1.37298" transform="rotate(28.5732 21.7557 29.6696)" fill="#747D87" stroke="white" stroke-width="0.6"/>
<path d="M30.4851 18.276C27.9786 18.5909 23.9362 15.2965 20.8756 17.4166L16.6519 20.6241C17.8743 22.4593 19.3623 23.5122 24.4122 21.7764L32.1149 24.817C32.321 25.0173 32.9481 25.7653 33.0758 26.166L33.9153 25.931L30.4851 18.276Z" fill="#747D87" stroke="white" stroke-width="0.8"/>
<rect x="28.9329" y="15.7068" width="4.01538" height="11.974" rx="2.00769" transform="rotate(-21.0153 28.9329 15.7068)" fill="#747D87" stroke="white" stroke-width="0.8"/>
<circle cx="21.6335" cy="21.6333" r="19.3667" stroke="#747D87" stroke-width="1.6"/>
</svg>
