<svg width="44" height="44" viewBox="0 0 44 44" fill="none" xmlns="http://www.w3.org/2000/svg">
<path d="M41.3668 22C41.3668 32.6959 32.6961 41.3667 22.0002 41.3667C11.3042 41.3667 2.6335 32.6959 2.6335 22C2.6335 11.3041 11.3042 2.63334 22.0002 2.63334C32.6961 2.63334 41.3668 11.3041 41.3668 22Z" stroke="#747D87" stroke-width="1.6"/>
<path d="M27.5002 16.9649L35.0271 18.3364C35.9778 18.5097 36.6686 19.3378 36.6686 20.304V26.2153C36.6686 26.806 36.414 27.3769 35.9211 27.7025C34.1068 28.9009 31.8266 29.4729 30.802 29.6169L27.7298 31.5928L24.0797 32.0868C23.0414 31.2964 23.6471 29.4776 24.0797 28.667C22.0264 28.9759 22.002 28.4095 22.002 27.8947L22.3686 17.34C22.3686 14.3995 26.5835 16.5062 27.5002 16.9649Z" fill="#747D87"/>
<path d="M24.0797 28.667C22.0264 28.9759 22.002 28.4095 22.002 27.8947L22.3686 17.34C22.3686 14.3995 26.5835 16.5062 27.5002 16.9649L35.0271 18.3364C35.9778 18.5097 36.6686 19.3378 36.6686 20.304V26.2153C36.6686 26.806 36.414 27.3769 35.9211 27.7025C34.1068 28.9009 31.8266 29.4729 30.802 29.6169L27.7298 31.5928L24.0797 32.0868C23.0414 31.2964 23.6471 29.4776 24.0797 28.667ZM24.0797 28.667L26.7686 28.1521L30.802 24.9343C30.5168 24.0762 29.4575 22.669 27.502 23.9046L25.1797 24.9343L25.6686 21.0729" stroke="white" stroke-width="0.7" stroke-linecap="round"/>
<path d="M14.2083 25.2083L13.75 23.8333" stroke="white" stroke-width="0.3" stroke-linecap="round"/>
<path d="M23.835 31.1701L26.3298 30.8137C26.7559 30.7529 27.1731 30.9715 27.3656 31.3565L27.5016 31.6285" stroke="white" stroke-width="0.3" stroke-linecap="round"/>
<path d="M16.5 29.7917V28.4167" stroke="white" stroke-width="0.3" stroke-linecap="round"/>
<path d="M16.5018 16.9649L8.97481 18.3364C8.02418 18.5097 7.33333 19.3378 7.33333 20.304V26.2153C7.33333 26.806 7.58795 27.3769 8.08084 27.7025C9.89511 28.9009 12.1754 29.4729 13.2 29.6169L16.2722 31.5928L19.9222 32.0868C20.9606 31.2964 20.3549 29.4776 19.9222 28.667C21.9756 28.9759 22 28.4095 22 27.8947L21.6333 17.34C21.6333 14.3995 17.4185 16.5062 16.5018 16.9649Z" fill="#747D87"/>
<path d="M19.9222 28.667C21.9756 28.9759 22 28.4095 22 27.8947L21.6333 17.34C21.6333 14.3995 17.4185 16.5062 16.5018 16.9649L8.97481 18.3364C8.02418 18.5097 7.33333 19.3378 7.33333 20.304V26.2153C7.33333 26.806 7.58795 27.3769 8.08084 27.7025C9.89511 28.9009 12.1754 29.4729 13.2 29.6169L16.2722 31.5928L19.9222 32.0868C20.9606 31.2964 20.3549 29.4776 19.9222 28.667ZM19.9222 28.667L17.2333 28.1521L13.2 24.9343C13.4852 24.0762 14.5444 22.669 16.5 23.9046L18.8222 24.9343L18.3333 21.0729" stroke="white" stroke-width="0.7" stroke-linecap="round"/>
<path d="M18.7918 24.7535L19.7085 26.1285" stroke="white" stroke-width="0.2" stroke-linecap="round"/>
<path d="M20.1665 31.1701L17.6717 30.8137C17.2456 30.7529 16.8283 30.9715 16.6358 31.3565L16.4998 31.6285" stroke="white" stroke-width="0.3" stroke-linecap="round"/>
<path d="M15.349 26.7408L15.4282 26.3317C15.4879 26.0227 15.3987 25.7036 15.1873 25.4703L13.9842 24.1427" stroke="white" stroke-width="0.3" stroke-linecap="round"/>
<path d="M28.4165 26.5833V25.7083C28.4165 25.3936 28.5647 25.0972 28.8165 24.9083L30.2498 23.8333" stroke="white" stroke-width="0.3" stroke-linecap="round"/>
</svg>
