<svg width="34" height="34" viewBox="0 0 34 34" fill="none" xmlns="http://www.w3.org/2000/svg">
<path d="M31.7886 17.2057C31.7886 25.2472 25.2696 31.7661 17.2281 31.7661C9.18661 31.7661 2.66768 25.2472 2.66768 17.2057C2.66768 9.16415 9.18661 2.64521 17.2281 2.64521C25.2696 2.64521 31.7886 9.16415 31.7886 17.2057Z" stroke="#B227C1" stroke-width="1.6"/>
<path d="M21.4173 13.3705L26.7593 14.3439C27.7099 14.5171 28.4007 15.3452 28.4007 16.3115V20.1943C28.4007 20.785 28.1469 21.3584 27.6442 21.6686C26.2962 22.5001 24.6778 22.9025 23.9322 23.0073L21.5922 24.5123L18.8121 24.8885C18.0212 24.2865 18.4826 22.9011 18.8121 22.2837C17.2481 22.519 17.2295 22.0876 17.2295 21.6955L17.5088 13.6563C17.5088 11.4165 20.7191 13.0211 21.4173 13.3705Z" fill="#B227C1"/>
<path d="M18.8121 22.2837C17.2481 22.519 17.2295 22.0876 17.2295 21.6955L17.5088 13.6563C17.5088 11.4165 20.7191 13.0211 21.4173 13.3705L26.7593 14.3439C27.7099 14.5171 28.4007 15.3452 28.4007 16.3115V20.1943C28.4007 20.785 28.1469 21.3584 27.6442 21.6686C26.2962 22.5001 24.6778 22.9025 23.9322 23.0073L21.5922 24.5123L18.8121 24.8885C18.0212 24.2865 18.4826 22.9011 18.8121 22.2837ZM18.8121 22.2837L20.8602 21.8916L23.9322 19.4406C23.715 18.787 22.9082 17.7152 21.4187 18.6563L19.6499 19.4406L20.0223 16.4995" stroke="white" stroke-width="0.7" stroke-linecap="round"/>
<path d="M11.2934 19.6494L10.9443 18.6021" stroke="white" stroke-width="0.3" stroke-linecap="round"/>
<path d="M18.626 24.1904L20.3562 23.9432C20.7823 23.8824 21.1995 24.101 21.392 24.486L21.4188 24.5395" stroke="white" stroke-width="0.3" stroke-linecap="round"/>
<path d="M13.0391 23.1403V22.093" stroke="white" stroke-width="0.3" stroke-linecap="round"/>
<path d="M13.0402 13.3705L7.69826 14.3439C6.74763 14.5171 6.05679 15.3452 6.05679 16.3115V20.1943C6.05679 20.785 6.3106 21.3584 6.81333 21.6686C8.16128 22.5001 9.7797 22.9025 10.5253 23.0073L12.8653 24.5123L15.6454 24.8885C16.4363 24.2865 15.975 22.9011 15.6454 22.2837C17.2094 22.519 17.228 22.0876 17.228 21.6955L16.9487 13.6563C16.9487 11.4165 13.7384 13.0211 13.0402 13.3705Z" fill="#B227C1"/>
<path d="M15.6454 22.2837C17.2094 22.519 17.228 22.0876 17.228 21.6955L16.9487 13.6563C16.9487 11.4165 13.7384 13.0211 13.0402 13.3705L7.69826 14.3439C6.74763 14.5171 6.05679 15.3452 6.05679 16.3115V20.1943C6.05679 20.785 6.3106 21.3584 6.81333 21.6686C8.16128 22.5001 9.7797 22.9025 10.5253 23.0073L12.8653 24.5123L15.6454 24.8885C16.4363 24.2865 15.975 22.9011 15.6454 22.2837ZM15.6454 22.2837L13.5974 21.8916L10.5253 19.4406C10.7425 18.787 11.5493 17.7152 13.0388 18.6563L14.8076 19.4406L14.4352 16.4995" stroke="white" stroke-width="0.7" stroke-linecap="round"/>
<path d="M14.7845 19.303L15.4827 20.3503" stroke="white" stroke-width="0.2" stroke-linecap="round"/>
<path d="M15.8318 24.1904L14.1016 23.9432C13.6755 23.8824 13.2582 24.101 13.0657 24.486L13.039 24.5395" stroke="white" stroke-width="0.3" stroke-linecap="round"/>
<path d="M12.1622 20.8165L12.1999 20.6219C12.2596 20.3129 12.1704 19.9938 11.959 19.7605L11.1227 18.8376" stroke="white" stroke-width="0.3" stroke-linecap="round"/>
<path d="M22.1155 20.6967V20.1494C22.1155 19.8346 22.2637 19.5382 22.5155 19.3494L23.5119 18.6021" stroke="white" stroke-width="0.3" stroke-linecap="round"/>
</svg>
