<svg width="37" height="37" viewBox="0 0 37 37" fill="none" xmlns="http://www.w3.org/2000/svg">
<circle cx="18.25" cy="18.5" r="18" fill="#B227C1"/>
<path d="M24.4989 8.00586H11.8855C9.60154 8.00586 7.75 9.85739 7.75 12.1414V24.7547C7.75 27.0387 9.60153 28.8902 11.8855 28.8902H24.4989C26.7828 28.8902 28.6344 27.0387 28.6344 24.7547V12.1414C28.6344 9.8574 26.7828 8.00586 24.4989 8.00586Z" stroke="white" stroke-width="1.44743" stroke-miterlimit="10"/>
<path d="M15.4536 13.7266C14.9822 13.4242 14.5963 13.6339 14.5943 14.194L14.5729 22.5189C14.5719 23.0789 14.9751 23.3233 15.4709 23.0616L22.5374 19.3329C23.0322 19.0712 23.0526 18.61 22.5811 18.3076L15.4536 13.7266Z" fill="white"/>
<path d="M8.05762 10.978H28.4329" stroke="white" stroke-width="0.610929" stroke-miterlimit="10"/>
<path d="M8.05762 26.0483H28.4329" stroke="white" stroke-width="0.610929" stroke-miterlimit="10"/>
<path d="M11.6743 8V10.9783" stroke="white" stroke-width="1.01822" stroke-miterlimit="10"/>
<path d="M14.9305 8V10.9783" stroke="white" stroke-width="1.01822" stroke-miterlimit="10"/>
<path d="M18.0886 8V10.9783" stroke="white" stroke-width="1.01822" stroke-miterlimit="10"/>
<path d="M21.4475 8V10.9783" stroke="white" stroke-width="1.01822" stroke-miterlimit="10"/>
<path d="M24.707 8V10.9783" stroke="white" stroke-width="1.01822" stroke-miterlimit="10"/>
<path d="M11.6743 26.022V29.0003" stroke="white" stroke-width="1.01822" stroke-miterlimit="10"/>
<path d="M14.9307 26.022V29.0003" stroke="white" stroke-width="1.01822" stroke-miterlimit="10"/>
<path d="M18.0889 26.022V29.0003" stroke="white" stroke-width="1.01822" stroke-miterlimit="10"/>
<path d="M21.4478 26.022V29.0003" stroke="white" stroke-width="1.01822" stroke-miterlimit="10"/>
<path d="M24.707 26.022V29.0003" stroke="white" stroke-width="1.01822" stroke-miterlimit="10"/>
</svg>
