<svg width="37" height="37" viewBox="0 0 37 37" fill="none" xmlns="http://www.w3.org/2000/svg">
<circle cx="18.25" cy="18.5" r="18" fill="#B227C1"/>
<path d="M17.7673 19.8589V27.0496H14.1719C13.4568 27.0496 12.7709 26.7655 12.2652 26.2598C11.7595 25.7541 11.4754 25.0683 11.4754 24.3531V20.7577C11.4754 20.5193 11.5701 20.2907 11.7387 20.1222C11.9072 19.9536 12.1359 19.8589 12.3743 19.8589H17.7673ZM24.958 19.8589C25.1964 19.8589 25.4251 19.9536 25.5936 20.1222C25.7622 20.2907 25.8569 20.5193 25.8569 20.7577V24.3531C25.8569 25.0683 25.5728 25.7541 25.0671 26.2598C24.5614 26.7655 23.8755 27.0496 23.1604 27.0496H19.565V19.8589H24.958ZM22.7109 9.07279C23.2417 9.07268 23.7639 9.20687 24.2289 9.46286C24.6938 9.71885 25.0865 10.0883 25.3702 10.5369C25.654 10.9854 25.8196 11.4985 25.8518 12.0283C25.8839 12.5581 25.7815 13.0874 25.554 13.567H25.8569C26.3337 13.567 26.7909 13.7564 27.128 14.0935C27.4652 14.4307 27.6546 14.8879 27.6546 15.3647V16.2635C27.6546 16.7403 27.4652 17.1975 27.128 17.5347C26.7909 17.8718 26.3337 18.0612 25.8569 18.0612H19.565V13.567H17.7673V18.0612H11.4754C10.9986 18.0612 10.5414 17.8718 10.2043 17.5347C9.86713 17.1975 9.67773 16.7403 9.67773 16.2635V15.3647C9.67773 14.8879 9.86713 14.4307 10.2043 14.0935C10.5414 13.7564 10.9986 13.567 11.4754 13.567H11.7783C11.5783 13.1457 11.4748 12.6851 11.4754 12.2187C11.4754 10.4813 12.8839 9.07279 14.6061 9.07279C16.1836 9.04583 17.583 10.0543 18.5439 11.71L18.6662 11.9284C19.5947 10.208 20.9672 9.12942 22.5231 9.07459L22.7109 9.07279ZM14.6214 10.8705C14.2638 10.8705 13.9208 11.0125 13.668 11.2654C13.4151 11.5182 13.2731 11.8612 13.2731 12.2187C13.2731 12.5763 13.4151 12.9193 13.668 13.1721C13.9208 13.425 14.2638 13.567 14.6214 13.567H17.4464C16.7804 11.8547 15.6946 10.8525 14.6214 10.8705ZM22.6957 10.8705C21.635 10.8525 20.5519 11.8556 19.8859 13.567H22.7109C23.0685 13.565 23.4107 13.421 23.6621 13.1667C23.9135 12.9124 24.0536 12.5687 24.0516 12.2111C24.0495 11.8535 23.9055 11.5114 23.6513 11.26C23.397 11.0086 23.0532 10.8685 22.6957 10.8705Z" fill="white"/>
</svg>
