<svg width="37" height="36" viewBox="0 0 37 36" fill="none" xmlns="http://www.w3.org/2000/svg">
<circle cx="18.25" cy="18" r="18" fill="#B227C1"/>
<path d="M27.9795 10.8922L25.1294 12.8082C24.614 13.1547 24.5742 13.8983 25.0496 14.2978C25.3683 14.5656 25.8257 14.5901 26.1712 14.3579L29.0213 12.4419C29.5366 12.0954 29.5764 11.3517 29.101 10.9522C28.7824 10.6845 28.3249 10.66 27.9795 10.8922Z" fill="white"/>
<path d="M29.9288 16.9991L26.8096 17.0346C26.2714 17.0407 25.858 17.5133 25.9235 18.0475C25.9796 18.5042 26.37 18.8458 26.8301 18.8406L29.9494 18.8051C30.4876 18.799 30.9009 18.3264 30.8354 17.7922C30.7794 17.3355 30.3889 16.9939 29.9288 16.9991Z" fill="white"/>
<path d="M28.9937 23.8629L26.5417 21.9347C26.1186 21.602 25.5002 21.7109 25.2163 22.1681C24.9736 22.559 25.0636 23.0699 25.4253 23.3544L27.8773 25.2826C28.3004 25.6153 28.9188 25.5064 29.2027 25.0491C29.4454 24.6582 29.3554 24.1473 28.9937 23.8629Z" fill="white"/>
<path d="M6.25 15.8928V20.407C6.25 20.9319 6.67554 21.3575 7.20048 21.3575C9.42595 21.3575 11.6205 21.8785 13.6085 22.8787L15.0574 23.6077C16.8115 24.4903 18.7479 24.95 20.7116 24.95C21.1747 24.95 21.5502 24.5745 21.5502 24.1113V12.1885C21.5502 11.7253 21.1747 11.3498 20.7116 11.3498C18.7479 11.3498 16.8115 11.8095 15.0574 12.6921L13.6085 13.4211C11.6205 14.4213 9.42595 14.9423 7.20048 14.9423C6.67554 14.9423 6.25 15.3678 6.25 15.8928Z" fill="white" stroke="white" stroke-width="1.1087"/>
</svg>
