<svg width="37" height="36" viewBox="0 0 37 36" fill="none" xmlns="http://www.w3.org/2000/svg">
<circle cx="18.25" cy="18" r="18" fill="#B227C1"/>
<path d="M24.2696 13.3478L22.4702 14.5575C22.1448 14.7762 22.1197 15.2457 22.4198 15.498C22.621 15.6671 22.9098 15.6825 23.1279 15.5359L24.9274 14.3262C25.2528 14.1074 25.2779 13.6379 24.9777 13.3857C24.7766 13.2166 24.4877 13.2012 24.2696 13.3478Z" fill="white"/>
<path d="M25.5004 17.2048L23.531 17.2272C23.1912 17.231 22.9302 17.5294 22.9715 17.8667C23.0069 18.155 23.2534 18.3707 23.5439 18.3674L25.5133 18.345C25.8531 18.3411 26.1141 18.0428 26.0727 17.7055C26.0374 17.4171 25.7909 17.2014 25.5004 17.2048Z" fill="white"/>
<path d="M24.9094 21.5366L23.3613 20.3191C23.0941 20.1091 22.7037 20.1778 22.5245 20.4665C22.3712 20.7133 22.428 21.0359 22.6564 21.2155L24.2046 22.4329C24.4717 22.643 24.8621 22.5742 25.0414 22.2855C25.1946 22.0387 25.1378 21.7161 24.9094 21.5366Z" fill="white"/>
<path d="M10.5499 16.505V19.3551C10.5499 19.6865 10.8186 19.9552 11.15 19.9552C12.5551 19.9552 13.9407 20.2841 15.1959 20.9157L16.1107 21.3759C17.2182 21.9332 18.4407 22.2234 19.6805 22.2234C19.973 22.2234 20.21 21.9863 20.21 21.6939V14.1662C20.21 13.8737 19.973 13.6367 19.6805 13.6367C18.4407 13.6367 17.2182 13.9269 16.1107 14.4841L15.1959 14.9444C13.9407 15.5759 12.5551 15.9049 11.15 15.9049C10.8186 15.9049 10.5499 16.1735 10.5499 16.505Z" fill="white" stroke="white" stroke-width="0.7"/>
<rect x="8.45" y="8.2" width="19.6" height="19.6" rx="3.5" stroke="white" stroke-width="1.4"/>
</svg>
