<svg width="44" height="44" viewBox="0 0 44 44" fill="none" xmlns="http://www.w3.org/2000/svg">
<path d="M26.264 33.1634L34.5466 24.5625C34.9016 24.2036 35.1619 23.0574 33.8367 22.7711C32.5115 22.4849 31.3125 23.3683 30.8786 23.8457L28.9854 26.3549C28.7783 26.6401 28.5678 26.8355 28.3599 26.9608C27.0881 27.7276 26.3823 25.5551 26.3823 24.07C26.3823 23.4454 26.4655 22.8236 26.6296 22.221L28.9854 13.5723C29.3404 11.0643 26.7373 11.4227 26.3823 12.7367L24.0832 20.9114C23.8034 21.9063 22.7616 23.0189 22.7155 21.9864C22.7147 21.9694 22.7143 21.9524 22.7143 21.9353V11.3036C22.596 9.39103 19.7562 9.98944 19.8746 11.3036V21.9353C19.7562 22.7711 19.0463 22.4128 18.928 21.9353L16.3249 12.4972C15.7333 11.3036 13.6034 12.4972 13.9584 13.5723L16.3249 23.129C16.4432 23.7268 15.7333 23.7268 15.6149 23.4873L12.0652 17.5145C11.237 16.5583 9.6988 17.8724 10.1721 18.7091L13.0118 23.8457C13.8638 25.2792 13.9979 27.3902 13.9584 28.2662C13.9584 30.4164 14.4317 31.7305 15.8516 33.1634C19.4013 36.1504 24.7258 34.4775 26.264 33.1634Z" fill="#747D87"/>
<path d="M21.0835 32.0833C21.3018 30.3646 22.524 26.8583 25.6668 26.5833" stroke="white" stroke-linecap="round"/>
<circle cx="22.0002" cy="22" r="19.3667" stroke="#747D87" stroke-width="1.6"/>
</svg>
