<svg width="34" height="34" viewBox="0 0 34 34" fill="none" xmlns="http://www.w3.org/2000/svg">
<g clip-path="url(#clip0_1_7955)">
<path d="M20.0826 25.7084L26.3913 19.1573C26.6616 18.884 26.8599 18.0109 25.8505 17.7929C24.8411 17.5749 23.9279 18.2477 23.5974 18.6114L22.1554 20.5225C21.9977 20.7398 21.8373 20.8886 21.679 20.9841C20.7103 21.5681 20.1727 19.9133 20.1727 18.7822C20.1727 18.3065 20.2361 17.8329 20.3611 17.3739L22.1554 10.7864C22.4258 8.87607 20.4431 9.14903 20.1727 10.1499L18.432 16.3389C18.2119 17.1215 17.3789 17.9693 17.3789 17.1563V9.05835C17.2888 7.60159 15.1258 8.05738 15.2159 9.05835V17.1563C15.1258 17.7929 14.5851 17.5199 14.4949 17.1563L12.5122 9.9675C12.0616 9.05835 10.4394 9.9675 10.7097 10.7864L12.5122 18.0654C12.6023 18.5208 12.0616 18.5208 11.9715 18.3384L9.26775 13.789C8.63689 13.0607 7.46529 14.0616 7.82577 14.6989L9.98874 18.6114C10.6376 19.7032 10.7398 21.3111 10.7097 21.9783C10.7097 23.6161 11.0702 24.617 12.1517 25.7084C14.8554 27.9835 18.911 26.7093 20.0826 25.7084Z" fill="#B227C1"/>
<path d="M16.1367 24.8857C16.303 23.5766 17.2339 20.906 19.6277 20.6965" stroke="white" stroke-linecap="round"/>
<circle cx="16.8351" cy="17.2057" r="14.5605" stroke="#B227C1" stroke-width="1.6"/>
</g>
<defs>
<clipPath id="clip0_1_7955">
<rect width="33.5137" height="33.5137" fill="white" transform="translate(0.078125 0.44873)"/>
</clipPath>
</defs>
</svg>
