<svg width="25" height="24" viewBox="0 0 25 24" fill="none" xmlns="http://www.w3.org/2000/svg">
<path d="M0.509722 14.7625C0.592357 14.7334 0.6118 14.6507 0.645827 14.5875C1.73953 12.8376 2.83322 11.0828 3.92692 9.32805C3.96095 9.27458 3.99012 9.22111 4.02414 9.16764C4.21372 8.90029 4.46162 8.90515 4.63661 9.18709C5.22964 10.1398 5.82267 11.0926 6.4157 12.0453C6.94553 12.8911 7.47051 13.7369 8.00035 14.5827C8.03437 14.6361 8.06354 14.6945 8.10242 14.7382C8.18992 14.8354 8.26769 14.9327 8.19478 15.0688C8.12187 15.2194 8.00035 15.2875 7.83994 15.2875C7.45593 15.2875 7.07678 15.2875 6.69277 15.2875C6.30066 15.2875 6.1046 15.4852 6.1046 15.8805C6.1046 18.311 6.1046 20.7365 6.1046 23.167C6.1046 23.6385 6.0171 23.7211 5.54074 23.7211C4.72897 23.7211 3.9172 23.7211 3.10543 23.7211C2.73115 23.7211 2.61935 23.6045 2.61935 23.2302C2.61935 20.6588 2.61935 18.0922 2.61935 15.5208C2.61935 15.3264 2.5756 15.2729 2.3763 15.2778C1.92424 15.2924 1.47218 15.2778 1.01525 15.2875C0.806236 15.2875 0.631244 15.2486 0.5 15.0785V14.7528L0.509722 14.7625Z" fill="url(#paint0_linear_3342_27264)"/>
<path d="M22.3986 19.3996C22.3986 20.6828 22.3986 21.9613 22.3986 23.2445C22.3986 23.6188 22.2868 23.7355 21.9125 23.7355C21.0764 23.7355 20.2403 23.7355 19.4043 23.7355C19.0105 23.7355 18.9084 23.6285 18.9084 23.2299C18.9084 20.678 18.9084 18.1212 18.9084 15.5692C18.9084 15.365 18.8696 15.2873 18.646 15.297C18.1793 15.3164 17.7078 15.297 17.2412 15.3018C17.0662 15.3018 16.9155 15.263 16.8231 15.1025C16.7308 14.9421 16.8037 14.806 16.8912 14.6699C18.014 12.8714 19.1369 11.0729 20.2501 9.26949C20.4493 8.94381 20.741 8.87576 20.9889 9.27921C22.1264 11.1312 23.2881 12.9735 24.4401 14.8158C24.586 15.0491 24.4596 15.2824 24.1582 15.297C23.8131 15.3164 23.4728 15.297 23.1277 15.3067C22.8895 15.3116 22.5687 15.2046 22.4326 15.3505C22.3159 15.4817 22.3986 15.7977 22.3986 16.031C22.3986 17.1538 22.3986 18.2816 22.3986 19.4044V19.3996Z" fill="url(#paint1_linear_3342_27264)"/>
<path d="M10.9113 6.35768C10.9113 5.93478 10.8967 5.51189 10.9162 5.09385C10.9308 4.85567 10.8481 4.80706 10.6342 4.82164C10.3718 4.84108 10.1044 4.82164 9.83706 4.8265C9.66693 4.8265 9.52597 4.77789 9.44819 4.62234C9.37042 4.47166 9.42875 4.33069 9.52111 4.20917C10.4204 3.03284 11.3196 1.8565 12.2286 0.685028C12.4231 0.432262 12.6758 0.441984 12.8703 0.69475C13.7549 1.84678 14.6348 2.99881 15.5194 4.14598C15.6458 4.31125 15.6555 4.48624 15.5778 4.65151C15.5097 4.81192 15.3396 4.83136 15.1743 4.8265C14.8924 4.82164 14.6105 4.83136 14.3334 4.8265C14.1827 4.82164 14.1389 4.86053 14.1389 5.01608C14.1487 5.89104 14.1389 6.766 14.1389 7.64095C14.1389 8.02496 14.0223 8.14649 13.6383 8.14649C12.8946 8.14649 12.1557 8.14649 11.412 8.14649C11.0183 8.14649 10.9065 8.03469 10.9065 7.65068C10.9065 7.22292 10.9065 6.7903 10.9065 6.36254L10.9113 6.35768Z" fill="url(#paint2_linear_3342_27264)"/>
<path d="M15.3162 16.5365C14.7961 16.3858 14.4607 16.0309 14.31 15.5205C14.2128 15.1851 14.2225 14.874 14.4753 14.5435C15.1363 13.6831 15.4086 12.7012 15.1363 11.6172C14.7961 10.2756 13.3718 9.36665 12.0302 9.62428C10.5525 9.90621 9.56577 11.2089 9.73104 12.6477C9.81854 13.4255 10.1248 14.1012 10.6206 14.6942C10.6935 14.7817 10.7372 14.8595 10.7372 14.981C10.7372 15.817 10.3484 16.342 9.54147 16.5753C8.3943 16.9059 7.5485 17.9218 7.45129 19.0981C7.38809 19.8856 7.39295 20.6779 7.4367 21.4605C7.50962 22.807 8.52068 23.7257 9.86715 23.7257H15.0926C16.4877 23.7257 17.5279 22.6903 17.5328 21.2855C17.5328 20.6779 17.5328 20.0655 17.5328 19.4578C17.5328 17.9899 16.7356 16.9399 15.3211 16.5267L15.3162 16.5365ZM10.5282 11.904C10.7664 10.9027 11.7046 10.2124 12.6865 10.3194C13.7753 10.4409 14.5433 11.2867 14.5433 12.4922C14.4704 13.3574 14.0913 14.1838 13.2212 14.7282C12.8226 14.9761 12.3997 14.9907 11.9719 14.8011C11.0143 14.3782 10.29 12.92 10.5282 11.8992V11.904ZM14.2128 16.8233C13.8628 17.3579 13.4496 17.81 12.7885 17.9558C12.2684 18.0676 11.8407 17.8926 11.4421 17.5815C11.1893 17.3823 10.9803 17.1392 10.8102 16.867C10.781 16.8232 10.7081 16.7795 10.781 16.7114C11.1504 16.3517 11.3594 15.9094 11.4323 15.3844C12.1372 15.7539 12.8226 15.7587 13.5323 15.3844C13.6246 15.8948 13.8288 16.3226 14.1788 16.6774C14.2225 16.7212 14.2711 16.7503 14.2176 16.833L14.2128 16.8233Z" fill="url(#paint3_linear_3342_27264)"/>
<defs>
<linearGradient id="paint0_linear_3342_27264" x1="4.36184" y1="8.97128" x2="4.36184" y2="23.7211" gradientUnits="userSpaceOnUse">
<stop offset="1" stop-color="#C531D1"/>
<stop stop-color="#B227C1"/>
</linearGradient>
<linearGradient id="paint1_linear_3342_27264" x1="20.6405" y1="9.00049" x2="20.6405" y2="23.7355" gradientUnits="userSpaceOnUse">
<stop offset="1" stop-color="#C531D1"/>
<stop stop-color="#B227C1"/>
</linearGradient>
<linearGradient id="paint2_linear_3342_27264" x1="12.5196" y1="0.500244" x2="12.5196" y2="8.14649" gradientUnits="userSpaceOnUse">
<stop offset="1" stop-color="#C531D1"/>
<stop stop-color="#B227C1"/>
</linearGradient>
<linearGradient id="paint3_linear_3342_27264" x1="12.4683" y1="9.58057" x2="12.4683" y2="23.7257" gradientUnits="userSpaceOnUse">
<stop offset="1" stop-color="#C531D1"/>
<stop stop-color="#B227C1"/>
</linearGradient>
</defs>
</svg>
