<svg width="33" height="25" viewBox="0 0 33 25" fill="none" xmlns="http://www.w3.org/2000/svg">
<path d="M3.5 24.5C2.675 24.5 1.96875 24.2063 1.38125 23.6188C0.79375 23.0312 0.5 22.325 0.5 21.5V3.5C0.5 2.675 0.79375 1.96875 1.38125 1.38125C1.96875 0.79375 2.675 0.5 3.5 0.5H12.5L15.5 3.5H27.5C28.325 3.5 29.0313 3.79375 29.6188 4.38125C30.2063 4.96875 30.5 5.675 30.5 6.5H14.2625L11.2625 3.5H3.5V21.5L7.1 9.5H32.75L28.8875 22.3625C28.6875 23.0125 28.3188 23.5312 27.7813 23.9188C27.2438 24.3063 26.65 24.5 26 24.5H3.5ZM6.65 21.5H26L28.7 12.5H9.35L6.65 21.5Z" fill="url(#paint0_linear_3342_27241)"/>
<defs>
<linearGradient id="paint0_linear_3342_27241" x1="16.625" y1="0.5" x2="16.625" y2="24.5" gradientUnits="userSpaceOnUse">
<stop offset="1" stop-color="#C531D1"/>
<stop stop-color="#B227C1"/>
</linearGradient>
</defs>
</svg>
