<svg width="25" height="21" viewBox="0 0 25 21" fill="none" xmlns="http://www.w3.org/2000/svg">
<path d="M0.820801 15.0614C0.820801 12.0661 3.24953 9.63947 6.24485 9.63923C7.54471 9.63913 8.84457 9.63825 10.1444 9.63577C10.3604 9.63577 10.4343 9.67083 10.4289 9.90385C10.4113 10.6568 10.4272 11.4104 10.4179 12.1634C10.4157 12.3236 10.4552 12.3662 10.6207 12.3656C12.073 12.3586 13.5258 12.3656 14.9781 12.3565C15.1759 12.3554 15.2208 12.405 15.2175 12.5949C15.2049 13.3096 15.2175 14.0242 15.2088 14.7389C15.2066 14.9002 15.2493 14.9434 15.4148 14.9423C16.8753 14.9358 18.3353 14.9423 19.7958 14.9337C19.9865 14.9326 20.0254 14.9887 20.0232 15.164C20.0134 15.8555 20.0254 16.5475 20.0145 17.239C20.0117 17.4116 20.0572 17.4553 20.2326 17.4542C21.6848 17.4467 23.1377 17.4537 24.59 17.4456C24.7752 17.4445 24.8212 17.4931 24.819 17.6727C24.8092 18.5486 24.8053 19.4252 24.8207 20.3011C24.8245 20.5368 24.7418 20.5719 24.5275 20.5714C16.9997 20.5492 9.472 20.5331 1.94426 20.5163C1.32509 20.5146 0.820801 20.0185 0.820801 19.3993L0.820801 15.0614Z" fill="url(#paint0_linear_3342_27254)"/>
<path d="M18.217 6.14012C17.9699 6.47724 17.7358 6.7917 17.5073 7.11102C17.4015 7.25882 17.2744 7.37478 17.1078 7.45515C16.5839 7.70813 16.0633 7.96865 15.5399 8.2227C15.1678 8.4034 14.8225 8.31332 14.6548 7.99724C14.4932 7.69248 14.6362 7.34835 15.0017 7.16226C15.0363 7.14446 15.0713 7.12774 15.1059 7.11048C15.5788 6.87693 16.1148 6.71619 16.5066 6.38824C16.899 6.06029 17.1566 5.57106 17.4574 5.14171C17.7863 4.67298 18.2154 4.32885 18.7431 4.11094C19.4534 3.81751 20.1669 3.53001 20.9298 3.38492C21.1347 3.34608 21.3101 3.3682 21.4772 3.49927C22.0943 3.98148 22.7158 4.45884 23.3362 4.93728C23.4902 5.05595 23.5926 5.20104 23.6102 5.39954C23.6814 6.19514 23.7614 6.9902 23.8245 7.78688C23.8497 8.10781 23.6107 8.38398 23.3071 8.42767C23.0057 8.47136 22.6961 8.27017 22.6511 7.94006C22.5695 7.34728 22.5119 6.75017 22.479 6.15253C22.4632 5.86719 22.3766 5.66869 22.131 5.50634C21.8346 5.31108 21.5649 5.07698 21.24 4.82563C21.303 5.26145 21.3611 5.64982 21.4148 6.03925C21.6143 7.48428 21.8998 8.91906 22.0192 10.3727C22.1053 11.4213 22.1113 12.4763 22.1458 13.5287C22.1513 13.697 22.1963 13.8372 22.2911 13.9769C22.7975 14.7234 23.2956 15.4753 23.7993 16.2235C23.9143 16.3945 23.9911 16.5714 23.9752 16.7828C23.9669 16.8885 23.9308 16.9285 23.819 16.9268C23.4206 16.9214 23.0227 16.922 22.6243 16.9268C22.5349 16.9279 22.4834 16.8972 22.4358 16.8254C21.9025 16.0228 21.3654 15.2224 20.8311 14.4208C20.744 14.2898 20.6996 14.1414 20.6952 13.9861C20.6607 12.657 20.5631 11.3307 20.5615 10.0005C20.5615 9.90992 20.5264 9.85975 20.465 9.80797C20.3883 9.74324 20.3099 9.67798 20.2431 9.60354C20.1231 9.46977 19.997 9.43957 19.8112 9.48326C19.2583 9.61271 18.6987 9.71789 18.1403 9.822C17.9929 9.8495 17.9397 9.90992 17.9244 10.0593C17.7852 11.3884 17.6383 12.7169 17.4898 14.0454C17.4492 14.4068 17.4432 14.4057 17.0651 14.4057C16.8387 14.4057 16.6113 14.3933 16.3861 14.4095C16.191 14.4235 16.1307 14.3302 16.1444 14.1684C16.1762 13.7784 16.2118 13.3884 16.2551 12.999C16.3877 11.8005 16.5274 10.6025 16.6573 9.40397C16.7072 8.94225 16.8623 8.75239 17.3287 8.65152C17.8844 8.53177 18.4401 8.41203 18.9991 8.30901C19.1459 8.28204 19.1306 8.23295 19.0873 8.13371C18.8007 7.47997 18.5168 6.82515 18.2187 6.14012H18.217Z" fill="url(#paint1_linear_3342_27254)"/>
<path d="M17.2759 1.66279C17.2644 0.773333 18.0147 0.0208846 18.9326 0.000387813C19.8407 -0.0195696 20.6211 0.733419 20.6343 1.64229C20.6474 2.53336 19.8654 3.30631 18.9529 3.30415C18.0432 3.30199 17.2869 2.56195 17.2754 1.66225L17.2759 1.66279Z" fill="url(#paint2_linear_3342_27254)"/>
<defs>
<linearGradient id="paint0_linear_3342_27254" x1="12.8208" y1="9.63577" x2="12.8208" y2="20.5714" gradientUnits="userSpaceOnUse">
<stop offset="1" stop-color="#C531D1"/>
<stop stop-color="#B227C1"/>
</linearGradient>
<linearGradient id="paint1_linear_3342_27254" x1="19.2831" y1="3.36768" x2="19.2831" y2="16.9269" gradientUnits="userSpaceOnUse">
<stop offset="1" stop-color="#C531D1"/>
<stop stop-color="#B227C1"/>
</linearGradient>
<linearGradient id="paint2_linear_3342_27254" x1="18.9549" y1="0" x2="18.9549" y2="3.30415" gradientUnits="userSpaceOnUse">
<stop offset="1" stop-color="#C531D1"/>
<stop stop-color="#B227C1"/>
</linearGradient>
</defs>
</svg>
