<svg width="37" height="37" viewBox="0 0 37 37" fill="none" xmlns="http://www.w3.org/2000/svg">
<circle cx="18.25" cy="18.8682" r="18" fill="#B227C1"/>
<path d="M24.1669 8.0752H12.3331C9.51879 8.0752 7.2373 10.3567 7.2373 13.171V24.5653C7.2373 27.3797 9.51879 29.6612 12.3331 29.6612H24.1669C26.9812 29.6612 29.2627 27.3797 29.2627 24.5653V13.171C29.2627 10.3567 26.9812 8.0752 24.1669 8.0752Z" fill="#B227C1" stroke="white" stroke-width="1.78355" stroke-miterlimit="10"/>
<path d="M26.016 14.5736V24.608L17.8936 24.1158L17.8811 24.115L17.8685 24.1158L9.91487 24.6078V14.5733L17.8813 14.0805L26.016 14.5736Z" stroke="white" stroke-width="0.411536"/>
<path d="M25.0046 15.1843V23.933L17.8182 23.5028L17.8058 23.5021L17.7934 23.5028L10.7569 23.9327V15.184L17.8061 14.7533L25.0046 15.1843Z" stroke="white" stroke-width="0.411536"/>
<path d="M17.7976 13.8738C13.6863 10.5039 11.3105 13.256 10.6365 15.0533V23.7308C12.9954 20.2935 16.6743 21.8774 17.7976 23.3096V13.8738Z" fill="white"/>
<path d="M18.1338 13.7814C22.2451 10.4115 24.6209 13.1636 25.2949 14.9609V23.6385C22.9359 20.2012 19.2571 21.785 18.1338 23.2172V13.7814Z" fill="white"/>
<path d="M11.6463 23.4788C12.4888 22.3836 14.7466 21.3557 17.7122 23.3103" stroke="white" stroke-width="0.168496" stroke-linecap="round"/>
<path d="M24.1997 23.4013C23.3572 22.3061 21.1836 21.2725 18.2181 23.2271" stroke="white" stroke-width="0.168496" stroke-linecap="round"/>
</svg>
