<svg width="37" height="36" viewBox="0 0 37 36" fill="none" xmlns="http://www.w3.org/2000/svg">
<circle cx="18.25" cy="18" r="18" fill="#B227C1"/>
<rect x="7.03955" y="6.78955" width="22.1074" height="22.1074" rx="3.94775" stroke="white" stroke-width="1.5791"/>
<path d="M14.2319 12.3721C13.3333 12.7271 13.1284 13.9213 13.3333 15.243" stroke="white" stroke-width="0.450357"/>
<rect width="1.55521" height="1.43629" rx="0.676178" transform="matrix(-0.909882 -0.414868 -0.414868 0.909882 15.093 12.0276)" fill="white"/>
<path fill-rule="evenodd" clip-rule="evenodd" d="M12.9363 15.0557C12.4705 15.0557 12.1259 15.4891 12.2309 15.9429L12.5837 17.4684C12.639 17.7076 12.8521 17.8771 13.0977 17.8771H14.2078C14.3871 17.8771 14.5279 17.7233 14.5122 17.5446C14.4647 17.0053 14.8897 16.5412 15.4312 16.5412H20.5487C21.0859 16.5412 21.5095 16.9985 21.4685 17.5342C21.4544 17.7191 21.6006 17.8771 21.7862 17.8771H23.0265C23.2721 17.8771 23.4851 17.7076 23.5405 17.4684L23.8933 15.9429C23.9983 15.4891 23.6537 15.0557 23.1879 15.0557H12.9363Z" fill="white"/>
<path d="M18.2185 12.4271C17.274 12.4253 16.526 11.6672 16.5273 10.7125C16.5287 9.77246 17.2873 9.01874 18.2304 9.02051C19.1744 9.02228 19.9321 9.78441 19.9304 10.7302C19.9286 11.6738 19.1669 12.4288 18.218 12.4271H18.2185Z" fill="white"/>
<path d="M21.7362 14.6321H14.6632C14.5219 13.8048 14.9616 13.2692 15.3922 12.9714C15.7042 12.7558 16.094 12.7134 16.4732 12.7134H19.9805C20.2765 12.7134 20.5796 12.7332 20.8437 12.8669C21.486 13.1921 21.7897 13.8358 21.7362 14.6321Z" fill="white"/>
<path d="M15.7813 25.9962L15.1612 17.7945C15.1325 17.4137 15.4337 17.0889 15.8155 17.0889H20.3081C20.689 17.0889 20.9899 17.4122 20.9625 17.7921L20.3719 25.9938C20.3471 26.337 20.0615 26.6028 19.7174 26.6028H16.4355C16.0923 26.6028 15.8071 26.3384 15.7813 25.9962Z" fill="white"/>
<path d="M16.0923 18.2051H20.2916V18.4675C20.2916 18.8299 19.9978 19.1237 19.6354 19.1237H16.0923V18.2051Z" fill="white"/>
<path d="M16.0925 19.9104H18.717V20.1729C18.717 20.5352 18.4233 20.829 18.0609 20.829H16.0925V19.9104Z" fill="white"/>
<path d="M16.0923 21.5508H17.4702V21.9445C17.4702 22.2344 17.2352 22.4694 16.9453 22.4694H16.0923V21.5508Z" fill="white"/>
</svg>
