<svg width="26" height="16" viewBox="0 0 26 16" fill="none" xmlns="http://www.w3.org/2000/svg">
<path d="M13.8922 10.8263L25.5751 4.9043L15.8931 14.3315C15.8104 14.412 15.7214 14.4857 15.6268 14.5519L15.5517 14.6045C15.1395 14.893 14.6307 15.0083 14.1345 14.9256L13.9674 14.8734C13.6246 14.7662 13.311 14.5819 13.0506 14.3346L13.0402 14.3247C12.7429 14.0423 12.5267 13.6854 12.4141 13.2912C12.3859 12.868 12.4652 12.4445 12.6445 12.0602L12.6722 12.0009C12.9525 11.4964 13.3774 11.0873 13.8922 10.8263Z" fill="url(#paint0_linear_3342_27280)"/>
<path d="M22.233 3.72882C20.2677 1.76346 17.7131 0.495283 14.9595 0.117908C12.2058 -0.259467 9.40422 0.274697 6.98258 1.63884C4.56094 3.00299 2.65226 5.12216 1.54796 7.6728C0.691156 9.6518 0.355111 11.8062 0.55689 13.9332C0.653858 14.9554 1.67516 15.5664 2.67235 15.3217C3.66954 15.077 4.25882 14.0665 4.22358 13.0403C4.178 11.7126 4.42627 10.3833 4.96017 9.15011C5.74194 7.34443 7.09315 5.8442 8.80751 4.87847C10.5219 3.91275 12.5052 3.53459 14.4546 3.80175C16.404 4.06891 18.2125 4.96669 19.6038 6.35803L22.233 3.72882Z" fill="url(#paint1_linear_3342_27280)"/>
<path d="M23.2196 15.1789C24.3261 15.4891 25.4913 14.8398 25.62 13.6979C25.7986 12.1129 25.6908 10.5024 25.296 8.9458L21.2786 9.98166C21.495 10.8349 21.5851 11.7118 21.5491 12.5845C21.502 13.7258 22.1197 14.8704 23.2196 15.1789Z" fill="url(#paint2_linear_3342_27280)"/>
<defs>
<linearGradient id="paint0_linear_3342_27280" x1="18.9731" y1="4.9043" x2="18.9731" y2="15.0546" gradientUnits="userSpaceOnUse">
<stop offset="1" stop-color="#C531D1"/>
<stop stop-color="#B227C1"/>
</linearGradient>
<linearGradient id="paint1_linear_3342_27280" x1="11.3665" y1="0" x2="11.3665" y2="15.7648" gradientUnits="userSpaceOnUse">
<stop offset="1" stop-color="#C531D1"/>
<stop stop-color="#B227C1"/>
</linearGradient>
<linearGradient id="paint2_linear_3342_27280" x1="23.467" y1="8.9458" x2="23.467" y2="15.7414" gradientUnits="userSpaceOnUse">
<stop offset="1" stop-color="#C531D1"/>
<stop stop-color="#B227C1"/>
</linearGradient>
</defs>
</svg>
