<svg width="34" height="34" viewBox="0 0 34 34" fill="none" xmlns="http://www.w3.org/2000/svg">
<circle cx="17.0169" cy="17.2057" r="14.5605" stroke="#B227C1" stroke-width="1.6"/>
<ellipse cx="17.0169" cy="13.7146" rx="4.18921" ry="4.18921" fill="#B227C1"/>
<path d="M16.6677 14.762L7.24194 11.6201L9.21512 23.278L16.6677 25.2351V14.762Z" fill="#B227C1" stroke="white" stroke-width="0.5" stroke-linecap="round"/>
<path d="M17.0169 14.762L26.0935 10.9219L24.5702 22.8324L17.0169 25.235V14.762Z" fill="#B227C1" stroke="white" stroke-width="0.5" stroke-linecap="round"/>
<path d="M10.5425 19.4464L10.2528 17.5452C10.2034 17.2213 10.0057 16.9389 9.71823 16.7817C8.97101 16.3731 8.07359 16.9766 8.17029 17.8228L8.38866 19.7335C8.45138 20.2823 8.91587 20.6967 9.46825 20.6967C10.1336 20.6967 10.6427 20.1042 10.5425 19.4464Z" fill="#B227C1" stroke="white" stroke-linecap="round"/>
<path d="M25.6593 19.2563L25.7869 17.5798C25.8139 17.2241 25.6692 16.877 25.3975 16.6459C24.7191 16.0691 23.6716 16.481 23.5679 17.3654L23.3721 19.0352C23.3046 19.6109 23.6763 20.1467 24.2391 20.285C24.9287 20.4546 25.6055 19.9643 25.6593 19.2563Z" fill="#B227C1" stroke="white" stroke-linecap="round"/>
</svg>
