<svg width="37" height="37" viewBox="0 0 37 37" fill="none" xmlns="http://www.w3.org/2000/svg">
<circle cx="18.25" cy="18.751" r="18" fill="#B227C1"/>
<path d="M25 15.376C24.375 15.376 23.8437 15.1572 23.4062 14.7197C22.9687 14.2822 22.75 13.751 22.75 13.126C22.75 12.501 22.9687 11.9697 23.4062 11.5322C23.8437 11.0947 24.375 10.876 25 10.876C25.625 10.876 26.1562 11.0947 26.5937 11.5322C27.0312 11.9697 27.25 12.501 27.25 13.126C27.25 13.751 27.0312 14.2822 26.5937 14.7197C26.1562 15.1572 25.625 15.376 25 15.376ZM11.5 15.376C10.875 15.376 10.3437 15.1572 9.90623 14.7197C9.46873 14.2822 9.24998 13.751 9.24998 13.126C9.24998 12.501 9.46873 11.9697 9.90623 11.5322C10.3437 11.0947 10.875 10.876 11.5 10.876C12.125 10.876 12.6562 11.0947 13.0937 11.5322C13.5312 11.9697 13.75 12.501 13.75 13.126C13.75 13.751 13.5312 14.2822 13.0937 14.7197C12.6562 15.1572 12.125 15.376 11.5 15.376ZM18.25 19.501C17.625 19.501 17.0937 19.2822 16.6562 18.8447C16.2187 18.4072 16 17.876 16 17.251C16 16.626 16.2187 16.0947 16.6562 15.6572C17.0937 15.2197 17.625 15.001 18.25 15.001C18.875 15.001 19.4062 15.2197 19.8437 15.6572C20.2812 16.0947 20.5 16.626 20.5 17.251C20.5 17.876 20.2812 18.4072 19.8437 18.8447C19.4062 19.2822 18.875 19.501 18.25 19.501ZM18.25 11.251C17.625 11.251 17.0937 11.0322 16.6562 10.5947C16.2187 10.1572 16 9.62598 16 9.00098C16 8.37598 16.2187 7.84473 16.6562 7.40723C17.0937 6.96973 17.625 6.75098 18.25 6.75098C18.875 6.75098 19.4062 6.96973 19.8437 7.40723C20.2812 7.84473 20.5 8.37598 20.5 9.00098C20.5 9.62598 20.2812 10.1572 19.8437 10.5947C19.4062 11.0322 18.875 11.251 18.25 11.251ZM18.25 30.751C17.75 30.751 17.2437 30.7135 16.7312 30.6385C16.2187 30.5635 15.725 30.4635 15.25 30.3385V24.976C15.25 24.101 15.5437 23.3447 16.1312 22.7072C16.7187 22.0697 17.425 21.751 18.25 21.751C19.075 21.751 19.7812 22.0697 20.3687 22.7072C20.9562 23.3447 21.25 24.101 21.25 24.976V30.3385C20.775 30.4635 20.2812 30.5635 19.7687 30.6385C19.2562 30.7135 18.75 30.751 18.25 30.751ZM13 29.551C12.5 29.351 12.0187 29.126 11.5562 28.876C11.0937 28.626 10.65 28.351 10.225 28.051C9.52498 27.551 8.96873 26.901 8.55623 26.101C8.14373 25.301 7.93748 24.451 7.93748 23.551C7.93748 22.901 7.86873 22.2947 7.73123 21.7322C7.59373 21.1697 7.34998 20.6385 6.99998 20.1385C6.74998 19.8135 6.28123 19.3197 5.59373 18.6572C4.90623 17.9947 4.27498 17.376 3.69998 16.801C3.42498 16.526 3.28748 16.176 3.28748 15.751C3.28748 15.326 3.42498 14.976 3.69998 14.701C3.97498 14.426 4.32498 14.2885 4.74998 14.2885C5.17498 14.2885 5.52498 14.426 5.79998 14.701L11.5375 20.1385C12.0375 20.5885 12.4062 21.1197 12.6437 21.7322C12.8812 22.3447 13 22.976 13 23.626V29.551ZM23.5 29.551V23.626C23.5 22.976 23.625 22.3385 23.875 21.7135C24.125 21.0885 24.4875 20.5635 24.9625 20.1385L30.7 14.701C31 14.426 31.3562 14.2885 31.7687 14.2885C32.1812 14.2885 32.525 14.426 32.8 14.701C33.075 14.976 33.2125 15.326 33.2125 15.751C33.2125 16.176 33.075 16.526 32.8 16.801C32.225 17.376 31.5937 17.9885 30.9062 18.6385C30.2187 19.2885 29.75 19.7885 29.5 20.1385C29.15 20.6385 28.9062 21.1697 28.7687 21.7322C28.6312 22.2947 28.5625 22.901 28.5625 23.551C28.5625 24.451 28.3562 25.3072 27.9437 26.1197C27.5312 26.9322 26.9625 27.5885 26.2375 28.0885C25.8375 28.3635 25.4062 28.626 24.9437 28.876C24.4812 29.126 24 29.351 23.5 29.551Z" fill="white"/>
</svg>
